<?xml version="1.0" encoding="UTF-8"?>
<svg xmlns="http://www.w3.org/2000/svg" xmlns:xlink="http://www.w3.org/1999/xlink" width="277.333333" height="110.666667" viewBox="0 0 277.333333 110.666667" version="1.1">
<g id="surface1">
<path style=" stroke:none;fill-rule:nonzero;fill:rgb(100%,100%,100%);fill-opacity:1;" d="M 252.285156 96.285156 L 276.285156 96.285156 L 276.285156 72.285156 L 252.285156 72.285156 Z M 252.285156 96.285156 "/>
<path style="fill:none;stroke-width:1;stroke-linecap:round;stroke-linejoin:round;stroke:rgb(0%,0%,0%);stroke-opacity:1;stroke-miterlimit:10;" d="M 242.213867 157.213867 L 260.213867 157.213867 L 260.213867 175.213867 L 242.213867 175.213867 Z M 242.213867 157.213867 " transform="matrix(1.333333,0,0,1.333333,-70.666667,-137.333333)"/>
<path style=" stroke:none;fill-rule:nonzero;fill:rgb(0%,0%,0%);fill-opacity:1;" d="M 261.488281 88.09375 L 261.488281 86.03125 L 257.761719 86.03125 L 257.761719 85.070312 L 261.675781 79.507812 L 262.550781 79.507812 L 262.550781 85.070312 L 263.71875 85.070312 L 263.71875 86.03125 L 262.550781 86.03125 L 262.550781 88.09375 Z M 261.488281 85.070312 L 261.488281 81.195312 L 258.800781 85.070312 Z M 261.488281 85.070312 "/>
<path style=" stroke:none;fill-rule:nonzero;fill:rgb(0%,0%,0%);fill-opacity:1;" d="M 264.789062 85.820312 L 265.851562 85.675781 C 265.976562 86.273438 266.175781 86.707031 266.457031 86.96875 C 266.746094 87.234375 267.105469 87.363281 267.539062 87.363281 C 268.023438 87.363281 268.433594 87.195312 268.769531 86.863281 C 269.113281 86.519531 269.289062 86.085938 269.289062 85.570312 C 269.289062 85.085938 269.128906 84.691406 268.808594 84.382812 C 268.503906 84.066406 268.105469 83.90625 267.621094 83.90625 C 267.414062 83.90625 267.164062 83.945312 266.871094 84.03125 L 266.996094 83.09375 C 267.066406 83.109375 267.121094 83.113281 267.164062 83.113281 C 267.605469 83.113281 268.007812 83 268.371094 82.757812 C 268.730469 82.523438 268.914062 82.164062 268.914062 81.675781 C 268.914062 81.289062 268.777344 80.96875 268.519531 80.71875 C 268.253906 80.46875 267.914062 80.34375 267.496094 80.34375 C 267.089844 80.34375 266.753906 80.476562 266.476562 80.738281 C 266.210938 80.988281 266.039062 81.375 265.957031 81.882812 L 264.894531 81.695312 C 265.027344 80.988281 265.320312 80.441406 265.769531 80.050781 C 266.226562 79.664062 266.792969 79.46875 267.476562 79.46875 C 267.945312 79.46875 268.378906 79.570312 268.769531 79.78125 C 269.167969 79.976562 269.476562 80.25 269.683594 80.59375 C 269.894531 80.941406 269.996094 81.3125 269.996094 81.695312 C 269.996094 82.070312 269.894531 82.414062 269.683594 82.71875 C 269.488281 83.023438 269.195312 83.269531 268.808594 83.445312 C 269.320312 83.5625 269.714844 83.800781 269.996094 84.175781 C 270.273438 84.539062 270.414062 85 270.414062 85.550781 C 270.414062 86.300781 270.132812 86.941406 269.582031 87.46875 C 269.039062 87.984375 268.351562 88.238281 267.519531 88.238281 C 266.769531 88.238281 266.144531 88.019531 265.644531 87.570312 C 265.144531 87.128906 264.855469 86.546875 264.789062 85.820312 Z M 264.789062 85.820312 "/>
<path style=" stroke:none;fill-rule:nonzero;fill:rgb(100%,100%,100%);fill-opacity:1;" d="M 228.285156 96.285156 L 252.285156 96.285156 L 252.285156 72.285156 L 228.285156 72.285156 Z M 228.285156 96.285156 "/>
<path style="fill:none;stroke-width:1;stroke-linecap:round;stroke-linejoin:round;stroke:rgb(0%,0%,0%);stroke-opacity:1;stroke-miterlimit:10;" d="M 224.213867 157.213867 L 242.213867 157.213867 L 242.213867 175.213867 L 224.213867 175.213867 Z M 224.213867 157.213867 " transform="matrix(1.333333,0,0,1.333333,-70.666667,-137.333333)"/>
<path style=" stroke:none;fill-rule:nonzero;fill:rgb(0%,0%,0%);fill-opacity:1;" d="M 234.113281 85.820312 L 235.175781 85.675781 C 235.300781 86.273438 235.5 86.707031 235.78125 86.96875 C 236.074219 87.234375 236.433594 87.363281 236.863281 87.363281 C 237.347656 87.363281 237.761719 87.195312 238.09375 86.863281 C 238.4375 86.519531 238.613281 86.085938 238.613281 85.570312 C 238.613281 85.085938 238.453125 84.691406 238.136719 84.382812 C 237.828125 84.066406 237.433594 83.90625 236.949219 83.90625 C 236.738281 83.90625 236.488281 83.945312 236.199219 84.03125 L 236.324219 83.09375 C 236.390625 83.109375 236.449219 83.113281 236.488281 83.113281 C 236.933594 83.113281 237.332031 83 237.699219 82.757812 C 238.058594 82.523438 238.238281 82.164062 238.238281 81.675781 C 238.238281 81.289062 238.105469 80.96875 237.84375 80.71875 C 237.578125 80.46875 237.238281 80.34375 236.824219 80.34375 C 236.417969 80.34375 236.078125 80.476562 235.800781 80.738281 C 235.535156 80.988281 235.363281 81.375 235.28125 81.882812 L 234.21875 81.695312 C 234.355469 80.988281 234.644531 80.441406 235.09375 80.050781 C 235.550781 79.664062 236.121094 79.46875 236.800781 79.46875 C 237.269531 79.46875 237.703125 79.570312 238.09375 79.78125 C 238.496094 79.976562 238.800781 80.25 239.011719 80.59375 C 239.21875 80.941406 239.324219 81.3125 239.324219 81.695312 C 239.324219 82.070312 239.21875 82.414062 239.011719 82.71875 C 238.8125 83.023438 238.519531 83.269531 238.136719 83.445312 C 238.644531 83.5625 239.042969 83.800781 239.324219 84.175781 C 239.597656 84.539062 239.738281 85 239.738281 85.550781 C 239.738281 86.300781 239.457031 86.941406 238.90625 87.46875 C 238.363281 87.984375 237.675781 88.238281 236.84375 88.238281 C 236.09375 88.238281 235.46875 88.019531 234.96875 87.570312 C 234.46875 87.128906 234.183594 86.546875 234.113281 85.820312 Z M 234.113281 85.820312 "/>
<path style=" stroke:none;fill-rule:nonzero;fill:rgb(0%,0%,0%);fill-opacity:1;" d="M 240.851562 80.632812 L 240.851562 79.613281 L 246.414062 79.613281 L 246.414062 80.425781 C 245.871094 81.007812 245.332031 81.789062 244.789062 82.757812 C 244.246094 83.71875 243.832031 84.710938 243.539062 85.738281 C 243.332031 86.445312 243.195312 87.234375 243.144531 88.09375 L 242.058594 88.09375 C 242.070312 87.414062 242.207031 86.601562 242.457031 85.65625 C 242.707031 84.695312 243.066406 83.773438 243.539062 82.882812 C 244.023438 82 244.527344 81.25 245.058594 80.632812 Z M 240.851562 80.632812 "/>
<path style=" stroke:none;fill-rule:nonzero;fill:rgb(100%,100%,100%);fill-opacity:1;" d="M 252.285156 72.285156 L 276.285156 72.285156 L 276.285156 48.285156 L 252.285156 48.285156 Z M 252.285156 72.285156 "/>
<path style="fill:none;stroke-width:1;stroke-linecap:round;stroke-linejoin:round;stroke:rgb(0%,0%,0%);stroke-opacity:1;stroke-miterlimit:10;" d="M 242.213867 139.213867 L 260.213867 139.213867 L 260.213867 157.213867 L 242.213867 157.213867 Z M 242.213867 139.213867 " transform="matrix(1.333333,0,0,1.333333,-70.666667,-137.333333)"/>
<path style=" stroke:none;fill-rule:nonzero;fill:rgb(0%,0%,0%);fill-opacity:1;" d="M 263.65625 63.070312 L 263.65625 64.09375 L 257.96875 64.09375 C 257.96875 63.84375 258.011719 63.601562 258.09375 63.363281 C 258.246094 62.976562 258.480469 62.59375 258.800781 62.21875 C 259.121094 61.84375 259.578125 61.414062 260.175781 60.925781 C 261.105469 60.148438 261.730469 59.539062 262.050781 59.09375 C 262.386719 58.648438 262.550781 58.226562 262.550781 57.820312 C 262.550781 57.40625 262.394531 57.0625 262.09375 56.78125 C 261.800781 56.488281 261.417969 56.34375 260.949219 56.34375 C 260.433594 56.34375 260.019531 56.5 259.71875 56.800781 C 259.410156 57.109375 259.261719 57.53125 259.261719 58.070312 L 258.175781 57.945312 C 258.246094 57.144531 258.519531 56.53125 259.011719 56.113281 C 259.496094 55.6875 260.144531 55.46875 260.96875 55.46875 C 261.785156 55.46875 262.433594 55.695312 262.90625 56.15625 C 263.390625 56.613281 263.636719 57.175781 263.636719 57.84375 C 263.636719 58.191406 263.5625 58.53125 263.425781 58.863281 C 263.285156 59.195312 263.050781 59.550781 262.71875 59.925781 C 262.394531 60.289062 261.863281 60.789062 261.113281 61.425781 C 260.472656 61.957031 260.0625 62.316406 259.886719 62.507812 C 259.703125 62.707031 259.558594 62.894531 259.449219 63.070312 Z M 263.65625 63.070312 "/>
<path style=" stroke:none;fill-rule:nonzero;fill:rgb(0%,0%,0%);fill-opacity:1;" d="M 264.789062 61.84375 L 265.894531 61.738281 C 265.976562 62.28125 266.164062 62.691406 266.457031 62.96875 C 266.757812 63.234375 267.121094 63.363281 267.539062 63.363281 C 268.050781 63.363281 268.480469 63.175781 268.832031 62.800781 C 269.191406 62.414062 269.371094 61.90625 269.371094 61.28125 C 269.371094 60.671875 269.195312 60.191406 268.851562 59.84375 C 268.519531 59.5 268.082031 59.320312 267.539062 59.320312 C 267.191406 59.320312 266.878906 59.40625 266.601562 59.570312 C 266.335938 59.726562 266.121094 59.921875 265.957031 60.15625 L 264.976562 60.03125 L 265.808594 55.613281 L 270.082031 55.613281 L 270.082031 56.632812 L 266.644531 56.632812 L 266.183594 58.925781 C 266.695312 58.582031 267.238281 58.40625 267.808594 58.40625 C 268.558594 58.40625 269.191406 58.664062 269.707031 59.175781 C 270.214844 59.691406 270.476562 60.359375 270.476562 61.175781 C 270.476562 61.957031 270.253906 62.628906 269.808594 63.195312 C 269.253906 63.894531 268.496094 64.238281 267.539062 64.238281 C 266.757812 64.238281 266.121094 64.023438 265.621094 63.59375 C 265.132812 63.148438 264.855469 62.566406 264.789062 61.84375 Z M 264.789062 61.84375 "/>
<path style=" stroke:none;fill-rule:nonzero;fill:rgb(69.803923%,85.09804%,100%);fill-opacity:1;" d="M 228.285156 72.285156 L 252.285156 72.285156 L 252.285156 48.285156 L 228.285156 48.285156 Z M 228.285156 72.285156 "/>
<path style="fill:none;stroke-width:1;stroke-linecap:round;stroke-linejoin:round;stroke:rgb(0%,0%,0%);stroke-opacity:1;stroke-miterlimit:10;" d="M 224.213867 139.213867 L 242.213867 139.213867 L 242.213867 157.213867 L 224.213867 157.213867 Z M 224.213867 139.213867 " transform="matrix(1.333333,0,0,1.333333,-70.666667,-137.333333)"/>
<path style=" stroke:none;fill-rule:nonzero;fill:rgb(0%,0%,0%);fill-opacity:1;" d="M 238.09375 64.09375 L 237.03125 64.09375 L 237.03125 57.363281 C 236.78125 57.613281 236.449219 57.863281 236.03125 58.113281 C 235.613281 58.351562 235.246094 58.523438 234.925781 58.632812 L 234.925781 57.613281 C 235.511719 57.351562 236.019531 57.023438 236.46875 56.632812 C 236.910156 56.234375 237.222656 55.84375 237.40625 55.46875 L 238.09375 55.46875 Z M 238.09375 64.09375 "/>
<path style=" stroke:none;fill-rule:nonzero;fill:rgb(0%,0%,0%);fill-opacity:1;" d="M 240.957031 62.113281 L 241.957031 62.007812 C 242.039062 62.484375 242.195312 62.832031 242.433594 63.050781 C 242.683594 63.257812 243.003906 63.363281 243.394531 63.363281 C 243.710938 63.363281 243.988281 63.296875 244.226562 63.15625 C 244.476562 63.003906 244.675781 62.800781 244.832031 62.550781 C 244.996094 62.300781 245.128906 61.96875 245.226562 61.550781 C 245.335938 61.132812 245.394531 60.707031 245.394531 60.257812 C 245.394531 60.21875 245.382812 60.148438 245.371094 60.050781 C 245.164062 60.382812 244.878906 60.65625 244.519531 60.863281 C 244.152344 61.070312 243.757812 61.175781 243.332031 61.175781 C 242.621094 61.175781 242.019531 60.921875 241.519531 60.40625 C 241.027344 59.894531 240.789062 59.210938 240.789062 58.363281 C 240.789062 57.488281 241.042969 56.789062 241.558594 56.257812 C 242.070312 55.734375 242.714844 55.46875 243.496094 55.46875 C 244.050781 55.46875 244.558594 55.625 245.019531 55.925781 C 245.476562 56.21875 245.820312 56.644531 246.058594 57.195312 C 246.308594 57.753906 246.433594 58.5625 246.433594 59.613281 C 246.433594 60.710938 246.316406 61.585938 246.082031 62.238281 C 245.839844 62.894531 245.488281 63.394531 245.019531 63.738281 C 244.542969 64.070312 243.988281 64.238281 243.351562 64.238281 C 242.683594 64.238281 242.132812 64.050781 241.707031 63.675781 C 241.289062 63.300781 241.039062 62.78125 240.957031 62.113281 Z M 245.269531 58.320312 C 245.269531 57.710938 245.101562 57.234375 244.769531 56.882812 C 244.445312 56.523438 244.066406 56.34375 243.621094 56.34375 C 243.148438 56.34375 242.738281 56.539062 242.394531 56.925781 C 242.042969 57.300781 241.871094 57.796875 241.871094 58.40625 C 241.871094 58.945312 242.027344 59.394531 242.351562 59.738281 C 242.683594 60.070312 243.089844 60.238281 243.582031 60.238281 C 244.082031 60.238281 244.480469 60.070312 244.789062 59.738281 C 245.105469 59.394531 245.269531 58.921875 245.269531 58.320312 Z M 245.269531 58.320312 "/>
<path style=" stroke:none;fill-rule:nonzero;fill:rgb(0%,0%,0%);fill-opacity:1;" d="M 92.597656 71.789062 L 93.136719 70.121094 C 94.371094 70.554688 95.273438 70.929688 95.847656 71.246094 C 95.691406 69.84375 95.617188 68.871094 95.617188 68.328125 L 97.304688 68.328125 C 97.273438 69.109375 97.183594 70.078125 97.035156 71.246094 C 97.835938 70.84375 98.761719 70.46875 99.804688 70.121094 L 100.347656 71.789062 C 99.347656 72.109375 98.371094 72.324219 97.429688 72.433594 C 97.898438 72.851562 98.574219 73.589844 99.449219 74.640625 L 98.035156 75.640625 C 97.574219 75.03125 97.039062 74.195312 96.429688 73.121094 C 95.847656 74.234375 95.335938 75.074219 94.910156 75.640625 L 93.511719 74.640625 C 94.429688 73.53125 95.082031 72.796875 95.472656 72.433594 C 94.457031 72.242188 93.496094 72.027344 92.597656 71.789062 Z M 92.597656 71.789062 "/>
<path style=" stroke:none;fill-rule:nonzero;fill:rgb(0%,0%,0%);fill-opacity:1;" d="M 203.453125 69.515625 L 192.097656 69.515625 L 192.097656 67.558594 L 203.453125 67.558594 Z M 203.453125 74.726562 L 192.097656 74.726562 L 192.097656 72.765625 L 203.453125 72.765625 Z M 203.453125 74.726562 "/>
<path style=" stroke:none;fill-rule:nonzero;fill:rgb(100%,100%,100%);fill-opacity:1;" d="M 25.332031 108.824219 L 49.332031 108.824219 L 49.332031 84.824219 L 25.332031 84.824219 Z M 25.332031 108.824219 "/>
<path style="fill:none;stroke-width:1;stroke-linecap:round;stroke-linejoin:round;stroke:rgb(0%,0%,0%);stroke-opacity:1;stroke-miterlimit:10;" d="M 71.999023 166.618164 L 89.999023 166.618164 L 89.999023 184.618164 L 71.999023 184.618164 Z M 71.999023 166.618164 " transform="matrix(1.333333,0,0,1.333333,-70.666667,-137.333333)"/>
<path style=" stroke:none;fill-rule:nonzero;fill:rgb(0%,0%,0%);fill-opacity:1;" d="M 34.558594 93.171875 L 34.558594 92.148438 L 40.121094 92.148438 L 40.121094 92.960938 C 39.578125 93.546875 39.039062 94.328125 38.496094 95.296875 C 37.953125 96.253906 37.539062 97.25 37.246094 98.273438 C 37.039062 98.984375 36.902344 99.769531 36.851562 100.628906 L 35.765625 100.628906 C 35.777344 99.953125 35.914062 99.140625 36.164062 98.191406 C 36.414062 97.234375 36.773438 96.3125 37.246094 95.421875 C 37.730469 94.535156 38.234375 93.785156 38.765625 93.171875 Z M 34.558594 93.171875 "/>
<path style=" stroke:none;fill-rule:nonzero;fill:rgb(69.803923%,85.09804%,100%);fill-opacity:1;" d="M 25.332031 60.824219 L 49.332031 60.824219 L 49.332031 36.824219 L 25.332031 36.824219 Z M 25.332031 60.824219 "/>
<path style="fill:none;stroke-width:1;stroke-linecap:round;stroke-linejoin:round;stroke:rgb(0%,0%,0%);stroke-opacity:1;stroke-miterlimit:10;" d="M 71.999023 130.618164 L 89.999023 130.618164 L 89.999023 148.618164 L 71.999023 148.618164 Z M 71.999023 130.618164 " transform="matrix(1.333333,0,0,1.333333,-70.666667,-137.333333)"/>
<path style=" stroke:none;fill-rule:nonzero;fill:rgb(0%,0%,0%);fill-opacity:1;" d="M 38.476562 52.628906 L 37.414062 52.628906 L 37.414062 45.898438 C 37.164062 46.148438 36.828125 46.398438 36.414062 46.648438 C 35.996094 46.890625 35.625 47.0625 35.308594 47.171875 L 35.308594 46.148438 C 35.890625 45.890625 36.402344 45.5625 36.851562 45.171875 C 37.292969 44.769531 37.605469 44.378906 37.789062 44.003906 L 38.476562 44.003906 Z M 38.476562 52.628906 "/>
<path style=" stroke:none;fill-rule:nonzero;fill:rgb(69.803923%,85.09804%,100%);fill-opacity:1;" d="M 25.332031 84.824219 L 49.332031 84.824219 L 49.332031 60.824219 L 25.332031 60.824219 Z M 25.332031 84.824219 "/>
<path style="fill:none;stroke-width:1;stroke-linecap:round;stroke-linejoin:round;stroke:rgb(0%,0%,0%);stroke-opacity:1;stroke-miterlimit:10;" d="M 71.999023 148.618164 L 89.999023 148.618164 L 89.999023 166.618164 L 71.999023 166.618164 Z M 71.999023 148.618164 " transform="matrix(1.333333,0,0,1.333333,-70.666667,-137.333333)"/>
<path style=" stroke:none;fill-rule:nonzero;fill:rgb(0%,0%,0%);fill-opacity:1;" d="M 37.871094 76.628906 L 37.871094 74.566406 L 34.140625 74.566406 L 34.140625 73.609375 L 38.058594 68.046875 L 38.933594 68.046875 L 38.933594 73.609375 L 40.101562 73.609375 L 40.101562 74.566406 L 38.933594 74.566406 L 38.933594 76.628906 Z M 37.871094 73.609375 L 37.871094 69.734375 L 35.183594 73.609375 Z M 37.871094 73.609375 "/>
<path style=" stroke:none;fill-rule:nonzero;fill:rgb(100%,100%,100%);fill-opacity:1;" d="M 1.332031 108.824219 L 25.332031 108.824219 L 25.332031 84.824219 L 1.332031 84.824219 Z M 1.332031 108.824219 "/>
<path style="fill:none;stroke-width:1;stroke-linecap:round;stroke-linejoin:round;stroke:rgb(0%,0%,0%);stroke-opacity:1;stroke-miterlimit:10;" d="M 53.999023 166.618164 L 71.999023 166.618164 L 71.999023 184.618164 L 53.999023 184.618164 Z M 53.999023 166.618164 " transform="matrix(1.333333,0,0,1.333333,-70.666667,-137.333333)"/>
<path style=" stroke:none;fill-rule:nonzero;fill:rgb(0%,0%,0%);fill-opacity:1;" d="M 15.976562 94.148438 L 14.914062 94.234375 C 14.828125 93.816406 14.695312 93.515625 14.515625 93.316406 C 14.234375 93.023438 13.890625 92.878906 13.476562 92.878906 C 13.125 92.878906 12.828125 92.972656 12.578125 93.148438 C 12.246094 93.398438 11.980469 93.753906 11.789062 94.210938 C 11.605469 94.671875 11.507812 95.332031 11.496094 96.191406 C 11.746094 95.816406 12.046875 95.539062 12.414062 95.359375 C 12.789062 95.164062 13.171875 95.066406 13.578125 95.066406 C 14.289062 95.066406 14.882812 95.328125 15.371094 95.835938 C 15.871094 96.351562 16.121094 97.019531 16.121094 97.835938 C 16.121094 98.378906 16 98.890625 15.765625 99.359375 C 15.527344 99.816406 15.210938 100.171875 14.808594 100.421875 C 14.402344 100.65625 13.945312 100.773438 13.433594 100.773438 C 12.558594 100.773438 11.839844 100.457031 11.289062 99.816406 C 10.730469 99.164062 10.453125 98.097656 10.453125 96.609375 C 10.453125 94.957031 10.757812 93.75 11.371094 92.984375 C 11.898438 92.332031 12.621094 92.003906 13.539062 92.003906 C 14.203125 92.003906 14.75 92.203125 15.183594 92.585938 C 15.609375 92.960938 15.875 93.484375 15.976562 94.148438 Z M 11.664062 97.835938 C 11.664062 98.210938 11.734375 98.566406 11.890625 98.898438 C 12.042969 99.222656 12.257812 99.472656 12.539062 99.648438 C 12.8125 99.816406 13.105469 99.898438 13.414062 99.898438 C 13.855469 99.898438 14.234375 99.726562 14.558594 99.378906 C 14.875 99.019531 15.039062 98.523438 15.039062 97.898438 C 15.039062 97.304688 14.875 96.835938 14.558594 96.503906 C 14.25 96.160156 13.855469 95.984375 13.371094 95.984375 C 12.898438 95.984375 12.496094 96.160156 12.164062 96.503906 C 11.828125 96.835938 11.664062 97.285156 11.664062 97.835938 Z M 11.664062 97.835938 "/>
<path style=" stroke:none;fill-rule:nonzero;fill:rgb(100%,100%,100%);fill-opacity:1;" d="M 49.332031 84.824219 L 73.332031 84.824219 L 73.332031 60.824219 L 49.332031 60.824219 Z M 49.332031 84.824219 "/>
<path style="fill:none;stroke-width:1;stroke-linecap:round;stroke-linejoin:round;stroke:rgb(0%,0%,0%);stroke-opacity:1;stroke-miterlimit:10;" d="M 89.999023 148.618164 L 107.999023 148.618164 L 107.999023 166.618164 L 89.999023 166.618164 Z M 89.999023 148.618164 " transform="matrix(1.333333,0,0,1.333333,-70.666667,-137.333333)"/>
<path style=" stroke:none;fill-rule:nonzero;fill:rgb(0%,0%,0%);fill-opacity:1;" d="M 58.496094 74.378906 L 59.601562 74.273438 C 59.683594 74.816406 59.871094 75.226562 60.164062 75.503906 C 60.464844 75.769531 60.828125 75.898438 61.246094 75.898438 C 61.757812 75.898438 62.1875 75.710938 62.539062 75.335938 C 62.898438 74.953125 63.078125 74.441406 63.078125 73.816406 C 63.078125 73.207031 62.902344 72.726562 62.558594 72.378906 C 62.226562 72.035156 61.789062 71.859375 61.246094 71.859375 C 60.898438 71.859375 60.585938 71.941406 60.308594 72.109375 C 60.042969 72.265625 59.828125 72.457031 59.664062 72.691406 L 58.683594 72.566406 L 59.515625 68.148438 L 63.789062 68.148438 L 63.789062 69.171875 L 60.351562 69.171875 L 59.890625 71.460938 C 60.402344 71.117188 60.945312 70.941406 61.515625 70.941406 C 62.265625 70.941406 62.898438 71.203125 63.414062 71.710938 C 63.921875 72.226562 64.183594 72.894531 64.183594 73.710938 C 64.183594 74.492188 63.960938 75.164062 63.515625 75.734375 C 62.960938 76.429688 62.203125 76.773438 61.246094 76.773438 C 60.464844 76.773438 59.828125 76.5625 59.328125 76.128906 C 58.839844 75.6875 58.5625 75.101562 58.496094 74.378906 Z M 58.496094 74.378906 "/>
<path style=" stroke:none;fill-rule:nonzero;fill:rgb(69.803923%,85.09804%,100%);fill-opacity:1;" d="M 1.332031 84.824219 L 25.332031 84.824219 L 25.332031 60.824219 L 1.332031 60.824219 Z M 1.332031 84.824219 "/>
<path style="fill:none;stroke-width:1;stroke-linecap:round;stroke-linejoin:round;stroke:rgb(0%,0%,0%);stroke-opacity:1;stroke-miterlimit:10;" d="M 53.999023 148.618164 L 71.999023 148.618164 L 71.999023 166.618164 L 53.999023 166.618164 Z M 53.999023 148.618164 " transform="matrix(1.333333,0,0,1.333333,-70.666667,-137.333333)"/>
<path style=" stroke:none;fill-rule:nonzero;fill:rgb(0%,0%,0%);fill-opacity:1;" d="M 10.496094 74.359375 L 11.558594 74.210938 C 11.683594 74.8125 11.882812 75.242188 12.164062 75.503906 C 12.453125 75.769531 12.8125 75.898438 13.246094 75.898438 C 13.730469 75.898438 14.140625 75.734375 14.476562 75.398438 C 14.820312 75.054688 14.996094 74.625 14.996094 74.109375 C 14.996094 73.625 14.835938 73.226562 14.515625 72.921875 C 14.210938 72.601562 13.8125 72.441406 13.328125 72.441406 C 13.121094 72.441406 12.871094 72.484375 12.578125 72.566406 L 12.703125 71.628906 C 12.773438 71.644531 12.828125 71.648438 12.871094 71.648438 C 13.3125 71.648438 13.714844 71.535156 14.078125 71.296875 C 14.4375 71.0625 14.621094 70.703125 14.621094 70.210938 C 14.621094 69.828125 14.484375 69.503906 14.226562 69.253906 C 13.960938 69.003906 13.621094 68.878906 13.203125 68.878906 C 12.796875 68.878906 12.460938 69.015625 12.183594 69.273438 C 11.917969 69.523438 11.746094 69.910156 11.664062 70.421875 L 10.601562 70.234375 C 10.734375 69.523438 11.027344 68.976562 11.476562 68.585938 C 11.933594 68.203125 12.5 68.003906 13.183594 68.003906 C 13.652344 68.003906 14.085938 68.109375 14.476562 68.316406 C 14.875 68.515625 15.183594 68.785156 15.390625 69.128906 C 15.601562 69.476562 15.703125 69.847656 15.703125 70.234375 C 15.703125 70.609375 15.601562 70.953125 15.390625 71.253906 C 15.195312 71.5625 14.902344 71.804688 14.515625 71.984375 C 15.027344 72.097656 15.421875 72.335938 15.703125 72.710938 C 15.980469 73.078125 16.121094 73.535156 16.121094 74.085938 C 16.121094 74.835938 15.839844 75.476562 15.289062 76.003906 C 14.746094 76.519531 14.058594 76.773438 13.226562 76.773438 C 12.476562 76.773438 11.851562 76.554688 11.351562 76.109375 C 10.851562 75.664062 10.5625 75.082031 10.496094 74.359375 Z M 10.496094 74.359375 "/>
<path style=" stroke:none;fill-rule:nonzero;fill:rgb(100%,100%,100%);fill-opacity:1;" d="M 49.332031 108.824219 L 73.332031 108.824219 L 73.332031 84.824219 L 49.332031 84.824219 Z M 49.332031 108.824219 "/>
<path style="fill:none;stroke-width:1;stroke-linecap:round;stroke-linejoin:round;stroke:rgb(0%,0%,0%);stroke-opacity:1;stroke-miterlimit:10;" d="M 89.999023 166.618164 L 107.999023 166.618164 L 107.999023 184.618164 L 89.999023 184.618164 Z M 89.999023 166.618164 " transform="matrix(1.333333,0,0,1.333333,-70.666667,-137.333333)"/>
<path style=" stroke:none;fill-rule:nonzero;fill:rgb(0%,0%,0%);fill-opacity:1;" d="M 60.121094 95.960938 C 59.671875 95.8125 59.351562 95.585938 59.140625 95.296875 C 58.933594 94.992188 58.828125 94.628906 58.828125 94.210938 C 58.828125 93.585938 59.046875 93.066406 59.496094 92.648438 C 59.953125 92.222656 60.546875 92.003906 61.289062 92.003906 C 62.039062 92.003906 62.640625 92.226562 63.101562 92.671875 C 63.558594 93.101562 63.789062 93.628906 63.789062 94.253906 C 63.789062 94.644531 63.683594 94.992188 63.476562 95.296875 C 63.265625 95.585938 62.945312 95.8125 62.515625 95.960938 C 63.042969 96.144531 63.445312 96.429688 63.726562 96.816406 C 64 97.191406 64.140625 97.644531 64.140625 98.171875 C 64.140625 98.910156 63.875 99.523438 63.351562 100.023438 C 62.835938 100.523438 62.152344 100.773438 61.308594 100.773438 C 60.460938 100.773438 59.773438 100.523438 59.246094 100.023438 C 58.730469 99.523438 58.476562 98.898438 58.476562 98.148438 C 58.476562 97.597656 58.609375 97.128906 58.890625 96.753906 C 59.183594 96.367188 59.589844 96.101562 60.121094 95.960938 Z M 59.914062 94.191406 C 59.914062 94.597656 60.039062 94.929688 60.289062 95.191406 C 60.546875 95.441406 60.890625 95.566406 61.308594 95.566406 C 61.726562 95.566406 62.058594 95.441406 62.308594 95.191406 C 62.570312 94.929688 62.703125 94.609375 62.703125 94.234375 C 62.703125 93.859375 62.570312 93.539062 62.308594 93.273438 C 62.042969 93.015625 61.710938 92.878906 61.308594 92.878906 C 60.902344 92.878906 60.570312 93.015625 60.308594 93.273438 C 60.042969 93.523438 59.914062 93.832031 59.914062 94.191406 Z M 59.558594 98.148438 C 59.558594 98.457031 59.625 98.75 59.765625 99.023438 C 59.917969 99.304688 60.132812 99.519531 60.414062 99.671875 C 60.6875 99.828125 60.996094 99.898438 61.328125 99.898438 C 61.828125 99.898438 62.234375 99.742188 62.558594 99.421875 C 62.890625 99.101562 63.058594 98.691406 63.058594 98.191406 C 63.058594 97.679688 62.890625 97.253906 62.558594 96.921875 C 62.226562 96.585938 61.796875 96.421875 61.289062 96.421875 C 60.789062 96.421875 60.371094 96.585938 60.039062 96.921875 C 59.714844 97.253906 59.558594 97.664062 59.558594 98.148438 Z M 59.558594 98.148438 "/>
<path style=" stroke:none;fill-rule:nonzero;fill:rgb(100%,100%,100%);fill-opacity:1;" d="M 49.332031 60.824219 L 73.332031 60.824219 L 73.332031 36.824219 L 49.332031 36.824219 Z M 49.332031 60.824219 "/>
<path style="fill:none;stroke-width:1;stroke-linecap:round;stroke-linejoin:round;stroke:rgb(0%,0%,0%);stroke-opacity:1;stroke-miterlimit:10;" d="M 89.999023 130.618164 L 107.999023 130.618164 L 107.999023 148.618164 L 89.999023 148.618164 Z M 89.999023 130.618164 " transform="matrix(1.333333,0,0,1.333333,-70.666667,-137.333333)"/>
<path style=" stroke:none;fill-rule:nonzero;fill:rgb(0%,0%,0%);fill-opacity:1;" d="M 64.039062 51.609375 L 64.039062 52.628906 L 58.351562 52.628906 C 58.351562 52.378906 58.390625 52.140625 58.476562 51.898438 C 58.625 51.515625 58.859375 51.128906 59.183594 50.753906 C 59.5 50.378906 59.960938 49.953125 60.558594 49.460938 C 61.484375 48.6875 62.109375 48.078125 62.433594 47.628906 C 62.765625 47.1875 62.933594 46.765625 62.933594 46.359375 C 62.933594 45.941406 62.777344 45.597656 62.476562 45.316406 C 62.183594 45.023438 61.796875 44.878906 61.328125 44.878906 C 60.8125 44.878906 60.402344 45.035156 60.101562 45.335938 C 59.792969 45.644531 59.640625 46.066406 59.640625 46.609375 L 58.558594 46.484375 C 58.625 45.679688 58.902344 45.066406 59.390625 44.648438 C 59.875 44.222656 60.527344 44.003906 61.351562 44.003906 C 62.167969 44.003906 62.8125 44.234375 63.289062 44.691406 C 63.773438 45.148438 64.015625 45.710938 64.015625 46.378906 C 64.015625 46.726562 63.945312 47.066406 63.808594 47.398438 C 63.667969 47.734375 63.433594 48.085938 63.101562 48.460938 C 62.777344 48.828125 62.246094 49.328125 61.496094 49.960938 C 60.855469 50.492188 60.445312 50.851562 60.265625 51.046875 C 60.085938 51.242188 59.9375 51.429688 59.828125 51.609375 Z M 64.039062 51.609375 "/>
<path style=" stroke:none;fill-rule:nonzero;fill:rgb(69.803923%,85.09804%,100%);fill-opacity:1;" d="M 1.332031 60.824219 L 25.332031 60.824219 L 25.332031 36.824219 L 1.332031 36.824219 Z M 1.332031 60.824219 "/>
<path style="fill:none;stroke-width:1;stroke-linecap:round;stroke-linejoin:round;stroke:rgb(0%,0%,0%);stroke-opacity:1;stroke-miterlimit:10;" d="M 53.999023 130.618164 L 71.999023 130.618164 L 71.999023 148.618164 L 53.999023 148.618164 Z M 53.999023 130.618164 " transform="matrix(1.333333,0,0,1.333333,-70.666667,-137.333333)"/>
<path style=" stroke:none;fill-rule:nonzero;fill:rgb(0%,0%,0%);fill-opacity:1;" d="M 10.496094 48.398438 C 10.496094 47.390625 10.601562 46.566406 10.808594 45.941406 C 11.015625 45.316406 11.320312 44.835938 11.726562 44.503906 C 12.140625 44.171875 12.664062 44.003906 13.289062 44.003906 C 13.757812 44.003906 14.167969 44.101562 14.515625 44.296875 C 14.859375 44.476562 15.148438 44.742188 15.371094 45.085938 C 15.589844 45.4375 15.765625 45.859375 15.890625 46.359375 C 16.027344 46.859375 16.101562 47.539062 16.101562 48.398438 C 16.101562 49.398438 15.996094 50.210938 15.789062 50.835938 C 15.578125 51.453125 15.265625 51.929688 14.851562 52.273438 C 14.445312 52.609375 13.921875 52.773438 13.289062 52.773438 C 12.464844 52.773438 11.820312 52.476562 11.351562 51.878906 C 10.777344 51.171875 10.496094 50.015625 10.496094 48.398438 Z M 11.578125 48.398438 C 11.578125 49.804688 11.734375 50.742188 12.058594 51.210938 C 12.390625 51.671875 12.796875 51.898438 13.289062 51.898438 C 13.773438 51.898438 14.183594 51.671875 14.515625 51.210938 C 14.851562 50.742188 15.015625 49.804688 15.015625 48.398438 C 15.015625 46.984375 14.851562 46.046875 14.515625 45.585938 C 14.183594 45.117188 13.773438 44.878906 13.289062 44.878906 C 12.796875 44.878906 12.414062 45.082031 12.121094 45.484375 C 11.757812 46.015625 11.578125 46.984375 11.578125 48.398438 Z M 11.578125 48.398438 "/>
<path style=" stroke:none;fill-rule:nonzero;fill:rgb(69.803923%,85.09804%,100%);fill-opacity:1;" d="M 121.375 96.285156 L 145.375 96.285156 L 145.375 72.285156 L 121.375 72.285156 Z M 121.375 96.285156 "/>
<path style="fill:none;stroke-width:1;stroke-linecap:round;stroke-linejoin:round;stroke:rgb(0%,0%,0%);stroke-opacity:1;stroke-miterlimit:10;" d="M 144.03125 157.213867 L 162.03125 157.213867 L 162.03125 175.213867 L 144.03125 175.213867 Z M 144.03125 157.213867 " transform="matrix(1.333333,0,0,1.333333,-70.666667,-137.333333)"/>
<path style=" stroke:none;fill-rule:nonzero;fill:rgb(0%,0%,0%);fill-opacity:1;" d="M 136.082031 87.070312 L 136.082031 88.09375 L 130.394531 88.09375 C 130.394531 87.84375 130.433594 87.601562 130.519531 87.363281 C 130.667969 86.976562 130.902344 86.59375 131.226562 86.21875 C 131.542969 85.84375 132.003906 85.414062 132.601562 84.925781 C 133.527344 84.148438 134.152344 83.539062 134.476562 83.09375 C 134.808594 82.648438 134.976562 82.226562 134.976562 81.820312 C 134.976562 81.40625 134.820312 81.0625 134.519531 80.78125 C 134.226562 80.488281 133.839844 80.34375 133.371094 80.34375 C 132.855469 80.34375 132.445312 80.5 132.144531 80.800781 C 131.835938 81.109375 131.683594 81.53125 131.683594 82.070312 L 130.601562 81.945312 C 130.667969 81.144531 130.945312 80.53125 131.433594 80.113281 C 131.917969 79.6875 132.570312 79.46875 133.394531 79.46875 C 134.210938 79.46875 134.855469 79.695312 135.332031 80.15625 C 135.816406 80.613281 136.058594 81.175781 136.058594 81.84375 C 136.058594 82.191406 135.988281 82.53125 135.851562 82.863281 C 135.710938 83.195312 135.476562 83.550781 135.144531 83.925781 C 134.820312 84.289062 134.289062 84.789062 133.539062 85.425781 C 132.898438 85.957031 132.488281 86.316406 132.308594 86.507812 C 132.128906 86.707031 131.980469 86.894531 131.871094 87.070312 Z M 136.082031 87.070312 "/>
<path style=" stroke:none;fill-rule:nonzero;fill:rgb(69.803923%,85.09804%,100%);fill-opacity:1;" d="M 145.375 96.285156 L 169.375 96.285156 L 169.375 72.285156 L 145.375 72.285156 Z M 145.375 96.285156 "/>
<path style="fill:none;stroke-width:1;stroke-linecap:round;stroke-linejoin:round;stroke:rgb(0%,0%,0%);stroke-opacity:1;stroke-miterlimit:10;" d="M 162.03125 157.213867 L 180.03125 157.213867 L 180.03125 175.213867 L 162.03125 175.213867 Z M 162.03125 157.213867 " transform="matrix(1.333333,0,0,1.333333,-70.666667,-137.333333)"/>
<path style=" stroke:none;fill-rule:nonzero;fill:rgb(0%,0%,0%);fill-opacity:1;" d="M 154.539062 85.820312 L 155.601562 85.675781 C 155.726562 86.273438 155.925781 86.707031 156.207031 86.96875 C 156.496094 87.234375 156.855469 87.363281 157.289062 87.363281 C 157.773438 87.363281 158.183594 87.195312 158.519531 86.863281 C 158.863281 86.519531 159.039062 86.085938 159.039062 85.570312 C 159.039062 85.085938 158.878906 84.691406 158.558594 84.382812 C 158.253906 84.066406 157.855469 83.90625 157.371094 83.90625 C 157.164062 83.90625 156.914062 83.945312 156.621094 84.03125 L 156.746094 83.09375 C 156.816406 83.109375 156.871094 83.113281 156.914062 83.113281 C 157.355469 83.113281 157.757812 83 158.121094 82.757812 C 158.480469 82.523438 158.664062 82.164062 158.664062 81.675781 C 158.664062 81.289062 158.527344 80.96875 158.269531 80.71875 C 158.003906 80.46875 157.664062 80.34375 157.246094 80.34375 C 156.839844 80.34375 156.503906 80.476562 156.226562 80.738281 C 155.960938 80.988281 155.789062 81.375 155.707031 81.882812 L 154.644531 81.695312 C 154.777344 80.988281 155.070312 80.441406 155.519531 80.050781 C 155.976562 79.664062 156.542969 79.46875 157.226562 79.46875 C 157.695312 79.46875 158.128906 79.570312 158.519531 79.78125 C 158.917969 79.976562 159.226562 80.25 159.433594 80.59375 C 159.644531 80.941406 159.746094 81.3125 159.746094 81.695312 C 159.746094 82.070312 159.644531 82.414062 159.433594 82.71875 C 159.238281 83.023438 158.945312 83.269531 158.558594 83.445312 C 159.070312 83.5625 159.464844 83.800781 159.746094 84.175781 C 160.023438 84.539062 160.164062 85 160.164062 85.550781 C 160.164062 86.300781 159.882812 86.941406 159.332031 87.46875 C 158.789062 87.984375 158.101562 88.238281 157.269531 88.238281 C 156.519531 88.238281 155.894531 88.019531 155.394531 87.570312 C 154.894531 87.128906 154.605469 86.546875 154.539062 85.820312 Z M 154.539062 85.820312 "/>
<path style=" stroke:none;fill-rule:nonzero;fill:rgb(69.803923%,85.09804%,100%);fill-opacity:1;" d="M 145.375 72.285156 L 169.375 72.285156 L 169.375 48.285156 L 145.375 48.285156 Z M 145.375 72.285156 "/>
<path style="fill:none;stroke-width:1;stroke-linecap:round;stroke-linejoin:round;stroke:rgb(0%,0%,0%);stroke-opacity:1;stroke-miterlimit:10;" d="M 162.03125 139.213867 L 180.03125 139.213867 L 180.03125 157.213867 L 162.03125 157.213867 Z M 162.03125 139.213867 " transform="matrix(1.333333,0,0,1.333333,-70.666667,-137.333333)"/>
<path style=" stroke:none;fill-rule:nonzero;fill:rgb(0%,0%,0%);fill-opacity:1;" d="M 158.519531 64.09375 L 157.457031 64.09375 L 157.457031 57.363281 C 157.207031 57.613281 156.871094 57.863281 156.457031 58.113281 C 156.039062 58.351562 155.667969 58.523438 155.351562 58.632812 L 155.351562 57.613281 C 155.933594 57.351562 156.445312 57.023438 156.894531 56.632812 C 157.335938 56.234375 157.648438 55.84375 157.832031 55.46875 L 158.519531 55.46875 Z M 158.519531 64.09375 "/>
<path style=" stroke:none;fill-rule:nonzero;fill:rgb(69.803923%,85.09804%,100%);fill-opacity:1;" d="M 121.375 72.285156 L 145.375 72.285156 L 145.375 48.285156 L 121.375 48.285156 Z M 121.375 72.285156 "/>
<path style="fill:none;stroke-width:1;stroke-linecap:round;stroke-linejoin:round;stroke:rgb(0%,0%,0%);stroke-opacity:1;stroke-miterlimit:10;" d="M 144.03125 139.213867 L 162.03125 139.213867 L 162.03125 157.213867 L 144.03125 157.213867 Z M 144.03125 139.213867 " transform="matrix(1.333333,0,0,1.333333,-70.666667,-137.333333)"/>
<path style=" stroke:none;fill-rule:nonzero;fill:rgb(0%,0%,0%);fill-opacity:1;" d="M 130.539062 59.863281 C 130.539062 58.851562 130.644531 58.03125 130.851562 57.40625 C 131.058594 56.78125 131.363281 56.300781 131.769531 55.96875 C 132.183594 55.632812 132.707031 55.46875 133.332031 55.46875 C 133.800781 55.46875 134.210938 55.566406 134.558594 55.757812 C 134.902344 55.941406 135.191406 56.207031 135.414062 56.550781 C 135.632812 56.898438 135.808594 57.320312 135.933594 57.820312 C 136.070312 58.320312 136.144531 59.003906 136.144531 59.863281 C 136.144531 60.863281 136.039062 61.675781 135.832031 62.300781 C 135.621094 62.914062 135.308594 63.394531 134.894531 63.738281 C 134.488281 64.070312 133.964844 64.238281 133.332031 64.238281 C 132.507812 64.238281 131.863281 63.941406 131.394531 63.34375 C 130.820312 62.632812 130.539062 61.476562 130.539062 59.863281 Z M 131.621094 59.863281 C 131.621094 61.269531 131.777344 62.207031 132.101562 62.675781 C 132.433594 63.132812 132.839844 63.363281 133.332031 63.363281 C 133.816406 63.363281 134.226562 63.132812 134.558594 62.675781 C 134.894531 62.207031 135.058594 61.269531 135.058594 59.863281 C 135.058594 58.445312 134.894531 57.507812 134.558594 57.050781 C 134.226562 56.582031 133.816406 56.34375 133.332031 56.34375 C 132.839844 56.34375 132.457031 56.546875 132.164062 56.945312 C 131.800781 57.476562 131.621094 58.445312 131.621094 59.863281 Z M 131.621094 59.863281 "/>
<path style=" stroke:none;fill-rule:nonzero;fill:rgb(0%,0%,0%);fill-opacity:1;" d="M 243.039062 13.542969 L 243.039062 15.3125 L 241.851562 15.3125 C 242.140625 14.542969 242.433594 13.667969 242.683594 12.6875 L 244.996094 12.6875 L 244.996094 11.875 L 242.890625 11.875 C 242.996094 11.394531 243.101562 10.875 243.226562 10.332031 L 242.433594 10.167969 C 242.308594 10.75 242.203125 11.332031 242.078125 11.875 L 240.890625 11.875 L 240.890625 12.6875 L 241.890625 12.6875 C 241.621094 13.75 241.328125 14.667969 240.976562 15.375 L 241.164062 16.105469 L 243.039062 16.105469 L 243.039062 17.894531 C 242.328125 18.019531 241.601562 18.144531 240.808594 18.230469 L 240.914062 19.082031 C 241.640625 18.957031 242.351562 18.855469 243.039062 18.707031 L 243.039062 21.207031 L 243.828125 21.207031 L 243.828125 18.542969 L 244.976562 18.25 L 244.976562 17.4375 C 244.621094 17.519531 244.246094 17.625 243.828125 17.730469 L 243.828125 16.105469 L 244.933594 16.105469 L 244.933594 15.3125 L 243.828125 15.3125 L 243.828125 13.542969 Z M 246.578125 12.917969 L 246.578125 13.625 L 250.015625 13.625 L 250.015625 12.917969 L 246.578125 12.917969 C 247.183594 12.332031 247.765625 11.6875 248.328125 11 C 249.246094 12.167969 250.265625 13.167969 251.390625 13.980469 L 251.851562 13.3125 C 250.765625 12.542969 249.703125 11.519531 248.640625 10.230469 L 248.039062 10.230469 C 247.058594 11.417969 245.953125 12.480469 244.726562 13.375 L 245.203125 14.105469 C 245.664062 13.730469 246.121094 13.332031 246.578125 12.917969 Z M 247.414062 21.125 C 247.996094 21.125 248.308594 20.8125 248.308594 20.1875 L 248.308594 14.582031 L 245.476562 14.582031 L 245.476562 21.207031 L 246.226562 21.207031 L 246.226562 18.957031 L 247.578125 18.957031 L 247.578125 20.042969 C 247.578125 20.292969 247.433594 20.4375 247.183594 20.4375 L 246.640625 20.417969 L 246.828125 21.125 Z M 246.226562 18.292969 L 246.226562 17.144531 L 247.578125 17.144531 L 247.578125 18.292969 Z M 246.226562 16.480469 L 246.226562 15.292969 L 247.578125 15.292969 L 247.578125 16.480469 Z M 249.015625 14.917969 L 249.015625 19.230469 L 249.703125 19.230469 L 249.703125 14.917969 Z M 250.328125 21.144531 C 250.914062 21.144531 251.203125 20.792969 251.203125 20.105469 L 251.203125 14.375 L 250.453125 14.375 L 250.453125 19.917969 C 250.453125 20.25 250.328125 20.4375 250.058594 20.4375 C 249.765625 20.4375 249.453125 20.417969 249.140625 20.375 L 249.308594 21.144531 Z M 250.328125 21.144531 "/>
<path style=" stroke:none;fill-rule:nonzero;fill:rgb(0%,0%,0%);fill-opacity:1;" d="M 261.539062 14.375 L 258.726562 14.375 L 258.726562 10.1875 L 257.851562 10.1875 L 257.851562 14.375 L 255.039062 14.375 L 255.039062 11.105469 L 254.164062 11.105469 L 254.164062 15.207031 L 257.851562 15.207031 L 257.851562 19.625 L 254.453125 19.625 L 254.453125 16.332031 L 253.578125 16.332031 L 253.578125 21.125 L 254.453125 21.125 L 254.453125 20.4375 L 262.121094 20.4375 L 262.121094 21.125 L 262.996094 21.125 L 262.996094 16.332031 L 262.121094 16.332031 L 262.121094 19.625 L 258.726562 19.625 L 258.726562 15.207031 L 262.414062 15.207031 L 262.414062 11.105469 L 261.539062 11.105469 Z M 261.539062 14.375 "/>
<path style=" stroke:none;fill-rule:nonzero;fill:rgb(0%,0%,0%);fill-opacity:1;" d="M 129.792969 15.082031 C 130.167969 15.605469 130.582031 16.292969 131.0625 17.125 L 131.542969 16.394531 C 130.957031 15.5625 130.375 14.8125 129.792969 14.144531 L 129.792969 13.375 L 131.207031 13.375 L 131.207031 12.542969 L 129.792969 12.542969 L 129.792969 10.207031 L 128.980469 10.207031 L 128.980469 12.542969 L 127.3125 12.542969 L 127.3125 13.375 L 128.9375 13.375 C 128.582031 14.957031 127.957031 16.375 127.105469 17.625 L 127.480469 18.5 C 128.082031 17.519531 128.582031 16.417969 128.980469 15.1875 L 128.980469 21.207031 L 129.792969 21.207031 Z M 131.519531 11.519531 L 131.519531 12.292969 L 133.832031 12.292969 C 133.082031 13.605469 132.457031 14.417969 131.980469 14.730469 C 131.9375 14.75 131.894531 14.769531 131.8125 14.792969 L 132 15.5 C 132.9375 15.457031 133.832031 15.417969 134.6875 15.375 C 133.707031 16.480469 132.480469 17.269531 131.042969 17.792969 L 131.5 18.519531 C 133.832031 17.644531 135.582031 16.019531 136.792969 13.644531 L 136.082031 13.269531 C 135.855469 13.75 135.5625 14.1875 135.25 14.625 C 134.519531 14.6875 133.75 14.730469 133 14.769531 C 133.5 14.292969 134.0625 13.457031 134.730469 12.292969 L 138.019531 12.292969 L 138.019531 11.519531 L 135.355469 11.519531 C 135.1875 11.019531 135 10.5625 134.832031 10.1875 L 133.9375 10.332031 C 134.144531 10.6875 134.355469 11.082031 134.519531 11.519531 Z M 135.355469 18.769531 C 136.25 19.605469 136.957031 20.394531 137.480469 21.144531 L 138.105469 20.519531 C 137.5 19.75 136.75 19 135.894531 18.230469 C 136.667969 17.4375 137.355469 16.5 137.9375 15.4375 L 137.207031 15.042969 C 135.792969 17.667969 133.6875 19.457031 130.875 20.375 L 131.332031 21.125 C 132.875 20.582031 134.207031 19.792969 135.355469 18.769531 Z M 135.355469 18.769531 "/>
<path style=" stroke:none;fill-rule:nonzero;fill:rgb(0%,0%,0%);fill-opacity:1;" d="M 141.207031 18.542969 C 142.355469 17.8125 143.4375 16.957031 144.457031 15.980469 L 144.457031 17.832031 C 144.457031 18.230469 144.292969 18.417969 143.957031 18.417969 C 143.605469 18.417969 143.269531 18.394531 142.957031 18.394531 L 143.1875 19.1875 L 144.269531 19.1875 C 144.917969 19.1875 145.25 18.832031 145.25 18.144531 L 145.25 16.125 C 145.980469 16.6875 146.875 17.457031 147.917969 18.480469 L 148.417969 17.730469 C 147.332031 16.792969 146.292969 15.980469 145.25 15.25 L 145.25 13.417969 C 146.4375 12.769531 147.5 12.125 148.457031 11.457031 L 148.457031 10.644531 L 141.019531 10.644531 L 141.019531 11.457031 L 147.167969 11.457031 C 146.5625 11.855469 145.667969 12.355469 144.457031 12.9375 L 144.457031 15 C 143.3125 16.082031 142.144531 16.980469 140.894531 17.6875 Z M 148.667969 12.832031 L 148.667969 19.75 L 140.667969 19.75 L 140.667969 12.832031 L 139.832031 12.832031 L 139.832031 21.207031 L 140.667969 21.207031 L 140.667969 20.542969 L 148.667969 20.542969 L 148.667969 21.230469 L 149.5 21.230469 L 149.5 12.832031 Z M 141.957031 13.207031 L 141.332031 13.605469 C 142.019531 14.269531 142.582031 14.855469 143 15.417969 L 143.667969 14.957031 C 143.269531 14.457031 142.707031 13.875 141.957031 13.207031 Z M 147.417969 13.125 C 146.980469 13.855469 146.417969 14.5 145.792969 15.019531 L 146.417969 15.457031 C 147.0625 14.894531 147.644531 14.230469 148.125 13.457031 Z M 147.417969 13.125 "/>
<path style=" stroke:none;fill-rule:nonzero;fill:rgb(0%,0%,0%);fill-opacity:1;" d="M 158.5625 12.855469 L 160.332031 12.855469 C 160.292969 14.480469 160.042969 15.894531 159.5625 17.105469 C 159.082031 16.105469 158.707031 14.894531 158.417969 13.480469 Z M 159.167969 17.980469 C 158.625 19 157.894531 19.8125 156.957031 20.457031 L 157.394531 21.1875 C 158.292969 20.542969 159.042969 19.730469 159.625 18.769531 C 160.207031 19.792969 160.9375 20.605469 161.769531 21.207031 L 162.25 20.5 C 161.375 19.894531 160.644531 19.082031 160.019531 18 C 160.707031 16.582031 161.0625 14.855469 161.125 12.855469 L 161.917969 12.855469 L 161.917969 12.042969 L 158.75 12.042969 C 158.832031 11.5 158.9375 10.9375 159 10.3125 L 158.167969 10.167969 C 157.917969 12.457031 157.4375 14.269531 156.730469 15.605469 L 157.269531 16.269531 C 157.519531 15.832031 157.769531 15.355469 157.980469 14.792969 C 158.3125 16 158.707031 17.042969 159.167969 17.980469 Z M 153.480469 15.769531 C 153.394531 16.019531 153.3125 16.269531 153.207031 16.542969 L 151.4375 16.542969 L 151.4375 17.292969 L 152.855469 17.292969 C 152.625 17.769531 152.355469 18.25 152.042969 18.792969 C 152.625 19 153.167969 19.230469 153.707031 19.457031 C 153 19.855469 152.144531 20.1875 151.167969 20.4375 L 151.582031 21.167969 C 152.769531 20.832031 153.769531 20.375 154.5625 19.832031 C 155.269531 20.144531 155.894531 20.457031 156.417969 20.769531 L 156.875 20.105469 C 156.355469 19.8125 155.8125 19.5625 155.230469 19.292969 C 155.855469 18.707031 156.292969 18.042969 156.5625 17.25 L 156.5625 16.542969 L 154.042969 16.542969 C 154.125 16.3125 154.207031 16.105469 154.292969 15.875 Z M 154.4375 18.957031 C 154 18.769531 153.542969 18.605469 153.0625 18.4375 C 153.3125 18.082031 153.519531 17.6875 153.707031 17.292969 L 155.769531 17.292969 C 155.5 17.917969 155.042969 18.480469 154.4375 18.957031 Z M 152.394531 10.417969 L 151.707031 10.644531 C 152 11.105469 152.269531 11.625 152.519531 12.207031 L 153.144531 11.917969 C 152.917969 11.394531 152.6875 10.894531 152.394531 10.417969 Z M 156.042969 10.394531 C 155.832031 10.894531 155.519531 11.394531 155.125 11.917969 L 155.75 12.230469 C 156.125 11.730469 156.417969 11.207031 156.667969 10.667969 Z M 151.480469 12.5 L 151.480469 13.25 L 153.167969 13.25 C 152.8125 13.917969 152.167969 14.519531 151.25 15.0625 L 151.667969 15.75 C 152.6875 15.0625 153.417969 14.25 153.8125 13.292969 L 153.8125 15.5625 L 154.625 15.5625 L 154.625 14.019531 C 155.042969 14.292969 155.5625 14.6875 156.167969 15.167969 L 156.605469 14.5 C 155.9375 14.082031 155.269531 13.707031 154.625 13.394531 L 154.625 13.25 L 156.792969 13.25 L 156.792969 12.5 L 154.625 12.5 L 154.625 10.207031 L 153.8125 10.207031 L 153.8125 12.5 Z M 151.480469 12.5 "/>
<path style=" stroke:none;fill-rule:nonzero;fill:rgb(0%,0%,0%);fill-opacity:1;" d="M 29.417969 13.542969 L 29.417969 15.3125 L 28.230469 15.3125 C 28.519531 14.542969 28.8125 13.667969 29.0625 12.6875 L 31.375 12.6875 L 31.375 11.875 L 29.269531 11.875 C 29.375 11.394531 29.480469 10.875 29.605469 10.332031 L 28.8125 10.167969 C 28.6875 10.75 28.582031 11.332031 28.457031 11.875 L 27.269531 11.875 L 27.269531 12.6875 L 28.269531 12.6875 C 28 13.75 27.707031 14.667969 27.355469 15.375 L 27.542969 16.105469 L 29.417969 16.105469 L 29.417969 17.894531 C 28.707031 18.019531 27.980469 18.144531 27.1875 18.230469 L 27.292969 19.082031 C 28.019531 18.957031 28.730469 18.855469 29.417969 18.707031 L 29.417969 21.207031 L 30.207031 21.207031 L 30.207031 18.542969 L 31.355469 18.25 L 31.355469 17.4375 C 31 17.519531 30.625 17.625 30.207031 17.730469 L 30.207031 16.105469 L 31.3125 16.105469 L 31.3125 15.3125 L 30.207031 15.3125 L 30.207031 13.542969 Z M 32.957031 12.917969 L 32.957031 13.625 L 36.394531 13.625 L 36.394531 12.917969 L 32.957031 12.917969 C 33.5625 12.332031 34.144531 11.6875 34.707031 11 C 35.625 12.167969 36.644531 13.167969 37.769531 13.980469 L 38.230469 13.3125 C 37.144531 12.542969 36.082031 11.519531 35.019531 10.230469 L 34.417969 10.230469 C 33.4375 11.417969 32.332031 12.480469 31.105469 13.375 L 31.582031 14.105469 C 32.042969 13.730469 32.5 13.332031 32.957031 12.917969 Z M 33.792969 21.125 C 34.375 21.125 34.6875 20.8125 34.6875 20.1875 L 34.6875 14.582031 L 31.855469 14.582031 L 31.855469 21.207031 L 32.605469 21.207031 L 32.605469 18.957031 L 33.957031 18.957031 L 33.957031 20.042969 C 33.957031 20.292969 33.8125 20.4375 33.5625 20.4375 L 33.019531 20.417969 L 33.207031 21.125 Z M 32.605469 18.292969 L 32.605469 17.144531 L 33.957031 17.144531 L 33.957031 18.292969 Z M 32.605469 16.480469 L 32.605469 15.292969 L 33.957031 15.292969 L 33.957031 16.480469 Z M 35.394531 14.917969 L 35.394531 19.230469 L 36.082031 19.230469 L 36.082031 14.917969 Z M 36.707031 21.144531 C 37.292969 21.144531 37.582031 20.792969 37.582031 20.105469 L 37.582031 14.375 L 36.832031 14.375 L 36.832031 19.917969 C 36.832031 20.25 36.707031 20.4375 36.4375 20.4375 C 36.144531 20.4375 35.832031 20.417969 35.519531 20.375 L 35.6875 21.144531 Z M 36.707031 21.144531 "/>
<path style=" stroke:none;fill-rule:nonzero;fill:rgb(0%,0%,0%);fill-opacity:1;" d="M 44.144531 12.980469 C 43.375 16.167969 41.707031 18.625 39.125 20.292969 L 39.644531 21.042969 C 42.167969 19.394531 43.832031 17.042969 44.625 13.980469 C 44.6875 14.125 44.730469 14.292969 44.8125 14.5 C 46.042969 17.667969 47.625 19.855469 49.582031 21.019531 L 50.125 20.332031 C 48.207031 19.144531 46.707031 17.105469 45.582031 14.25 C 44.855469 12.292969 43.9375 10.9375 42.875 10.1875 L 42.167969 10.644531 C 42.917969 11.207031 43.582031 11.980469 44.144531 12.980469 Z M 44.144531 12.980469 "/>
</g>
</svg>
