<?xml version="1.0" encoding="UTF-8"?>
<svg xmlns="http://www.w3.org/2000/svg" xmlns:xlink="http://www.w3.org/1999/xlink" width="396" height="126.666667" viewBox="0 0 396 126.666667" version="1.1">
<g id="surface1">
<path style=" stroke:none;fill-rule:nonzero;fill:rgb(100%,100%,100%);fill-opacity:1;" d="M 0.667969 84.667969 L 100.667969 84.667969 L 100.667969 42.667969 L 0.667969 42.667969 Z M 0.667969 84.667969 "/>
<path style="fill:none;stroke-width:1;stroke-linecap:round;stroke-linejoin:round;stroke:rgb(0%,0%,0%);stroke-opacity:1;stroke-miterlimit:10;" d="M 91.500977 164.000977 L 166.500977 164.000977 L 166.500977 195.500977 L 91.500977 195.500977 Z M 91.500977 164.000977 " transform="matrix(1.333333,0,0,1.333333,-121.333333,-176)"/>
<path style=" stroke:none;fill-rule:nonzero;fill:rgb(0%,0%,0%);fill-opacity:1;" d="M 16.605469 58.75 L 16 59.3125 C 16.8125 59.957031 17.457031 60.5625 17.917969 61.125 L 18.5 60.542969 C 18 59.9375 17.355469 59.355469 16.605469 58.75 Z M 15.207031 62.230469 L 15.207031 63.0625 L 16.875 63.0625 L 16.875 67.8125 C 16.875 68 16.769531 68.1875 16.605469 68.355469 L 16.9375 69.105469 C 17.792969 68.5625 18.582031 67.9375 19.355469 67.230469 L 19.105469 66.3125 C 18.625 66.792969 18.144531 67.1875 17.707031 67.5625 L 17.707031 62.230469 Z M 19.457031 63.625 L 19.457031 64.480469 L 20.125 64.480469 C 20.457031 65.519531 21.082031 66.457031 21.980469 67.292969 C 21.082031 67.917969 19.980469 68.4375 18.644531 68.832031 L 19.125 69.5625 C 20.519531 69.144531 21.707031 68.582031 22.667969 67.855469 C 23.519531 68.5 24.5625 69.0625 25.8125 69.5625 L 26.292969 68.832031 C 25.105469 68.394531 24.105469 67.894531 23.292969 67.332031 C 24.167969 66.519531 24.792969 65.542969 25.1875 64.417969 L 25.1875 63.625 Z M 20.9375 64.480469 L 24.332031 64.480469 C 23.9375 65.355469 23.375 66.125 22.605469 66.792969 C 21.8125 66.105469 21.25 65.332031 20.9375 64.480469 Z M 20.394531 59 L 20.394531 60.332031 C 20.394531 61.269531 19.855469 62 18.8125 62.519531 L 19.394531 63.1875 C 20.625 62.480469 21.25 61.5 21.25 60.230469 L 21.25 59.8125 L 23.5625 59.8125 L 23.5625 61.769531 C 23.5625 62.480469 23.9375 62.832031 24.667969 62.832031 L 26 62.832031 L 26 62.042969 L 24.894531 62.042969 C 24.582031 62.042969 24.417969 61.894531 24.417969 61.582031 L 24.417969 59 Z M 20.394531 59 "/>
<path style=" stroke:none;fill-rule:nonzero;fill:rgb(0%,0%,0%);fill-opacity:1;" d="M 30.957031 62.125 L 30.957031 63 L 34.207031 63 L 34.207031 69.5625 L 35.105469 69.5625 L 35.105469 63 L 38.1875 63 L 38.1875 62.125 L 35.105469 62.125 L 35.105469 58.519531 L 34.207031 58.519531 L 34.207031 62.125 Z M 28.605469 58.644531 L 28.019531 59.230469 C 28.875 59.875 29.5625 60.5 30.082031 61.105469 L 30.667969 60.5 C 30.105469 59.875 29.417969 59.269531 28.605469 58.644531 Z M 27.207031 62.207031 L 27.207031 63.019531 L 28.980469 63.019531 L 28.980469 67.8125 C 28.980469 68 28.875 68.1875 28.6875 68.3125 L 29.019531 69.105469 C 29.875 68.542969 30.6875 67.894531 31.4375 67.1875 L 31.207031 66.292969 C 30.707031 66.769531 30.230469 67.1875 29.792969 67.542969 L 29.792969 62.207031 Z M 27.207031 62.207031 "/>
<path style=" stroke:none;fill-rule:nonzero;fill:rgb(0%,0%,0%);fill-opacity:1;" d="M 39.269531 63.5 L 39.269531 64.355469 L 50.0625 64.355469 L 50.0625 63.5 Z M 39.269531 63.5 "/>
<path style=" stroke:none;fill-rule:nonzero;fill:rgb(0%,0%,0%);fill-opacity:1;" d="M 56.230469 62.082031 L 56.230469 69.519531 L 57.105469 69.519531 L 57.105469 62.082031 Z M 56.292969 58.542969 C 55.0625 60.332031 53.332031 61.8125 51.105469 62.957031 L 51.625 63.730469 C 53.644531 62.707031 55.332031 61.25 56.667969 59.355469 C 57.769531 61.082031 59.457031 62.519531 61.707031 63.6875 L 62.230469 62.917969 C 59.792969 61.644531 58.0625 60.1875 57.042969 58.542969 Z M 56.292969 58.542969 "/>
<path style=" stroke:none;fill-rule:nonzero;fill:rgb(0%,0%,0%);fill-opacity:1;" d="M 66.855469 59.519531 L 66.855469 60.292969 L 68.605469 60.292969 L 68.605469 61.1875 L 69.417969 61.1875 L 69.417969 60.292969 L 71.332031 60.292969 L 71.332031 61.1875 L 72.167969 61.1875 L 72.167969 60.292969 L 74.019531 60.292969 L 74.019531 59.519531 L 72.167969 59.519531 L 72.167969 58.5625 L 71.332031 58.5625 L 71.332031 59.519531 L 69.417969 59.519531 L 69.417969 58.5625 L 68.605469 58.5625 L 68.605469 59.519531 Z M 70.230469 67.0625 C 70.917969 68.0625 72.042969 68.894531 73.605469 69.5625 L 74.167969 68.875 C 72.75 68.375 71.707031 67.730469 71 66.894531 L 74.042969 66.894531 L 74.042969 66.105469 L 70.582031 66.105469 C 70.667969 65.832031 70.730469 65.542969 70.769531 65.207031 L 73.230469 65.207031 L 73.230469 61.5625 L 67.5 61.5625 L 67.5 65.207031 L 70.019531 65.207031 C 69.957031 65.519531 69.875 65.832031 69.792969 66.105469 L 66.625 66.105469 L 66.625 66.894531 L 69.417969 66.894531 C 69.332031 67.082031 69.207031 67.230469 69.082031 67.375 C 68.5625 68 67.707031 68.457031 66.5 68.792969 L 66.8125 69.5 C 68.207031 69.105469 69.167969 68.582031 69.707031 67.875 C 69.894531 67.644531 70.082031 67.355469 70.230469 67.0625 Z M 65.6875 63.394531 C 66 63.875 66.394531 64.519531 66.832031 65.3125 L 67.292969 64.625 C 66.730469 63.8125 66.207031 63.105469 65.6875 62.480469 L 65.6875 61.6875 L 66.957031 61.6875 L 66.957031 60.894531 L 65.6875 60.894531 L 65.6875 58.582031 L 64.875 58.582031 L 64.875 60.894531 L 63.480469 60.894531 L 63.480469 61.6875 L 64.875 61.6875 L 64.875 61.75 C 64.519531 63.230469 63.917969 64.519531 63.082031 65.667969 L 63.457031 66.605469 C 64.042969 65.6875 64.5 64.644531 64.875 63.519531 L 64.875 69.5 L 65.6875 69.5 Z M 72.457031 64.519531 L 68.269531 64.519531 L 68.269531 63.707031 L 72.457031 63.707031 Z M 68.269531 63.0625 L 68.269531 62.269531 L 72.457031 62.269531 L 72.457031 63.0625 Z M 68.269531 63.0625 "/>
<path style=" stroke:none;fill-rule:nonzero;fill:rgb(0%,0%,0%);fill-opacity:1;" d="M 75.792969 59.0625 L 75.792969 59.832031 L 77 59.832031 L 77 61.644531 L 75.480469 61.644531 L 75.480469 62.4375 L 76.957031 62.4375 C 76.832031 63.417969 76.4375 64.144531 75.769531 64.644531 L 76.417969 65.207031 C 77.207031 64.582031 77.667969 63.667969 77.792969 62.4375 L 79.375 62.4375 L 79.375 65.0625 L 80.207031 65.0625 L 80.207031 62.4375 L 81.6875 62.4375 L 81.6875 61.644531 L 80.207031 61.644531 L 80.207031 59.832031 L 81.417969 59.832031 L 81.417969 59.0625 Z M 77.832031 59.832031 L 79.375 59.832031 L 79.375 61.644531 L 77.832031 61.644531 Z M 82.394531 59.355469 L 82.394531 63.480469 L 83.230469 63.480469 L 83.230469 59.355469 Z M 76.0625 66.25 L 76.0625 67.042969 L 80.292969 67.042969 L 80.292969 68.4375 L 75.394531 68.4375 L 75.394531 69.230469 L 85.9375 69.230469 L 85.9375 68.4375 L 81.144531 68.4375 L 81.144531 67.042969 L 85.269531 67.042969 L 85.269531 66.25 L 81.144531 66.25 L 81.144531 65.207031 L 80.292969 65.207031 L 80.292969 66.25 Z M 84.4375 65.1875 C 85.0625 65.1875 85.394531 64.8125 85.394531 64.082031 L 85.394531 58.6875 L 84.5625 58.6875 L 84.5625 63.875 C 84.5625 64.230469 84.417969 64.417969 84.144531 64.417969 C 83.667969 64.417969 83.167969 64.394531 82.644531 64.355469 L 82.832031 65.1875 Z M 84.4375 65.1875 "/>
<path style=" stroke:none;fill-rule:nonzero;fill:rgb(69.803923%,85.09804%,100%);fill-opacity:1;" d="M 148 84.667969 L 248 84.667969 L 248 42.667969 L 148 42.667969 Z M 148 84.667969 "/>
<path style="fill:none;stroke-width:1;stroke-linecap:round;stroke-linejoin:round;stroke:rgb(0%,0%,0%);stroke-opacity:1;stroke-miterlimit:10;" d="M 202 164.000977 L 277 164.000977 L 277 195.500977 L 202 195.500977 Z M 202 164.000977 " transform="matrix(1.333333,0,0,1.333333,-121.333333,-176)"/>
<path style=" stroke:none;fill-rule:nonzero;fill:rgb(0%,0%,0%);fill-opacity:1;" d="M 168.730469 59.457031 L 168.730469 60.230469 L 171.519531 60.230469 L 171.519531 61.105469 L 172.417969 61.105469 L 172.417969 60.230469 L 175.582031 60.230469 L 175.582031 61.105469 L 176.480469 61.105469 L 176.480469 60.230469 L 179.269531 60.230469 L 179.269531 59.457031 L 176.480469 59.457031 L 176.480469 58.480469 L 175.582031 58.480469 L 175.582031 59.457031 L 172.417969 59.457031 L 172.417969 58.480469 L 171.519531 58.480469 L 171.519531 59.457031 Z M 172.082031 61.394531 C 171.769531 61.832031 171.417969 62.207031 171.0625 62.5625 C 170.707031 62.125 170.269531 61.75 169.769531 61.4375 L 169.144531 61.980469 C 169.644531 62.269531 170.082031 62.644531 170.457031 63.082031 C 169.894531 63.5 169.269531 63.855469 168.582031 64.144531 L 169.042969 64.875 C 169.769531 64.5 170.394531 64.125 170.894531 63.769531 C 171.105469 64.105469 171.25 64.480469 171.355469 64.894531 C 170.730469 65.605469 169.855469 66.230469 168.75 66.730469 L 169.207031 67.4375 C 170.105469 66.980469 170.875 66.4375 171.519531 65.769531 C 171.582031 66.105469 171.605469 66.480469 171.605469 66.855469 C 171.582031 67.644531 171.519531 68.167969 171.375 68.417969 C 171.25 68.605469 171.042969 68.707031 170.730469 68.707031 C 170.332031 68.707031 169.9375 68.6875 169.5625 68.667969 L 169.792969 69.457031 C 170.082031 69.457031 170.457031 69.480469 170.9375 69.480469 C 171.375 69.480469 171.730469 69.355469 171.957031 69.105469 C 172.25 68.707031 172.417969 67.980469 172.417969 66.917969 C 172.417969 65.457031 172.125 64.25 171.519531 63.25 C 171.957031 62.855469 172.375 62.394531 172.8125 61.832031 Z M 173 63.5 L 173 64.3125 L 175.4375 64.3125 C 175.207031 66.0625 174.332031 67.582031 172.769531 68.894531 L 173.332031 69.519531 C 174.667969 68.4375 175.582031 67.082031 176.0625 65.457031 C 176.519531 67.105469 177.4375 68.4375 178.832031 69.480469 L 179.394531 68.832031 C 177.894531 67.769531 176.894531 66.25 176.417969 64.3125 L 179.105469 64.3125 L 179.105469 63.5 L 176.355469 63.5 C 176.355469 62.730469 176.375 62.0625 176.375 61.5 L 175.519531 61.5 C 175.519531 61.957031 175.5 62.625 175.480469 63.5 Z M 177.582031 61.25 L 176.9375 61.644531 C 177.519531 62.207031 177.980469 62.730469 178.3125 63.207031 L 178.957031 62.75 C 178.625 62.3125 178.167969 61.8125 177.582031 61.25 Z M 177.582031 61.25 "/>
<path style=" stroke:none;fill-rule:nonzero;fill:rgb(0%,0%,0%);fill-opacity:1;" d="M 186.5625 66.25 C 186.207031 66.332031 185.855469 66.417969 185.480469 66.5 L 185.480469 59.8125 L 186.394531 59.8125 L 186.394531 60.480469 L 186.875 60.480469 C 187.042969 62.5 187.5625 64.355469 188.457031 66.0625 C 187.8125 67.144531 187 68.0625 186.042969 68.832031 L 186.625 69.5 C 187.519531 68.792969 188.292969 67.917969 188.9375 66.917969 C 189.5 67.8125 190.167969 68.6875 190.957031 69.5 L 191.542969 68.855469 C 190.6875 68.019531 189.980469 67.105469 189.394531 66.125 C 190.230469 64.5625 190.769531 62.667969 191.042969 60.4375 L 191.042969 59.644531 L 186.394531 59.644531 L 186.394531 59 L 180.6875 59 L 180.6875 59.8125 L 181.625 59.8125 L 181.625 67.25 C 181.269531 67.292969 180.917969 67.355469 180.542969 67.394531 L 180.75 68.230469 C 182.105469 68.042969 183.375 67.8125 184.625 67.5625 L 184.625 69.542969 L 185.480469 69.542969 L 185.480469 67.355469 C 185.832031 67.269531 186.1875 67.1875 186.5625 67.105469 Z M 187.667969 60.480469 L 190.230469 60.480469 C 190 62.269531 189.5625 63.855469 188.917969 65.207031 C 188.230469 63.792969 187.8125 62.207031 187.667969 60.480469 Z M 184.625 66.707031 C 183.917969 66.855469 183.207031 66.980469 182.480469 67.105469 L 182.480469 65.0625 L 184.625 65.0625 Z M 182.480469 64.292969 L 182.480469 62.457031 L 184.625 62.457031 L 184.625 64.292969 Z M 182.480469 61.667969 L 182.480469 59.8125 L 184.625 59.8125 L 184.625 61.667969 Z M 182.480469 61.667969 "/>
<path style=" stroke:none;fill-rule:nonzero;fill:rgb(0%,0%,0%);fill-opacity:1;" d="M 202.730469 58.644531 C 201.5625 59.144531 200.25 59.4375 198.8125 59.457031 L 198.8125 64.582031 C 198.75 66.417969 198.355469 67.832031 197.644531 68.875 L 198.269531 69.519531 C 199.125 68.292969 199.582031 66.644531 199.644531 64.582031 L 199.644531 63.167969 L 201.417969 63.167969 L 201.417969 69.5625 L 202.269531 69.5625 L 202.269531 63.167969 L 203.519531 63.167969 L 203.519531 62.332031 L 199.644531 62.332031 L 199.644531 60.144531 C 200.9375 60.082031 202.105469 59.832031 203.167969 59.417969 Z M 192.730469 59.582031 L 192.730469 60.375 L 198.144531 60.375 L 198.144531 59.582031 L 195.875 59.582031 C 195.707031 59.144531 195.542969 58.75 195.355469 58.375 L 194.480469 58.519531 C 194.667969 58.832031 194.855469 59.1875 195.019531 59.582031 Z M 192.605469 62.292969 L 192.605469 63.082031 L 195.042969 63.082031 L 195.042969 64.417969 L 192.8125 64.417969 L 192.8125 65.207031 L 195.042969 65.207031 L 195.042969 68.394531 C 195.042969 68.6875 194.875 68.832031 194.5625 68.832031 C 194.394531 68.832031 194.230469 68.8125 194.019531 68.769531 L 194.207031 69.582031 L 194.855469 69.582031 C 195.542969 69.582031 195.894531 69.25 195.894531 68.605469 L 195.894531 65.207031 L 198.019531 65.207031 L 198.019531 64.417969 L 195.894531 64.417969 L 195.894531 63.082031 L 198.207031 63.082031 L 198.207031 62.292969 L 196.855469 62.292969 C 197.082031 61.894531 197.292969 61.417969 197.480469 60.894531 L 196.707031 60.644531 C 196.519531 61.207031 196.3125 61.769531 196.082031 62.292969 L 194.75 62.292969 C 194.5625 61.644531 194.355469 61.105469 194.125 60.667969 L 193.355469 60.9375 C 193.605469 61.355469 193.8125 61.8125 194 62.292969 Z M 193.644531 65.855469 C 193.375 66.917969 192.980469 67.875 192.417969 68.75 L 193.125 69.1875 C 193.6875 68.292969 194.125 67.25 194.4375 66.019531 Z M 197.082031 65.769531 L 196.375 65.980469 C 196.707031 66.6875 196.980469 67.4375 197.207031 68.1875 L 197.9375 67.917969 C 197.730469 67.269531 197.457031 66.5625 197.082031 65.769531 Z M 197.082031 65.769531 "/>
<path style=" stroke:none;fill-rule:nonzero;fill:rgb(0%,0%,0%);fill-opacity:1;" d="M 211.894531 61.1875 L 213.667969 61.1875 C 213.625 62.8125 213.375 64.230469 212.894531 65.4375 C 212.417969 64.4375 212.042969 63.230469 211.75 61.8125 Z M 212.5 66.3125 C 211.957031 67.332031 211.230469 68.144531 210.292969 68.792969 L 210.730469 69.519531 C 211.625 68.875 212.375 68.0625 212.957031 67.105469 C 213.542969 68.125 214.269531 68.9375 215.105469 69.542969 L 215.582031 68.832031 C 214.707031 68.230469 213.980469 67.417969 213.355469 66.332031 C 214.042969 64.917969 214.394531 63.1875 214.457031 61.1875 L 215.25 61.1875 L 215.25 60.375 L 212.082031 60.375 C 212.167969 59.832031 212.269531 59.269531 212.332031 58.644531 L 211.5 58.5 C 211.25 60.792969 210.769531 62.605469 210.0625 63.9375 L 210.605469 64.605469 C 210.855469 64.167969 211.105469 63.6875 211.3125 63.125 C 211.644531 64.332031 212.042969 65.375 212.5 66.3125 Z M 206.8125 64.105469 C 206.730469 64.355469 206.644531 64.605469 206.542969 64.875 L 204.769531 64.875 L 204.769531 65.625 L 206.1875 65.625 C 205.957031 66.105469 205.6875 66.582031 205.375 67.125 C 205.957031 67.332031 206.5 67.5625 207.042969 67.792969 C 206.332031 68.1875 205.480469 68.519531 204.5 68.769531 L 204.917969 69.5 C 206.105469 69.167969 207.105469 68.707031 207.894531 68.167969 C 208.605469 68.480469 209.230469 68.792969 209.75 69.105469 L 210.207031 68.4375 C 209.6875 68.144531 209.144531 67.894531 208.5625 67.625 C 209.1875 67.042969 209.625 66.375 209.894531 65.582031 L 209.894531 64.875 L 207.375 64.875 C 207.457031 64.644531 207.542969 64.4375 207.625 64.207031 Z M 207.769531 67.292969 C 207.332031 67.105469 206.875 66.9375 206.394531 66.769531 C 206.644531 66.417969 206.855469 66.019531 207.042969 65.625 L 209.105469 65.625 C 208.832031 66.25 208.375 66.8125 207.769531 67.292969 Z M 205.730469 58.75 L 205.042969 58.980469 C 205.332031 59.4375 205.605469 59.957031 205.855469 60.542969 L 206.480469 60.25 C 206.25 59.730469 206.019531 59.230469 205.730469 58.75 Z M 209.375 58.730469 C 209.167969 59.230469 208.855469 59.730469 208.457031 60.25 L 209.082031 60.5625 C 209.457031 60.0625 209.75 59.542969 210 59 Z M 204.8125 60.832031 L 204.8125 61.582031 L 206.5 61.582031 C 206.144531 62.25 205.5 62.855469 204.582031 63.394531 L 205 64.082031 C 206.019531 63.394531 206.75 62.582031 207.144531 61.625 L 207.144531 63.894531 L 207.957031 63.894531 L 207.957031 62.355469 C 208.375 62.625 208.894531 63.019531 209.5 63.5 L 209.9375 62.832031 C 209.269531 62.417969 208.605469 62.042969 207.957031 61.730469 L 207.957031 61.582031 L 210.125 61.582031 L 210.125 60.832031 L 207.957031 60.832031 L 207.957031 58.542969 L 207.144531 58.542969 L 207.144531 60.832031 Z M 204.8125 60.832031 "/>
<path style=" stroke:none;fill-rule:nonzero;fill:rgb(0%,0%,0%);fill-opacity:1;" d="M 217.957031 69.417969 C 218.644531 69.417969 218.980469 69.0625 218.980469 68.375 L 218.980469 64.875 C 219.355469 64.6875 219.730469 64.519531 220.082031 64.332031 L 220.082031 63.480469 C 219.730469 63.6875 219.355469 63.855469 218.980469 64.019531 L 218.980469 61.667969 L 220.125 61.667969 L 220.125 60.832031 L 218.980469 60.832031 L 218.980469 58.5625 L 218.144531 58.5625 L 218.144531 60.832031 L 216.6875 60.832031 L 216.6875 61.667969 L 218.144531 61.667969 L 218.144531 64.375 C 217.605469 64.5625 217.0625 64.730469 216.5 64.875 L 216.730469 65.707031 C 217.1875 65.5625 217.644531 65.394531 218.144531 65.207031 L 218.144531 68.144531 C 218.144531 68.480469 217.980469 68.667969 217.6875 68.667969 C 217.394531 68.667969 217.082031 68.644531 216.769531 68.605469 L 216.957031 69.417969 Z M 221.5625 64.125 L 224 64.125 L 224 65.605469 L 222 65.605469 L 222 69.542969 L 222.8125 69.542969 L 222.8125 68.9375 L 226.0625 68.9375 L 226.0625 69.542969 L 226.855469 69.542969 L 226.855469 65.605469 L 224.855469 65.605469 L 224.855469 64.125 L 227.417969 64.125 L 227.417969 63.332031 L 224.855469 63.332031 L 224.855469 61.917969 L 227.105469 61.917969 L 227.105469 59 L 220.769531 59 L 220.769531 62.769531 C 220.769531 65.292969 220.332031 67.355469 219.480469 68.9375 L 220.144531 69.542969 C 220.9375 67.980469 221.417969 66.167969 221.5625 64.125 Z M 224 61.917969 L 224 63.332031 L 221.605469 63.332031 C 221.605469 63.144531 221.625 62.957031 221.625 62.769531 L 221.625 61.917969 Z M 222.8125 68.1875 L 222.8125 66.375 L 226.0625 66.375 L 226.0625 68.1875 Z M 226.25 59.8125 L 226.25 61.144531 L 221.625 61.144531 L 221.625 59.8125 Z M 226.25 59.8125 "/>
<path style=" stroke:none;fill-rule:nonzero;fill:rgb(40.000001%,74.901962%,100%);fill-opacity:1;" d="M 295.332031 125.417969 L 395.332031 125.417969 L 395.332031 83.417969 L 295.332031 83.417969 Z M 295.332031 125.417969 "/>
<path style="fill:none;stroke-width:1;stroke-linecap:round;stroke-linejoin:round;stroke:rgb(0%,0%,0%);stroke-opacity:1;stroke-miterlimit:10;" d="M 312.499023 194.563477 L 387.499023 194.563477 L 387.499023 226.063477 L 312.499023 226.063477 Z M 312.499023 194.563477 " transform="matrix(1.333333,0,0,1.333333,-121.333333,-176)"/>
<path style=" stroke:none;fill-rule:nonzero;fill:rgb(0%,0%,0%);fill-opacity:1;" d="M 310.0625 101.625 L 310.0625 102.457031 L 311.519531 102.457031 C 311.167969 104.042969 310.5625 105.417969 309.707031 106.644531 L 310.082031 107.605469 C 310.6875 106.605469 311.167969 105.542969 311.5625 104.332031 L 311.5625 110.230469 L 312.394531 110.230469 L 312.394531 103.917969 C 312.6875 104.355469 313 104.917969 313.394531 105.605469 L 313.875 104.875 C 313.375 104.207031 312.875 103.605469 312.394531 103.0625 L 312.394531 102.457031 L 313.644531 102.457031 L 313.644531 101.625 L 312.394531 101.625 L 312.394531 99.292969 L 311.5625 99.292969 L 311.5625 101.625 Z M 315.394531 102.792969 L 315.394531 103.542969 L 319.0625 103.542969 L 319.0625 102.8125 C 319.457031 103.230469 319.9375 103.625 320.4375 104 L 320.917969 103.269531 C 319.332031 102.125 318.230469 100.8125 317.582031 99.3125 L 316.792969 99.3125 C 316.019531 100.9375 314.917969 102.269531 313.5 103.292969 L 313.980469 104.042969 C 314.480469 103.667969 314.957031 103.269531 315.394531 102.792969 Z M 319 102.75 L 315.4375 102.75 C 316.082031 102.042969 316.667969 101.167969 317.1875 100.144531 C 317.644531 101.125 318.230469 101.980469 319 102.75 Z M 313.792969 109.082031 L 313.792969 109.917969 L 320.667969 109.917969 L 320.667969 109.082031 L 318.792969 109.082031 C 319.292969 107.769531 319.730469 106.269531 320.0625 104.5625 L 319.230469 104.355469 C 318.855469 106.230469 318.4375 107.792969 317.9375 109.082031 Z M 315.125 104.6875 L 314.375 104.9375 C 314.730469 106.042969 315 107.167969 315.25 108.375 L 316 108.167969 C 315.75 106.855469 315.457031 105.6875 315.125 104.6875 Z M 316.980469 104.25 L 316.230469 104.480469 C 316.542969 105.542969 316.8125 106.644531 317.019531 107.792969 L 317.8125 107.605469 C 317.5625 106.332031 317.292969 105.230469 316.980469 104.25 Z M 316.980469 104.25 "/>
<path style=" stroke:none;fill-rule:nonzero;fill:rgb(0%,0%,0%);fill-opacity:1;" d="M 323.769531 103.769531 L 323.769531 108.1875 L 330.9375 108.1875 L 330.9375 103.769531 Z M 330.105469 107.4375 L 324.605469 107.4375 L 324.605469 106.375 L 330.105469 106.375 Z M 324.605469 105.644531 L 324.605469 104.542969 L 330.105469 104.542969 L 330.105469 105.644531 Z M 322.417969 100.355469 L 322.417969 101.144531 L 326.125 101.144531 C 325.1875 102 323.769531 102.707031 321.855469 103.25 L 322.3125 104.019531 C 324.394531 103.269531 325.9375 102.3125 326.875 101.144531 L 326.9375 101.144531 L 326.9375 103.394531 L 327.769531 103.394531 L 327.769531 101.144531 L 327.855469 101.144531 C 328.730469 102.332031 330.269531 103.269531 332.417969 104 L 332.792969 103.230469 C 330.894531 102.730469 329.5 102.019531 328.605469 101.144531 L 332.292969 101.144531 L 332.292969 100.355469 L 327.769531 100.355469 L 327.769531 99.25 L 326.9375 99.25 L 326.9375 100.355469 Z M 322.1875 109.125 L 322.1875 109.9375 L 332.5 109.9375 L 332.5 109.125 Z M 322.1875 109.125 "/>
<path style=" stroke:none;fill-rule:nonzero;fill:rgb(0%,0%,0%);fill-opacity:1;" d="M 335.730469 99.6875 L 335.730469 103.855469 L 343.019531 103.855469 L 343.019531 99.6875 Z M 342.1875 103.125 L 336.582031 103.125 L 336.582031 102.125 L 342.1875 102.125 Z M 336.582031 101.4375 L 336.582031 100.4375 L 342.1875 100.4375 L 342.1875 101.4375 Z M 339.042969 105.542969 L 339.042969 109.125 C 338.792969 109.0625 338.5625 109.019531 338.375 108.957031 C 337.75 108.730469 337.167969 108.1875 336.667969 107.355469 C 336.832031 106.957031 336.957031 106.542969 337.082031 106.105469 L 336.269531 105.957031 C 335.875 107.457031 335.105469 108.644531 334 109.542969 L 334.5625 110.25 C 335.292969 109.667969 335.894531 108.9375 336.355469 108.042969 C 336.832031 108.832031 337.394531 109.355469 338 109.625 C 338.707031 109.9375 340.0625 110.082031 342.042969 110.082031 C 342.707031 110.105469 343.480469 110.125 344.355469 110.125 L 344.582031 109.292969 C 343.875 109.332031 343 109.332031 341.980469 109.332031 C 341.1875 109.332031 340.480469 109.292969 339.917969 109.25 L 339.917969 107.644531 L 343.375 107.644531 L 343.375 106.894531 L 339.917969 106.894531 L 339.917969 105.542969 L 344.644531 105.542969 L 344.644531 104.730469 L 334.019531 104.730469 L 334.019531 105.542969 Z M 339.042969 105.542969 "/>
<path style=" stroke:none;fill-rule:nonzero;fill:rgb(0%,0%,0%);fill-opacity:1;" d="M 346.5 99.832031 L 346.5 100.6875 L 351.394531 100.6875 C 350.332031 102 348.5 103.125 345.9375 104.0625 L 346.480469 104.769531 C 348.292969 104.042969 349.769531 103.207031 350.894531 102.269531 L 350.894531 105.417969 L 351.769531 105.417969 L 351.769531 101.457031 C 351.980469 101.207031 352.1875 100.9375 352.394531 100.6875 L 356.207031 100.6875 L 356.207031 99.832031 Z M 355.3125 105.832031 L 347.375 105.832031 L 347.375 110.230469 L 348.25 110.230469 L 348.25 109.667969 L 354.4375 109.667969 L 354.4375 110.230469 L 355.3125 110.230469 Z M 348.25 108.832031 L 348.25 106.6875 L 354.4375 106.6875 L 354.4375 108.832031 Z M 353.019531 101.75 L 352.457031 102.3125 C 353.957031 103.207031 355.144531 104.0625 356.019531 104.855469 L 356.644531 104.230469 C 355.667969 103.394531 354.457031 102.5625 353.019531 101.75 Z M 353.019531 101.75 "/>
<path style=" stroke:none;fill-rule:nonzero;fill:rgb(0%,0%,0%);fill-opacity:1;" d="M 358.480469 103.457031 L 358.480469 107.332031 L 361.1875 107.332031 L 361.1875 103.207031 L 358.644531 103.207031 C 359.019531 102.667969 359.355469 102.042969 359.605469 101.375 L 362.042969 101.375 C 362.019531 105.25 361.957031 107.5625 361.894531 108.3125 C 361.8125 109.042969 361.5 109.417969 360.980469 109.417969 C 360.667969 109.417969 360.269531 109.375 359.832031 109.355469 L 360.042969 110.125 C 360.542969 110.144531 360.875 110.167969 361.082031 110.167969 C 362.042969 110.167969 362.5625 109.667969 362.667969 108.644531 C 362.792969 107.625 362.832031 104.917969 362.832031 100.542969 L 359.894531 100.542969 C 360 100.1875 360.105469 99.792969 360.1875 99.394531 L 359.332031 99.269531 C 359.082031 100.792969 358.542969 102.0625 357.769531 103.105469 L 358.25 103.75 Z M 360.457031 106.582031 L 359.207031 106.582031 L 359.207031 103.980469 L 360.457031 103.980469 Z M 366.582031 103.875 C 365.9375 105.105469 364.792969 105.980469 363.167969 106.5 L 363.625 107.207031 C 364.582031 106.855469 365.417969 106.394531 366.0625 105.8125 L 367.917969 105.8125 C 367.625 106.625 367.125 107.332031 366.4375 107.9375 C 366.082031 107.542969 365.730469 107.167969 365.332031 106.832031 L 364.730469 107.292969 C 365.105469 107.605469 365.480469 107.957031 365.855469 108.394531 C 365.105469 108.875 364.1875 109.269531 363.082031 109.582031 L 363.480469 110.332031 C 366.394531 109.4375 368.167969 107.917969 368.75 105.792969 L 368.75 105.105469 L 366.730469 105.105469 C 366.9375 104.832031 367.125 104.519531 367.292969 104.1875 Z M 365.519531 99.25 C 365.125 100.207031 364.332031 101.042969 363.1875 101.707031 L 363.6875 102.355469 C 364.3125 101.957031 364.855469 101.542969 365.292969 101.082031 L 367.332031 101.082031 C 367.019531 101.75 366.542969 102.355469 365.957031 102.855469 C 365.730469 102.5625 365.417969 102.25 365.019531 101.957031 L 364.457031 102.394531 C 364.730469 102.582031 365.042969 102.875 365.394531 103.269531 C 364.792969 103.667969 364.042969 103.980469 363.1875 104.230469 L 363.625 104.875 C 366.0625 104.125 367.5625 102.832031 368.144531 101.042969 L 368.144531 100.332031 L 365.875 100.332031 C 366.0625 100.042969 366.230469 99.730469 366.355469 99.417969 Z M 365.519531 99.25 "/>
<path style=" stroke:none;fill-rule:nonzero;fill:rgb(0%,0%,0%);fill-opacity:1;" d="M 371.894531 99.144531 C 371.75 99.980469 371.605469 100.769531 371.4375 101.5625 L 370 101.5625 L 370 102.394531 L 371.269531 102.394531 C 370.980469 103.625 370.644531 104.769531 370.292969 105.8125 C 370.957031 106.3125 371.582031 106.769531 372.125 107.230469 C 371.5625 108.167969 370.832031 108.957031 369.917969 109.605469 L 370.5 110.332031 C 371.4375 109.625 372.207031 108.769531 372.792969 107.769531 C 373.394531 108.269531 373.917969 108.730469 374.332031 109.167969 L 374.917969 108.480469 C 374.480469 108.042969 373.894531 107.5625 373.207031 107.019531 C 373.875 105.625 374.269531 103.957031 374.375 102.0625 L 374.375 101.5625 L 372.3125 101.5625 C 372.457031 100.855469 372.605469 100.0625 372.75 99.230469 Z M 372.519531 106.5 C 372.125 106.207031 371.6875 105.894531 371.230469 105.5625 C 371.542969 104.730469 371.832031 103.667969 372.125 102.394531 L 373.542969 102.394531 C 373.417969 103.9375 373.082031 105.3125 372.519531 106.5 Z M 374.792969 104.3125 L 374.792969 105.167969 L 377.5 105.167969 L 377.5 108.730469 C 377.5 109.144531 377.355469 109.355469 377.082031 109.355469 C 376.5 109.355469 375.980469 109.332031 375.480469 109.332031 L 375.707031 110.144531 L 377.4375 110.144531 C 378.0625 110.144531 378.375 109.769531 378.375 109 L 378.375 105.167969 L 380.832031 105.167969 L 380.832031 104.3125 L 378.375 104.3125 L 378.375 103.0625 C 379.105469 102.355469 379.769531 101.5625 380.332031 100.75 L 380.332031 99.894531 L 375.144531 99.894531 L 375.144531 100.75 L 379.355469 100.75 C 378.769531 101.5625 378.144531 102.25 377.5 102.8125 L 377.5 104.3125 Z M 374.792969 104.3125 "/>
<path style=" stroke:none;fill-rule:nonzero;fill:rgb(100%,100%,100%);fill-opacity:1;" d="M 295.332031 43.917969 L 395.332031 43.917969 L 395.332031 1.917969 L 295.332031 1.917969 Z M 295.332031 43.917969 "/>
<path style="fill:none;stroke-width:1;stroke-linecap:round;stroke-linejoin:round;stroke:rgb(0%,0%,0%);stroke-opacity:1;stroke-miterlimit:10;" d="M 312.499023 133.438477 L 387.499023 133.438477 L 387.499023 164.938477 L 312.499023 164.938477 Z M 312.499023 133.438477 " transform="matrix(1.333333,0,0,1.333333,-121.333333,-176)"/>
<path style=" stroke:none;fill-rule:nonzero;fill:rgb(0%,0%,0%);fill-opacity:1;" d="M 322.1875 18.25 L 322.1875 19.0625 L 326.894531 19.0625 L 326.894531 20.105469 L 323.230469 20.105469 L 323.230469 24.855469 L 326.75 24.855469 C 326.625 25.480469 326.417969 26 326.125 26.417969 C 325.457031 26.0625 324.832031 25.644531 324.269531 25.1875 L 323.605469 25.644531 C 324.1875 26.144531 324.832031 26.582031 325.542969 26.980469 C 324.769531 27.519531 323.542969 27.855469 321.875 28 L 322.25 28.792969 C 324.144531 28.5625 325.542969 28.105469 326.375 27.394531 C 328.167969 28.207031 330.269531 28.667969 332.667969 28.769531 L 332.894531 27.9375 C 330.582031 27.875 328.582031 27.480469 326.917969 26.769531 C 327.25 26.292969 327.480469 25.644531 327.625 24.855469 L 331.480469 24.855469 L 331.480469 20.105469 L 327.769531 20.105469 L 327.769531 19.0625 L 332.480469 19.0625 L 332.480469 18.25 Z M 330.625 24.105469 L 327.730469 24.105469 L 327.769531 23.25 L 327.769531 22.832031 L 330.625 22.832031 Z M 326.875 24.105469 L 324.082031 24.105469 L 324.082031 22.832031 L 326.894531 22.832031 L 326.894531 23.25 C 326.894531 23.542969 326.894531 23.832031 326.875 24.105469 Z M 324.082031 22.105469 L 324.082031 20.855469 L 326.894531 20.855469 L 326.894531 22.105469 Z M 327.769531 20.855469 L 330.625 20.855469 L 330.625 22.105469 L 327.769531 22.105469 Z M 327.769531 20.855469 "/>
<path style=" stroke:none;fill-rule:nonzero;fill:rgb(0%,0%,0%);fill-opacity:1;" d="M 344.0625 17.894531 C 342.894531 18.394531 341.582031 18.6875 340.144531 18.707031 L 340.144531 23.832031 C 340.082031 25.667969 339.6875 27.082031 338.980469 28.125 L 339.605469 28.769531 C 340.457031 27.542969 340.917969 25.894531 340.980469 23.832031 L 340.980469 22.417969 L 342.75 22.417969 L 342.75 28.8125 L 343.605469 28.8125 L 343.605469 22.417969 L 344.855469 22.417969 L 344.855469 21.582031 L 340.980469 21.582031 L 340.980469 19.394531 C 342.269531 19.332031 343.4375 19.082031 344.5 18.667969 Z M 334.0625 18.832031 L 334.0625 19.625 L 339.480469 19.625 L 339.480469 18.832031 L 337.207031 18.832031 C 337.042969 18.394531 336.875 18 336.6875 17.625 L 335.8125 17.769531 C 336 18.082031 336.1875 18.4375 336.355469 18.832031 Z M 333.9375 21.542969 L 333.9375 22.332031 L 336.375 22.332031 L 336.375 23.667969 L 334.144531 23.667969 L 334.144531 24.457031 L 336.375 24.457031 L 336.375 27.644531 C 336.375 27.9375 336.207031 28.082031 335.894531 28.082031 C 335.730469 28.082031 335.5625 28.0625 335.355469 28.019531 L 335.542969 28.832031 L 336.1875 28.832031 C 336.875 28.832031 337.230469 28.5 337.230469 27.855469 L 337.230469 24.457031 L 339.355469 24.457031 L 339.355469 23.667969 L 337.230469 23.667969 L 337.230469 22.332031 L 339.542969 22.332031 L 339.542969 21.542969 L 338.1875 21.542969 C 338.417969 21.144531 338.625 20.667969 338.8125 20.144531 L 338.042969 19.894531 C 337.855469 20.457031 337.644531 21.019531 337.417969 21.542969 L 336.082031 21.542969 C 335.894531 20.894531 335.6875 20.355469 335.457031 19.917969 L 334.6875 20.1875 C 334.9375 20.605469 335.144531 21.0625 335.332031 21.542969 Z M 334.980469 25.105469 C 334.707031 26.167969 334.3125 27.125 333.75 28 L 334.457031 28.4375 C 335.019531 27.542969 335.457031 26.5 335.769531 25.269531 Z M 338.417969 25.019531 L 337.707031 25.230469 C 338.042969 25.9375 338.3125 26.6875 338.542969 27.4375 L 339.269531 27.167969 C 339.0625 26.519531 338.792969 25.8125 338.417969 25.019531 Z M 338.417969 25.019531 "/>
<path style=" stroke:none;fill-rule:nonzero;fill:rgb(0%,0%,0%);fill-opacity:1;" d="M 349.519531 18.769531 L 349.519531 19.542969 L 351.269531 19.542969 L 351.269531 20.4375 L 352.082031 20.4375 L 352.082031 19.542969 L 354 19.542969 L 354 20.4375 L 354.832031 20.4375 L 354.832031 19.542969 L 356.6875 19.542969 L 356.6875 18.769531 L 354.832031 18.769531 L 354.832031 17.8125 L 354 17.8125 L 354 18.769531 L 352.082031 18.769531 L 352.082031 17.8125 L 351.269531 17.8125 L 351.269531 18.769531 Z M 352.894531 26.3125 C 353.582031 27.3125 354.707031 28.144531 356.269531 28.8125 L 356.832031 28.125 C 355.417969 27.625 354.375 26.980469 353.667969 26.144531 L 356.707031 26.144531 L 356.707031 25.355469 L 353.25 25.355469 C 353.332031 25.082031 353.394531 24.792969 353.4375 24.457031 L 355.894531 24.457031 L 355.894531 20.8125 L 350.167969 20.8125 L 350.167969 24.457031 L 352.6875 24.457031 C 352.625 24.769531 352.542969 25.082031 352.457031 25.355469 L 349.292969 25.355469 L 349.292969 26.144531 L 352.082031 26.144531 C 352 26.332031 351.875 26.480469 351.75 26.625 C 351.230469 27.25 350.375 27.707031 349.167969 28.042969 L 349.480469 28.75 C 350.875 28.355469 351.832031 27.832031 352.375 27.125 C 352.5625 26.894531 352.75 26.605469 352.894531 26.3125 Z M 348.355469 22.644531 C 348.667969 23.125 349.0625 23.769531 349.5 24.5625 L 349.957031 23.875 C 349.394531 23.0625 348.875 22.355469 348.355469 21.730469 L 348.355469 20.9375 L 349.625 20.9375 L 349.625 20.144531 L 348.355469 20.144531 L 348.355469 17.832031 L 347.542969 17.832031 L 347.542969 20.144531 L 346.144531 20.144531 L 346.144531 20.9375 L 347.542969 20.9375 L 347.542969 21 C 347.1875 22.480469 346.582031 23.769531 345.75 24.917969 L 346.125 25.855469 C 346.707031 24.9375 347.167969 23.894531 347.542969 22.769531 L 347.542969 28.75 L 348.355469 28.75 Z M 355.125 23.769531 L 350.9375 23.769531 L 350.9375 22.957031 L 355.125 22.957031 Z M 350.9375 22.3125 L 350.9375 21.519531 L 355.125 21.519531 L 355.125 22.3125 Z M 350.9375 22.3125 "/>
<path style=" stroke:none;fill-rule:nonzero;fill:rgb(0%,0%,0%);fill-opacity:1;" d="M 358.457031 18.3125 L 358.457031 19.082031 L 359.667969 19.082031 L 359.667969 20.894531 L 358.144531 20.894531 L 358.144531 21.6875 L 359.625 21.6875 C 359.5 22.667969 359.105469 23.394531 358.4375 23.894531 L 359.082031 24.457031 C 359.875 23.832031 360.332031 22.917969 360.457031 21.6875 L 362.042969 21.6875 L 362.042969 24.3125 L 362.875 24.3125 L 362.875 21.6875 L 364.355469 21.6875 L 364.355469 20.894531 L 362.875 20.894531 L 362.875 19.082031 L 364.082031 19.082031 L 364.082031 18.3125 Z M 360.5 19.082031 L 362.042969 19.082031 L 362.042969 20.894531 L 360.5 20.894531 Z M 365.0625 18.605469 L 365.0625 22.730469 L 365.894531 22.730469 L 365.894531 18.605469 Z M 358.730469 25.5 L 358.730469 26.292969 L 362.957031 26.292969 L 362.957031 27.6875 L 358.0625 27.6875 L 358.0625 28.480469 L 368.605469 28.480469 L 368.605469 27.6875 L 363.8125 27.6875 L 363.8125 26.292969 L 367.9375 26.292969 L 367.9375 25.5 L 363.8125 25.5 L 363.8125 24.457031 L 362.957031 24.457031 L 362.957031 25.5 Z M 367.105469 24.4375 C 367.730469 24.4375 368.0625 24.0625 368.0625 23.332031 L 368.0625 17.9375 L 367.230469 17.9375 L 367.230469 23.125 C 367.230469 23.480469 367.082031 23.667969 366.8125 23.667969 C 366.332031 23.667969 365.832031 23.644531 365.3125 23.605469 L 365.5 24.4375 Z M 367.105469 24.4375 "/>
<path style="fill:none;stroke-width:1;stroke-linecap:round;stroke-linejoin:miter;stroke:rgb(0%,0%,0%);stroke-opacity:1;stroke-miterlimit:10;" d="M 167.5 179.499023 L 196.102539 179.598633 " transform="matrix(1.333333,0,0,1.333333,-121.333333,-176)"/>
<path style="fill:none;stroke-width:1;stroke-linecap:butt;stroke-linejoin:miter;stroke:rgb(0%,0%,0%);stroke-opacity:1;stroke-miterlimit:10;" d="M 200.101562 179.613281 L 196.102539 179.598633 M 196.105469 178.098633 L 200.101562 179.613281 L 196.09375 181.098633 " transform="matrix(1.333333,0,0,1.333333,-121.333333,-176)"/>
<path style="fill:none;stroke-width:1;stroke-linecap:round;stroke-linejoin:miter;stroke:rgb(0%,0%,0%);stroke-opacity:1;stroke-miterlimit:10;" d="M 239.5 164.000977 L 239.5 154.450195 C 239.5 151.6875 241.738281 149.449219 244.500977 149.449219 L 269.851562 149.449219 C 269.87207 149.449219 269.886719 149.449219 269.901367 149.449219 L 296.573242 149.188477 C 296.59375 149.188477 296.608398 149.188477 296.625977 149.188477 L 306.601562 149.188477 " transform="matrix(1.333333,0,0,1.333333,-121.333333,-176)"/>
<path style="fill:none;stroke-width:1;stroke-linecap:butt;stroke-linejoin:miter;stroke:rgb(0%,0%,0%);stroke-opacity:1;stroke-miterlimit:10;" d="M 310.600586 149.188477 L 306.601562 149.188477 M 306.601562 147.688477 L 310.600586 149.188477 L 306.601562 150.688477 " transform="matrix(1.333333,0,0,1.333333,-121.333333,-176)"/>
<path style="fill:none;stroke-width:1;stroke-linecap:round;stroke-linejoin:miter;stroke:rgb(0%,0%,0%);stroke-opacity:1;stroke-miterlimit:10;" d="M 349.999023 164.938477 L 349.999023 188.663086 " transform="matrix(1.333333,0,0,1.333333,-121.333333,-176)"/>
<path style="fill:none;stroke-width:1;stroke-linecap:butt;stroke-linejoin:miter;stroke:rgb(0%,0%,0%);stroke-opacity:1;stroke-miterlimit:10;" d="M 349.999023 192.665039 L 349.999023 188.663086 M 351.499023 188.663086 L 349.999023 192.665039 L 348.499023 188.663086 " transform="matrix(1.333333,0,0,1.333333,-121.333333,-176)"/>
<path style="fill:none;stroke-width:1;stroke-linecap:round;stroke-linejoin:miter;stroke:rgb(0%,0%,0%);stroke-opacity:1;stroke-miterlimit:10;" d="M 312.499023 210.313477 L 302.514648 210.313477 C 302.50293 210.313477 302.49707 210.313477 302.485352 210.313477 L 260.207031 210.56543 C 260.198242 210.56543 260.186523 210.56543 260.180664 210.56543 L 244.500977 210.56543 C 241.738281 210.56543 239.5 208.327148 239.5 205.567383 L 239.5 201.398438 " transform="matrix(1.333333,0,0,1.333333,-121.333333,-176)"/>
<path style="fill:none;stroke-width:1;stroke-linecap:butt;stroke-linejoin:miter;stroke:rgb(0%,0%,0%);stroke-opacity:1;stroke-miterlimit:10;" d="M 239.5 197.399414 L 239.5 201.398438 M 238 201.398438 L 239.5 197.399414 L 241 201.398438 " transform="matrix(1.333333,0,0,1.333333,-121.333333,-176)"/>
</g>
</svg>
