<?xml version="1.0" encoding="UTF-8"?>
<svg xmlns="http://www.w3.org/2000/svg" xmlns:xlink="http://www.w3.org/1999/xlink" width="356" height="186.666667" viewBox="0 0 356 186.666667" version="1.1">
<g id="surface1">
<path style=" stroke:none;fill-rule:nonzero;fill:rgb(0%,0%,0%);fill-opacity:1;" d="M 10.082031 166.808594 L 10.082031 168.578125 L 8.894531 168.578125 C 9.1875 167.808594 9.480469 166.933594 9.730469 165.953125 L 12.042969 165.953125 L 12.042969 165.140625 L 9.9375 165.140625 C 10.042969 164.664062 10.144531 164.140625 10.269531 163.601562 L 9.480469 163.433594 C 9.355469 164.015625 9.25 164.601562 9.125 165.140625 L 7.9375 165.140625 L 7.9375 165.953125 L 8.9375 165.953125 C 8.667969 167.015625 8.375 167.933594 8.019531 168.640625 L 8.207031 169.371094 L 10.082031 169.371094 L 10.082031 171.164062 C 9.375 171.289062 8.644531 171.414062 7.855469 171.496094 L 7.957031 172.351562 C 8.6875 172.226562 9.394531 172.121094 10.082031 171.976562 L 10.082031 174.476562 L 10.875 174.476562 L 10.875 171.808594 L 12.019531 171.515625 L 12.019531 170.703125 C 11.667969 170.789062 11.292969 170.890625 10.875 170.996094 L 10.875 169.371094 L 11.980469 169.371094 L 11.980469 168.578125 L 10.875 168.578125 L 10.875 166.808594 Z M 13.625 166.183594 L 13.625 166.890625 L 17.0625 166.890625 L 17.0625 166.183594 L 13.625 166.183594 C 14.230469 165.601562 14.8125 164.953125 15.375 164.265625 C 16.292969 165.433594 17.3125 166.433594 18.4375 167.246094 L 18.894531 166.578125 C 17.8125 165.808594 16.75 164.789062 15.6875 163.496094 L 15.082031 163.496094 C 14.105469 164.683594 13 165.746094 11.769531 166.640625 L 12.25 167.371094 C 12.707031 166.996094 13.167969 166.601562 13.625 166.183594 Z M 14.457031 174.390625 C 15.042969 174.390625 15.355469 174.078125 15.355469 173.453125 L 15.355469 167.851562 L 12.519531 167.851562 L 12.519531 174.476562 L 13.269531 174.476562 L 13.269531 172.226562 L 14.625 172.226562 L 14.625 173.308594 C 14.625 173.558594 14.480469 173.703125 14.230469 173.703125 L 13.6875 173.683594 L 13.875 174.390625 Z M 13.269531 171.558594 L 13.269531 170.414062 L 14.625 170.414062 L 14.625 171.558594 Z M 13.269531 169.746094 L 13.269531 168.558594 L 14.625 168.558594 L 14.625 169.746094 Z M 16.0625 168.183594 L 16.0625 172.496094 L 16.75 172.496094 L 16.75 168.183594 Z M 17.375 174.414062 C 17.957031 174.414062 18.25 174.058594 18.25 173.371094 L 18.25 167.640625 L 17.5 167.640625 L 17.5 173.183594 C 17.5 173.515625 17.375 173.703125 17.105469 173.703125 C 16.8125 173.703125 16.5 173.683594 16.1875 173.640625 L 16.355469 174.414062 Z M 17.375 174.414062 "/>
<path style=" stroke:none;fill-rule:nonzero;fill:rgb(0%,0%,0%);fill-opacity:1;" d="M 24.8125 166.246094 C 24.042969 169.433594 22.375 171.890625 19.792969 173.558594 L 20.3125 174.308594 C 22.832031 172.664062 24.5 170.308594 25.292969 167.246094 C 25.355469 167.390625 25.394531 167.558594 25.480469 167.765625 C 26.707031 170.933594 28.292969 173.121094 30.25 174.289062 L 30.792969 173.601562 C 28.875 172.414062 27.375 170.371094 26.25 167.515625 C 25.519531 165.558594 24.605469 164.203125 23.542969 163.453125 L 22.832031 163.914062 C 23.582031 164.476562 24.25 165.246094 24.8125 166.246094 Z M 24.8125 166.246094 "/>
<path style=" stroke:none;fill-rule:nonzero;fill:rgb(0%,0%,0%);fill-opacity:1;" d="M 35.230469 168.058594 L 35.230469 168.828125 L 41.730469 168.828125 L 41.730469 168.058594 Z M 34.375 170.015625 L 34.375 170.808594 L 37 170.808594 C 36.167969 172.164062 35.457031 172.996094 34.9375 173.308594 C 34.875 173.328125 34.832031 173.371094 34.75 173.390625 L 34.9375 174.121094 C 37.207031 173.976562 39.292969 173.765625 41.1875 173.515625 C 41.4375 173.808594 41.644531 174.121094 41.855469 174.433594 L 42.542969 173.953125 C 42.019531 173.183594 41.25 172.265625 40.269531 171.226562 L 39.625 171.621094 C 39.980469 172.039062 40.332031 172.433594 40.667969 172.828125 C 39.125 173.058594 37.5625 173.226562 35.980469 173.328125 C 36.542969 172.828125 37.1875 171.976562 37.917969 170.808594 L 42.519531 170.808594 L 42.519531 170.015625 Z M 41.0625 164.746094 L 41.0625 166.140625 L 34 166.140625 L 34 164.746094 Z M 34 166.914062 L 41.894531 166.914062 L 41.894531 163.933594 L 33.167969 163.933594 L 33.167969 167.914062 C 33.144531 170.328125 32.730469 172.289062 31.894531 173.808594 L 32.519531 174.390625 C 33.5 172.578125 34 170.414062 34 167.914062 Z M 34 166.914062 "/>
<path style=" stroke:none;fill-rule:nonzero;fill:rgb(0%,0%,0%);fill-opacity:1;" d="M 17.957031 95.859375 L 17.957031 91.773438 L 16.0625 91.773438 C 16.4375 91.359375 16.792969 90.835938 17.167969 90.253906 L 17.167969 89.609375 L 14.375 89.609375 C 14.5 89.378906 14.625 89.109375 14.707031 88.835938 L 13.855469 88.734375 C 13.4375 89.835938 12.644531 90.753906 11.480469 91.523438 L 11.980469 92.191406 C 12.125 92.085938 12.269531 91.984375 12.4375 91.859375 L 12.4375 92.546875 L 17.125 92.546875 L 17.125 93.460938 L 12.269531 93.460938 L 12.269531 94.210938 L 17.125 94.210938 L 17.125 95.109375 L 12 95.109375 L 12 95.859375 Z M 13.917969 90.359375 L 16.207031 90.359375 C 15.855469 90.898438 15.5 91.378906 15.144531 91.773438 L 12.542969 91.773438 C 13.0625 91.359375 13.519531 90.898438 13.917969 90.359375 Z M 8.332031 89.273438 L 8.332031 99.796875 L 9.1875 99.796875 L 9.1875 90.085938 L 10.917969 90.085938 C 10.625 91.109375 10.230469 92.234375 9.730469 93.484375 C 10.375 94.503906 10.6875 95.441406 10.6875 96.253906 C 10.6875 96.503906 10.625 96.691406 10.542969 96.796875 C 10.4375 96.898438 10.230469 96.960938 9.9375 96.984375 C 9.8125 96.984375 9.644531 96.960938 9.480469 96.941406 L 9.75 97.816406 C 10.4375 97.816406 10.9375 97.671875 11.230469 97.378906 C 11.417969 97.148438 11.519531 96.773438 11.519531 96.253906 C 11.480469 95.398438 11.167969 94.421875 10.582031 93.359375 C 11.042969 92.171875 11.4375 91.046875 11.769531 89.960938 L 11.769531 89.273438 Z M 17.792969 96.359375 L 17.042969 96.609375 C 17.457031 97.335938 17.855469 98.171875 18.207031 99.109375 L 18.917969 98.773438 C 18.582031 97.921875 18.207031 97.128906 17.792969 96.359375 Z M 12.105469 96.585938 C 11.917969 97.441406 11.625 98.234375 11.230469 98.941406 L 11.9375 99.398438 C 12.332031 98.648438 12.644531 97.773438 12.875 96.753906 Z M 16.082031 99.691406 C 16.4375 99.691406 16.707031 99.609375 16.875 99.460938 C 17.082031 99.273438 17.230469 98.773438 17.292969 97.960938 L 16.542969 97.710938 C 16.5 98.296875 16.4375 98.648438 16.355469 98.773438 C 16.269531 98.859375 16.125 98.921875 15.9375 98.921875 L 14.644531 98.921875 C 14.355469 98.921875 14.207031 98.734375 14.207031 98.398438 L 14.207031 96.441406 L 13.394531 96.441406 L 13.394531 98.585938 C 13.394531 99.316406 13.730469 99.691406 14.394531 99.691406 Z M 15.292969 96.171875 L 14.6875 96.566406 C 15.125 97.085938 15.480469 97.546875 15.730469 97.984375 L 16.375 97.523438 C 16.125 97.148438 15.75 96.691406 15.292969 96.171875 Z M 15.292969 96.171875 "/>
<path style=" stroke:none;fill-rule:nonzero;fill:rgb(0%,0%,0%);fill-opacity:1;" d="M 20.105469 89.546875 L 20.105469 90.316406 L 22.917969 90.316406 L 22.917969 91.128906 L 23.792969 91.128906 L 23.792969 90.316406 L 26.875 90.316406 L 26.875 91.148438 L 27.625 91.148438 L 27.625 91.628906 L 22.207031 91.628906 L 22.207031 93.253906 L 21.125 93.253906 L 21.125 91.234375 L 20.375 91.234375 L 20.375 93.960938 L 22.207031 93.960938 L 22.207031 95.171875 L 19.875 95.171875 L 19.875 95.898438 L 20.5625 95.898438 C 20.519531 97.296875 20.25 98.253906 19.769531 98.796875 L 20.375 99.253906 C 20.894531 98.628906 21.207031 97.503906 21.25 95.898438 L 22.207031 95.898438 L 22.207031 96.023438 C 22.1875 97.398438 21.980469 98.460938 21.542969 99.234375 L 22.167969 99.796875 C 22.6875 98.835938 22.980469 97.585938 23 96.023438 L 23 92.378906 L 27.644531 92.378906 C 27.6875 93.941406 27.8125 95.210938 28 96.191406 C 28.0625 96.585938 28.167969 96.960938 28.269531 97.316406 C 27.9375 97.878906 27.542969 98.335938 27.082031 98.734375 L 27.082031 98.234375 L 26.019531 98.234375 L 26.019531 97.109375 L 27.082031 97.109375 L 27.082031 94.816406 L 26.019531 94.816406 L 26.019531 93.773438 L 27.082031 93.773438 L 27.082031 93.085938 L 23.667969 93.085938 L 23.667969 98.941406 L 26.8125 98.941406 L 26.605469 99.066406 L 27.019531 99.710938 C 27.605469 99.359375 28.144531 98.859375 28.605469 98.234375 C 28.6875 98.484375 28.792969 98.691406 28.917969 98.878906 C 29.269531 99.441406 29.625 99.753906 29.9375 99.753906 C 30.3125 99.753906 30.605469 99.003906 30.8125 97.523438 L 30.1875 97.171875 C 30.082031 98.253906 29.9375 98.796875 29.792969 98.796875 C 29.667969 98.796875 29.480469 98.566406 29.269531 98.109375 C 29.1875 97.941406 29.105469 97.734375 29.042969 97.503906 C 29.605469 96.421875 29.980469 95.046875 30.167969 93.335938 L 29.4375 93.171875 C 29.3125 94.359375 29.082031 95.398438 28.75 96.273438 C 28.730469 96.171875 28.707031 96.023438 28.6875 95.878906 C 28.542969 95.066406 28.4375 93.898438 28.394531 92.378906 L 30.644531 92.378906 L 30.644531 91.628906 L 30.042969 91.628906 C 29.9375 91.253906 29.792969 90.921875 29.6875 90.628906 L 28.9375 90.734375 C 29.082031 91.023438 29.230469 91.316406 29.332031 91.628906 L 28.375 91.628906 L 28.375 90.960938 L 27.769531 90.960938 L 27.769531 90.316406 L 30.5625 90.316406 L 30.5625 89.546875 L 27.769531 89.546875 L 27.769531 88.796875 L 26.875 88.796875 L 26.875 89.546875 L 23.792969 89.546875 L 23.792969 88.773438 L 22.917969 88.773438 L 22.917969 89.546875 Z M 25.355469 93.773438 L 25.355469 94.816406 L 24.375 94.816406 L 24.375 93.773438 Z M 24.375 95.460938 L 26.394531 95.460938 L 26.394531 96.441406 L 24.375 96.441406 Z M 24.375 97.109375 L 25.355469 97.109375 L 25.355469 98.234375 L 24.375 98.234375 Z M 24.375 97.109375 "/>
<path style=" stroke:none;fill-rule:nonzero;fill:rgb(0%,0%,0%);fill-opacity:1;" d="M 35.230469 93.378906 L 35.230469 94.148438 L 41.730469 94.148438 L 41.730469 93.378906 Z M 34.375 95.335938 L 34.375 96.128906 L 37 96.128906 C 36.167969 97.484375 35.457031 98.316406 34.9375 98.628906 C 34.875 98.648438 34.832031 98.691406 34.75 98.710938 L 34.9375 99.441406 C 37.207031 99.296875 39.292969 99.085938 41.1875 98.835938 C 41.4375 99.128906 41.644531 99.441406 41.855469 99.753906 L 42.542969 99.273438 C 42.019531 98.503906 41.25 97.585938 40.269531 96.546875 L 39.625 96.941406 C 39.980469 97.359375 40.332031 97.753906 40.667969 98.148438 C 39.125 98.378906 37.5625 98.546875 35.980469 98.648438 C 36.542969 98.148438 37.1875 97.296875 37.917969 96.128906 L 42.519531 96.128906 L 42.519531 95.335938 Z M 41.0625 90.066406 L 41.0625 91.460938 L 34 91.460938 L 34 90.066406 Z M 34 92.234375 L 41.894531 92.234375 L 41.894531 89.253906 L 33.167969 89.253906 L 33.167969 93.234375 C 33.144531 95.648438 32.730469 97.609375 31.894531 99.128906 L 32.519531 99.710938 C 33.5 97.898438 34 95.734375 34 93.234375 Z M 34 92.234375 "/>
<path style=" stroke:none;fill-rule:nonzero;fill:rgb(0%,0%,0%);fill-opacity:1;" d="M 10.082031 16.519531 L 10.082031 18.289062 L 8.894531 18.289062 C 9.1875 17.519531 9.480469 16.644531 9.730469 15.664062 L 12.042969 15.664062 L 12.042969 14.851562 L 9.9375 14.851562 C 10.042969 14.371094 10.144531 13.851562 10.269531 13.308594 L 9.480469 13.144531 C 9.355469 13.726562 9.25 14.308594 9.125 14.851562 L 7.9375 14.851562 L 7.9375 15.664062 L 8.9375 15.664062 C 8.667969 16.726562 8.375 17.644531 8.019531 18.351562 L 8.207031 19.082031 L 10.082031 19.082031 L 10.082031 20.871094 C 9.375 20.996094 8.644531 21.121094 7.855469 21.207031 L 7.957031 22.058594 C 8.6875 21.933594 9.394531 21.832031 10.082031 21.683594 L 10.082031 24.183594 L 10.875 24.183594 L 10.875 21.519531 L 12.019531 21.226562 L 12.019531 20.414062 C 11.667969 20.496094 11.292969 20.601562 10.875 20.707031 L 10.875 19.082031 L 11.980469 19.082031 L 11.980469 18.289062 L 10.875 18.289062 L 10.875 16.519531 Z M 13.625 15.894531 L 13.625 16.601562 L 17.0625 16.601562 L 17.0625 15.894531 L 13.625 15.894531 C 14.230469 15.308594 14.8125 14.664062 15.375 13.976562 C 16.292969 15.144531 17.3125 16.144531 18.4375 16.957031 L 18.894531 16.289062 C 17.8125 15.519531 16.75 14.496094 15.6875 13.207031 L 15.082031 13.207031 C 14.105469 14.394531 13 15.457031 11.769531 16.351562 L 12.25 17.082031 C 12.707031 16.707031 13.167969 16.308594 13.625 15.894531 Z M 14.457031 24.101562 C 15.042969 24.101562 15.355469 23.789062 15.355469 23.164062 L 15.355469 17.558594 L 12.519531 17.558594 L 12.519531 24.183594 L 13.269531 24.183594 L 13.269531 21.933594 L 14.625 21.933594 L 14.625 23.019531 C 14.625 23.269531 14.480469 23.414062 14.230469 23.414062 L 13.6875 23.394531 L 13.875 24.101562 Z M 13.269531 21.269531 L 13.269531 20.121094 L 14.625 20.121094 L 14.625 21.269531 Z M 13.269531 19.457031 L 13.269531 18.269531 L 14.625 18.269531 L 14.625 19.457031 Z M 16.0625 17.894531 L 16.0625 22.207031 L 16.75 22.207031 L 16.75 17.894531 Z M 17.375 24.121094 C 17.957031 24.121094 18.25 23.769531 18.25 23.082031 L 18.25 17.351562 L 17.5 17.351562 L 17.5 22.894531 C 17.5 23.226562 17.375 23.414062 17.105469 23.414062 C 16.8125 23.414062 16.5 23.394531 16.1875 23.351562 L 16.355469 24.121094 Z M 17.375 24.121094 "/>
<path style=" stroke:none;fill-rule:nonzero;fill:rgb(0%,0%,0%);fill-opacity:1;" d="M 28.582031 17.351562 L 25.769531 17.351562 L 25.769531 13.164062 L 24.894531 13.164062 L 24.894531 17.351562 L 22.082031 17.351562 L 22.082031 14.082031 L 21.207031 14.082031 L 21.207031 18.183594 L 24.894531 18.183594 L 24.894531 22.601562 L 21.5 22.601562 L 21.5 19.308594 L 20.625 19.308594 L 20.625 24.101562 L 21.5 24.101562 L 21.5 23.414062 L 29.167969 23.414062 L 29.167969 24.101562 L 30.042969 24.101562 L 30.042969 19.308594 L 29.167969 19.308594 L 29.167969 22.601562 L 25.769531 22.601562 L 25.769531 18.183594 L 29.457031 18.183594 L 29.457031 14.082031 L 28.582031 14.082031 Z M 28.582031 17.351562 "/>
<path style=" stroke:none;fill-rule:nonzero;fill:rgb(0%,0%,0%);fill-opacity:1;" d="M 35.230469 17.769531 L 35.230469 18.539062 L 41.730469 18.539062 L 41.730469 17.769531 Z M 34.375 19.726562 L 34.375 20.519531 L 37 20.519531 C 36.167969 21.871094 35.457031 22.707031 34.9375 23.019531 C 34.875 23.039062 34.832031 23.082031 34.75 23.101562 L 34.9375 23.832031 C 37.207031 23.683594 39.292969 23.476562 41.1875 23.226562 C 41.4375 23.519531 41.644531 23.832031 41.855469 24.144531 L 42.542969 23.664062 C 42.019531 22.894531 41.25 21.976562 40.269531 20.933594 L 39.625 21.332031 C 39.980469 21.746094 40.332031 22.144531 40.667969 22.539062 C 39.125 22.769531 37.5625 22.933594 35.980469 23.039062 C 36.542969 22.539062 37.1875 21.683594 37.917969 20.519531 L 42.519531 20.519531 L 42.519531 19.726562 Z M 41.0625 14.457031 L 41.0625 15.851562 L 34 15.851562 L 34 14.457031 Z M 34 16.621094 L 41.894531 16.621094 L 41.894531 13.644531 L 33.167969 13.644531 L 33.167969 17.621094 C 33.144531 20.039062 32.730469 21.996094 31.894531 23.519531 L 32.519531 24.101562 C 33.5 22.289062 34 20.121094 34 17.621094 Z M 34 16.621094 "/>
<path style="fill-rule:nonzero;fill:rgb(69.803923%,85.09804%,100%);fill-opacity:1;stroke-width:0.929626;stroke-linecap:round;stroke-linejoin:round;stroke:rgb(0%,0%,0%);stroke-opacity:1;stroke-miterlimit:10;" d="M 139.967773 137.766602 C 144.59668 142.395508 144.59668 149.898438 139.967773 154.527344 C 135.338867 159.15625 127.835938 159.15625 123.207031 154.527344 C 118.578125 149.898438 118.578125 142.395508 123.207031 137.766602 C 127.835938 133.137695 135.338867 133.137695 139.967773 137.766602 " transform="matrix(1.333333,0,0,1.333333,-46.666667,-25.333333)"/>
<path style=" stroke:none;fill-rule:nonzero;fill:rgb(0%,0%,0%);fill-opacity:1;" d="M 127.039062 167.28125 C 126.871094 166.445312 126.726562 166.238281 126.433594 166.238281 C 126.140625 166.238281 125.746094 166.320312 125.015625 166.59375 L 124.890625 166.632812 L 124.933594 166.820312 L 125.140625 166.757812 C 125.371094 166.695312 125.515625 166.675781 125.601562 166.675781 C 125.914062 166.675781 125.996094 166.78125 126.164062 167.488281 L 126.496094 168.988281 L 125.515625 170.382812 C 125.265625 170.738281 125.039062 170.96875 124.890625 170.96875 C 124.828125 170.96875 124.703125 170.925781 124.578125 170.863281 C 124.433594 170.78125 124.308594 170.71875 124.203125 170.71875 C 123.976562 170.71875 123.789062 170.925781 123.789062 171.15625 C 123.789062 171.46875 124.015625 171.65625 124.390625 171.65625 C 124.765625 171.65625 125.015625 171.550781 125.539062 170.84375 L 126.601562 169.425781 L 126.933594 170.84375 C 127.078125 171.445312 127.265625 171.65625 127.640625 171.65625 C 128.101562 171.65625 128.414062 171.382812 129.121094 170.300781 L 128.933594 170.175781 C 128.828125 170.300781 128.789062 170.382812 128.683594 170.53125 C 128.414062 170.882812 128.265625 171.007812 128.121094 171.007812 C 127.953125 171.007812 127.851562 170.84375 127.765625 170.507812 L 127.371094 168.90625 C 127.308594 168.613281 127.265625 168.445312 127.265625 168.363281 C 127.808594 167.445312 128.246094 166.90625 128.453125 166.90625 C 128.746094 166.90625 128.851562 167.113281 129.078125 167.113281 C 129.308594 167.113281 129.476562 166.925781 129.476562 166.675781 C 129.476562 166.425781 129.289062 166.238281 128.996094 166.238281 C 128.476562 166.238281 128.015625 166.675781 127.183594 167.945312 Z M 127.039062 167.28125 "/>
<path style=" stroke:none;fill-rule:nonzero;fill:rgb(0%,0%,0%);fill-opacity:1;" d="M 132.59375 175.53125 L 132.59375 175.40625 C 131.992188 175.40625 131.84375 175.257812 131.84375 174.925781 L 131.84375 170.15625 L 131.761719 170.113281 L 130.34375 170.84375 L 130.34375 170.96875 L 130.554688 170.882812 C 130.699219 170.820312 130.824219 170.78125 130.90625 170.78125 C 131.074219 170.78125 131.15625 170.90625 131.15625 171.175781 L 131.15625 174.78125 C 131.15625 175.21875 130.992188 175.382812 130.386719 175.40625 L 130.386719 175.53125 Z M 132.59375 175.53125 "/>
<path style="fill-rule:nonzero;fill:rgb(69.803923%,85.09804%,100%);fill-opacity:1;stroke-width:0.929626;stroke-linecap:round;stroke-linejoin:round;stroke:rgb(0%,0%,0%);stroke-opacity:1;stroke-miterlimit:10;" d="M 189.125 137.766602 C 193.753906 142.395508 193.753906 149.898438 189.125 154.527344 C 184.496094 159.15625 176.993164 159.15625 172.364258 154.527344 C 167.735352 149.898438 167.735352 142.395508 172.364258 137.766602 C 176.993164 133.137695 184.496094 133.137695 189.125 137.766602 " transform="matrix(1.333333,0,0,1.333333,-46.666667,-25.333333)"/>
<path style=" stroke:none;fill-rule:nonzero;fill:rgb(0%,0%,0%);fill-opacity:1;" d="M 192.578125 167.28125 C 192.410156 166.445312 192.265625 166.238281 191.972656 166.238281 C 191.679688 166.238281 191.285156 166.320312 190.554688 166.59375 L 190.429688 166.632812 L 190.472656 166.820312 L 190.679688 166.757812 C 190.910156 166.695312 191.054688 166.675781 191.140625 166.675781 C 191.453125 166.675781 191.535156 166.78125 191.703125 167.488281 L 192.035156 168.988281 L 191.054688 170.382812 C 190.804688 170.738281 190.578125 170.96875 190.429688 170.96875 C 190.367188 170.96875 190.242188 170.925781 190.117188 170.863281 C 189.972656 170.78125 189.847656 170.71875 189.742188 170.71875 C 189.515625 170.71875 189.328125 170.925781 189.328125 171.15625 C 189.328125 171.46875 189.554688 171.65625 189.929688 171.65625 C 190.304688 171.65625 190.554688 171.550781 191.078125 170.84375 L 192.140625 169.425781 L 192.472656 170.84375 C 192.617188 171.445312 192.804688 171.65625 193.179688 171.65625 C 193.640625 171.65625 193.953125 171.382812 194.660156 170.300781 L 194.472656 170.175781 C 194.367188 170.300781 194.328125 170.382812 194.222656 170.53125 C 193.953125 170.882812 193.804688 171.007812 193.660156 171.007812 C 193.492188 171.007812 193.390625 170.84375 193.304688 170.507812 L 192.910156 168.90625 C 192.847656 168.613281 192.804688 168.445312 192.804688 168.363281 C 193.347656 167.445312 193.785156 166.90625 193.992188 166.90625 C 194.285156 166.90625 194.390625 167.113281 194.617188 167.113281 C 194.847656 167.113281 195.015625 166.925781 195.015625 166.675781 C 195.015625 166.425781 194.828125 166.238281 194.535156 166.238281 C 194.015625 166.238281 193.554688 166.675781 192.722656 167.945312 Z M 192.578125 167.28125 "/>
<path style=" stroke:none;fill-rule:nonzero;fill:rgb(0%,0%,0%);fill-opacity:1;" d="M 198.78125 174.425781 L 198.675781 174.382812 C 198.40625 174.84375 198.238281 174.925781 197.90625 174.925781 L 196.03125 174.925781 L 197.34375 173.507812 C 198.050781 172.757812 198.363281 172.15625 198.363281 171.53125 C 198.363281 170.738281 197.800781 170.113281 196.882812 170.113281 C 195.90625 170.113281 195.40625 170.78125 195.238281 171.71875 L 195.40625 171.757812 C 195.71875 170.96875 195.988281 170.71875 196.570312 170.71875 C 197.257812 170.71875 197.675781 171.113281 197.675781 171.84375 C 197.675781 172.53125 197.40625 173.132812 196.632812 173.925781 L 195.21875 175.425781 L 195.21875 175.53125 L 198.34375 175.53125 Z M 198.78125 174.425781 "/>
<path style="fill-rule:nonzero;fill:rgb(40.000001%,74.901962%,100%);fill-opacity:1;stroke-width:0.929626;stroke-linecap:round;stroke-linejoin:round;stroke:rgb(0%,0%,0%);stroke-opacity:1;stroke-miterlimit:10;" d="M 170.647461 81.05957 C 175.276367 85.688477 175.276367 93.191406 170.647461 97.820312 C 166.018555 102.449219 158.515625 102.449219 153.886719 97.820312 C 149.257812 93.191406 149.257812 85.688477 153.886719 81.05957 C 158.515625 76.430664 166.018555 76.430664 170.647461 81.05957 " transform="matrix(1.333333,0,0,1.333333,-46.666667,-25.333333)"/>
<path style=" stroke:none;fill-rule:nonzero;fill:rgb(0%,0%,0%);fill-opacity:1;" d="M 170.273438 94.503906 C 169.625 95.316406 169.480469 95.460938 169.292969 95.460938 C 169.167969 95.460938 169.085938 95.378906 169.085938 95.253906 C 169.085938 95.109375 169.292969 94.378906 169.480469 93.753906 C 169.855469 92.628906 170.0625 91.734375 170.0625 91.441406 C 170.0625 90.984375 169.835938 90.628906 169.292969 90.628906 C 168.542969 90.628906 167.605469 91.398438 166.523438 93.171875 L 167.980469 87.796875 L 167.898438 87.734375 C 167.1875 87.878906 166.730469 87.960938 166 88.046875 L 166 88.234375 L 166.335938 88.234375 C 166.542969 88.234375 166.835938 88.316406 166.835938 88.523438 C 166.835938 88.691406 166.773438 88.898438 166.667969 89.273438 L 164.917969 95.921875 L 165.8125 95.921875 C 166.292969 94.066406 166.480469 93.648438 166.960938 92.921875 C 167.585938 91.960938 168.355469 91.234375 168.792969 91.234375 C 169.0625 91.234375 169.125 91.359375 169.125 91.546875 C 169.125 91.585938 169.085938 91.753906 169.042969 91.941406 L 168.375 94.421875 C 168.230469 95.003906 168.148438 95.378906 168.148438 95.523438 C 168.148438 95.835938 168.355469 96.023438 168.667969 96.023438 C 169.292969 96.023438 169.6875 95.710938 170.417969 94.671875 Z M 170.273438 94.503906 "/>
<path style=" stroke:none;fill-rule:nonzero;fill:rgb(0%,0%,0%);fill-opacity:1;" d="M 174.480469 98.816406 L 174.375 98.773438 C 174.105469 99.234375 173.9375 99.316406 173.605469 99.316406 L 171.730469 99.316406 L 173.042969 97.898438 C 173.75 97.148438 174.0625 96.546875 174.0625 95.921875 C 174.0625 95.128906 173.5 94.503906 172.585938 94.503906 C 171.605469 94.503906 171.105469 95.171875 170.9375 96.109375 L 171.105469 96.148438 C 171.417969 95.359375 171.6875 95.109375 172.273438 95.109375 C 172.960938 95.109375 173.375 95.503906 173.375 96.234375 C 173.375 96.921875 173.105469 97.523438 172.335938 98.316406 L 170.917969 99.816406 L 170.917969 99.921875 L 174.042969 99.921875 Z M 174.480469 98.816406 "/>
<path style="fill-rule:nonzero;fill:rgb(69.803923%,85.09804%,100%);fill-opacity:1;stroke-width:0.929626;stroke-linecap:round;stroke-linejoin:round;stroke:rgb(0%,0%,0%);stroke-opacity:1;stroke-miterlimit:10;" d="M 238.276367 137.766602 C 242.905273 142.395508 242.905273 149.898438 238.276367 154.527344 C 233.647461 159.15625 226.144531 159.15625 221.515625 154.527344 C 216.886719 149.898438 216.886719 142.395508 221.515625 137.766602 C 226.144531 133.137695 233.647461 133.137695 238.276367 137.766602 " transform="matrix(1.333333,0,0,1.333333,-46.666667,-25.333333)"/>
<path style=" stroke:none;fill-rule:nonzero;fill:rgb(0%,0%,0%);fill-opacity:1;" d="M 258.117188 167.28125 C 257.949219 166.445312 257.804688 166.238281 257.511719 166.238281 C 257.21875 166.238281 256.824219 166.320312 256.09375 166.59375 L 255.96875 166.632812 L 256.011719 166.820312 L 256.21875 166.757812 C 256.449219 166.695312 256.59375 166.675781 256.679688 166.675781 C 256.992188 166.675781 257.074219 166.78125 257.242188 167.488281 L 257.574219 168.988281 L 256.59375 170.382812 C 256.34375 170.738281 256.117188 170.96875 255.96875 170.96875 C 255.90625 170.96875 255.78125 170.925781 255.65625 170.863281 C 255.511719 170.78125 255.386719 170.71875 255.28125 170.71875 C 255.054688 170.71875 254.867188 170.925781 254.867188 171.15625 C 254.867188 171.46875 255.09375 171.65625 255.46875 171.65625 C 255.84375 171.65625 256.09375 171.550781 256.617188 170.84375 L 257.679688 169.425781 L 258.011719 170.84375 C 258.15625 171.445312 258.34375 171.65625 258.71875 171.65625 C 259.179688 171.65625 259.492188 171.382812 260.199219 170.300781 L 260.011719 170.175781 C 259.90625 170.300781 259.867188 170.382812 259.761719 170.53125 C 259.492188 170.882812 259.34375 171.007812 259.199219 171.007812 C 259.03125 171.007812 258.929688 170.84375 258.84375 170.507812 L 258.449219 168.90625 C 258.386719 168.613281 258.34375 168.445312 258.34375 168.363281 C 258.886719 167.445312 259.324219 166.90625 259.53125 166.90625 C 259.824219 166.90625 259.929688 167.113281 260.15625 167.113281 C 260.386719 167.113281 260.554688 166.925781 260.554688 166.675781 C 260.554688 166.425781 260.367188 166.238281 260.074219 166.238281 C 259.554688 166.238281 259.09375 166.675781 258.261719 167.945312 Z M 258.117188 167.28125 "/>
<path style=" stroke:none;fill-rule:nonzero;fill:rgb(0%,0%,0%);fill-opacity:1;" d="M 261.007812 171.445312 C 261.339844 170.863281 261.714844 170.59375 262.214844 170.59375 C 262.734375 170.59375 263.070312 170.882812 263.070312 171.425781 C 263.070312 171.90625 262.820312 172.257812 262.421875 172.488281 C 262.257812 172.59375 262.046875 172.675781 261.757812 172.78125 L 261.757812 172.882812 C 262.214844 172.882812 262.382812 172.90625 262.570312 172.96875 C 263.109375 173.132812 263.402344 173.53125 263.402344 174.132812 C 263.402344 174.800781 262.945312 175.363281 262.359375 175.363281 C 262.132812 175.363281 261.964844 175.320312 261.671875 175.113281 C 261.445312 174.945312 261.320312 174.90625 261.171875 174.90625 C 261.007812 174.90625 260.859375 175.007812 260.859375 175.175781 C 260.859375 175.46875 261.171875 175.632812 261.757812 175.632812 C 262.464844 175.632812 263.214844 175.40625 263.609375 174.90625 C 263.839844 174.59375 263.984375 174.195312 263.984375 173.78125 C 263.984375 173.363281 263.839844 172.988281 263.632812 172.738281 C 263.464844 172.570312 263.320312 172.46875 262.964844 172.320312 C 263.484375 172.007812 263.695312 171.59375 263.695312 171.21875 C 263.695312 170.570312 263.195312 170.113281 262.464844 170.113281 C 261.632812 170.113281 261.109375 170.65625 260.882812 171.425781 Z M 261.007812 171.445312 "/>
<path style="fill-rule:nonzero;fill:rgb(69.803923%,85.09804%,100%);fill-opacity:1;stroke-width:0.929626;stroke-linecap:round;stroke-linejoin:round;stroke:rgb(0%,0%,0%);stroke-opacity:1;stroke-miterlimit:10;" d="M 287.433594 137.069336 C 292.0625 141.698242 292.0625 149.204102 287.433594 153.833008 C 282.804688 158.461914 275.301758 158.461914 270.672852 153.833008 C 266.043945 149.204102 266.043945 141.698242 270.672852 137.069336 C 275.301758 132.44043 282.804688 132.44043 287.433594 137.069336 " transform="matrix(1.333333,0,0,1.333333,-46.666667,-25.333333)"/>
<path style=" stroke:none;fill-rule:nonzero;fill:rgb(0%,0%,0%);fill-opacity:1;" d="M 323.65625 166.351562 C 323.488281 165.515625 323.34375 165.308594 323.050781 165.308594 C 322.757812 165.308594 322.363281 165.390625 321.632812 165.664062 L 321.507812 165.703125 L 321.550781 165.890625 L 321.757812 165.828125 C 321.988281 165.765625 322.132812 165.746094 322.21875 165.746094 C 322.53125 165.746094 322.613281 165.851562 322.78125 166.558594 L 323.113281 168.058594 L 322.132812 169.453125 C 321.882812 169.808594 321.65625 170.039062 321.507812 170.039062 C 321.445312 170.039062 321.320312 169.996094 321.195312 169.933594 C 321.050781 169.851562 320.925781 169.789062 320.820312 169.789062 C 320.59375 169.789062 320.40625 169.996094 320.40625 170.226562 C 320.40625 170.539062 320.632812 170.726562 321.007812 170.726562 C 321.382812 170.726562 321.632812 170.621094 322.15625 169.914062 L 323.21875 168.496094 L 323.550781 169.914062 C 323.695312 170.515625 323.882812 170.726562 324.257812 170.726562 C 324.71875 170.726562 325.03125 170.453125 325.738281 169.371094 L 325.550781 169.246094 C 325.445312 169.371094 325.40625 169.453125 325.300781 169.601562 C 325.03125 169.953125 324.882812 170.078125 324.738281 170.078125 C 324.570312 170.078125 324.46875 169.914062 324.382812 169.578125 L 323.988281 167.976562 C 323.925781 167.683594 323.882812 167.515625 323.882812 167.433594 C 324.425781 166.515625 324.863281 165.976562 325.070312 165.976562 C 325.363281 165.976562 325.46875 166.183594 325.695312 166.183594 C 325.925781 166.183594 326.09375 165.996094 326.09375 165.746094 C 326.09375 165.496094 325.90625 165.308594 325.613281 165.308594 C 325.09375 165.308594 324.632812 165.746094 323.800781 167.015625 Z M 323.65625 166.351562 "/>
<path style=" stroke:none;fill-rule:nonzero;fill:rgb(0%,0%,0%);fill-opacity:1;" d="M 329.855469 173.265625 L 329.855469 172.746094 L 329.023438 172.746094 L 329.023438 169.183594 L 328.667969 169.183594 L 326.167969 172.746094 L 326.167969 173.265625 L 328.398438 173.265625 L 328.398438 174.601562 L 329.023438 174.601562 L 329.023438 173.265625 Z M 328.398438 172.746094 L 326.480469 172.746094 L 328.398438 170.015625 Z M 328.398438 172.746094 "/>
<path style="fill-rule:nonzero;fill:rgb(40.000001%,74.901962%,100%);fill-opacity:1;stroke-width:0.929626;stroke-linecap:round;stroke-linejoin:round;stroke:rgb(0%,0%,0%);stroke-opacity:1;stroke-miterlimit:10;" d="M 255.476562 81.05957 C 260.105469 85.688477 260.105469 93.191406 255.476562 97.820312 C 250.847656 102.449219 243.344727 102.449219 238.71582 97.820312 C 234.086914 93.191406 234.086914 85.688477 238.71582 81.05957 C 243.344727 76.430664 250.847656 76.430664 255.476562 81.05957 " transform="matrix(1.333333,0,0,1.333333,-46.666667,-25.333333)"/>
<path style=" stroke:none;fill-rule:nonzero;fill:rgb(0%,0%,0%);fill-opacity:1;" d="M 283.378906 94.503906 C 282.730469 95.316406 282.585938 95.460938 282.398438 95.460938 C 282.273438 95.460938 282.191406 95.378906 282.191406 95.253906 C 282.191406 95.109375 282.398438 94.378906 282.585938 93.753906 C 282.960938 92.628906 283.167969 91.734375 283.167969 91.441406 C 283.167969 90.984375 282.941406 90.628906 282.398438 90.628906 C 281.648438 90.628906 280.710938 91.398438 279.628906 93.171875 L 281.085938 87.796875 L 281.003906 87.734375 C 280.292969 87.878906 279.835938 87.960938 279.105469 88.046875 L 279.105469 88.234375 L 279.441406 88.234375 C 279.648438 88.234375 279.941406 88.316406 279.941406 88.523438 C 279.941406 88.691406 279.878906 88.898438 279.773438 89.273438 L 278.023438 95.921875 L 278.917969 95.921875 C 279.398438 94.066406 279.585938 93.648438 280.066406 92.921875 C 280.691406 91.960938 281.460938 91.234375 281.898438 91.234375 C 282.167969 91.234375 282.230469 91.359375 282.230469 91.546875 C 282.230469 91.585938 282.191406 91.753906 282.148438 91.941406 L 281.480469 94.421875 C 281.335938 95.003906 281.253906 95.378906 281.253906 95.523438 C 281.253906 95.835938 281.460938 96.023438 281.773438 96.023438 C 282.398438 96.023438 282.792969 95.710938 283.523438 94.671875 Z M 283.378906 94.503906 "/>
<path style=" stroke:none;fill-rule:nonzero;fill:rgb(0%,0%,0%);fill-opacity:1;" d="M 287.585938 98.585938 L 287.585938 98.066406 L 286.753906 98.066406 L 286.753906 94.503906 L 286.398438 94.503906 L 283.898438 98.066406 L 283.898438 98.585938 L 286.128906 98.585938 L 286.128906 99.921875 L 286.753906 99.921875 L 286.753906 98.585938 Z M 286.128906 98.066406 L 284.210938 98.066406 L 286.128906 95.335938 Z M 286.128906 98.066406 "/>
<path style="fill-rule:nonzero;fill:rgb(40.000001%,74.901962%,100%);fill-opacity:1;stroke-width:0.929626;stroke-linecap:round;stroke-linejoin:round;stroke:rgb(0%,0%,0%);stroke-opacity:1;stroke-miterlimit:10;" d="M 213.063477 81.05957 C 217.692383 85.688477 217.692383 93.191406 213.063477 97.820312 C 208.43457 102.449219 200.928711 102.449219 196.299805 97.820312 C 191.670898 93.191406 191.670898 85.688477 196.299805 81.05957 C 200.928711 76.430664 208.43457 76.430664 213.063477 81.05957 " transform="matrix(1.333333,0,0,1.333333,-46.666667,-25.333333)"/>
<path style=" stroke:none;fill-rule:nonzero;fill:rgb(0%,0%,0%);fill-opacity:1;" d="M 226.824219 94.503906 C 226.179688 95.316406 226.03125 95.460938 225.84375 95.460938 C 225.71875 95.460938 225.636719 95.378906 225.636719 95.253906 C 225.636719 95.109375 225.84375 94.378906 226.03125 93.753906 C 226.40625 92.628906 226.617188 91.734375 226.617188 91.441406 C 226.617188 90.984375 226.386719 90.628906 225.84375 90.628906 C 225.09375 90.628906 224.15625 91.398438 223.074219 93.171875 L 224.53125 87.796875 L 224.449219 87.734375 C 223.742188 87.878906 223.28125 87.960938 222.554688 88.046875 L 222.554688 88.234375 L 222.886719 88.234375 C 223.09375 88.234375 223.386719 88.316406 223.386719 88.523438 C 223.386719 88.691406 223.324219 88.898438 223.21875 89.273438 L 221.46875 95.921875 L 222.367188 95.921875 C 222.84375 94.066406 223.03125 93.648438 223.511719 92.921875 C 224.136719 91.960938 224.90625 91.234375 225.34375 91.234375 C 225.617188 91.234375 225.679688 91.359375 225.679688 91.546875 C 225.679688 91.585938 225.636719 91.753906 225.59375 91.941406 L 224.929688 94.421875 C 224.78125 95.003906 224.699219 95.378906 224.699219 95.523438 C 224.699219 95.835938 224.90625 96.023438 225.21875 96.023438 C 225.84375 96.023438 226.242188 95.710938 226.96875 94.671875 Z M 226.824219 94.503906 "/>
<path style=" stroke:none;fill-rule:nonzero;fill:rgb(0%,0%,0%);fill-opacity:1;" d="M 227.71875 95.835938 C 228.054688 95.253906 228.429688 94.984375 228.929688 94.984375 C 229.449219 94.984375 229.78125 95.273438 229.78125 95.816406 C 229.78125 96.296875 229.53125 96.648438 229.136719 96.878906 C 228.96875 96.984375 228.761719 97.066406 228.46875 97.171875 L 228.46875 97.273438 C 228.929688 97.273438 229.09375 97.296875 229.28125 97.359375 C 229.824219 97.523438 230.117188 97.921875 230.117188 98.523438 C 230.117188 99.191406 229.65625 99.753906 229.074219 99.753906 C 228.84375 99.753906 228.679688 99.710938 228.386719 99.503906 C 228.15625 99.335938 228.03125 99.296875 227.886719 99.296875 C 227.71875 99.296875 227.574219 99.398438 227.574219 99.566406 C 227.574219 99.859375 227.886719 100.023438 228.46875 100.023438 C 229.179688 100.023438 229.929688 99.796875 230.324219 99.296875 C 230.554688 98.984375 230.699219 98.585938 230.699219 98.171875 C 230.699219 97.753906 230.554688 97.378906 230.34375 97.128906 C 230.179688 96.960938 230.03125 96.859375 229.679688 96.710938 C 230.199219 96.398438 230.40625 95.984375 230.40625 95.609375 C 230.40625 94.960938 229.90625 94.503906 229.179688 94.503906 C 228.34375 94.503906 227.824219 95.046875 227.59375 95.816406 Z M 227.71875 95.835938 "/>
<path style="fill-rule:nonzero;fill:rgb(69.803923%,85.09804%,100%);fill-opacity:1;stroke-width:0.929626;stroke-linecap:round;stroke-linejoin:round;stroke:rgb(0%,0%,0%);stroke-opacity:1;stroke-miterlimit:10;" d="M 163.90918 24.352539 C 168.535156 28.981445 168.535156 36.484375 163.90918 41.113281 C 159.280273 45.742188 151.774414 45.742188 147.145508 41.113281 C 142.516602 36.484375 142.516602 28.981445 147.145508 24.352539 C 151.774414 19.723633 159.280273 19.723633 163.90918 24.352539 " transform="matrix(1.333333,0,0,1.333333,-46.666667,-25.333333)"/>
<path style=" stroke:none;fill-rule:nonzero;fill:rgb(0%,0%,0%);fill-opacity:1;" d="M 161.328125 16.707031 C 161.328125 15.644531 160.597656 15.019531 159.621094 15.019531 C 159.140625 15.019531 158.660156 15.121094 158.183594 15.371094 C 156.933594 16.058594 156.035156 17.433594 156.035156 18.769531 C 156.035156 19.808594 156.660156 20.433594 157.785156 20.433594 C 158.578125 20.433594 159.347656 20.144531 160.058594 19.457031 C 160.847656 18.664062 161.328125 17.601562 161.328125 16.707031 Z M 160.308594 16.394531 C 160.308594 17.308594 159.972656 18.433594 159.433594 19.183594 C 158.953125 19.851562 158.496094 20.183594 157.972656 20.183594 C 157.410156 20.183594 157.035156 19.808594 157.035156 19.101562 C 157.035156 18.144531 157.371094 17.207031 157.933594 16.351562 C 158.410156 15.644531 158.933594 15.269531 159.453125 15.269531 C 159.972656 15.269531 160.308594 15.664062 160.308594 16.394531 Z M 160.308594 16.394531 "/>
<path style=" stroke:none;fill-rule:nonzero;fill:rgb(0%,0%,0%);fill-opacity:1;" d="M 164.847656 24.308594 L 164.847656 24.183594 C 164.246094 24.183594 164.097656 24.039062 164.097656 23.707031 L 164.097656 18.933594 L 164.015625 18.894531 L 162.597656 19.621094 L 162.597656 19.746094 L 162.808594 19.664062 C 162.953125 19.601562 163.078125 19.558594 163.160156 19.558594 C 163.328125 19.558594 163.410156 19.683594 163.410156 19.957031 L 163.410156 23.558594 C 163.410156 23.996094 163.246094 24.164062 162.640625 24.183594 L 162.640625 24.308594 Z M 164.847656 24.308594 "/>
<path style="fill-rule:nonzero;fill:rgb(69.803923%,85.09804%,100%);fill-opacity:1;stroke-width:0.929626;stroke-linecap:round;stroke-linejoin:round;stroke:rgb(0%,0%,0%);stroke-opacity:1;stroke-miterlimit:10;" d="M 213.063477 24.352539 C 217.692383 28.981445 217.692383 36.484375 213.063477 41.113281 C 208.43457 45.742188 200.928711 45.742188 196.299805 41.113281 C 191.670898 36.484375 191.670898 28.981445 196.299805 24.352539 C 200.928711 19.723633 208.43457 19.723633 213.063477 24.352539 " transform="matrix(1.333333,0,0,1.333333,-46.666667,-25.333333)"/>
<path style=" stroke:none;fill-rule:nonzero;fill:rgb(0%,0%,0%);fill-opacity:1;" d="M 226.867188 16.707031 C 226.867188 15.644531 226.136719 15.019531 225.15625 15.019531 C 224.679688 15.019531 224.199219 15.121094 223.71875 15.371094 C 222.46875 16.058594 221.574219 17.433594 221.574219 18.769531 C 221.574219 19.808594 222.199219 20.433594 223.324219 20.433594 C 224.117188 20.433594 224.886719 20.144531 225.59375 19.457031 C 226.386719 18.664062 226.867188 17.601562 226.867188 16.707031 Z M 225.84375 16.394531 C 225.84375 17.308594 225.511719 18.433594 224.96875 19.183594 C 224.492188 19.851562 224.03125 20.183594 223.511719 20.183594 C 222.949219 20.183594 222.574219 19.808594 222.574219 19.101562 C 222.574219 18.144531 222.90625 17.207031 223.46875 16.351562 C 223.949219 15.644531 224.46875 15.269531 224.992188 15.269531 C 225.511719 15.269531 225.84375 15.664062 225.84375 16.394531 Z M 225.84375 16.394531 "/>
<path style=" stroke:none;fill-rule:nonzero;fill:rgb(0%,0%,0%);fill-opacity:1;" d="M 231.03125 23.207031 L 230.929688 23.164062 C 230.65625 23.621094 230.492188 23.707031 230.15625 23.707031 L 228.28125 23.707031 L 229.59375 22.289062 C 230.304688 21.539062 230.617188 20.933594 230.617188 20.308594 C 230.617188 19.519531 230.054688 18.894531 229.136719 18.894531 C 228.15625 18.894531 227.65625 19.558594 227.492188 20.496094 L 227.65625 20.539062 C 227.96875 19.746094 228.242188 19.496094 228.824219 19.496094 C 229.511719 19.496094 229.929688 19.894531 229.929688 20.621094 C 229.929688 21.308594 229.65625 21.914062 228.886719 22.707031 L 227.46875 24.207031 L 227.46875 24.308594 L 230.59375 24.308594 Z M 231.03125 23.207031 "/>
<path style="fill-rule:nonzero;fill:rgb(69.803923%,85.09804%,100%);fill-opacity:1;stroke-width:0.929626;stroke-linecap:round;stroke-linejoin:round;stroke:rgb(0%,0%,0%);stroke-opacity:1;stroke-miterlimit:10;" d="M 262.214844 23.655273 C 266.84375 28.28418 266.84375 35.790039 262.214844 40.418945 C 257.585938 45.047852 250.083008 45.047852 245.454102 40.418945 C 240.825195 35.790039 240.825195 28.28418 245.454102 23.655273 C 250.083008 19.026367 257.585938 19.026367 262.214844 23.655273 " transform="matrix(1.333333,0,0,1.333333,-46.666667,-25.333333)"/>
<path style=" stroke:none;fill-rule:nonzero;fill:rgb(0%,0%,0%);fill-opacity:1;" d="M 292.40625 15.777344 C 292.40625 14.714844 291.675781 14.089844 290.695312 14.089844 C 290.21875 14.089844 289.738281 14.191406 289.257812 14.441406 C 288.007812 15.128906 287.113281 16.503906 287.113281 17.839844 C 287.113281 18.878906 287.738281 19.503906 288.863281 19.503906 C 289.65625 19.503906 290.425781 19.214844 291.132812 18.527344 C 291.925781 17.734375 292.40625 16.671875 292.40625 15.777344 Z M 291.382812 15.464844 C 291.382812 16.378906 291.050781 17.503906 290.507812 18.253906 C 290.03125 18.921875 289.570312 19.253906 289.050781 19.253906 C 288.488281 19.253906 288.113281 18.878906 288.113281 18.171875 C 288.113281 17.214844 288.445312 16.277344 289.007812 15.421875 C 289.488281 14.714844 290.007812 14.339844 290.53125 14.339844 C 291.050781 14.339844 291.382812 14.734375 291.382812 15.464844 Z M 291.382812 15.464844 "/>
<path style=" stroke:none;fill-rule:nonzero;fill:rgb(0%,0%,0%);fill-opacity:1;" d="M 293.257812 19.296875 C 293.59375 18.714844 293.96875 18.441406 294.46875 18.441406 C 294.988281 18.441406 295.320312 18.734375 295.320312 19.277344 C 295.320312 19.753906 295.070312 20.109375 294.675781 20.339844 C 294.507812 20.441406 294.300781 20.527344 294.007812 20.628906 L 294.007812 20.734375 C 294.46875 20.734375 294.632812 20.753906 294.820312 20.816406 C 295.363281 20.984375 295.65625 21.378906 295.65625 21.984375 C 295.65625 22.652344 295.195312 23.214844 294.613281 23.214844 C 294.382812 23.214844 294.21875 23.171875 293.925781 22.964844 C 293.695312 22.796875 293.570312 22.753906 293.425781 22.753906 C 293.257812 22.753906 293.113281 22.859375 293.113281 23.027344 C 293.113281 23.316406 293.425781 23.484375 294.007812 23.484375 C 294.71875 23.484375 295.46875 23.253906 295.863281 22.753906 C 296.09375 22.441406 296.238281 22.046875 296.238281 21.628906 C 296.238281 21.214844 296.09375 20.839844 295.882812 20.589844 C 295.71875 20.421875 295.570312 20.316406 295.21875 20.171875 C 295.738281 19.859375 295.945312 19.441406 295.945312 19.066406 C 295.945312 18.421875 295.445312 17.964844 294.71875 17.964844 C 293.882812 17.964844 293.363281 18.503906 293.132812 19.277344 Z M 293.257812 19.296875 "/>
<path style="fill-rule:nonzero;fill:rgb(40.000001%,74.901962%,100%);fill-opacity:1;stroke-width:0.929626;stroke-linecap:round;stroke-linejoin:round;stroke:rgb(0%,0%,0%);stroke-opacity:1;stroke-miterlimit:10;" d="M 128.234375 81.05957 C 132.863281 85.688477 132.863281 93.191406 128.234375 97.820312 C 123.605469 102.449219 116.102539 102.449219 111.473633 97.820312 C 106.844727 93.191406 106.844727 85.688477 111.473633 81.05957 C 116.102539 76.430664 123.605469 76.430664 128.234375 81.05957 " transform="matrix(1.333333,0,0,1.333333,-46.666667,-25.333333)"/>
<path style=" stroke:none;fill-rule:nonzero;fill:rgb(0%,0%,0%);fill-opacity:1;" d="M 113.71875 94.503906 C 113.074219 95.316406 112.929688 95.460938 112.742188 95.460938 C 112.617188 95.460938 112.53125 95.378906 112.53125 95.253906 C 112.53125 95.109375 112.742188 94.378906 112.929688 93.753906 C 113.304688 92.628906 113.511719 91.734375 113.511719 91.441406 C 113.511719 90.984375 113.28125 90.628906 112.742188 90.628906 C 111.992188 90.628906 111.054688 91.398438 109.96875 93.171875 L 111.429688 87.796875 L 111.34375 87.734375 C 110.636719 87.878906 110.179688 87.960938 109.449219 88.046875 L 109.449219 88.234375 L 109.78125 88.234375 C 109.992188 88.234375 110.28125 88.316406 110.28125 88.523438 C 110.28125 88.691406 110.21875 88.898438 110.117188 89.273438 L 108.367188 95.921875 L 109.261719 95.921875 C 109.742188 94.066406 109.929688 93.648438 110.40625 92.921875 C 111.03125 91.960938 111.804688 91.234375 112.242188 91.234375 C 112.511719 91.234375 112.574219 91.359375 112.574219 91.546875 C 112.574219 91.585938 112.53125 91.753906 112.492188 91.941406 L 111.824219 94.421875 C 111.679688 95.003906 111.59375 95.378906 111.59375 95.523438 C 111.59375 95.835938 111.804688 96.023438 112.117188 96.023438 C 112.742188 96.023438 113.136719 95.710938 113.867188 94.671875 Z M 113.71875 94.503906 "/>
<path style=" stroke:none;fill-rule:nonzero;fill:rgb(0%,0%,0%);fill-opacity:1;" d="M 117.28125 99.921875 L 117.28125 99.796875 C 116.679688 99.796875 116.53125 99.648438 116.53125 99.316406 L 116.53125 94.546875 L 116.449219 94.503906 L 115.03125 95.234375 L 115.03125 95.359375 L 115.242188 95.273438 C 115.386719 95.210938 115.511719 95.171875 115.59375 95.171875 C 115.761719 95.171875 115.84375 95.296875 115.84375 95.566406 L 115.84375 99.171875 C 115.84375 99.609375 115.679688 99.773438 115.074219 99.796875 L 115.074219 99.921875 Z M 117.28125 99.921875 "/>
<path style="fill-rule:nonzero;fill:rgb(40.000001%,74.901962%,100%);fill-opacity:1;stroke-width:0.929626;stroke-linecap:round;stroke-linejoin:round;stroke:rgb(0%,0%,0%);stroke-opacity:1;stroke-miterlimit:10;" d="M 297.889648 81.05957 C 302.518555 85.688477 302.518555 93.191406 297.889648 97.820312 C 293.260742 102.449219 285.757812 102.449219 281.128906 97.820312 C 276.5 93.191406 276.5 85.688477 281.128906 81.05957 C 285.757812 76.430664 293.260742 76.430664 297.889648 81.05957 " transform="matrix(1.333333,0,0,1.333333,-46.666667,-25.333333)"/>
<path style=" stroke:none;fill-rule:nonzero;fill:rgb(0%,0%,0%);fill-opacity:1;" d="M 339.929688 94.503906 C 339.285156 95.316406 339.136719 95.460938 338.949219 95.460938 C 338.824219 95.460938 338.742188 95.378906 338.742188 95.253906 C 338.742188 95.109375 338.949219 94.378906 339.136719 93.753906 C 339.511719 92.628906 339.722656 91.734375 339.722656 91.441406 C 339.722656 90.984375 339.492188 90.628906 338.949219 90.628906 C 338.199219 90.628906 337.261719 91.398438 336.179688 93.171875 L 337.636719 87.796875 L 337.554688 87.734375 C 336.847656 87.878906 336.386719 87.960938 335.660156 88.046875 L 335.660156 88.234375 L 335.992188 88.234375 C 336.199219 88.234375 336.492188 88.316406 336.492188 88.523438 C 336.492188 88.691406 336.429688 88.898438 336.324219 89.273438 L 334.574219 95.921875 L 335.472656 95.921875 C 335.949219 94.066406 336.136719 93.648438 336.617188 92.921875 C 337.242188 91.960938 338.011719 91.234375 338.449219 91.234375 C 338.722656 91.234375 338.785156 91.359375 338.785156 91.546875 C 338.785156 91.585938 338.742188 91.753906 338.699219 91.941406 L 338.035156 94.421875 C 337.886719 95.003906 337.804688 95.378906 337.804688 95.523438 C 337.804688 95.835938 338.011719 96.023438 338.324219 96.023438 C 338.949219 96.023438 339.347656 95.710938 340.074219 94.671875 Z M 339.929688 94.503906 "/>
<path style=" stroke:none;fill-rule:nonzero;fill:rgb(0%,0%,0%);fill-opacity:1;" d="M 343.847656 94.460938 L 343.785156 94.421875 C 343.660156 94.585938 343.574219 94.628906 343.386719 94.628906 L 341.742188 94.628906 L 340.867188 96.523438 C 340.867188 96.523438 340.867188 96.546875 340.867188 96.566406 C 340.867188 96.609375 340.886719 96.628906 340.949219 96.628906 C 341.722656 96.628906 342.285156 96.878906 342.660156 97.191406 C 343.011719 97.460938 343.199219 97.878906 343.199219 98.378906 C 343.199219 99.066406 342.679688 99.734375 342.117188 99.734375 C 341.949219 99.734375 341.761719 99.671875 341.554688 99.484375 C 341.285156 99.273438 341.136719 99.234375 340.949219 99.234375 C 340.722656 99.234375 340.597656 99.335938 340.597656 99.546875 C 340.597656 99.835938 341.011719 100.023438 341.617188 100.023438 C 342.160156 100.023438 342.597656 99.921875 342.972656 99.648438 C 343.511719 99.234375 343.761719 98.753906 343.761719 97.984375 C 343.761719 97.546875 343.679688 97.253906 343.472656 96.960938 C 343.011719 96.335938 342.617188 96.148438 341.472656 95.941406 L 341.804688 95.253906 L 343.347656 95.253906 C 343.472656 95.253906 343.535156 95.210938 343.554688 95.148438 Z M 343.847656 94.460938 "/>
<path style="fill:none;stroke-width:0.929626;stroke-linecap:round;stroke-linejoin:round;stroke:rgb(0%,0%,0%);stroke-opacity:1;stroke-miterlimit:10;" d="M 126.163086 79.407227 L 146.272461 47.441406 " transform="matrix(1.333333,0,0,1.333333,-46.666667,-25.333333)"/>
<path style="fill:none;stroke-width:0.929626;stroke-linecap:butt;stroke-linejoin:miter;stroke:rgb(0%,0%,0%);stroke-opacity:1;stroke-miterlimit:10;" d="M 148.25293 44.291992 L 146.272461 47.441406 M 145.094727 46.700195 L 148.25293 44.291992 L 147.456055 48.182617 " transform="matrix(1.333333,0,0,1.333333,-46.666667,-25.333333)"/>
<path style="fill:none;stroke-width:0.929626;stroke-linecap:round;stroke-linejoin:round;stroke:rgb(0%,0%,0%);stroke-opacity:1;stroke-miterlimit:10;" d="M 129.708008 82.852539 L 190.238281 42.390625 " transform="matrix(1.333333,0,0,1.333333,-46.666667,-25.333333)"/>
<path style="fill:none;stroke-width:0.929626;stroke-linecap:butt;stroke-linejoin:miter;stroke:rgb(0%,0%,0%);stroke-opacity:1;stroke-miterlimit:10;" d="M 193.329102 40.325195 L 190.238281 42.390625 M 189.461914 41.230469 L 193.329102 40.325195 L 191.011719 43.547852 " transform="matrix(1.333333,0,0,1.333333,-46.666667,-25.333333)"/>
<path style="fill:none;stroke-width:0.929626;stroke-linecap:round;stroke-linejoin:round;stroke:rgb(0%,0%,0%);stroke-opacity:1;stroke-miterlimit:10;" d="M 130.750977 84.768555 L 237.863281 38.87793 " transform="matrix(1.333333,0,0,1.333333,-46.666667,-25.333333)"/>
<path style="fill:none;stroke-width:0.929626;stroke-linecap:butt;stroke-linejoin:miter;stroke:rgb(0%,0%,0%);stroke-opacity:1;stroke-miterlimit:10;" d="M 241.282227 37.413086 L 237.863281 38.87793 M 237.3125 37.597656 L 241.282227 37.413086 L 238.414062 40.161133 " transform="matrix(1.333333,0,0,1.333333,-46.666667,-25.333333)"/>
<path style="fill:none;stroke-width:0.929626;stroke-linecap:round;stroke-linejoin:round;stroke:rgb(0%,0%,0%);stroke-opacity:1;stroke-miterlimit:10;" d="M 160.868164 77.666992 L 157.578125 49.984375 " transform="matrix(1.333333,0,0,1.333333,-46.666667,-25.333333)"/>
<path style="fill:none;stroke-width:0.929626;stroke-linecap:butt;stroke-linejoin:miter;stroke:rgb(0%,0%,0%);stroke-opacity:1;stroke-miterlimit:10;" d="M 157.141602 46.292969 L 157.578125 49.984375 M 156.192383 50.148438 L 157.141602 46.292969 L 158.960938 49.820312 " transform="matrix(1.333333,0,0,1.333333,-46.666667,-25.333333)"/>
<path style="fill:none;stroke-width:0.929626;stroke-linecap:round;stroke-linejoin:round;stroke:rgb(0%,0%,0%);stroke-opacity:1;stroke-miterlimit:10;" d="M 169.367188 79.949219 L 194.272461 46.644531 " transform="matrix(1.333333,0,0,1.333333,-46.666667,-25.333333)"/>
<path style="fill:none;stroke-width:0.929626;stroke-linecap:butt;stroke-linejoin:miter;stroke:rgb(0%,0%,0%);stroke-opacity:1;stroke-miterlimit:10;" d="M 196.504883 43.667969 L 194.272461 46.644531 M 193.15625 45.8125 L 196.504883 43.667969 L 195.391602 47.479492 " transform="matrix(1.333333,0,0,1.333333,-46.666667,-25.333333)"/>
<path style="fill:none;stroke-width:0.929626;stroke-linecap:round;stroke-linejoin:round;stroke:rgb(0%,0%,0%);stroke-opacity:1;stroke-miterlimit:10;" d="M 172.311523 83.145508 L 239.114258 41.265625 " transform="matrix(1.333333,0,0,1.333333,-46.666667,-25.333333)"/>
<path style="fill:none;stroke-width:0.929626;stroke-linecap:butt;stroke-linejoin:miter;stroke:rgb(0%,0%,0%);stroke-opacity:1;stroke-miterlimit:10;" d="M 242.266602 39.288086 L 239.114258 41.265625 M 238.370117 40.082031 L 242.266602 39.288086 L 239.855469 42.446289 " transform="matrix(1.333333,0,0,1.333333,-46.666667,-25.333333)"/>
<path style="fill:none;stroke-width:0.929626;stroke-linecap:round;stroke-linejoin:round;stroke:rgb(0%,0%,0%);stroke-opacity:1;stroke-miterlimit:10;" d="M 196.917969 80.485352 L 166.90625 45.859375 " transform="matrix(1.333333,0,0,1.333333,-46.666667,-25.333333)"/>
<path style="fill:none;stroke-width:0.929626;stroke-linecap:butt;stroke-linejoin:miter;stroke:rgb(0%,0%,0%);stroke-opacity:1;stroke-miterlimit:10;" d="M 164.47168 43.049805 L 166.90625 45.859375 M 165.851562 46.773438 L 164.47168 43.049805 L 167.960938 44.948242 " transform="matrix(1.333333,0,0,1.333333,-46.666667,-25.333333)"/>
<path style="fill:none;stroke-width:0.929626;stroke-linecap:round;stroke-linejoin:round;stroke:rgb(0%,0%,0%);stroke-opacity:1;stroke-miterlimit:10;" d="M 204.678711 77.584961 L 204.678711 50.104492 " transform="matrix(1.333333,0,0,1.333333,-46.666667,-25.333333)"/>
<path style="fill:none;stroke-width:0.929626;stroke-linecap:butt;stroke-linejoin:miter;stroke:rgb(0%,0%,0%);stroke-opacity:1;stroke-miterlimit:10;" d="M 204.678711 46.386719 L 204.678711 50.104492 M 203.28418 50.104492 L 204.678711 46.386719 L 206.073242 50.104492 " transform="matrix(1.333333,0,0,1.333333,-46.666667,-25.333333)"/>
<path style="fill:none;stroke-width:0.929626;stroke-linecap:round;stroke-linejoin:round;stroke:rgb(0%,0%,0%);stroke-opacity:1;stroke-miterlimit:10;" d="M 212.389648 80.438477 L 242.536133 45.229492 " transform="matrix(1.333333,0,0,1.333333,-46.666667,-25.333333)"/>
<path style="fill:none;stroke-width:0.929626;stroke-linecap:butt;stroke-linejoin:miter;stroke:rgb(0%,0%,0%);stroke-opacity:1;stroke-miterlimit:10;" d="M 244.953125 42.405273 L 242.536133 45.229492 M 241.475586 44.324219 L 244.953125 42.405273 L 243.59375 46.140625 " transform="matrix(1.333333,0,0,1.333333,-46.666667,-25.333333)"/>
<path style="fill:none;stroke-width:0.929626;stroke-linecap:round;stroke-linejoin:round;stroke:rgb(0%,0%,0%);stroke-opacity:1;stroke-miterlimit:10;" d="M 237.016602 83.198242 L 170.301758 41.883789 " transform="matrix(1.333333,0,0,1.333333,-46.666667,-25.333333)"/>
<path style="fill:none;stroke-width:0.929626;stroke-linecap:butt;stroke-linejoin:miter;stroke:rgb(0%,0%,0%);stroke-opacity:1;stroke-miterlimit:10;" d="M 167.137695 39.920898 L 170.301758 41.883789 M 169.566406 43.067383 L 167.137695 39.920898 L 171.03418 40.694336 " transform="matrix(1.333333,0,0,1.333333,-46.666667,-25.333333)"/>
<path style="fill:none;stroke-width:0.929626;stroke-linecap:round;stroke-linejoin:round;stroke:rgb(0%,0%,0%);stroke-opacity:1;stroke-miterlimit:10;" d="M 239.996094 79.949219 L 215.084961 46.644531 " transform="matrix(1.333333,0,0,1.333333,-46.666667,-25.333333)"/>
<path style="fill:none;stroke-width:0.929626;stroke-linecap:butt;stroke-linejoin:miter;stroke:rgb(0%,0%,0%);stroke-opacity:1;stroke-miterlimit:10;" d="M 212.858398 43.667969 L 215.084961 46.644531 M 213.97168 47.479492 L 212.858398 43.667969 L 216.204102 45.8125 " transform="matrix(1.333333,0,0,1.333333,-46.666667,-25.333333)"/>
<path style="fill:none;stroke-width:0.929626;stroke-linecap:round;stroke-linejoin:round;stroke:rgb(0%,0%,0%);stroke-opacity:1;stroke-miterlimit:10;" d="M 248.477539 77.666992 L 251.808594 49.290039 " transform="matrix(1.333333,0,0,1.333333,-46.666667,-25.333333)"/>
<path style="fill:none;stroke-width:0.929626;stroke-linecap:butt;stroke-linejoin:miter;stroke:rgb(0%,0%,0%);stroke-opacity:1;stroke-miterlimit:10;" d="M 252.242188 45.598633 L 251.808594 49.290039 M 250.425781 49.128906 L 252.242188 45.598633 L 253.194336 49.454102 " transform="matrix(1.333333,0,0,1.333333,-46.666667,-25.333333)"/>
<path style="fill:none;stroke-width:0.929626;stroke-linecap:round;stroke-linejoin:round;stroke:rgb(0%,0%,0%);stroke-opacity:1;stroke-miterlimit:10;" d="M 278.588867 84.821289 L 171.526367 39.504883 " transform="matrix(1.333333,0,0,1.333333,-46.666667,-25.333333)"/>
<path style="fill:none;stroke-width:0.929626;stroke-linecap:butt;stroke-linejoin:miter;stroke:rgb(0%,0%,0%);stroke-opacity:1;stroke-miterlimit:10;" d="M 168.104492 38.054688 L 171.526367 39.504883 M 170.984375 40.788086 L 168.104492 38.054688 L 172.074219 38.22168 " transform="matrix(1.333333,0,0,1.333333,-46.666667,-25.333333)"/>
<path style="fill:none;stroke-width:0.929626;stroke-linecap:round;stroke-linejoin:round;stroke:rgb(0%,0%,0%);stroke-opacity:1;stroke-miterlimit:10;" d="M 279.652344 82.852539 L 219.125 42.390625 " transform="matrix(1.333333,0,0,1.333333,-46.666667,-25.333333)"/>
<path style="fill:none;stroke-width:0.929626;stroke-linecap:butt;stroke-linejoin:miter;stroke:rgb(0%,0%,0%);stroke-opacity:1;stroke-miterlimit:10;" d="M 216.03418 40.325195 L 219.125 42.390625 M 218.351562 43.547852 L 216.03418 40.325195 L 219.901367 41.230469 " transform="matrix(1.333333,0,0,1.333333,-46.666667,-25.333333)"/>
<path style="fill:none;stroke-width:0.929626;stroke-linecap:round;stroke-linejoin:round;stroke:rgb(0%,0%,0%);stroke-opacity:1;stroke-miterlimit:10;" d="M 283.25 79.37207 L 263.008789 46.793945 " transform="matrix(1.333333,0,0,1.333333,-46.666667,-25.333333)"/>
<path style="fill:none;stroke-width:0.929626;stroke-linecap:butt;stroke-linejoin:miter;stroke:rgb(0%,0%,0%);stroke-opacity:1;stroke-miterlimit:10;" d="M 261.042969 43.635742 L 263.008789 46.793945 M 261.819336 47.532227 L 261.042969 43.635742 L 264.192383 46.058594 " transform="matrix(1.333333,0,0,1.333333,-46.666667,-25.333333)"/>
<path style="fill:none;stroke-width:0.929626;stroke-linecap:round;stroke-linejoin:round;stroke:rgb(0%,0%,0%);stroke-opacity:1;stroke-miterlimit:10;" d="M 129.186523 134.538086 L 123.374023 106.454102 " transform="matrix(1.333333,0,0,1.333333,-46.666667,-25.333333)"/>
<path style="fill:none;stroke-width:0.929626;stroke-linecap:butt;stroke-linejoin:miter;stroke:rgb(0%,0%,0%);stroke-opacity:1;stroke-miterlimit:10;" d="M 122.621094 102.8125 L 123.374023 106.454102 M 122.008789 106.735352 L 122.621094 102.8125 L 124.739258 106.172852 " transform="matrix(1.333333,0,0,1.333333,-46.666667,-25.333333)"/>
<path style="fill:none;stroke-width:0.929626;stroke-linecap:round;stroke-linejoin:round;stroke:rgb(0%,0%,0%);stroke-opacity:1;stroke-miterlimit:10;" d="M 137.231445 135.71875 L 154.000977 104.722656 " transform="matrix(1.333333,0,0,1.333333,-46.666667,-25.333333)"/>
<path style="fill:none;stroke-width:0.929626;stroke-linecap:butt;stroke-linejoin:miter;stroke:rgb(0%,0%,0%);stroke-opacity:1;stroke-miterlimit:10;" d="M 155.770508 101.453125 L 154.000977 104.722656 M 152.773438 104.057617 L 155.770508 101.453125 L 155.225586 105.387695 " transform="matrix(1.333333,0,0,1.333333,-46.666667,-25.333333)"/>
<path style="fill:none;stroke-width:0.929626;stroke-linecap:round;stroke-linejoin:round;stroke:rgb(0%,0%,0%);stroke-opacity:1;stroke-miterlimit:10;" d="M 140.958008 138.882812 L 190.953125 100.09082 " transform="matrix(1.333333,0,0,1.333333,-46.666667,-25.333333)"/>
<path style="fill:none;stroke-width:0.929626;stroke-linecap:butt;stroke-linejoin:miter;stroke:rgb(0%,0%,0%);stroke-opacity:1;stroke-miterlimit:10;" d="M 193.891602 97.811523 L 190.953125 100.09082 M 190.097656 98.989258 L 193.891602 97.811523 L 191.808594 101.192383 " transform="matrix(1.333333,0,0,1.333333,-46.666667,-25.333333)"/>
<path style="fill:none;stroke-width:0.929626;stroke-linecap:round;stroke-linejoin:round;stroke:rgb(0%,0%,0%);stroke-opacity:1;stroke-miterlimit:10;" d="M 142.229492 140.921875 L 231.49707 97.09668 " transform="matrix(1.333333,0,0,1.333333,-46.666667,-25.333333)"/>
<path style="fill:none;stroke-width:0.929626;stroke-linecap:butt;stroke-linejoin:miter;stroke:rgb(0%,0%,0%);stroke-opacity:1;stroke-miterlimit:10;" d="M 234.836914 95.456055 L 231.49707 97.09668 M 230.881836 95.848633 L 234.836914 95.456055 L 232.112305 98.347656 " transform="matrix(1.333333,0,0,1.333333,-46.666667,-25.333333)"/>
<path style="fill:none;stroke-width:0.929626;stroke-linecap:round;stroke-linejoin:round;stroke:rgb(0%,0%,0%);stroke-opacity:1;stroke-miterlimit:10;" d="M 142.745117 142.140625 L 273.157227 95.3125 " transform="matrix(1.333333,0,0,1.333333,-46.666667,-25.333333)"/>
<path style="fill:none;stroke-width:0.929626;stroke-linecap:butt;stroke-linejoin:miter;stroke:rgb(0%,0%,0%);stroke-opacity:1;stroke-miterlimit:10;" d="M 276.655273 94.055664 L 273.157227 95.3125 M 272.682617 94 L 276.655273 94.055664 L 273.628906 96.625 " transform="matrix(1.333333,0,0,1.333333,-46.666667,-25.333333)"/>
<path style="fill:none;stroke-width:0.929626;stroke-linecap:round;stroke-linejoin:round;stroke:rgb(0%,0%,0%);stroke-opacity:1;stroke-miterlimit:10;" d="M 172.071289 138.071289 L 132.567383 101.280273 " transform="matrix(1.333333,0,0,1.333333,-46.666667,-25.333333)"/>
<path style="fill:none;stroke-width:0.929626;stroke-linecap:butt;stroke-linejoin:miter;stroke:rgb(0%,0%,0%);stroke-opacity:1;stroke-miterlimit:10;" d="M 129.842773 98.746094 L 132.567383 101.280273 M 131.618164 102.299805 L 129.842773 98.746094 L 133.516602 100.257812 " transform="matrix(1.333333,0,0,1.333333,-46.666667,-25.333333)"/>
<path style="fill:none;stroke-width:0.929626;stroke-linecap:round;stroke-linejoin:round;stroke:rgb(0%,0%,0%);stroke-opacity:1;stroke-miterlimit:10;" d="M 177.069336 134.875 L 167.647461 105.961914 " transform="matrix(1.333333,0,0,1.333333,-46.666667,-25.333333)"/>
<path style="fill:none;stroke-width:0.929626;stroke-linecap:butt;stroke-linejoin:miter;stroke:rgb(0%,0%,0%);stroke-opacity:1;stroke-miterlimit:10;" d="M 166.496094 102.425781 L 167.647461 105.961914 M 166.323242 106.389648 L 166.496094 102.425781 L 168.977539 105.52832 " transform="matrix(1.333333,0,0,1.333333,-46.666667,-25.333333)"/>
<path style="fill:none;stroke-width:0.929626;stroke-linecap:round;stroke-linejoin:round;stroke:rgb(0%,0%,0%);stroke-opacity:1;stroke-miterlimit:10;" d="M 185.354492 135.226562 L 197.922852 105.449219 " transform="matrix(1.333333,0,0,1.333333,-46.666667,-25.333333)"/>
<path style="fill:none;stroke-width:0.929626;stroke-linecap:butt;stroke-linejoin:miter;stroke:rgb(0%,0%,0%);stroke-opacity:1;stroke-miterlimit:10;" d="M 199.370117 102.024414 L 197.922852 105.449219 M 196.639648 104.907227 L 199.370117 102.024414 L 199.206055 105.991211 " transform="matrix(1.333333,0,0,1.333333,-46.666667,-25.333333)"/>
<path style="fill:none;stroke-width:0.929626;stroke-linecap:round;stroke-linejoin:round;stroke:rgb(0%,0%,0%);stroke-opacity:1;stroke-miterlimit:10;" d="M 189.754883 138.446289 L 233.887695 100.726562 " transform="matrix(1.333333,0,0,1.333333,-46.666667,-25.333333)"/>
<path style="fill:none;stroke-width:0.929626;stroke-linecap:butt;stroke-linejoin:miter;stroke:rgb(0%,0%,0%);stroke-opacity:1;stroke-miterlimit:10;" d="M 236.714844 98.3125 L 233.887695 100.726562 M 232.979492 99.668945 L 236.714844 98.3125 L 234.792969 101.790039 " transform="matrix(1.333333,0,0,1.333333,-46.666667,-25.333333)"/>
<path style="fill:none;stroke-width:0.929626;stroke-linecap:round;stroke-linejoin:round;stroke:rgb(0%,0%,0%);stroke-opacity:1;stroke-miterlimit:10;" d="M 191.257812 140.666992 L 274.100586 97.47168 " transform="matrix(1.333333,0,0,1.333333,-46.666667,-25.333333)"/>
<path style="fill:none;stroke-width:0.929626;stroke-linecap:butt;stroke-linejoin:miter;stroke:rgb(0%,0%,0%);stroke-opacity:1;stroke-miterlimit:10;" d="M 277.399414 95.754883 L 274.100586 97.47168 M 273.456055 96.238281 L 277.399414 95.754883 L 274.745117 98.710938 " transform="matrix(1.333333,0,0,1.333333,-46.666667,-25.333333)"/>
<path style="fill:none;stroke-width:0.929626;stroke-linecap:round;stroke-linejoin:round;stroke:rgb(0%,0%,0%);stroke-opacity:1;stroke-miterlimit:10;" d="M 219.359375 140.713867 L 135.297852 97.398438 " transform="matrix(1.333333,0,0,1.333333,-46.666667,-25.333333)"/>
<path style="fill:none;stroke-width:0.929626;stroke-linecap:butt;stroke-linejoin:miter;stroke:rgb(0%,0%,0%);stroke-opacity:1;stroke-miterlimit:10;" d="M 131.993164 95.696289 L 135.297852 97.398438 M 134.65918 98.640625 L 131.993164 95.696289 L 135.936523 96.15918 " transform="matrix(1.333333,0,0,1.333333,-46.666667,-25.333333)"/>
<path style="fill:none;stroke-width:0.929626;stroke-linecap:round;stroke-linejoin:round;stroke:rgb(0%,0%,0%);stroke-opacity:1;stroke-miterlimit:10;" d="M 220.8125 138.53125 L 175.578125 100.600586 " transform="matrix(1.333333,0,0,1.333333,-46.666667,-25.333333)"/>
<path style="fill:none;stroke-width:0.929626;stroke-linecap:butt;stroke-linejoin:miter;stroke:rgb(0%,0%,0%);stroke-opacity:1;stroke-miterlimit:10;" d="M 172.730469 98.21582 L 175.578125 100.600586 M 174.68457 101.672852 L 172.730469 98.21582 L 176.477539 99.53418 " transform="matrix(1.333333,0,0,1.333333,-46.666667,-25.333333)"/>
<path style="fill:none;stroke-width:0.929626;stroke-linecap:round;stroke-linejoin:round;stroke:rgb(0%,0%,0%);stroke-opacity:1;stroke-miterlimit:10;" d="M 225.081055 135.311523 L 211.742188 105.317383 " transform="matrix(1.333333,0,0,1.333333,-46.666667,-25.333333)"/>
<path style="fill:none;stroke-width:0.929626;stroke-linecap:butt;stroke-linejoin:miter;stroke:rgb(0%,0%,0%);stroke-opacity:1;stroke-miterlimit:10;" d="M 210.230469 101.918945 L 211.742188 105.317383 M 210.467773 105.882812 L 210.230469 101.918945 L 213.016602 104.749023 " transform="matrix(1.333333,0,0,1.333333,-46.666667,-25.333333)"/>
<path style="fill:none;stroke-width:0.929626;stroke-linecap:round;stroke-linejoin:round;stroke:rgb(0%,0%,0%);stroke-opacity:1;stroke-miterlimit:10;" d="M 233.339844 134.801758 L 242.049805 106.067383 " transform="matrix(1.333333,0,0,1.333333,-46.666667,-25.333333)"/>
<path style="fill:none;stroke-width:0.929626;stroke-linecap:butt;stroke-linejoin:miter;stroke:rgb(0%,0%,0%);stroke-opacity:1;stroke-miterlimit:10;" d="M 243.133789 102.507812 L 242.049805 106.067383 M 240.719727 105.663086 L 243.133789 102.507812 L 243.385742 106.47168 " transform="matrix(1.333333,0,0,1.333333,-46.666667,-25.333333)"/>
<path style="fill:none;stroke-width:0.929626;stroke-linecap:round;stroke-linejoin:round;stroke:rgb(0%,0%,0%);stroke-opacity:1;stroke-miterlimit:10;" d="M 238.484375 137.977539 L 276.921875 101.415039 " transform="matrix(1.333333,0,0,1.333333,-46.666667,-25.333333)"/>
<path style="fill:none;stroke-width:0.929626;stroke-linecap:butt;stroke-linejoin:miter;stroke:rgb(0%,0%,0%);stroke-opacity:1;stroke-miterlimit:10;" d="M 279.617188 98.851562 L 276.921875 101.415039 M 275.960938 100.401367 L 279.617188 98.851562 L 277.882812 102.425781 " transform="matrix(1.333333,0,0,1.333333,-46.666667,-25.333333)"/>
<path style="fill:none;stroke-width:0.929626;stroke-linecap:round;stroke-linejoin:round;stroke:rgb(0%,0%,0%);stroke-opacity:1;stroke-miterlimit:10;" d="M 267.866211 141.516602 L 136.241211 95.207031 " transform="matrix(1.333333,0,0,1.333333,-46.666667,-25.333333)"/>
<path style="fill:none;stroke-width:0.929626;stroke-linecap:butt;stroke-linejoin:miter;stroke:rgb(0%,0%,0%);stroke-opacity:1;stroke-miterlimit:10;" d="M 132.734375 93.973633 L 136.241211 95.207031 M 135.78125 96.522461 L 132.734375 93.973633 L 136.707031 93.891602 " transform="matrix(1.333333,0,0,1.333333,-46.666667,-25.333333)"/>
<path style="fill:none;stroke-width:0.929626;stroke-linecap:round;stroke-linejoin:round;stroke:rgb(0%,0%,0%);stroke-opacity:1;stroke-miterlimit:10;" d="M 268.358398 140.324219 L 177.933594 96.953125 " transform="matrix(1.333333,0,0,1.333333,-46.666667,-25.333333)"/>
<path style="fill:none;stroke-width:0.929626;stroke-linecap:butt;stroke-linejoin:miter;stroke:rgb(0%,0%,0%);stroke-opacity:1;stroke-miterlimit:10;" d="M 174.582031 95.347656 L 177.933594 96.953125 M 177.333008 98.209961 L 174.582031 95.347656 L 178.540039 95.696289 " transform="matrix(1.333333,0,0,1.333333,-46.666667,-25.333333)"/>
<path style="fill:none;stroke-width:0.929626;stroke-linecap:round;stroke-linejoin:round;stroke:rgb(0%,0%,0%);stroke-opacity:1;stroke-miterlimit:10;" d="M 269.583008 138.320312 L 218.55957 99.891602 " transform="matrix(1.333333,0,0,1.333333,-46.666667,-25.333333)"/>
<path style="fill:none;stroke-width:0.929626;stroke-linecap:butt;stroke-linejoin:miter;stroke:rgb(0%,0%,0%);stroke-opacity:1;stroke-miterlimit:10;" d="M 215.588867 97.65625 L 218.55957 99.891602 M 217.72168 101.007812 L 215.588867 97.65625 L 219.397461 98.77832 " transform="matrix(1.333333,0,0,1.333333,-46.666667,-25.333333)"/>
<path style="fill:none;stroke-width:0.929626;stroke-linecap:round;stroke-linejoin:round;stroke:rgb(0%,0%,0%);stroke-opacity:1;stroke-miterlimit:10;" d="M 273.174805 135.15332 L 255.708008 104.532227 " transform="matrix(1.333333,0,0,1.333333,-46.666667,-25.333333)"/>
<path style="fill:none;stroke-width:0.929626;stroke-linecap:butt;stroke-linejoin:miter;stroke:rgb(0%,0%,0%);stroke-opacity:1;stroke-miterlimit:10;" d="M 253.862305 101.300781 L 255.708008 104.532227 M 254.495117 105.223633 L 253.862305 101.300781 L 256.917969 103.84082 " transform="matrix(1.333333,0,0,1.333333,-46.666667,-25.333333)"/>
<path style="fill:none;stroke-width:0.929626;stroke-linecap:round;stroke-linejoin:round;stroke:rgb(0%,0%,0%);stroke-opacity:1;stroke-miterlimit:10;" d="M 281.225586 133.796875 L 286.320312 106.518555 " transform="matrix(1.333333,0,0,1.333333,-46.666667,-25.333333)"/>
<path style="fill:none;stroke-width:0.929626;stroke-linecap:butt;stroke-linejoin:miter;stroke:rgb(0%,0%,0%);stroke-opacity:1;stroke-miterlimit:10;" d="M 287.00293 102.862305 L 286.320312 106.518555 M 284.949219 106.260742 L 287.00293 102.862305 L 287.691406 106.773438 " transform="matrix(1.333333,0,0,1.333333,-46.666667,-25.333333)"/>
</g>
</svg>
