<?xml version="1.0" encoding="UTF-8"?>
<svg xmlns="http://www.w3.org/2000/svg" xmlns:xlink="http://www.w3.org/1999/xlink" width="427.25415" height="240.875" viewBox="0 0 427.25415 240.875" version="1.1">
<defs>
<clipPath id="clip1">
  <path d="M 61 9.601562 L 64 9.601562 L 64 190.800781 L 61 190.800781 Z M 61 9.601562 "/>
</clipPath>
<clipPath id="clip2">
  <path d="M 104 9.601562 L 106 9.601562 L 106 190.800781 L 104 190.800781 Z M 104 9.601562 "/>
</clipPath>
<clipPath id="clip3">
  <path d="M 146 9.601562 L 149 9.601562 L 149 190.800781 L 146 190.800781 Z M 146 9.601562 "/>
</clipPath>
<clipPath id="clip4">
  <path d="M 189 9.601562 L 191 9.601562 L 191 190.800781 L 189 190.800781 Z M 189 9.601562 "/>
</clipPath>
<clipPath id="clip5">
  <path d="M 231 9.601562 L 234 9.601562 L 234 190.800781 L 231 190.800781 Z M 231 9.601562 "/>
</clipPath>
<clipPath id="clip6">
  <path d="M 274 9.601562 L 277 9.601562 L 277 190.800781 L 274 190.800781 Z M 274 9.601562 "/>
</clipPath>
<clipPath id="clip7">
  <path d="M 317 9.601562 L 319 9.601562 L 319 190.800781 L 317 190.800781 Z M 317 9.601562 "/>
</clipPath>
<clipPath id="clip8">
  <path d="M 359 9.601562 L 362 9.601562 L 362 190.800781 L 359 190.800781 Z M 359 9.601562 "/>
</clipPath>
<clipPath id="clip9">
  <path d="M 402 9.601562 L 404 9.601562 L 404 190.800781 L 402 190.800781 Z M 402 9.601562 "/>
</clipPath>
<clipPath id="clip10">
  <path d="M 45.652344 181 L 417.652344 181 L 417.652344 184 L 45.652344 184 Z M 45.652344 181 "/>
</clipPath>
<clipPath id="clip11">
  <path d="M 45.652344 140 L 417.652344 140 L 417.652344 142 L 45.652344 142 Z M 45.652344 140 "/>
</clipPath>
<clipPath id="clip12">
  <path d="M 45.652344 98 L 417.652344 98 L 417.652344 100 L 45.652344 100 Z M 45.652344 98 "/>
</clipPath>
<clipPath id="clip13">
  <path d="M 45.652344 56 L 417.652344 56 L 417.652344 59 L 45.652344 59 Z M 45.652344 56 "/>
</clipPath>
<clipPath id="clip14">
  <path d="M 45.652344 14 L 417.652344 14 L 417.652344 17 L 45.652344 17 Z M 45.652344 14 "/>
</clipPath>
</defs>
<g id="surface1">
<path style=" stroke:none;fill-rule:nonzero;fill:rgb(100%,100%,100%);fill-opacity:1;" d="M 45.652344 190.800781 L 417.652344 190.800781 L 417.652344 9.601562 L 45.652344 9.601562 Z M 45.652344 190.800781 "/>
<g clip-path="url(#clip1)" clip-rule="nonzero">
<path style="fill:none;stroke-width:0.8;stroke-linecap:square;stroke-linejoin:round;stroke:rgb(69.01961%,69.01961%,69.01961%);stroke-opacity:1;stroke-miterlimit:4;" d="M 46.921875 143.100586 L 46.921875 7.201172 " transform="matrix(1.333333,0,0,1.333333,0,0)"/>
</g>
<path style="fill:none;stroke-width:0.8;stroke-linecap:butt;stroke-linejoin:round;stroke:rgb(0%,0%,0%);stroke-opacity:1;stroke-miterlimit:4;" d="M -0.00056839 0.000579834 L -0.00056839 3.498627 " transform="matrix(1.333333,0,0,1.333333,62.563258,190.800008)"/>
<path style=" stroke:none;fill-rule:nonzero;fill:rgb(0%,0%,0%);fill-opacity:1;" d="M 54.148438 205.53125 L 62.492188 205.53125 L 62.492188 206.636719 L 54.148438 206.636719 Z M 54.148438 205.53125 "/>
<path style=" stroke:none;fill-rule:nonzero;fill:rgb(0%,0%,0%);fill-opacity:1;" d="M 68.144531 205.648438 C 67.519531 205.648438 67.027344 205.816406 66.667969 206.148438 C 66.3125 206.484375 66.132812 206.945312 66.132812 207.527344 C 66.132812 208.117188 66.3125 208.574219 66.667969 208.910156 C 67.027344 209.246094 67.519531 209.414062 68.144531 209.414062 C 68.769531 209.414062 69.261719 209.246094 69.621094 208.910156 C 69.984375 208.570312 70.164062 208.109375 70.164062 207.527344 C 70.164062 206.945312 69.984375 206.484375 69.625 206.148438 C 69.269531 205.816406 68.773438 205.648438 68.144531 205.648438 Z M 66.828125 205.089844 C 66.265625 204.949219 65.828125 204.6875 65.511719 204.300781 C 65.199219 203.914062 65.039062 203.441406 65.039062 202.886719 C 65.039062 202.109375 65.316406 201.496094 65.871094 201.046875 C 66.421875 200.59375 67.183594 200.367188 68.144531 200.367188 C 69.113281 200.367188 69.871094 200.59375 70.421875 201.046875 C 70.976562 201.496094 71.25 202.109375 71.25 202.886719 C 71.25 203.441406 71.09375 203.914062 70.777344 204.300781 C 70.464844 204.6875 70.027344 204.949219 69.46875 205.089844 C 70.101562 205.238281 70.59375 205.527344 70.945312 205.957031 C 71.300781 206.386719 71.476562 206.910156 71.476562 207.527344 C 71.476562 208.472656 71.191406 209.195312 70.617188 209.699219 C 70.039062 210.203125 69.214844 210.453125 68.144531 210.453125 C 67.074219 210.453125 66.25 210.203125 65.671875 209.699219 C 65.097656 209.195312 64.8125 208.472656 64.8125 207.527344 C 64.8125 206.910156 64.988281 206.386719 65.34375 205.957031 C 65.703125 205.527344 66.195312 205.238281 66.828125 205.089844 Z M 66.347656 203.011719 C 66.347656 203.515625 66.503906 203.90625 66.820312 204.191406 C 67.136719 204.472656 67.578125 204.613281 68.144531 204.613281 C 68.710938 204.613281 69.152344 204.472656 69.46875 204.191406 C 69.789062 203.90625 69.949219 203.515625 69.949219 203.011719 C 69.949219 202.507812 69.789062 202.117188 69.46875 201.832031 C 69.152344 201.550781 68.710938 201.410156 68.144531 201.410156 C 67.578125 201.410156 67.136719 201.550781 66.820312 201.832031 C 66.503906 202.117188 66.347656 202.507812 66.347656 203.011719 Z M 66.347656 203.011719 "/>
<g clip-path="url(#clip2)" clip-rule="nonzero">
<path style="fill:none;stroke-width:0.8;stroke-linecap:square;stroke-linejoin:round;stroke:rgb(69.01961%,69.01961%,69.01961%);stroke-opacity:1;stroke-miterlimit:4;" d="M 78.826172 143.100586 L 78.826172 7.201172 " transform="matrix(1.333333,0,0,1.333333,0,0)"/>
</g>
<path style="fill:none;stroke-width:0.8;stroke-linecap:butt;stroke-linejoin:round;stroke:rgb(0%,0%,0%);stroke-opacity:1;stroke-miterlimit:4;" d="M -0.000213623 0.000579834 L -0.000213623 3.498627 " transform="matrix(1.333333,0,0,1.333333,105.101847,190.800008)"/>
<path style=" stroke:none;fill-rule:nonzero;fill:rgb(0%,0%,0%);fill-opacity:1;" d="M 96.6875 205.53125 L 105.03125 205.53125 L 105.03125 206.636719 L 96.6875 206.636719 Z M 96.6875 205.53125 "/>
<path style=" stroke:none;fill-rule:nonzero;fill:rgb(0%,0%,0%);fill-opacity:1;" d="M 110.847656 204.882812 C 110.257812 204.882812 109.789062 205.082031 109.445312 205.488281 C 109.097656 205.890625 108.925781 206.441406 108.925781 207.144531 C 108.925781 207.84375 109.097656 208.398438 109.445312 208.804688 C 109.789062 209.210938 110.257812 209.414062 110.847656 209.414062 C 111.4375 209.414062 111.90625 209.210938 112.25 208.804688 C 112.59375 208.398438 112.765625 207.84375 112.765625 207.144531 C 112.765625 206.441406 112.59375 205.890625 112.25 205.488281 C 111.90625 205.082031 111.4375 204.882812 110.847656 204.882812 Z M 113.457031 200.757812 L 113.457031 201.957031 C 113.128906 201.800781 112.792969 201.683594 112.457031 201.601562 C 112.121094 201.515625 111.789062 201.476562 111.457031 201.476562 C 110.589844 201.476562 109.925781 201.769531 109.46875 202.355469 C 109.011719 202.941406 108.75 203.824219 108.683594 205.011719 C 108.941406 204.632812 109.261719 204.34375 109.648438 204.140625 C 110.035156 203.941406 110.460938 203.839844 110.925781 203.839844 C 111.902344 203.839844 112.671875 204.136719 113.238281 204.730469 C 113.804688 205.320312 114.089844 206.125 114.089844 207.144531 C 114.089844 208.144531 113.792969 208.945312 113.203125 209.550781 C 112.613281 210.152344 111.828125 210.453125 110.847656 210.453125 C 109.722656 210.453125 108.863281 210.023438 108.269531 209.164062 C 107.675781 208.300781 107.375 207.050781 107.375 205.414062 C 107.375 203.878906 107.742188 202.652344 108.46875 201.738281 C 109.199219 200.824219 110.179688 200.367188 111.40625 200.367188 C 111.738281 200.367188 112.070312 200.402344 112.40625 200.464844 C 112.742188 200.53125 113.09375 200.628906 113.457031 200.757812 Z M 113.457031 200.757812 "/>
<g clip-path="url(#clip3)" clip-rule="nonzero">
<path style="fill:none;stroke-width:0.8;stroke-linecap:square;stroke-linejoin:round;stroke:rgb(69.01961%,69.01961%,69.01961%);stroke-opacity:1;stroke-miterlimit:4;" d="M 110.730469 143.100586 L 110.730469 7.201172 " transform="matrix(1.333333,0,0,1.333333,0,0)"/>
</g>
<path style="fill:none;stroke-width:0.8;stroke-linecap:butt;stroke-linejoin:round;stroke:rgb(0%,0%,0%);stroke-opacity:1;stroke-miterlimit:4;" d="M 0.000137329 0.000579834 L 0.000137329 3.498627 " transform="matrix(1.333333,0,0,1.333333,147.640442,190.800008)"/>
<path style=" stroke:none;fill-rule:nonzero;fill:rgb(0%,0%,0%);fill-opacity:1;" d="M 139.226562 205.53125 L 147.570312 205.53125 L 147.570312 206.636719 L 139.226562 206.636719 Z M 139.226562 205.53125 "/>
<path style=" stroke:none;fill-rule:nonzero;fill:rgb(0%,0%,0%);fill-opacity:1;" d="M 154.023438 201.691406 L 150.703125 206.878906 L 154.023438 206.878906 Z M 153.679688 200.542969 L 155.332031 200.542969 L 155.332031 206.878906 L 156.71875 206.878906 L 156.71875 207.972656 L 155.332031 207.972656 L 155.332031 210.265625 L 154.023438 210.265625 L 154.023438 207.972656 L 149.636719 207.972656 L 149.636719 206.703125 Z M 153.679688 200.542969 "/>
<g clip-path="url(#clip4)" clip-rule="nonzero">
<path style="fill:none;stroke-width:0.8;stroke-linecap:square;stroke-linejoin:round;stroke:rgb(69.01961%,69.01961%,69.01961%);stroke-opacity:1;stroke-miterlimit:4;" d="M 142.634766 143.100586 L 142.634766 7.201172 " transform="matrix(1.333333,0,0,1.333333,0,0)"/>
</g>
<path style="fill:none;stroke-width:0.8;stroke-linecap:butt;stroke-linejoin:round;stroke:rgb(0%,0%,0%);stroke-opacity:1;stroke-miterlimit:4;" d="M 0.000488281 0.000579834 L 0.000488281 3.498627 " transform="matrix(1.333333,0,0,1.333333,190.179036,190.800008)"/>
<path style=" stroke:none;fill-rule:nonzero;fill:rgb(0%,0%,0%);fill-opacity:1;" d="M 181.761719 205.53125 L 190.109375 205.53125 L 190.109375 206.636719 L 181.761719 206.636719 Z M 181.761719 205.53125 "/>
<path style=" stroke:none;fill-rule:nonzero;fill:rgb(0%,0%,0%);fill-opacity:1;" d="M 194.082031 209.160156 L 198.671875 209.160156 L 198.671875 210.265625 L 192.5 210.265625 L 192.5 209.160156 C 193 208.640625 193.679688 207.949219 194.539062 207.078125 C 195.402344 206.207031 195.945312 205.648438 196.164062 205.394531 C 196.585938 204.921875 196.878906 204.523438 197.046875 204.195312 C 197.214844 203.867188 197.296875 203.542969 197.296875 203.226562 C 197.296875 202.710938 197.117188 202.289062 196.753906 201.964844 C 196.390625 201.636719 195.917969 201.476562 195.335938 201.476562 C 194.925781 201.476562 194.488281 201.546875 194.03125 201.691406 C 193.574219 201.832031 193.085938 202.050781 192.566406 202.339844 L 192.566406 201.011719 C 193.09375 200.800781 193.589844 200.640625 194.046875 200.53125 C 194.507812 200.421875 194.929688 200.367188 195.3125 200.367188 C 196.320312 200.367188 197.121094 200.621094 197.722656 201.125 C 198.320312 201.628906 198.617188 202.300781 198.617188 203.140625 C 198.617188 203.542969 198.542969 203.921875 198.394531 204.277344 C 198.246094 204.636719 197.972656 205.058594 197.578125 205.542969 C 197.46875 205.671875 197.125 206.035156 196.542969 206.636719 C 195.960938 207.238281 195.140625 208.078125 194.082031 209.160156 Z M 194.082031 209.160156 "/>
<g clip-path="url(#clip5)" clip-rule="nonzero">
<path style="fill:none;stroke-width:0.8;stroke-linecap:square;stroke-linejoin:round;stroke:rgb(69.01961%,69.01961%,69.01961%);stroke-opacity:1;stroke-miterlimit:4;" d="M 174.539062 143.100586 L 174.539062 7.201172 " transform="matrix(1.333333,0,0,1.333333,0,0)"/>
</g>
<path style="fill:none;stroke-width:0.8;stroke-linecap:butt;stroke-linejoin:round;stroke:rgb(0%,0%,0%);stroke-opacity:1;stroke-miterlimit:4;" d="M 0.000839233 0.000579834 L 0.000839233 3.498627 " transform="matrix(1.333333,0,0,1.333333,232.717631,190.800008)"/>
<path style=" stroke:none;fill-rule:nonzero;fill:rgb(0%,0%,0%);fill-opacity:1;" d="M 232.714844 201.410156 C 232.035156 201.410156 231.527344 201.742188 231.1875 202.410156 C 230.847656 203.074219 230.675781 204.078125 230.675781 205.414062 C 230.675781 206.746094 230.847656 207.746094 231.1875 208.414062 C 231.527344 209.078125 232.035156 209.414062 232.714844 209.414062 C 233.394531 209.414062 233.90625 209.078125 234.246094 208.414062 C 234.589844 207.746094 234.757812 206.746094 234.757812 205.414062 C 234.757812 204.078125 234.589844 203.074219 234.246094 202.410156 C 233.90625 201.742188 233.394531 201.410156 232.714844 201.410156 Z M 232.714844 200.367188 C 233.804688 200.367188 234.636719 200.800781 235.210938 201.664062 C 235.785156 202.523438 236.074219 203.773438 236.074219 205.414062 C 236.074219 207.050781 235.785156 208.300781 235.210938 209.164062 C 234.636719 210.023438 233.804688 210.453125 232.714844 210.453125 C 231.625 210.453125 230.792969 210.023438 230.21875 209.164062 C 229.644531 208.300781 229.355469 207.050781 229.355469 205.414062 C 229.355469 203.773438 229.644531 202.523438 230.21875 201.664062 C 230.792969 200.800781 231.625 200.367188 232.714844 200.367188 Z M 232.714844 200.367188 "/>
<g clip-path="url(#clip6)" clip-rule="nonzero">
<path style="fill:none;stroke-width:0.8;stroke-linecap:square;stroke-linejoin:round;stroke:rgb(69.01961%,69.01961%,69.01961%);stroke-opacity:1;stroke-miterlimit:4;" d="M 206.443359 143.100586 L 206.443359 7.201172 " transform="matrix(1.333333,0,0,1.333333,0,0)"/>
</g>
<path style="fill:none;stroke-width:0.8;stroke-linecap:butt;stroke-linejoin:round;stroke:rgb(0%,0%,0%);stroke-opacity:1;stroke-miterlimit:4;" d="M 0.00119019 0.000579834 L 0.00119019 3.498627 " transform="matrix(1.333333,0,0,1.333333,275.256226,190.800008)"/>
<path style=" stroke:none;fill-rule:nonzero;fill:rgb(0%,0%,0%);fill-opacity:1;" d="M 273.574219 209.160156 L 278.164062 209.160156 L 278.164062 210.265625 L 271.992188 210.265625 L 271.992188 209.160156 C 272.492188 208.640625 273.171875 207.949219 274.03125 207.078125 C 274.894531 206.207031 275.433594 205.648438 275.65625 205.394531 C 276.078125 204.921875 276.371094 204.523438 276.539062 204.195312 C 276.707031 203.867188 276.789062 203.542969 276.789062 203.226562 C 276.789062 202.710938 276.609375 202.289062 276.246094 201.964844 C 275.882812 201.636719 275.410156 201.476562 274.828125 201.476562 C 274.417969 201.476562 273.980469 201.546875 273.523438 201.691406 C 273.066406 201.832031 272.578125 202.050781 272.054688 202.339844 L 272.054688 201.011719 C 272.585938 200.800781 273.078125 200.640625 273.539062 200.53125 C 274 200.421875 274.421875 200.367188 274.804688 200.367188 C 275.8125 200.367188 276.613281 200.621094 277.210938 201.125 C 277.8125 201.628906 278.109375 202.300781 278.109375 203.140625 C 278.109375 203.542969 278.035156 203.921875 277.886719 204.277344 C 277.738281 204.636719 277.464844 205.058594 277.070312 205.542969 C 276.960938 205.671875 276.617188 206.035156 276.035156 206.636719 C 275.453125 207.238281 274.632812 208.078125 273.574219 209.160156 Z M 273.574219 209.160156 "/>
<g clip-path="url(#clip7)" clip-rule="nonzero">
<path style="fill:none;stroke-width:0.8;stroke-linecap:square;stroke-linejoin:round;stroke:rgb(69.01961%,69.01961%,69.01961%);stroke-opacity:1;stroke-miterlimit:4;" d="M 238.344727 143.100586 L 238.344727 7.201172 " transform="matrix(1.333333,0,0,1.333333,0,0)"/>
</g>
<path style="fill:none;stroke-width:0.8;stroke-linecap:butt;stroke-linejoin:round;stroke:rgb(0%,0%,0%);stroke-opacity:1;stroke-miterlimit:4;" d="M -0.00138855 0.000579834 L -0.00138855 3.498627 " transform="matrix(1.333333,0,0,1.333333,317.79482,190.800008)"/>
<path style=" stroke:none;fill-rule:nonzero;fill:rgb(0%,0%,0%);fill-opacity:1;" d="M 318.59375 201.691406 L 315.273438 206.878906 L 318.59375 206.878906 Z M 318.246094 200.542969 L 319.902344 200.542969 L 319.902344 206.878906 L 321.289062 206.878906 L 321.289062 207.972656 L 319.902344 207.972656 L 319.902344 210.265625 L 318.59375 210.265625 L 318.59375 207.972656 L 314.207031 207.972656 L 314.207031 206.703125 Z M 318.246094 200.542969 "/>
<g clip-path="url(#clip8)" clip-rule="nonzero">
<path style="fill:none;stroke-width:0.8;stroke-linecap:square;stroke-linejoin:round;stroke:rgb(69.01961%,69.01961%,69.01961%);stroke-opacity:1;stroke-miterlimit:4;" d="M 270.249023 143.100586 L 270.249023 7.201172 " transform="matrix(1.333333,0,0,1.333333,0,0)"/>
</g>
<path style="fill:none;stroke-width:0.8;stroke-linecap:butt;stroke-linejoin:round;stroke:rgb(0%,0%,0%);stroke-opacity:1;stroke-miterlimit:4;" d="M -0.0010376 0.000579834 L -0.0010376 3.498627 " transform="matrix(1.333333,0,0,1.333333,360.333415,190.800008)"/>
<path style=" stroke:none;fill-rule:nonzero;fill:rgb(0%,0%,0%);fill-opacity:1;" d="M 360.492188 204.882812 C 359.902344 204.882812 359.433594 205.082031 359.089844 205.488281 C 358.746094 205.890625 358.574219 206.441406 358.574219 207.144531 C 358.574219 207.84375 358.746094 208.398438 359.089844 208.804688 C 359.433594 209.210938 359.902344 209.414062 360.492188 209.414062 C 361.085938 209.414062 361.550781 209.210938 361.894531 208.804688 C 362.242188 208.398438 362.414062 207.84375 362.414062 207.144531 C 362.414062 206.441406 362.242188 205.890625 361.894531 205.488281 C 361.550781 205.082031 361.085938 204.882812 360.492188 204.882812 Z M 363.105469 200.757812 L 363.105469 201.957031 C 362.773438 201.800781 362.441406 201.683594 362.105469 201.601562 C 361.769531 201.515625 361.433594 201.476562 361.105469 201.476562 C 360.234375 201.476562 359.574219 201.769531 359.113281 202.355469 C 358.65625 202.941406 358.398438 203.824219 358.332031 205.011719 C 358.585938 204.632812 358.90625 204.34375 359.292969 204.140625 C 359.679688 203.941406 360.105469 203.839844 360.570312 203.839844 C 361.546875 203.839844 362.320312 204.136719 362.886719 204.730469 C 363.453125 205.320312 363.734375 206.125 363.734375 207.144531 C 363.734375 208.144531 363.441406 208.945312 362.851562 209.550781 C 362.261719 210.152344 361.472656 210.453125 360.492188 210.453125 C 359.367188 210.453125 358.507812 210.023438 357.914062 209.164062 C 357.320312 208.300781 357.023438 207.050781 357.023438 205.414062 C 357.023438 203.878906 357.386719 202.652344 358.117188 201.738281 C 358.847656 200.824219 359.824219 200.367188 361.050781 200.367188 C 361.382812 200.367188 361.714844 200.402344 362.050781 200.464844 C 362.386719 200.53125 362.738281 200.628906 363.105469 200.757812 Z M 363.105469 200.757812 "/>
<g clip-path="url(#clip9)" clip-rule="nonzero">
<path style="fill:none;stroke-width:0.8;stroke-linecap:square;stroke-linejoin:round;stroke:rgb(69.01961%,69.01961%,69.01961%);stroke-opacity:1;stroke-miterlimit:4;" d="M 302.15332 143.100586 L 302.15332 7.201172 " transform="matrix(1.333333,0,0,1.333333,0,0)"/>
</g>
<path style="fill:none;stroke-width:0.8;stroke-linecap:butt;stroke-linejoin:round;stroke:rgb(0%,0%,0%);stroke-opacity:1;stroke-miterlimit:4;" d="M -0.000701904 0.000579834 L -0.000701904 3.498627 " transform="matrix(1.333333,0,0,1.333333,402.87203,190.800008)"/>
<path style=" stroke:none;fill-rule:nonzero;fill:rgb(0%,0%,0%);fill-opacity:1;" d="M 402.867188 205.648438 C 402.242188 205.648438 401.75 205.816406 401.394531 206.148438 C 401.035156 206.484375 400.855469 206.945312 400.855469 207.527344 C 400.855469 208.117188 401.035156 208.574219 401.394531 208.910156 C 401.75 209.246094 402.242188 209.414062 402.867188 209.414062 C 403.492188 209.414062 403.984375 209.246094 404.34375 208.910156 C 404.707031 208.570312 404.886719 208.109375 404.886719 207.527344 C 404.886719 206.945312 404.707031 206.484375 404.347656 206.148438 C 403.992188 205.816406 403.5 205.648438 402.867188 205.648438 Z M 401.554688 205.089844 C 400.988281 204.949219 400.550781 204.6875 400.234375 204.300781 C 399.921875 203.914062 399.761719 203.441406 399.761719 202.886719 C 399.761719 202.109375 400.039062 201.496094 400.59375 201.046875 C 401.148438 200.59375 401.90625 200.367188 402.867188 200.367188 C 403.835938 200.367188 404.59375 200.59375 405.148438 201.046875 C 405.699219 201.496094 405.972656 202.109375 405.972656 202.886719 C 405.972656 203.441406 405.816406 203.914062 405.5 204.300781 C 405.1875 204.6875 404.75 204.949219 404.191406 205.089844 C 404.824219 205.238281 405.316406 205.527344 405.667969 205.957031 C 406.023438 206.386719 406.199219 206.910156 406.199219 207.527344 C 406.199219 208.472656 405.914062 209.195312 405.339844 209.699219 C 404.761719 210.203125 403.941406 210.453125 402.867188 210.453125 C 401.796875 210.453125 400.972656 210.203125 400.398438 209.699219 C 399.820312 209.195312 399.535156 208.472656 399.535156 207.527344 C 399.535156 206.910156 399.710938 206.386719 400.066406 205.957031 C 400.425781 205.527344 400.917969 205.238281 401.554688 205.089844 Z M 401.070312 203.011719 C 401.070312 203.515625 401.230469 203.90625 401.542969 204.191406 C 401.859375 204.472656 402.300781 204.613281 402.867188 204.613281 C 403.433594 204.613281 403.875 204.472656 404.191406 204.191406 C 404.511719 203.90625 404.671875 203.515625 404.671875 203.011719 C 404.671875 202.507812 404.511719 202.117188 404.191406 201.832031 C 403.875 201.550781 403.433594 201.410156 402.867188 201.410156 C 402.300781 201.410156 401.859375 201.550781 401.542969 201.832031 C 401.230469 202.117188 401.070312 202.507812 401.070312 203.011719 Z M 401.070312 203.011719 "/>
<path style=" stroke:none;fill-rule:nonzero;fill:rgb(0%,0%,0%);fill-opacity:1;" d="M 235.027344 221.210938 L 232.390625 224.757812 L 235.164062 228.503906 L 233.75 228.503906 L 231.628906 225.636719 L 229.507812 228.503906 L 228.089844 228.503906 L 230.925781 224.6875 L 228.332031 221.210938 L 229.746094 221.210938 L 231.679688 223.808594 L 233.613281 221.210938 Z M 235.027344 221.210938 "/>
<g clip-path="url(#clip10)" clip-rule="nonzero">
<path style="fill:none;stroke-width:0.8;stroke-linecap:square;stroke-linejoin:round;stroke:rgb(69.01961%,69.01961%,69.01961%);stroke-opacity:1;stroke-miterlimit:4;" d="M 34.239258 136.921875 L 313.239258 136.921875 " transform="matrix(1.333333,0,0,1.333333,0,0)"/>
</g>
<path style="fill:none;stroke-width:0.8;stroke-linecap:butt;stroke-linejoin:round;stroke:rgb(0%,0%,0%);stroke-opacity:1;stroke-miterlimit:4;" d="M -0.00136566 -0.000854492 L -3.499413 -0.000854492 " transform="matrix(1.333333,0,0,1.333333,45.654165,182.563639)"/>
<path style=" stroke:none;fill-rule:nonzero;fill:rgb(0%,0%,0%);fill-opacity:1;" d="M 32.074219 178.773438 C 31.398438 178.773438 30.890625 179.109375 30.546875 179.773438 C 30.207031 180.441406 30.039062 181.441406 30.039062 182.777344 C 30.039062 184.109375 30.207031 185.109375 30.546875 185.777344 C 30.890625 186.445312 31.398438 186.777344 32.074219 186.777344 C 32.757812 186.777344 33.269531 186.445312 33.609375 185.777344 C 33.949219 185.109375 34.121094 184.109375 34.121094 182.777344 C 34.121094 181.441406 33.949219 180.441406 33.609375 179.773438 C 33.269531 179.109375 32.757812 178.773438 32.074219 178.773438 Z M 32.074219 177.734375 C 33.164062 177.734375 33.996094 178.164062 34.574219 179.027344 C 35.148438 179.886719 35.433594 181.140625 35.433594 182.777344 C 35.433594 184.414062 35.148438 185.664062 34.574219 186.527344 C 33.996094 187.386719 33.164062 187.820312 32.074219 187.820312 C 30.984375 187.820312 30.152344 187.386719 29.578125 186.527344 C 29.003906 185.664062 28.714844 184.414062 28.714844 182.777344 C 28.714844 181.140625 29.003906 179.886719 29.578125 179.027344 C 30.152344 178.164062 30.984375 177.734375 32.074219 177.734375 Z M 32.074219 177.734375 "/>
<g clip-path="url(#clip11)" clip-rule="nonzero">
<path style="fill:none;stroke-width:0.8;stroke-linecap:square;stroke-linejoin:round;stroke:rgb(69.01961%,69.01961%,69.01961%);stroke-opacity:1;stroke-miterlimit:4;" d="M 34.239258 105.644531 L 313.239258 105.644531 " transform="matrix(1.333333,0,0,1.333333,0,0)"/>
</g>
<path style="fill:none;stroke-width:0.8;stroke-linecap:butt;stroke-linejoin:round;stroke:rgb(0%,0%,0%);stroke-opacity:1;stroke-miterlimit:4;" d="M -0.00136566 -0.000862122 L -3.499413 -0.000862122 " transform="matrix(1.333333,0,0,1.333333,45.654165,140.860524)"/>
<path style=" stroke:none;fill-rule:nonzero;fill:rgb(0%,0%,0%);fill-opacity:1;" d="M 30.394531 144.820312 L 34.984375 144.820312 L 34.984375 145.925781 L 28.816406 145.925781 L 28.816406 144.820312 C 29.3125 144.304688 29.992188 143.609375 30.855469 142.742188 C 31.714844 141.871094 32.257812 141.308594 32.480469 141.054688 C 32.898438 140.582031 33.195312 140.183594 33.359375 139.855469 C 33.527344 139.527344 33.613281 139.207031 33.613281 138.886719 C 33.613281 138.371094 33.429688 137.949219 33.070312 137.625 C 32.707031 137.300781 32.234375 137.136719 31.652344 137.136719 C 31.238281 137.136719 30.804688 137.207031 30.347656 137.351562 C 29.890625 137.496094 29.398438 137.710938 28.878906 138.003906 L 28.878906 136.675781 C 29.410156 136.460938 29.902344 136.300781 30.363281 136.191406 C 30.824219 136.085938 31.246094 136.03125 31.628906 136.03125 C 32.632812 136.03125 33.4375 136.28125 34.035156 136.785156 C 34.632812 137.289062 34.933594 137.960938 34.933594 138.804688 C 34.933594 139.203125 34.859375 139.582031 34.707031 139.941406 C 34.558594 140.296875 34.289062 140.71875 33.890625 141.207031 C 33.785156 141.332031 33.4375 141.695312 32.855469 142.296875 C 32.277344 142.898438 31.457031 143.738281 30.394531 144.820312 Z M 30.394531 144.820312 "/>
<g clip-path="url(#clip12)" clip-rule="nonzero">
<path style="fill:none;stroke-width:0.8;stroke-linecap:square;stroke-linejoin:round;stroke:rgb(69.01961%,69.01961%,69.01961%);stroke-opacity:1;stroke-miterlimit:4;" d="M 34.239258 74.367188 L 313.239258 74.367188 " transform="matrix(1.333333,0,0,1.333333,0,0)"/>
</g>
<path style="fill:none;stroke-width:0.8;stroke-linecap:butt;stroke-linejoin:round;stroke:rgb(0%,0%,0%);stroke-opacity:1;stroke-miterlimit:4;" d="M -0.00136566 -0.00087738 L -3.499413 -0.00087738 " transform="matrix(1.333333,0,0,1.333333,45.654165,99.15742)"/>
<path style=" stroke:none;fill-rule:nonzero;fill:rgb(0%,0%,0%);fill-opacity:1;" d="M 32.878906 95.648438 L 29.554688 100.835938 L 32.878906 100.835938 Z M 32.53125 94.503906 L 34.183594 94.503906 L 34.183594 100.835938 L 35.574219 100.835938 L 35.574219 101.929688 L 34.183594 101.929688 L 34.183594 104.222656 L 32.878906 104.222656 L 32.878906 101.929688 L 28.488281 101.929688 L 28.488281 100.664062 Z M 32.53125 94.503906 "/>
<g clip-path="url(#clip13)" clip-rule="nonzero">
<path style="fill:none;stroke-width:0.8;stroke-linecap:square;stroke-linejoin:round;stroke:rgb(69.01961%,69.01961%,69.01961%);stroke-opacity:1;stroke-miterlimit:4;" d="M 34.239258 43.089844 L 313.239258 43.089844 " transform="matrix(1.333333,0,0,1.333333,0,0)"/>
</g>
<path style="fill:none;stroke-width:0.8;stroke-linecap:butt;stroke-linejoin:round;stroke:rgb(0%,0%,0%);stroke-opacity:1;stroke-miterlimit:4;" d="M -0.00136566 -0.000888824 L -3.499413 -0.000888824 " transform="matrix(1.333333,0,0,1.333333,45.654165,57.45431)"/>
<path style=" stroke:none;fill-rule:nonzero;fill:rgb(0%,0%,0%);fill-opacity:1;" d="M 32.238281 57.136719 C 31.648438 57.136719 31.179688 57.339844 30.835938 57.742188 C 30.492188 58.144531 30.320312 58.699219 30.320312 59.402344 C 30.320312 60.101562 30.492188 60.652344 30.835938 61.058594 C 31.179688 61.464844 31.648438 61.667969 32.238281 61.667969 C 32.828125 61.667969 33.296875 61.464844 33.640625 61.058594 C 33.984375 60.652344 34.160156 60.101562 34.160156 59.402344 C 34.160156 58.699219 33.984375 58.144531 33.640625 57.742188 C 33.296875 57.339844 32.828125 57.136719 32.238281 57.136719 Z M 34.851562 53.015625 L 34.851562 54.210938 C 34.519531 54.054688 34.1875 53.9375 33.851562 53.855469 C 33.515625 53.773438 33.179688 53.730469 32.851562 53.730469 C 31.980469 53.730469 31.320312 54.023438 30.859375 54.609375 C 30.402344 55.195312 30.140625 56.082031 30.078125 57.265625 C 30.332031 56.886719 30.652344 56.597656 31.039062 56.398438 C 31.425781 56.195312 31.851562 56.09375 32.316406 56.09375 C 33.292969 56.09375 34.066406 56.390625 34.632812 56.984375 C 35.199219 57.578125 35.480469 58.382812 35.480469 59.402344 C 35.480469 60.398438 35.1875 61.203125 34.597656 61.804688 C 34.003906 62.40625 33.21875 62.710938 32.238281 62.710938 C 31.113281 62.710938 30.253906 62.277344 29.660156 61.417969 C 29.066406 60.554688 28.769531 59.304688 28.769531 57.671875 C 28.769531 56.132812 29.132812 54.910156 29.863281 53.996094 C 30.589844 53.082031 31.570312 52.625 32.796875 52.625 C 33.128906 52.625 33.460938 52.65625 33.796875 52.722656 C 34.132812 52.789062 34.484375 52.882812 34.851562 53.015625 Z M 34.851562 53.015625 "/>
<g clip-path="url(#clip14)" clip-rule="nonzero">
<path style="fill:none;stroke-width:0.8;stroke-linecap:square;stroke-linejoin:round;stroke:rgb(69.01961%,69.01961%,69.01961%);stroke-opacity:1;stroke-miterlimit:4;" d="M 34.239258 11.8125 L 313.239258 11.8125 " transform="matrix(1.333333,0,0,1.333333,0,0)"/>
</g>
<path style="fill:none;stroke-width:0.8;stroke-linecap:butt;stroke-linejoin:round;stroke:rgb(0%,0%,0%);stroke-opacity:1;stroke-miterlimit:4;" d="M -0.00136566 -0.000900269 L -3.499413 -0.000900269 " transform="matrix(1.333333,0,0,1.333333,45.654165,15.7512)"/>
<path style=" stroke:none;fill-rule:nonzero;fill:rgb(0%,0%,0%);fill-opacity:1;" d="M 32.074219 16.199219 C 31.449219 16.199219 30.957031 16.367188 30.601562 16.703125 C 30.242188 17.035156 30.066406 17.496094 30.066406 18.082031 C 30.066406 18.667969 30.242188 19.128906 30.601562 19.460938 C 30.957031 19.796875 31.449219 19.964844 32.074219 19.964844 C 32.699219 19.964844 33.191406 19.796875 33.550781 19.460938 C 33.914062 19.125 34.09375 18.664062 34.09375 18.082031 C 34.09375 17.496094 33.914062 17.035156 33.554688 16.703125 C 33.199219 16.367188 32.707031 16.199219 32.074219 16.199219 Z M 30.761719 15.640625 C 30.195312 15.503906 29.757812 15.242188 29.441406 14.855469 C 29.128906 14.46875 28.972656 13.996094 28.972656 13.441406 C 28.972656 12.664062 29.246094 12.050781 29.800781 11.597656 C 30.355469 11.148438 31.113281 10.921875 32.074219 10.921875 C 33.042969 10.921875 33.804688 11.148438 34.355469 11.597656 C 34.90625 12.050781 35.179688 12.664062 35.179688 13.441406 C 35.179688 13.996094 35.023438 14.46875 34.707031 14.855469 C 34.394531 15.242188 33.957031 15.503906 33.398438 15.640625 C 34.03125 15.789062 34.523438 16.078125 34.878906 16.507812 C 35.230469 16.9375 35.410156 17.460938 35.410156 18.082031 C 35.410156 19.023438 35.121094 19.75 34.546875 20.253906 C 33.972656 20.753906 33.148438 21.007812 32.074219 21.007812 C 31.003906 21.007812 30.179688 20.753906 29.605469 20.253906 C 29.027344 19.75 28.742188 19.023438 28.742188 18.082031 C 28.742188 17.460938 28.917969 16.9375 29.273438 16.507812 C 29.632812 16.078125 30.128906 15.789062 30.761719 15.640625 Z M 30.277344 13.566406 C 30.277344 14.066406 30.4375 14.460938 30.75 14.742188 C 31.066406 15.023438 31.507812 15.164062 32.074219 15.164062 C 32.640625 15.164062 33.082031 15.023438 33.398438 14.742188 C 33.71875 14.460938 33.878906 14.066406 33.878906 13.566406 C 33.878906 13.0625 33.71875 12.667969 33.398438 12.386719 C 33.082031 12.105469 32.640625 11.960938 32.074219 11.960938 C 31.507812 11.960938 31.066406 12.105469 30.75 12.386719 C 30.4375 12.667969 30.277344 13.0625 30.277344 13.566406 Z M 30.277344 13.566406 "/>
<path style=" stroke:none;fill-rule:nonzero;fill:rgb(0%,0%,0%);fill-opacity:1;" d="M 13.558594 116.636719 C 13.480469 116.769531 13.421875 116.917969 13.386719 117.074219 C 13.351562 117.234375 13.332031 117.410156 13.332031 117.597656 C 13.332031 118.277344 13.550781 118.796875 13.992188 119.160156 C 14.433594 119.523438 15.066406 119.703125 15.890625 119.703125 L 19.730469 119.703125 L 19.730469 120.90625 L 12.441406 120.90625 L 12.441406 119.703125 L 13.574219 119.703125 C 13.128906 119.449219 12.800781 119.121094 12.585938 118.71875 C 12.371094 118.316406 12.265625 117.824219 12.265625 117.246094 C 12.265625 117.164062 12.269531 117.074219 12.28125 116.972656 C 12.289062 116.875 12.308594 116.761719 12.328125 116.644531 Z M 13.558594 116.636719 "/>
<path style=" stroke:none;fill-rule:nonzero;fill:rgb(0%,0%,0%);fill-opacity:1;" d="M 15.785156 109.441406 L 16.371094 109.441406 L 16.371094 114.949219 C 17.195312 114.898438 17.824219 114.648438 18.257812 114.203125 C 18.6875 113.761719 18.902344 113.140625 18.902344 112.347656 C 18.902344 111.886719 18.847656 111.441406 18.734375 111.007812 C 18.621094 110.578125 18.453125 110.148438 18.226562 109.722656 L 19.359375 109.722656 C 19.542969 110.152344 19.679688 110.59375 19.777344 111.042969 C 19.871094 111.496094 19.921875 111.953125 19.921875 112.417969 C 19.921875 113.582031 19.582031 114.503906 18.90625 115.183594 C 18.226562 115.859375 17.3125 116.199219 16.15625 116.199219 C 14.964844 116.199219 14.015625 115.878906 13.316406 115.234375 C 12.617188 114.589844 12.265625 113.71875 12.265625 112.625 C 12.265625 111.644531 12.582031 110.871094 13.210938 110.296875 C 13.84375 109.726562 14.699219 109.441406 15.785156 109.441406 Z M 15.433594 110.640625 C 14.777344 110.648438 14.257812 110.832031 13.867188 111.191406 C 13.476562 111.546875 13.277344 112.023438 13.277344 112.613281 C 13.277344 113.28125 13.46875 113.816406 13.847656 114.21875 C 14.222656 114.617188 14.753906 114.851562 15.441406 114.910156 Z M 15.433594 110.640625 "/>
<path style=" stroke:none;fill-rule:nonzero;fill:rgb(0%,0%,0%);fill-opacity:1;" d="M 9.601562 107.476562 L 9.601562 106.277344 L 19.730469 106.277344 L 19.730469 107.476562 Z M 9.601562 107.476562 "/>
<path style=" stroke:none;fill-rule:nonzero;fill:rgb(0%,0%,0%);fill-opacity:1;" d="M 16.855469 103.894531 L 12.441406 103.894531 L 12.441406 102.695312 L 16.808594 102.695312 C 17.5 102.695312 18.015625 102.5625 18.363281 102.296875 C 18.707031 102.027344 18.878906 101.621094 18.878906 101.082031 C 18.878906 100.4375 18.671875 99.925781 18.261719 99.550781 C 17.847656 99.175781 17.285156 98.988281 16.574219 98.988281 L 12.441406 98.988281 L 12.441406 97.789062 L 19.730469 97.789062 L 19.730469 98.988281 L 18.609375 98.988281 C 19.054688 99.277344 19.382812 99.613281 19.597656 100 C 19.8125 100.382812 19.921875 100.828125 19.921875 101.335938 C 19.921875 102.175781 19.660156 102.808594 19.140625 103.246094 C 18.617188 103.679688 17.855469 103.894531 16.855469 103.894531 Z M 12.265625 100.878906 Z M 12.265625 100.878906 "/>
<path style=" stroke:none;fill-rule:nonzero;fill:rgb(0%,0%,0%);fill-opacity:1;" d="M 9.613281 92.445312 C 10.613281 93.023438 11.597656 93.457031 12.578125 93.742188 C 13.554688 94.023438 14.542969 94.164062 15.546875 94.164062 C 16.546875 94.164062 17.539062 94.019531 18.523438 93.734375 C 19.507812 93.453125 20.496094 93.019531 21.488281 92.445312 L 21.488281 93.484375 C 20.46875 94.136719 19.464844 94.621094 18.480469 94.945312 C 17.496094 95.269531 16.519531 95.433594 15.546875 95.433594 C 14.578125 95.433594 13.601562 95.273438 12.621094 94.949219 C 11.640625 94.628906 10.636719 94.140625 9.613281 93.484375 Z M 9.613281 92.445312 "/>
<path style=" stroke:none;fill-rule:nonzero;fill:rgb(0%,0%,0%);fill-opacity:1;" d="M 12.441406 84.058594 L 15.988281 86.695312 L 19.730469 83.921875 L 19.730469 85.335938 L 16.867188 87.457031 L 19.730469 89.578125 L 19.730469 90.992188 L 15.917969 88.160156 L 12.441406 90.75 L 12.441406 89.339844 L 15.039062 87.40625 L 12.441406 85.472656 Z M 12.441406 84.058594 "/>
<path style=" stroke:none;fill-rule:nonzero;fill:rgb(0%,0%,0%);fill-opacity:1;" d="M 9.613281 82.417969 L 9.613281 81.375 C 10.636719 80.726562 11.640625 80.238281 12.621094 79.914062 C 13.601562 79.589844 14.578125 79.429688 15.546875 79.429688 C 16.519531 79.429688 17.496094 79.589844 18.480469 79.914062 C 19.464844 80.238281 20.46875 80.726562 21.488281 81.375 L 21.488281 82.417969 C 20.496094 81.839844 19.507812 81.410156 18.523438 81.125 C 17.539062 80.839844 16.546875 80.699219 15.546875 80.699219 C 14.542969 80.699219 13.554688 80.839844 12.578125 81.125 C 11.597656 81.410156 10.613281 81.839844 9.613281 82.417969 Z M 9.613281 82.417969 "/>
<path style="fill:none;stroke-width:1.5;stroke-linecap:square;stroke-linejoin:round;stroke:rgb(12.156863%,46.666667%,70.588237%);stroke-opacity:1;stroke-miterlimit:4;" d="M 46.921875 136.921875 L 174.539062 136.921875 L 300.55957 13.376953 " transform="matrix(1.333333,0,0,1.333333,0,0)"/>
<path style="fill:none;stroke-width:0.8;stroke-linecap:square;stroke-linejoin:miter;stroke:rgb(0%,0%,0%);stroke-opacity:1;stroke-miterlimit:4;" d="M 34.239258 143.100586 L 34.239258 7.201172 " transform="matrix(1.333333,0,0,1.333333,0,0)"/>
<path style="fill:none;stroke-width:0.8;stroke-linecap:square;stroke-linejoin:miter;stroke:rgb(0%,0%,0%);stroke-opacity:1;stroke-miterlimit:4;" d="M 313.239258 143.100586 L 313.239258 7.201172 " transform="matrix(1.333333,0,0,1.333333,0,0)"/>
<path style="fill:none;stroke-width:0.8;stroke-linecap:square;stroke-linejoin:miter;stroke:rgb(0%,0%,0%);stroke-opacity:1;stroke-miterlimit:4;" d="M 34.239258 143.100586 L 313.239258 143.100586 " transform="matrix(1.333333,0,0,1.333333,0,0)"/>
<path style="fill:none;stroke-width:0.8;stroke-linecap:square;stroke-linejoin:miter;stroke:rgb(0%,0%,0%);stroke-opacity:1;stroke-miterlimit:4;" d="M 34.239258 7.201172 L 313.239258 7.201172 " transform="matrix(1.333333,0,0,1.333333,0,0)"/>
</g>
</svg>
