<?xml version="1.0" encoding="UTF-8"?>
<svg xmlns="http://www.w3.org/2000/svg" xmlns:xlink="http://www.w3.org/1999/xlink" width="439.975016" height="240.875" viewBox="0 0 439.975016 240.875" version="1.1">
<defs>
<clipPath id="clip1">
  <path d="M 74 9.601562 L 77 9.601562 L 77 190.800781 L 74 190.800781 Z M 74 9.601562 "/>
</clipPath>
<clipPath id="clip2">
  <path d="M 117 9.601562 L 119 9.601562 L 119 190.800781 L 117 190.800781 Z M 117 9.601562 "/>
</clipPath>
<clipPath id="clip3">
  <path d="M 159 9.601562 L 162 9.601562 L 162 190.800781 L 159 190.800781 Z M 159 9.601562 "/>
</clipPath>
<clipPath id="clip4">
  <path d="M 202 9.601562 L 204 9.601562 L 204 190.800781 L 202 190.800781 Z M 202 9.601562 "/>
</clipPath>
<clipPath id="clip5">
  <path d="M 244 9.601562 L 247 9.601562 L 247 190.800781 L 244 190.800781 Z M 244 9.601562 "/>
</clipPath>
<clipPath id="clip6">
  <path d="M 287 9.601562 L 289 9.601562 L 289 190.800781 L 287 190.800781 Z M 287 9.601562 "/>
</clipPath>
<clipPath id="clip7">
  <path d="M 329 9.601562 L 332 9.601562 L 332 190.800781 L 329 190.800781 Z M 329 9.601562 "/>
</clipPath>
<clipPath id="clip8">
  <path d="M 372 9.601562 L 374 9.601562 L 374 190.800781 L 372 190.800781 Z M 372 9.601562 "/>
</clipPath>
<clipPath id="clip9">
  <path d="M 414 9.601562 L 417 9.601562 L 417 190.800781 L 414 190.800781 Z M 414 9.601562 "/>
</clipPath>
<clipPath id="clip10">
  <path d="M 58.375 181 L 430.375 181 L 430.375 184 L 58.375 184 Z M 58.375 181 "/>
</clipPath>
<clipPath id="clip11">
  <path d="M 58.375 148 L 430.375 148 L 430.375 151 L 58.375 151 Z M 58.375 148 "/>
</clipPath>
<clipPath id="clip12">
  <path d="M 58.375 115 L 430.375 115 L 430.375 118 L 58.375 118 Z M 58.375 115 "/>
</clipPath>
<clipPath id="clip13">
  <path d="M 58.375 82 L 430.375 82 L 430.375 85 L 58.375 85 Z M 58.375 82 "/>
</clipPath>
<clipPath id="clip14">
  <path d="M 58.375 50 L 430.375 50 L 430.375 52 L 58.375 52 Z M 58.375 50 "/>
</clipPath>
<clipPath id="clip15">
  <path d="M 58.375 17 L 430.375 17 L 430.375 19 L 58.375 19 Z M 58.375 17 "/>
</clipPath>
</defs>
<g id="surface1">
<path style=" stroke:none;fill-rule:nonzero;fill:rgb(100%,100%,100%);fill-opacity:1;" d="M 58.375 190.800781 L 430.375 190.800781 L 430.375 9.601562 L 58.375 9.601562 Z M 58.375 190.800781 "/>
<g clip-path="url(#clip1)" clip-rule="nonzero">
<path style="fill:none;stroke-width:0.8;stroke-linecap:square;stroke-linejoin:round;stroke:rgb(69.01961%,69.01961%,69.01961%);stroke-opacity:1;stroke-miterlimit:4;" d="M 56.463867 143.100586 L 56.463867 7.201172 " transform="matrix(1.333333,0,0,1.333333,0.000000000000028422,0)"/>
</g>
<path style="fill:none;stroke-width:0.8;stroke-linecap:butt;stroke-linejoin:round;stroke:rgb(0%,0%,0%);stroke-opacity:1;stroke-miterlimit:4;" d="M 0.000801086 0.000579834 L 0.000801086 3.498627 " transform="matrix(1.333333,0,0,1.333333,75.284088,190.800008)"/>
<path style=" stroke:none;fill-rule:nonzero;fill:rgb(0%,0%,0%);fill-opacity:1;" d="M 66.867188 205.53125 L 75.214844 205.53125 L 75.214844 206.636719 L 66.867188 206.636719 Z M 66.867188 205.53125 "/>
<path style=" stroke:none;fill-rule:nonzero;fill:rgb(0%,0%,0%);fill-opacity:1;" d="M 80.867188 205.648438 C 80.242188 205.648438 79.75 205.816406 79.390625 206.148438 C 79.035156 206.484375 78.855469 206.945312 78.855469 207.527344 C 78.855469 208.117188 79.035156 208.574219 79.390625 208.910156 C 79.75 209.246094 80.242188 209.414062 80.867188 209.414062 C 81.492188 209.414062 81.984375 209.246094 82.34375 208.910156 C 82.703125 208.570312 82.882812 208.109375 82.882812 207.527344 C 82.882812 206.945312 82.703125 206.484375 82.347656 206.148438 C 81.988281 205.816406 81.496094 205.648438 80.867188 205.648438 Z M 79.550781 205.089844 C 78.988281 204.949219 78.546875 204.6875 78.230469 204.300781 C 77.917969 203.914062 77.761719 203.441406 77.761719 202.886719 C 77.761719 202.109375 78.039062 201.496094 78.589844 201.046875 C 79.144531 200.59375 79.902344 200.367188 80.867188 200.367188 C 81.832031 200.367188 82.59375 200.59375 83.144531 201.046875 C 83.695312 201.496094 83.972656 202.109375 83.972656 202.886719 C 83.972656 203.441406 83.8125 203.914062 83.5 204.300781 C 83.183594 204.6875 82.746094 204.949219 82.1875 205.089844 C 82.820312 205.238281 83.316406 205.527344 83.667969 205.957031 C 84.023438 206.386719 84.199219 206.910156 84.199219 207.527344 C 84.199219 208.472656 83.910156 209.195312 83.335938 209.699219 C 82.761719 210.203125 81.9375 210.453125 80.867188 210.453125 C 79.792969 210.453125 78.972656 210.203125 78.394531 209.699219 C 77.820312 209.195312 77.53125 208.472656 77.53125 207.527344 C 77.53125 206.910156 77.710938 206.386719 78.066406 205.957031 C 78.421875 205.527344 78.917969 205.238281 79.550781 205.089844 Z M 79.070312 203.011719 C 79.070312 203.515625 79.226562 203.90625 79.539062 204.191406 C 79.855469 204.472656 80.296875 204.613281 80.867188 204.613281 C 81.429688 204.613281 81.871094 204.472656 82.191406 204.191406 C 82.511719 203.90625 82.667969 203.515625 82.667969 203.011719 C 82.667969 202.507812 82.511719 202.117188 82.191406 201.832031 C 81.871094 201.550781 81.429688 201.410156 80.867188 201.410156 C 80.296875 201.410156 79.855469 201.550781 79.539062 201.832031 C 79.226562 202.117188 79.070312 202.507812 79.070312 203.011719 Z M 79.070312 203.011719 "/>
<g clip-path="url(#clip2)" clip-rule="nonzero">
<path style="fill:none;stroke-width:0.8;stroke-linecap:square;stroke-linejoin:round;stroke:rgb(69.01961%,69.01961%,69.01961%);stroke-opacity:1;stroke-miterlimit:4;" d="M 88.368164 143.100586 L 88.368164 7.201172 " transform="matrix(1.333333,0,0,1.333333,0.000000000000028422,0)"/>
</g>
<path style="fill:none;stroke-width:0.8;stroke-linecap:butt;stroke-linejoin:round;stroke:rgb(0%,0%,0%);stroke-opacity:1;stroke-miterlimit:4;" d="M 0.00115204 0.000579834 L 0.00115204 3.498627 " transform="matrix(1.333333,0,0,1.333333,117.822683,190.800008)"/>
<path style=" stroke:none;fill-rule:nonzero;fill:rgb(0%,0%,0%);fill-opacity:1;" d="M 109.40625 205.53125 L 117.753906 205.53125 L 117.753906 206.636719 L 109.40625 206.636719 Z M 109.40625 205.53125 "/>
<path style=" stroke:none;fill-rule:nonzero;fill:rgb(0%,0%,0%);fill-opacity:1;" d="M 123.570312 204.882812 C 122.976562 204.882812 122.511719 205.082031 122.164062 205.488281 C 121.820312 205.890625 121.648438 206.441406 121.648438 207.144531 C 121.648438 207.84375 121.820312 208.398438 122.164062 208.804688 C 122.511719 209.210938 122.976562 209.414062 123.570312 209.414062 C 124.160156 209.414062 124.625 209.210938 124.96875 208.804688 C 125.316406 208.398438 125.488281 207.84375 125.488281 207.144531 C 125.488281 206.441406 125.316406 205.890625 124.96875 205.488281 C 124.625 205.082031 124.160156 204.882812 123.570312 204.882812 Z M 126.179688 200.757812 L 126.179688 201.957031 C 125.847656 201.800781 125.515625 201.683594 125.179688 201.601562 C 124.84375 201.515625 124.507812 201.476562 124.179688 201.476562 C 123.3125 201.476562 122.648438 201.769531 122.1875 202.355469 C 121.730469 202.941406 121.472656 203.824219 121.40625 205.011719 C 121.660156 204.632812 121.980469 204.34375 122.367188 204.140625 C 122.757812 203.941406 123.183594 203.839844 123.644531 203.839844 C 124.621094 203.839844 125.394531 204.136719 125.960938 204.730469 C 126.527344 205.320312 126.808594 206.125 126.808594 207.144531 C 126.808594 208.144531 126.515625 208.945312 125.925781 209.550781 C 125.335938 210.152344 124.550781 210.453125 123.570312 210.453125 C 122.445312 210.453125 121.582031 210.023438 120.988281 209.164062 C 120.394531 208.300781 120.097656 207.050781 120.097656 205.414062 C 120.097656 203.878906 120.460938 202.652344 121.191406 201.738281 C 121.921875 200.824219 122.898438 200.367188 124.125 200.367188 C 124.457031 200.367188 124.789062 200.402344 125.125 200.464844 C 125.464844 200.53125 125.8125 200.628906 126.179688 200.757812 Z M 126.179688 200.757812 "/>
<g clip-path="url(#clip3)" clip-rule="nonzero">
<path style="fill:none;stroke-width:0.8;stroke-linecap:square;stroke-linejoin:round;stroke:rgb(69.01961%,69.01961%,69.01961%);stroke-opacity:1;stroke-miterlimit:4;" d="M 120.269531 143.100586 L 120.269531 7.201172 " transform="matrix(1.333333,0,0,1.333333,0.000000000000028422,0)"/>
</g>
<path style="fill:none;stroke-width:0.8;stroke-linecap:butt;stroke-linejoin:round;stroke:rgb(0%,0%,0%);stroke-opacity:1;stroke-miterlimit:4;" d="M -0.0014267 0.000579834 L -0.0014267 3.498627 " transform="matrix(1.333333,0,0,1.333333,160.361277,190.800008)"/>
<path style=" stroke:none;fill-rule:nonzero;fill:rgb(0%,0%,0%);fill-opacity:1;" d="M 151.945312 205.53125 L 160.292969 205.53125 L 160.292969 206.636719 L 151.945312 206.636719 Z M 151.945312 205.53125 "/>
<path style=" stroke:none;fill-rule:nonzero;fill:rgb(0%,0%,0%);fill-opacity:1;" d="M 166.746094 201.691406 L 163.421875 206.878906 L 166.746094 206.878906 Z M 166.398438 200.542969 L 168.054688 200.542969 L 168.054688 206.878906 L 169.441406 206.878906 L 169.441406 207.972656 L 168.054688 207.972656 L 168.054688 210.265625 L 166.746094 210.265625 L 166.746094 207.972656 L 162.355469 207.972656 L 162.355469 206.703125 Z M 166.398438 200.542969 "/>
<g clip-path="url(#clip4)" clip-rule="nonzero">
<path style="fill:none;stroke-width:0.8;stroke-linecap:square;stroke-linejoin:round;stroke:rgb(69.01961%,69.01961%,69.01961%);stroke-opacity:1;stroke-miterlimit:4;" d="M 152.173828 143.100586 L 152.173828 7.201172 " transform="matrix(1.333333,0,0,1.333333,0.000000000000028422,0)"/>
</g>
<path style="fill:none;stroke-width:0.8;stroke-linecap:butt;stroke-linejoin:round;stroke:rgb(0%,0%,0%);stroke-opacity:1;stroke-miterlimit:4;" d="M -0.00108337 0.000579834 L -0.00108337 3.498627 " transform="matrix(1.333333,0,0,1.333333,202.899882,190.800008)"/>
<path style=" stroke:none;fill-rule:nonzero;fill:rgb(0%,0%,0%);fill-opacity:1;" d="M 194.484375 205.53125 L 202.832031 205.53125 L 202.832031 206.636719 L 194.484375 206.636719 Z M 194.484375 205.53125 "/>
<path style=" stroke:none;fill-rule:nonzero;fill:rgb(0%,0%,0%);fill-opacity:1;" d="M 206.800781 209.160156 L 211.390625 209.160156 L 211.390625 210.265625 L 205.222656 210.265625 L 205.222656 209.160156 C 205.71875 208.640625 206.398438 207.949219 207.261719 207.078125 C 208.121094 206.207031 208.664062 205.648438 208.886719 205.394531 C 209.304688 204.921875 209.601562 204.523438 209.765625 204.195312 C 209.933594 203.867188 210.019531 203.542969 210.019531 203.226562 C 210.019531 202.710938 209.835938 202.289062 209.476562 201.964844 C 209.113281 201.636719 208.640625 201.476562 208.058594 201.476562 C 207.644531 201.476562 207.210938 201.546875 206.753906 201.691406 C 206.296875 201.832031 205.804688 202.050781 205.285156 202.339844 L 205.285156 201.011719 C 205.816406 200.800781 206.308594 200.640625 206.769531 200.53125 C 207.230469 200.421875 207.652344 200.367188 208.035156 200.367188 C 209.039062 200.367188 209.84375 200.621094 210.441406 201.125 C 211.039062 201.628906 211.339844 202.300781 211.339844 203.140625 C 211.339844 203.542969 211.265625 203.921875 211.113281 204.277344 C 210.964844 204.636719 210.695312 205.058594 210.296875 205.542969 C 210.191406 205.671875 209.84375 206.035156 209.261719 206.636719 C 208.683594 207.238281 207.863281 208.078125 206.800781 209.160156 Z M 206.800781 209.160156 "/>
<g clip-path="url(#clip5)" clip-rule="nonzero">
<path style="fill:none;stroke-width:0.8;stroke-linecap:square;stroke-linejoin:round;stroke:rgb(69.01961%,69.01961%,69.01961%);stroke-opacity:1;stroke-miterlimit:4;" d="M 184.078125 143.100586 L 184.078125 7.201172 " transform="matrix(1.333333,0,0,1.333333,0.000000000000028422,0)"/>
</g>
<path style="fill:none;stroke-width:0.8;stroke-linecap:butt;stroke-linejoin:round;stroke:rgb(0%,0%,0%);stroke-opacity:1;stroke-miterlimit:4;" d="M -0.000732422 0.000579834 L -0.000732422 3.498627 " transform="matrix(1.333333,0,0,1.333333,245.438477,190.800008)"/>
<path style=" stroke:none;fill-rule:nonzero;fill:rgb(0%,0%,0%);fill-opacity:1;" d="M 245.433594 201.410156 C 244.757812 201.410156 244.25 201.742188 243.90625 202.410156 C 243.566406 203.074219 243.398438 204.078125 243.398438 205.414062 C 243.398438 206.746094 243.566406 207.746094 243.90625 208.414062 C 244.25 209.078125 244.757812 209.414062 245.433594 209.414062 C 246.117188 209.414062 246.628906 209.078125 246.96875 208.414062 C 247.308594 207.746094 247.480469 206.746094 247.480469 205.414062 C 247.480469 204.078125 247.308594 203.074219 246.96875 202.410156 C 246.628906 201.742188 246.117188 201.410156 245.433594 201.410156 Z M 245.433594 200.367188 C 246.523438 200.367188 247.355469 200.800781 247.933594 201.664062 C 248.507812 202.523438 248.792969 203.773438 248.792969 205.414062 C 248.792969 207.050781 248.507812 208.300781 247.933594 209.164062 C 247.355469 210.023438 246.523438 210.453125 245.433594 210.453125 C 244.34375 210.453125 243.511719 210.023438 242.9375 209.164062 C 242.363281 208.300781 242.074219 207.050781 242.074219 205.414062 C 242.074219 203.773438 242.363281 202.523438 242.9375 201.664062 C 243.511719 200.800781 244.34375 200.367188 245.433594 200.367188 Z M 245.433594 200.367188 "/>
<g clip-path="url(#clip6)" clip-rule="nonzero">
<path style="fill:none;stroke-width:0.8;stroke-linecap:square;stroke-linejoin:round;stroke:rgb(69.01961%,69.01961%,69.01961%);stroke-opacity:1;stroke-miterlimit:4;" d="M 215.982422 143.100586 L 215.982422 7.201172 " transform="matrix(1.333333,0,0,1.333333,0.000000000000028422,0)"/>
</g>
<path style="fill:none;stroke-width:0.8;stroke-linecap:butt;stroke-linejoin:round;stroke:rgb(0%,0%,0%);stroke-opacity:1;stroke-miterlimit:4;" d="M -0.00038147 0.000579834 L -0.00038147 3.498627 " transform="matrix(1.333333,0,0,1.333333,287.977071,190.800008)"/>
<path style=" stroke:none;fill-rule:nonzero;fill:rgb(0%,0%,0%);fill-opacity:1;" d="M 286.292969 209.160156 L 290.882812 209.160156 L 290.882812 210.265625 L 284.710938 210.265625 L 284.710938 209.160156 C 285.210938 208.640625 285.890625 207.949219 286.753906 207.078125 C 287.613281 206.207031 288.15625 205.648438 288.378906 205.394531 C 288.796875 204.921875 289.089844 204.523438 289.257812 204.195312 C 289.425781 203.867188 289.511719 203.542969 289.511719 203.226562 C 289.511719 202.710938 289.328125 202.289062 288.964844 201.964844 C 288.605469 201.636719 288.132812 201.476562 287.550781 201.476562 C 287.136719 201.476562 286.703125 201.546875 286.242188 201.691406 C 285.785156 201.832031 285.296875 202.050781 284.777344 202.339844 L 284.777344 201.011719 C 285.304688 200.800781 285.800781 200.640625 286.261719 200.53125 C 286.722656 200.421875 287.144531 200.367188 287.523438 200.367188 C 288.53125 200.367188 289.335938 200.621094 289.933594 201.125 C 290.53125 201.628906 290.832031 202.300781 290.832031 203.140625 C 290.832031 203.542969 290.757812 203.921875 290.605469 204.277344 C 290.457031 204.636719 290.183594 205.058594 289.789062 205.542969 C 289.679688 205.671875 289.335938 206.035156 288.753906 206.636719 C 288.171875 207.238281 287.351562 208.078125 286.292969 209.160156 Z M 286.292969 209.160156 "/>
<g clip-path="url(#clip7)" clip-rule="nonzero">
<path style="fill:none;stroke-width:0.8;stroke-linecap:square;stroke-linejoin:round;stroke:rgb(69.01961%,69.01961%,69.01961%);stroke-opacity:1;stroke-miterlimit:4;" d="M 247.886719 143.100586 L 247.886719 7.201172 " transform="matrix(1.333333,0,0,1.333333,0.000000000000028422,0)"/>
</g>
<path style="fill:none;stroke-width:0.8;stroke-linecap:butt;stroke-linejoin:round;stroke:rgb(0%,0%,0%);stroke-opacity:1;stroke-miterlimit:4;" d="M -0.0000305176 0.000579834 L -0.0000305176 3.498627 " transform="matrix(1.333333,0,0,1.333333,330.515666,190.800008)"/>
<path style=" stroke:none;fill-rule:nonzero;fill:rgb(0%,0%,0%);fill-opacity:1;" d="M 331.3125 201.691406 L 327.992188 206.878906 L 331.3125 206.878906 Z M 330.96875 200.542969 L 332.621094 200.542969 L 332.621094 206.878906 L 334.007812 206.878906 L 334.007812 207.972656 L 332.621094 207.972656 L 332.621094 210.265625 L 331.3125 210.265625 L 331.3125 207.972656 L 326.925781 207.972656 L 326.925781 206.703125 Z M 330.96875 200.542969 "/>
<g clip-path="url(#clip8)" clip-rule="nonzero">
<path style="fill:none;stroke-width:0.8;stroke-linecap:square;stroke-linejoin:round;stroke:rgb(69.01961%,69.01961%,69.01961%);stroke-opacity:1;stroke-miterlimit:4;" d="M 279.791016 143.100586 L 279.791016 7.201172 " transform="matrix(1.333333,0,0,1.333333,0.000000000000028422,0)"/>
</g>
<path style="fill:none;stroke-width:0.8;stroke-linecap:butt;stroke-linejoin:round;stroke:rgb(0%,0%,0%);stroke-opacity:1;stroke-miterlimit:4;" d="M 0.000335693 0.000579834 L 0.000335693 3.498627 " transform="matrix(1.333333,0,0,1.333333,373.05424,190.800008)"/>
<path style=" stroke:none;fill-rule:nonzero;fill:rgb(0%,0%,0%);fill-opacity:1;" d="M 373.214844 204.882812 C 372.625 204.882812 372.15625 205.082031 371.808594 205.488281 C 371.464844 205.890625 371.292969 206.441406 371.292969 207.144531 C 371.292969 207.84375 371.464844 208.398438 371.808594 208.804688 C 372.15625 209.210938 372.625 209.414062 373.214844 209.414062 C 373.804688 209.414062 374.273438 209.210938 374.617188 208.804688 C 374.960938 208.398438 375.132812 207.84375 375.132812 207.144531 C 375.132812 206.441406 374.960938 205.890625 374.617188 205.488281 C 374.273438 205.082031 373.804688 204.882812 373.214844 204.882812 Z M 375.824219 200.757812 L 375.824219 201.957031 C 375.496094 201.800781 375.160156 201.683594 374.824219 201.601562 C 374.488281 201.515625 374.15625 201.476562 373.824219 201.476562 C 372.957031 201.476562 372.292969 201.769531 371.835938 202.355469 C 371.378906 202.941406 371.117188 203.824219 371.050781 205.011719 C 371.308594 204.632812 371.628906 204.34375 372.015625 204.140625 C 372.402344 203.941406 372.828125 203.839844 373.292969 203.839844 C 374.269531 203.839844 375.039062 204.136719 375.605469 204.730469 C 376.171875 205.320312 376.457031 206.125 376.457031 207.144531 C 376.457031 208.144531 376.160156 208.945312 375.570312 209.550781 C 374.980469 210.152344 374.195312 210.453125 373.214844 210.453125 C 372.089844 210.453125 371.230469 210.023438 370.636719 209.164062 C 370.042969 208.300781 369.742188 207.050781 369.742188 205.414062 C 369.742188 203.878906 370.109375 202.652344 370.835938 201.738281 C 371.566406 200.824219 372.546875 200.367188 373.773438 200.367188 C 374.105469 200.367188 374.4375 200.402344 374.773438 200.464844 C 375.109375 200.53125 375.460938 200.628906 375.824219 200.757812 Z M 375.824219 200.757812 "/>
<g clip-path="url(#clip9)" clip-rule="nonzero">
<path style="fill:none;stroke-width:0.8;stroke-linecap:square;stroke-linejoin:round;stroke:rgb(69.01961%,69.01961%,69.01961%);stroke-opacity:1;stroke-miterlimit:4;" d="M 311.695312 143.100586 L 311.695312 7.201172 " transform="matrix(1.333333,0,0,1.333333,0.000000000000028422,0)"/>
</g>
<path style="fill:none;stroke-width:0.8;stroke-linecap:butt;stroke-linejoin:round;stroke:rgb(0%,0%,0%);stroke-opacity:1;stroke-miterlimit:4;" d="M 0.000671387 0.000579834 L 0.000671387 3.498627 " transform="matrix(1.333333,0,0,1.333333,415.592855,190.800008)"/>
<path style=" stroke:none;fill-rule:nonzero;fill:rgb(0%,0%,0%);fill-opacity:1;" d="M 415.589844 205.648438 C 414.964844 205.648438 414.472656 205.816406 414.113281 206.148438 C 413.757812 206.484375 413.578125 206.945312 413.578125 207.527344 C 413.578125 208.117188 413.757812 208.574219 414.113281 208.910156 C 414.472656 209.246094 414.964844 209.414062 415.589844 209.414062 C 416.214844 209.414062 416.707031 209.246094 417.066406 208.910156 C 417.425781 208.570312 417.609375 208.109375 417.609375 207.527344 C 417.609375 206.945312 417.429688 206.484375 417.070312 206.148438 C 416.714844 205.816406 416.21875 205.648438 415.589844 205.648438 Z M 414.273438 205.089844 C 413.710938 204.949219 413.269531 204.6875 412.957031 204.300781 C 412.640625 203.914062 412.484375 203.441406 412.484375 202.886719 C 412.484375 202.109375 412.761719 201.496094 413.3125 201.046875 C 413.867188 200.59375 414.625 200.367188 415.589844 200.367188 C 416.558594 200.367188 417.316406 200.59375 417.867188 201.046875 C 418.417969 201.496094 418.695312 202.109375 418.695312 202.886719 C 418.695312 203.441406 418.539062 203.914062 418.222656 204.300781 C 417.90625 204.6875 417.472656 204.949219 416.910156 205.089844 C 417.546875 205.238281 418.039062 205.527344 418.390625 205.957031 C 418.746094 206.386719 418.921875 206.910156 418.921875 207.527344 C 418.921875 208.472656 418.632812 209.195312 418.058594 209.699219 C 417.484375 210.203125 416.660156 210.453125 415.589844 210.453125 C 414.519531 210.453125 413.695312 210.203125 413.117188 209.699219 C 412.542969 209.195312 412.253906 208.472656 412.253906 207.527344 C 412.253906 206.910156 412.433594 206.386719 412.789062 205.957031 C 413.144531 205.527344 413.640625 205.238281 414.273438 205.089844 Z M 413.792969 203.011719 C 413.792969 203.515625 413.949219 203.90625 414.265625 204.191406 C 414.578125 204.472656 415.019531 204.613281 415.589844 204.613281 C 416.152344 204.613281 416.59375 204.472656 416.914062 204.191406 C 417.234375 203.90625 417.394531 203.515625 417.394531 203.011719 C 417.394531 202.507812 417.234375 202.117188 416.914062 201.832031 C 416.59375 201.550781 416.152344 201.410156 415.589844 201.410156 C 415.019531 201.410156 414.578125 201.550781 414.265625 201.832031 C 413.949219 202.117188 413.792969 202.507812 413.792969 203.011719 Z M 413.792969 203.011719 "/>
<path style=" stroke:none;fill-rule:nonzero;fill:rgb(0%,0%,0%);fill-opacity:1;" d="M 247.746094 221.210938 L 245.109375 224.757812 L 247.882812 228.503906 L 246.472656 228.503906 L 244.347656 225.636719 L 242.226562 228.503906 L 240.8125 228.503906 L 243.644531 224.6875 L 241.054688 221.210938 L 242.464844 221.210938 L 244.398438 223.808594 L 246.332031 221.210938 Z M 247.746094 221.210938 "/>
<g clip-path="url(#clip10)" clip-rule="nonzero">
<path style="fill:none;stroke-width:0.8;stroke-linecap:square;stroke-linejoin:round;stroke:rgb(69.01961%,69.01961%,69.01961%);stroke-opacity:1;stroke-miterlimit:4;" d="M 43.78125 136.921875 L 322.78125 136.921875 " transform="matrix(1.333333,0,0,1.333333,0.000000000000028422,0)"/>
</g>
<path style="fill:none;stroke-width:0.8;stroke-linecap:butt;stroke-linejoin:round;stroke:rgb(0%,0%,0%);stroke-opacity:1;stroke-miterlimit:4;" d="M -0.000000000000021316 -0.000854492 L -3.500977 -0.000854492 " transform="matrix(1.333333,0,0,1.333333,58.375,182.563639)"/>
<path style=" stroke:none;fill-rule:nonzero;fill:rgb(0%,0%,0%);fill-opacity:1;" d="M 32.074219 178.773438 C 31.398438 178.773438 30.890625 179.109375 30.546875 179.773438 C 30.207031 180.441406 30.039062 181.441406 30.039062 182.777344 C 30.039062 184.109375 30.207031 185.109375 30.546875 185.777344 C 30.890625 186.445312 31.398438 186.777344 32.074219 186.777344 C 32.757812 186.777344 33.269531 186.445312 33.609375 185.777344 C 33.949219 185.109375 34.121094 184.109375 34.121094 182.777344 C 34.121094 181.441406 33.949219 180.441406 33.609375 179.773438 C 33.269531 179.109375 32.757812 178.773438 32.074219 178.773438 Z M 32.074219 177.734375 C 33.164062 177.734375 33.996094 178.164062 34.574219 179.027344 C 35.148438 179.886719 35.433594 181.140625 35.433594 182.777344 C 35.433594 184.414062 35.148438 185.664062 34.574219 186.527344 C 33.996094 187.386719 33.164062 187.820312 32.074219 187.820312 C 30.984375 187.820312 30.152344 187.386719 29.578125 186.527344 C 29.003906 185.664062 28.714844 184.414062 28.714844 182.777344 C 28.714844 181.140625 29.003906 179.886719 29.578125 179.027344 C 30.152344 178.164062 30.984375 177.734375 32.074219 177.734375 Z M 32.074219 177.734375 "/>
<path style=" stroke:none;fill-rule:nonzero;fill:rgb(0%,0%,0%);fill-opacity:1;" d="M 37.746094 185.976562 L 39.121094 185.976562 L 39.121094 187.628906 L 37.746094 187.628906 Z M 37.746094 185.976562 "/>
<path style=" stroke:none;fill-rule:nonzero;fill:rgb(0%,0%,0%);fill-opacity:1;" d="M 44.796875 178.773438 C 44.121094 178.773438 43.609375 179.109375 43.269531 179.773438 C 42.929688 180.441406 42.757812 181.441406 42.757812 182.777344 C 42.757812 184.109375 42.929688 185.109375 43.269531 185.777344 C 43.609375 186.445312 44.121094 186.777344 44.796875 186.777344 C 45.476562 186.777344 45.988281 186.445312 46.328125 185.777344 C 46.671875 185.109375 46.84375 184.109375 46.84375 182.777344 C 46.84375 181.441406 46.671875 180.441406 46.328125 179.773438 C 45.988281 179.109375 45.476562 178.773438 44.796875 178.773438 Z M 44.796875 177.734375 C 45.886719 177.734375 46.71875 178.164062 47.292969 179.027344 C 47.871094 179.886719 48.15625 181.140625 48.15625 182.777344 C 48.15625 184.414062 47.871094 185.664062 47.292969 186.527344 C 46.71875 187.386719 45.886719 187.820312 44.796875 187.820312 C 43.707031 187.820312 42.875 187.386719 42.300781 186.527344 C 41.726562 185.664062 41.4375 184.414062 41.4375 182.777344 C 41.4375 181.140625 41.726562 179.886719 42.300781 179.027344 C 42.875 178.164062 43.707031 177.734375 44.796875 177.734375 Z M 44.796875 177.734375 "/>
<g clip-path="url(#clip11)" clip-rule="nonzero">
<path style="fill:none;stroke-width:0.8;stroke-linecap:square;stroke-linejoin:round;stroke:rgb(69.01961%,69.01961%,69.01961%);stroke-opacity:1;stroke-miterlimit:4;" d="M 43.78125 112.212891 L 322.78125 112.212891 " transform="matrix(1.333333,0,0,1.333333,0.000000000000028422,0)"/>
</g>
<path style="fill:none;stroke-width:0.8;stroke-linecap:butt;stroke-linejoin:round;stroke:rgb(0%,0%,0%);stroke-opacity:1;stroke-miterlimit:4;" d="M -0.000000000000021316 -0.000747681 L -3.500977 -0.000747681 " transform="matrix(1.333333,0,0,1.333333,58.375,149.618184)"/>
<path style=" stroke:none;fill-rule:nonzero;fill:rgb(0%,0%,0%);fill-opacity:1;" d="M 32.074219 145.828125 C 31.398438 145.828125 30.890625 146.164062 30.546875 146.828125 C 30.207031 147.496094 30.039062 148.496094 30.039062 149.832031 C 30.039062 151.164062 30.207031 152.164062 30.546875 152.832031 C 30.890625 153.5 31.398438 153.832031 32.074219 153.832031 C 32.757812 153.832031 33.269531 153.5 33.609375 152.832031 C 33.949219 152.164062 34.121094 151.164062 34.121094 149.832031 C 34.121094 148.496094 33.949219 147.496094 33.609375 146.828125 C 33.269531 146.164062 32.757812 145.828125 32.074219 145.828125 Z M 32.074219 144.789062 C 33.164062 144.789062 33.996094 145.21875 34.574219 146.082031 C 35.148438 146.941406 35.433594 148.195312 35.433594 149.832031 C 35.433594 151.46875 35.148438 152.71875 34.574219 153.582031 C 33.996094 154.441406 33.164062 154.875 32.074219 154.875 C 30.984375 154.875 30.152344 154.441406 29.578125 153.582031 C 29.003906 152.71875 28.714844 151.46875 28.714844 149.832031 C 28.714844 148.195312 29.003906 146.941406 29.578125 146.082031 C 30.152344 145.21875 30.984375 144.789062 32.074219 144.789062 Z M 32.074219 144.789062 "/>
<path style=" stroke:none;fill-rule:nonzero;fill:rgb(0%,0%,0%);fill-opacity:1;" d="M 37.746094 153.03125 L 39.121094 153.03125 L 39.121094 154.683594 L 37.746094 154.683594 Z M 37.746094 153.03125 "/>
<path style=" stroke:none;fill-rule:nonzero;fill:rgb(0%,0%,0%);fill-opacity:1;" d="M 43.117188 153.578125 L 47.707031 153.578125 L 47.707031 154.683594 L 41.535156 154.683594 L 41.535156 153.578125 C 42.035156 153.0625 42.714844 152.367188 43.574219 151.5 C 44.4375 150.628906 44.980469 150.066406 45.199219 149.8125 C 45.621094 149.339844 45.914062 148.941406 46.082031 148.613281 C 46.25 148.285156 46.332031 147.964844 46.332031 147.644531 C 46.332031 147.128906 46.152344 146.707031 45.789062 146.382812 C 45.425781 146.058594 44.957031 145.894531 44.375 145.894531 C 43.960938 145.894531 43.527344 145.964844 43.066406 146.109375 C 42.609375 146.25 42.121094 146.46875 41.601562 146.761719 L 41.601562 145.433594 C 42.128906 145.21875 42.625 145.058594 43.082031 144.949219 C 43.546875 144.84375 43.964844 144.789062 44.347656 144.789062 C 45.355469 144.789062 46.15625 145.039062 46.757812 145.542969 C 47.355469 146.046875 47.65625 146.71875 47.65625 147.5625 C 47.65625 147.960938 47.578125 148.339844 47.429688 148.699219 C 47.28125 149.054688 47.007812 149.476562 46.613281 149.964844 C 46.503906 150.089844 46.160156 150.453125 45.578125 151.054688 C 44.996094 151.65625 44.175781 152.496094 43.117188 153.578125 Z M 43.117188 153.578125 "/>
<g clip-path="url(#clip12)" clip-rule="nonzero">
<path style="fill:none;stroke-width:0.8;stroke-linecap:square;stroke-linejoin:round;stroke:rgb(69.01961%,69.01961%,69.01961%);stroke-opacity:1;stroke-miterlimit:4;" d="M 43.78125 87.503906 L 322.78125 87.503906 " transform="matrix(1.333333,0,0,1.333333,0.000000000000028422,0)"/>
</g>
<path style="fill:none;stroke-width:0.8;stroke-linecap:butt;stroke-linejoin:round;stroke:rgb(0%,0%,0%);stroke-opacity:1;stroke-miterlimit:4;" d="M -0.000000000000021316 -0.000640869 L -3.500977 -0.000640869 " transform="matrix(1.333333,0,0,1.333333,58.375,116.672729)"/>
<path style=" stroke:none;fill-rule:nonzero;fill:rgb(0%,0%,0%);fill-opacity:1;" d="M 32.074219 112.882812 C 31.398438 112.882812 30.890625 113.21875 30.546875 113.882812 C 30.207031 114.550781 30.039062 115.550781 30.039062 116.886719 C 30.039062 118.21875 30.207031 119.21875 30.546875 119.886719 C 30.890625 120.554688 31.398438 120.886719 32.074219 120.886719 C 32.757812 120.886719 33.269531 120.554688 33.609375 119.886719 C 33.949219 119.21875 34.121094 118.21875 34.121094 116.886719 C 34.121094 115.550781 33.949219 114.550781 33.609375 113.882812 C 33.269531 113.21875 32.757812 112.882812 32.074219 112.882812 Z M 32.074219 111.84375 C 33.164062 111.84375 33.996094 112.273438 34.574219 113.136719 C 35.148438 113.996094 35.433594 115.25 35.433594 116.886719 C 35.433594 118.523438 35.148438 119.773438 34.574219 120.636719 C 33.996094 121.496094 33.164062 121.929688 32.074219 121.929688 C 30.984375 121.929688 30.152344 121.496094 29.578125 120.636719 C 29.003906 119.773438 28.714844 118.523438 28.714844 116.886719 C 28.714844 115.25 29.003906 113.996094 29.578125 113.136719 C 30.152344 112.273438 30.984375 111.84375 32.074219 111.84375 Z M 32.074219 111.84375 "/>
<path style=" stroke:none;fill-rule:nonzero;fill:rgb(0%,0%,0%);fill-opacity:1;" d="M 37.746094 120.085938 L 39.121094 120.085938 L 39.121094 121.738281 L 37.746094 121.738281 Z M 37.746094 120.085938 "/>
<path style=" stroke:none;fill-rule:nonzero;fill:rgb(0%,0%,0%);fill-opacity:1;" d="M 45.597656 113.164062 L 42.277344 118.351562 L 45.597656 118.351562 Z M 45.253906 112.015625 L 46.90625 112.015625 L 46.90625 118.351562 L 48.292969 118.351562 L 48.292969 119.445312 L 46.90625 119.445312 L 46.90625 121.738281 L 45.597656 121.738281 L 45.597656 119.445312 L 41.210938 119.445312 L 41.210938 118.179688 Z M 45.253906 112.015625 "/>
<g clip-path="url(#clip13)" clip-rule="nonzero">
<path style="fill:none;stroke-width:0.8;stroke-linecap:square;stroke-linejoin:round;stroke:rgb(69.01961%,69.01961%,69.01961%);stroke-opacity:1;stroke-miterlimit:4;" d="M 43.78125 62.794922 L 322.78125 62.794922 " transform="matrix(1.333333,0,0,1.333333,0.000000000000028422,0)"/>
</g>
<path style="fill:none;stroke-width:0.8;stroke-linecap:butt;stroke-linejoin:round;stroke:rgb(0%,0%,0%);stroke-opacity:1;stroke-miterlimit:4;" d="M -0.000000000000021316 -0.000534058 L -3.500977 -0.000534058 " transform="matrix(1.333333,0,0,1.333333,58.375,83.727275)"/>
<path style=" stroke:none;fill-rule:nonzero;fill:rgb(0%,0%,0%);fill-opacity:1;" d="M 32.074219 79.9375 C 31.398438 79.9375 30.890625 80.273438 30.546875 80.9375 C 30.207031 81.605469 30.039062 82.605469 30.039062 83.941406 C 30.039062 85.273438 30.207031 86.273438 30.546875 86.941406 C 30.890625 87.609375 31.398438 87.941406 32.074219 87.941406 C 32.757812 87.941406 33.269531 87.609375 33.609375 86.941406 C 33.949219 86.273438 34.121094 85.273438 34.121094 83.941406 C 34.121094 82.605469 33.949219 81.605469 33.609375 80.9375 C 33.269531 80.273438 32.757812 79.9375 32.074219 79.9375 Z M 32.074219 78.898438 C 33.164062 78.898438 33.996094 79.328125 34.574219 80.191406 C 35.148438 81.050781 35.433594 82.300781 35.433594 83.941406 C 35.433594 85.578125 35.148438 86.828125 34.574219 87.691406 C 33.996094 88.550781 33.164062 88.984375 32.074219 88.984375 C 30.984375 88.984375 30.152344 88.550781 29.578125 87.691406 C 29.003906 86.828125 28.714844 85.578125 28.714844 83.941406 C 28.714844 82.300781 29.003906 81.050781 29.578125 80.191406 C 30.152344 79.328125 30.984375 78.898438 32.074219 78.898438 Z M 32.074219 78.898438 "/>
<path style=" stroke:none;fill-rule:nonzero;fill:rgb(0%,0%,0%);fill-opacity:1;" d="M 37.746094 87.140625 L 39.121094 87.140625 L 39.121094 88.792969 L 37.746094 88.792969 Z M 37.746094 87.140625 "/>
<path style=" stroke:none;fill-rule:nonzero;fill:rgb(0%,0%,0%);fill-opacity:1;" d="M 44.960938 83.410156 C 44.371094 83.410156 43.902344 83.613281 43.558594 84.015625 C 43.210938 84.417969 43.039062 84.972656 43.039062 85.675781 C 43.039062 86.371094 43.210938 86.925781 43.558594 87.332031 C 43.902344 87.738281 44.371094 87.941406 44.960938 87.941406 C 45.550781 87.941406 46.019531 87.738281 46.363281 87.332031 C 46.707031 86.925781 46.878906 86.371094 46.878906 85.675781 C 46.878906 84.972656 46.707031 84.417969 46.363281 84.015625 C 46.019531 83.613281 45.550781 83.410156 44.960938 83.410156 Z M 47.570312 79.285156 L 47.570312 80.484375 C 47.242188 80.328125 46.90625 80.210938 46.570312 80.128906 C 46.234375 80.046875 45.902344 80.003906 45.570312 80.003906 C 44.703125 80.003906 44.039062 80.296875 43.582031 80.882812 C 43.125 81.46875 42.863281 82.355469 42.796875 83.539062 C 43.054688 83.160156 43.375 82.871094 43.761719 82.671875 C 44.148438 82.46875 44.574219 82.367188 45.039062 82.367188 C 46.015625 82.367188 46.785156 82.664062 47.351562 83.257812 C 47.917969 83.847656 48.203125 84.65625 48.203125 85.675781 C 48.203125 86.671875 47.90625 87.472656 47.316406 88.078125 C 46.726562 88.679688 45.941406 88.984375 44.960938 88.984375 C 43.835938 88.984375 42.976562 88.550781 42.382812 87.691406 C 41.789062 86.828125 41.488281 85.578125 41.488281 83.941406 C 41.488281 82.40625 41.855469 81.183594 42.582031 80.269531 C 43.3125 79.355469 44.292969 78.898438 45.519531 78.898438 C 45.851562 78.898438 46.183594 78.929688 46.519531 78.996094 C 46.855469 79.058594 47.207031 79.15625 47.570312 79.285156 Z M 47.570312 79.285156 "/>
<g clip-path="url(#clip14)" clip-rule="nonzero">
<path style="fill:none;stroke-width:0.8;stroke-linecap:square;stroke-linejoin:round;stroke:rgb(69.01961%,69.01961%,69.01961%);stroke-opacity:1;stroke-miterlimit:4;" d="M 43.78125 38.085938 L 322.78125 38.085938 " transform="matrix(1.333333,0,0,1.333333,0.000000000000028422,0)"/>
</g>
<path style="fill:none;stroke-width:0.8;stroke-linecap:butt;stroke-linejoin:round;stroke:rgb(0%,0%,0%);stroke-opacity:1;stroke-miterlimit:4;" d="M -0.000000000000021316 -0.000427246 L -3.500977 -0.000427246 " transform="matrix(1.333333,0,0,1.333333,58.375,50.78182)"/>
<path style=" stroke:none;fill-rule:nonzero;fill:rgb(0%,0%,0%);fill-opacity:1;" d="M 32.074219 46.992188 C 31.398438 46.992188 30.890625 47.328125 30.546875 47.992188 C 30.207031 48.660156 30.039062 49.660156 30.039062 50.996094 C 30.039062 52.328125 30.207031 53.328125 30.546875 53.996094 C 30.890625 54.660156 31.398438 54.996094 32.074219 54.996094 C 32.757812 54.996094 33.269531 54.660156 33.609375 53.996094 C 33.949219 53.328125 34.121094 52.328125 34.121094 50.996094 C 34.121094 49.660156 33.949219 48.660156 33.609375 47.992188 C 33.269531 47.328125 32.757812 46.992188 32.074219 46.992188 Z M 32.074219 45.953125 C 33.164062 45.953125 33.996094 46.382812 34.574219 47.246094 C 35.148438 48.105469 35.433594 49.355469 35.433594 50.996094 C 35.433594 52.632812 35.148438 53.882812 34.574219 54.746094 C 33.996094 55.605469 33.164062 56.035156 32.074219 56.035156 C 30.984375 56.035156 30.152344 55.605469 29.578125 54.746094 C 29.003906 53.882812 28.714844 52.632812 28.714844 50.996094 C 28.714844 49.355469 29.003906 48.105469 29.578125 47.246094 C 30.152344 46.382812 30.984375 45.953125 32.074219 45.953125 Z M 32.074219 45.953125 "/>
<path style=" stroke:none;fill-rule:nonzero;fill:rgb(0%,0%,0%);fill-opacity:1;" d="M 37.746094 54.191406 L 39.121094 54.191406 L 39.121094 55.847656 L 37.746094 55.847656 Z M 37.746094 54.191406 "/>
<path style=" stroke:none;fill-rule:nonzero;fill:rgb(0%,0%,0%);fill-opacity:1;" d="M 44.796875 51.230469 C 44.171875 51.230469 43.679688 51.398438 43.320312 51.734375 C 42.964844 52.066406 42.785156 52.527344 42.785156 53.113281 C 42.785156 53.699219 42.964844 54.160156 43.320312 54.492188 C 43.679688 54.828125 44.171875 54.996094 44.796875 54.996094 C 45.421875 54.996094 45.914062 54.828125 46.273438 54.492188 C 46.632812 54.152344 46.816406 53.695312 46.816406 53.113281 C 46.816406 52.527344 46.636719 52.066406 46.277344 51.734375 C 45.921875 51.398438 45.425781 51.230469 44.796875 51.230469 Z M 43.480469 50.671875 C 42.917969 50.535156 42.476562 50.269531 42.164062 49.886719 C 41.847656 49.496094 41.691406 49.027344 41.691406 48.46875 C 41.691406 47.695312 41.96875 47.082031 42.519531 46.628906 C 43.074219 46.175781 43.832031 45.953125 44.796875 45.953125 C 45.765625 45.953125 46.523438 46.175781 47.074219 46.628906 C 47.625 47.082031 47.902344 47.695312 47.902344 48.46875 C 47.902344 49.027344 47.746094 49.496094 47.429688 49.886719 C 47.117188 50.269531 46.679688 50.535156 46.121094 50.671875 C 46.753906 50.820312 47.246094 51.109375 47.597656 51.539062 C 47.953125 51.96875 48.128906 52.492188 48.128906 53.113281 C 48.128906 54.054688 47.84375 54.777344 47.265625 55.28125 C 46.691406 55.785156 45.867188 56.035156 44.796875 56.035156 C 43.726562 56.035156 42.902344 55.785156 42.324219 55.28125 C 41.75 54.777344 41.464844 54.054688 41.464844 53.113281 C 41.464844 52.492188 41.640625 51.96875 41.996094 51.539062 C 42.351562 51.109375 42.847656 50.820312 43.480469 50.671875 Z M 43 48.59375 C 43 49.097656 43.15625 49.492188 43.472656 49.773438 C 43.785156 50.054688 44.226562 50.195312 44.796875 50.195312 C 45.363281 50.195312 45.804688 50.054688 46.121094 49.773438 C 46.441406 49.492188 46.601562 49.097656 46.601562 48.59375 C 46.601562 48.089844 46.441406 47.699219 46.121094 47.417969 C 45.804688 47.132812 45.363281 46.992188 44.796875 46.992188 C 44.226562 46.992188 43.785156 47.132812 43.472656 47.417969 C 43.15625 47.699219 43 48.089844 43 48.59375 Z M 43 48.59375 "/>
<g clip-path="url(#clip15)" clip-rule="nonzero">
<path style="fill:none;stroke-width:0.8;stroke-linecap:square;stroke-linejoin:round;stroke:rgb(69.01961%,69.01961%,69.01961%);stroke-opacity:1;stroke-miterlimit:4;" d="M 43.78125 13.376953 L 322.78125 13.376953 " transform="matrix(1.333333,0,0,1.333333,0.000000000000028422,0)"/>
</g>
<path style="fill:none;stroke-width:0.8;stroke-linecap:butt;stroke-linejoin:round;stroke:rgb(0%,0%,0%);stroke-opacity:1;stroke-miterlimit:4;" d="M -0.000000000000021316 -0.000319481 L -3.500977 -0.000319481 " transform="matrix(1.333333,0,0,1.333333,58.375,17.836363)"/>
<path style=" stroke:none;fill-rule:nonzero;fill:rgb(0%,0%,0%);fill-opacity:1;" d="M 29.492188 21.796875 L 31.640625 21.796875 L 31.640625 14.378906 L 29.300781 14.847656 L 29.300781 13.648438 L 31.628906 13.179688 L 32.941406 13.179688 L 32.941406 21.796875 L 35.089844 21.796875 L 35.089844 22.902344 L 29.492188 22.902344 Z M 29.492188 21.796875 "/>
<path style=" stroke:none;fill-rule:nonzero;fill:rgb(0%,0%,0%);fill-opacity:1;" d="M 37.746094 21.246094 L 39.121094 21.246094 L 39.121094 22.902344 L 37.746094 22.902344 Z M 37.746094 21.246094 "/>
<path style=" stroke:none;fill-rule:nonzero;fill:rgb(0%,0%,0%);fill-opacity:1;" d="M 44.796875 14.046875 C 44.121094 14.046875 43.609375 14.382812 43.269531 15.046875 C 42.929688 15.714844 42.757812 16.714844 42.757812 18.050781 C 42.757812 19.382812 42.929688 20.382812 43.269531 21.050781 C 43.609375 21.714844 44.121094 22.050781 44.796875 22.050781 C 45.476562 22.050781 45.988281 21.714844 46.328125 21.050781 C 46.671875 20.382812 46.84375 19.382812 46.84375 18.050781 C 46.84375 16.714844 46.671875 15.714844 46.328125 15.046875 C 45.988281 14.382812 45.476562 14.046875 44.796875 14.046875 Z M 44.796875 13.007812 C 45.886719 13.007812 46.71875 13.4375 47.292969 14.300781 C 47.871094 15.160156 48.15625 16.410156 48.15625 18.050781 C 48.15625 19.6875 47.871094 20.9375 47.292969 21.800781 C 46.71875 22.660156 45.886719 23.089844 44.796875 23.089844 C 43.707031 23.089844 42.875 22.660156 42.300781 21.800781 C 41.726562 20.9375 41.4375 19.6875 41.4375 18.050781 C 41.4375 16.410156 41.726562 15.160156 42.300781 14.300781 C 42.875 13.4375 43.707031 13.007812 44.796875 13.007812 Z M 44.796875 13.007812 "/>
<path style=" stroke:none;fill-rule:nonzero;fill:rgb(0%,0%,0%);fill-opacity:1;" d="M 16 132.871094 C 15.132812 132.871094 14.460938 133.050781 13.984375 133.40625 C 13.503906 133.765625 13.265625 134.265625 13.265625 134.914062 C 13.265625 135.554688 13.503906 136.054688 13.984375 136.414062 C 14.460938 136.773438 15.132812 136.949219 16 136.949219 C 16.863281 136.949219 17.535156 136.773438 18.011719 136.414062 C 18.492188 136.054688 18.730469 135.554688 18.730469 134.914062 C 18.730469 134.265625 18.492188 133.765625 18.011719 133.40625 C 17.535156 133.050781 16.863281 132.871094 16 132.871094 Z M 18.828125 131.671875 C 20.066406 131.671875 20.992188 131.949219 21.597656 132.5 C 22.203125 133.050781 22.503906 133.894531 22.503906 135.03125 C 22.503906 135.449219 22.472656 135.847656 22.410156 136.222656 C 22.347656 136.59375 22.25 136.957031 22.121094 137.308594 L 20.957031 137.308594 C 21.148438 136.957031 21.285156 136.609375 21.378906 136.269531 C 21.46875 135.925781 21.515625 135.574219 21.515625 135.21875 C 21.515625 134.433594 21.308594 133.84375 20.898438 133.457031 C 20.492188 133.066406 19.871094 132.871094 19.042969 132.871094 L 18.449219 132.871094 C 18.878906 133.117188 19.199219 133.433594 19.414062 133.820312 C 19.625 134.207031 19.730469 134.667969 19.730469 135.207031 C 19.730469 136.101562 19.390625 136.820312 18.710938 137.367188 C 18.027344 137.914062 17.125 138.1875 16 138.1875 C 14.871094 138.1875 13.96875 137.914062 13.289062 137.367188 C 12.605469 136.820312 12.265625 136.101562 12.265625 135.207031 C 12.265625 134.667969 12.371094 134.207031 12.582031 133.820312 C 12.796875 133.433594 13.117188 133.117188 13.546875 132.871094 L 12.441406 132.871094 L 12.441406 131.671875 Z M 18.828125 131.671875 "/>
<path style=" stroke:none;fill-rule:nonzero;fill:rgb(0%,0%,0%);fill-opacity:1;" d="M 13.558594 124.980469 C 13.480469 125.113281 13.421875 125.261719 13.386719 125.417969 C 13.351562 125.578125 13.332031 125.75 13.332031 125.941406 C 13.332031 126.621094 13.550781 127.140625 13.992188 127.503906 C 14.433594 127.863281 15.066406 128.046875 15.890625 128.046875 L 19.730469 128.046875 L 19.730469 129.25 L 12.441406 129.25 L 12.441406 128.046875 L 13.574219 128.046875 C 13.128906 127.792969 12.800781 127.464844 12.585938 127.0625 C 12.371094 126.660156 12.265625 126.167969 12.265625 125.589844 C 12.265625 125.507812 12.269531 125.417969 12.28125 125.316406 C 12.289062 125.214844 12.308594 125.105469 12.328125 124.984375 Z M 13.558594 124.980469 "/>
<path style=" stroke:none;fill-rule:nonzero;fill:rgb(0%,0%,0%);fill-opacity:1;" d="M 16.066406 120.40625 C 16.066406 121.375 16.175781 122.046875 16.398438 122.421875 C 16.617188 122.792969 16.996094 122.980469 17.53125 122.980469 C 17.957031 122.980469 18.292969 122.839844 18.542969 122.558594 C 18.792969 122.28125 18.917969 121.898438 18.917969 121.417969 C 18.917969 120.753906 18.679688 120.21875 18.210938 119.816406 C 17.738281 119.417969 17.113281 119.214844 16.332031 119.214844 L 16.066406 119.214844 Z M 15.570312 118.019531 L 19.730469 118.019531 L 19.730469 119.214844 L 18.625 119.214844 C 19.066406 119.488281 19.394531 119.832031 19.605469 120.238281 C 19.816406 120.648438 19.921875 121.148438 19.921875 121.738281 C 19.921875 122.484375 19.710938 123.078125 19.292969 123.519531 C 18.871094 123.957031 18.3125 124.179688 17.609375 124.179688 C 16.789062 124.179688 16.171875 123.90625 15.753906 123.355469 C 15.335938 122.804688 15.128906 121.984375 15.128906 120.898438 L 15.128906 119.214844 L 15.011719 119.214844 C 14.460938 119.214844 14.03125 119.398438 13.730469 119.761719 C 13.429688 120.121094 13.277344 120.632812 13.277344 121.285156 C 13.277344 121.703125 13.328125 122.109375 13.429688 122.503906 C 13.527344 122.898438 13.679688 123.28125 13.878906 123.644531 L 12.769531 123.644531 C 12.601562 123.207031 12.476562 122.78125 12.390625 122.367188 C 12.308594 121.957031 12.265625 121.554688 12.265625 121.164062 C 12.265625 120.109375 12.539062 119.320312 13.085938 118.800781 C 13.632812 118.277344 14.460938 118.019531 15.570312 118.019531 Z M 15.570312 118.019531 "/>
<path style=" stroke:none;fill-rule:nonzero;fill:rgb(0%,0%,0%);fill-opacity:1;" d="M 13.546875 110.753906 L 9.601562 110.753906 L 9.601562 109.554688 L 19.730469 109.554688 L 19.730469 110.753906 L 18.636719 110.753906 C 19.070312 111.003906 19.394531 111.324219 19.605469 111.707031 C 19.816406 112.089844 19.921875 112.550781 19.921875 113.089844 C 19.921875 113.972656 19.570312 114.6875 18.867188 115.242188 C 18.164062 115.796875 17.238281 116.074219 16.089844 116.074219 C 14.945312 116.074219 14.023438 115.796875 13.320312 115.242188 C 12.617188 114.6875 12.265625 113.972656 12.265625 113.089844 C 12.265625 112.550781 12.371094 112.089844 12.582031 111.707031 C 12.789062 111.324219 13.113281 111.003906 13.546875 110.753906 Z M 16.089844 114.835938 C 16.972656 114.835938 17.664062 114.652344 18.164062 114.292969 C 18.664062 113.929688 18.917969 113.429688 18.917969 112.796875 C 18.917969 112.164062 18.664062 111.664062 18.164062 111.300781 C 17.664062 110.9375 16.972656 110.753906 16.089844 110.753906 C 15.210938 110.753906 14.519531 110.9375 14.019531 111.300781 C 13.515625 111.664062 13.265625 112.164062 13.265625 112.796875 C 13.265625 113.429688 13.515625 113.929688 14.019531 114.292969 C 14.519531 114.652344 15.210938 114.835938 16.089844 114.835938 Z M 16.089844 114.835938 "/>
<path style=" stroke:none;fill-rule:nonzero;fill:rgb(0%,0%,0%);fill-opacity:1;" d="M 13.277344 100.023438 C 13.277344 100.667969 13.53125 101.175781 14.03125 101.546875 C 14.53125 101.921875 15.21875 102.109375 16.089844 102.109375 C 16.964844 102.109375 17.652344 101.921875 18.152344 101.550781 C 18.652344 101.179688 18.902344 100.671875 18.902344 100.023438 C 18.902344 99.386719 18.652344 98.878906 18.148438 98.507812 C 17.644531 98.132812 16.960938 97.949219 16.089844 97.949219 C 15.226562 97.949219 14.542969 98.132812 14.039062 98.507812 C 13.53125 98.878906 13.277344 99.386719 13.277344 100.023438 Z M 12.265625 100.023438 C 12.265625 98.984375 12.601562 98.164062 13.28125 97.570312 C 13.957031 96.976562 14.894531 96.675781 16.089844 96.675781 C 17.285156 96.675781 18.222656 96.976562 18.902344 97.570312 C 19.582031 98.164062 19.921875 98.984375 19.921875 100.023438 C 19.921875 101.070312 19.582031 101.890625 18.902344 102.484375 C 18.222656 103.074219 17.285156 103.371094 16.089844 103.371094 C 14.894531 103.371094 13.957031 103.074219 13.28125 102.484375 C 12.601562 101.890625 12.265625 101.070312 12.265625 100.023438 Z M 12.265625 100.023438 "/>
<path style=" stroke:none;fill-rule:nonzero;fill:rgb(0%,0%,0%);fill-opacity:1;" d="M 9.601562 91 L 10.597656 91 L 10.597656 92.148438 C 10.597656 92.574219 10.683594 92.875 10.859375 93.042969 C 11.03125 93.210938 11.34375 93.292969 11.796875 93.292969 L 12.441406 93.292969 L 12.441406 91.320312 L 13.371094 91.320312 L 13.371094 93.292969 L 19.730469 93.292969 L 19.730469 94.496094 L 13.371094 94.496094 L 13.371094 95.640625 L 12.441406 95.640625 L 12.441406 94.496094 L 11.929688 94.496094 C 11.121094 94.496094 10.527344 94.308594 10.160156 93.929688 C 9.785156 93.550781 9.601562 92.953125 9.601562 92.132812 Z M 9.601562 91 "/>
<path style=" stroke:none;fill-rule:nonzero;fill:rgb(0%,0%,0%);fill-opacity:1;" d="M 13.558594 81.535156 C 13.480469 81.667969 13.421875 81.816406 13.386719 81.976562 C 13.351562 82.132812 13.332031 82.308594 13.332031 82.496094 C 13.332031 83.175781 13.550781 83.695312 13.992188 84.058594 C 14.433594 84.421875 15.066406 84.601562 15.890625 84.601562 L 19.730469 84.601562 L 19.730469 85.804688 L 12.441406 85.804688 L 12.441406 84.601562 L 13.574219 84.601562 C 13.128906 84.347656 12.800781 84.019531 12.585938 83.617188 C 12.371094 83.214844 12.265625 82.722656 12.265625 82.144531 C 12.265625 82.0625 12.269531 81.972656 12.28125 81.871094 C 12.289062 81.773438 12.308594 81.664062 12.328125 81.542969 Z M 13.558594 81.535156 "/>
<path style=" stroke:none;fill-rule:nonzero;fill:rgb(0%,0%,0%);fill-opacity:1;" d="M 15.785156 74.339844 L 16.371094 74.339844 L 16.371094 79.847656 C 17.195312 79.796875 17.824219 79.546875 18.257812 79.101562 C 18.6875 78.660156 18.902344 78.039062 18.902344 77.246094 C 18.902344 76.785156 18.847656 76.339844 18.734375 75.90625 C 18.621094 75.476562 18.453125 75.046875 18.226562 74.621094 L 19.359375 74.621094 C 19.542969 75.050781 19.679688 75.492188 19.777344 75.941406 C 19.871094 76.394531 19.921875 76.851562 19.921875 77.316406 C 19.921875 78.480469 19.582031 79.402344 18.90625 80.082031 C 18.226562 80.757812 17.3125 81.097656 16.15625 81.097656 C 14.964844 81.097656 14.015625 80.777344 13.316406 80.132812 C 12.617188 79.488281 12.265625 78.617188 12.265625 77.523438 C 12.265625 76.542969 12.582031 75.769531 13.210938 75.195312 C 13.84375 74.625 14.699219 74.339844 15.785156 74.339844 Z M 15.433594 75.539062 C 14.777344 75.546875 14.257812 75.730469 13.867188 76.089844 C 13.476562 76.445312 13.277344 76.921875 13.277344 77.511719 C 13.277344 78.179688 13.46875 78.714844 13.847656 79.117188 C 14.222656 79.515625 14.753906 79.75 15.441406 79.808594 Z M 15.433594 75.539062 "/>
<path style=" stroke:none;fill-rule:nonzero;fill:rgb(0%,0%,0%);fill-opacity:1;" d="M 9.601562 72.375 L 9.601562 71.175781 L 19.730469 71.175781 L 19.730469 72.375 Z M 9.601562 72.375 "/>
<path style=" stroke:none;fill-rule:nonzero;fill:rgb(0%,0%,0%);fill-opacity:1;" d="M 16.855469 68.792969 L 12.441406 68.792969 L 12.441406 67.597656 L 16.808594 67.597656 C 17.5 67.597656 18.015625 67.460938 18.363281 67.195312 C 18.707031 66.925781 18.878906 66.519531 18.878906 65.980469 C 18.878906 65.335938 18.671875 64.824219 18.261719 64.449219 C 17.847656 64.074219 17.285156 63.886719 16.574219 63.886719 L 12.441406 63.886719 L 12.441406 62.6875 L 19.730469 62.6875 L 19.730469 63.886719 L 18.609375 63.886719 C 19.054688 64.175781 19.382812 64.511719 19.597656 64.898438 C 19.8125 65.28125 19.921875 65.726562 19.921875 66.234375 C 19.921875 67.074219 19.660156 67.710938 19.140625 68.144531 C 18.617188 68.578125 17.855469 68.792969 16.855469 68.792969 Z M 12.265625 65.777344 Z M 12.265625 65.777344 "/>
<path style="fill:none;stroke-width:1.5;stroke-linecap:square;stroke-linejoin:round;stroke:rgb(12.156863%,46.666667%,70.588237%);stroke-opacity:1;stroke-miterlimit:4;" d="M 56.463867 136.921875 L 182.484375 136.921875 L 184.078125 13.376953 L 310.098633 13.376953 " transform="matrix(1.333333,0,0,1.333333,0.000000000000028422,0)"/>
<path style="fill:none;stroke-width:0.8;stroke-linecap:square;stroke-linejoin:miter;stroke:rgb(0%,0%,0%);stroke-opacity:1;stroke-miterlimit:4;" d="M 43.78125 143.100586 L 43.78125 7.201172 " transform="matrix(1.333333,0,0,1.333333,0.000000000000028422,0)"/>
<path style="fill:none;stroke-width:0.8;stroke-linecap:square;stroke-linejoin:miter;stroke:rgb(0%,0%,0%);stroke-opacity:1;stroke-miterlimit:4;" d="M 322.78125 143.100586 L 322.78125 7.201172 " transform="matrix(1.333333,0,0,1.333333,0.000000000000028422,0)"/>
<path style="fill:none;stroke-width:0.8;stroke-linecap:square;stroke-linejoin:miter;stroke:rgb(0%,0%,0%);stroke-opacity:1;stroke-miterlimit:4;" d="M 43.78125 143.100586 L 322.78125 143.100586 " transform="matrix(1.333333,0,0,1.333333,0.000000000000028422,0)"/>
<path style="fill:none;stroke-width:0.8;stroke-linecap:square;stroke-linejoin:miter;stroke:rgb(0%,0%,0%);stroke-opacity:1;stroke-miterlimit:4;" d="M 43.78125 7.201172 L 322.78125 7.201172 " transform="matrix(1.333333,0,0,1.333333,0.000000000000028422,0)"/>
</g>
</svg>
