<?xml version="1.0" encoding="UTF-8"?>
<svg xmlns="http://www.w3.org/2000/svg" xmlns:xlink="http://www.w3.org/1999/xlink" width="439.975016" height="240.875" viewBox="0 0 439.975016 240.875" version="1.1">
<defs>
<clipPath id="clip1">
  <path d="M 74 9.601562 L 77 9.601562 L 77 190.800781 L 74 190.800781 Z M 74 9.601562 "/>
</clipPath>
<clipPath id="clip2">
  <path d="M 117 9.601562 L 119 9.601562 L 119 190.800781 L 117 190.800781 Z M 117 9.601562 "/>
</clipPath>
<clipPath id="clip3">
  <path d="M 159 9.601562 L 162 9.601562 L 162 190.800781 L 159 190.800781 Z M 159 9.601562 "/>
</clipPath>
<clipPath id="clip4">
  <path d="M 202 9.601562 L 204 9.601562 L 204 190.800781 L 202 190.800781 Z M 202 9.601562 "/>
</clipPath>
<clipPath id="clip5">
  <path d="M 244 9.601562 L 247 9.601562 L 247 190.800781 L 244 190.800781 Z M 244 9.601562 "/>
</clipPath>
<clipPath id="clip6">
  <path d="M 287 9.601562 L 289 9.601562 L 289 190.800781 L 287 190.800781 Z M 287 9.601562 "/>
</clipPath>
<clipPath id="clip7">
  <path d="M 329 9.601562 L 332 9.601562 L 332 190.800781 L 329 190.800781 Z M 329 9.601562 "/>
</clipPath>
<clipPath id="clip8">
  <path d="M 372 9.601562 L 374 9.601562 L 374 190.800781 L 372 190.800781 Z M 372 9.601562 "/>
</clipPath>
<clipPath id="clip9">
  <path d="M 414 9.601562 L 417 9.601562 L 417 190.800781 L 414 190.800781 Z M 414 9.601562 "/>
</clipPath>
<clipPath id="clip10">
  <path d="M 58.375 181 L 430.375 181 L 430.375 184 L 58.375 184 Z M 58.375 181 "/>
</clipPath>
<clipPath id="clip11">
  <path d="M 58.375 148 L 430.375 148 L 430.375 151 L 58.375 151 Z M 58.375 148 "/>
</clipPath>
<clipPath id="clip12">
  <path d="M 58.375 115 L 430.375 115 L 430.375 118 L 58.375 118 Z M 58.375 115 "/>
</clipPath>
<clipPath id="clip13">
  <path d="M 58.375 82 L 430.375 82 L 430.375 85 L 58.375 85 Z M 58.375 82 "/>
</clipPath>
<clipPath id="clip14">
  <path d="M 58.375 49 L 430.375 49 L 430.375 52 L 58.375 52 Z M 58.375 49 "/>
</clipPath>
<clipPath id="clip15">
  <path d="M 58.375 17 L 430.375 17 L 430.375 19 L 58.375 19 Z M 58.375 17 "/>
</clipPath>
</defs>
<g id="surface1">
<path style=" stroke:none;fill-rule:nonzero;fill:rgb(100%,100%,100%);fill-opacity:1;" d="M 58.375 190.800781 L 430.375 190.800781 L 430.375 9.601562 L 58.375 9.601562 Z M 58.375 190.800781 "/>
<g clip-path="url(#clip1)" clip-rule="nonzero">
<path style="fill:none;stroke-width:0.8;stroke-linecap:square;stroke-linejoin:round;stroke:rgb(69.01961%,69.01961%,69.01961%);stroke-opacity:1;stroke-miterlimit:4;" d="M 56.463867 143.100586 L 56.463867 7.201172 " transform="matrix(1.333333,0,0,1.333333,0.000000000000028422,0)"/>
</g>
<path style="fill:none;stroke-width:0.8;stroke-linecap:butt;stroke-linejoin:round;stroke:rgb(0%,0%,0%);stroke-opacity:1;stroke-miterlimit:4;" d="M 0.000801086 0.000579834 L 0.000801086 3.498627 " transform="matrix(1.333333,0,0,1.333333,75.284088,190.800008)"/>
<path style=" stroke:none;fill-rule:nonzero;fill:rgb(0%,0%,0%);fill-opacity:1;" d="M 66.867188 205.53125 L 75.214844 205.53125 L 75.214844 206.636719 L 66.867188 206.636719 Z M 66.867188 205.53125 "/>
<path style=" stroke:none;fill-rule:nonzero;fill:rgb(0%,0%,0%);fill-opacity:1;" d="M 80.867188 205.648438 C 80.242188 205.648438 79.75 205.816406 79.390625 206.148438 C 79.035156 206.484375 78.855469 206.945312 78.855469 207.527344 C 78.855469 208.117188 79.035156 208.574219 79.390625 208.910156 C 79.75 209.246094 80.242188 209.414062 80.867188 209.414062 C 81.492188 209.414062 81.984375 209.246094 82.34375 208.910156 C 82.703125 208.570312 82.882812 208.109375 82.882812 207.527344 C 82.882812 206.945312 82.703125 206.484375 82.347656 206.148438 C 81.988281 205.816406 81.496094 205.648438 80.867188 205.648438 Z M 79.550781 205.089844 C 78.988281 204.949219 78.546875 204.6875 78.230469 204.300781 C 77.917969 203.914062 77.761719 203.441406 77.761719 202.886719 C 77.761719 202.109375 78.039062 201.496094 78.589844 201.046875 C 79.144531 200.59375 79.902344 200.367188 80.867188 200.367188 C 81.832031 200.367188 82.59375 200.59375 83.144531 201.046875 C 83.695312 201.496094 83.972656 202.109375 83.972656 202.886719 C 83.972656 203.441406 83.8125 203.914062 83.5 204.300781 C 83.183594 204.6875 82.746094 204.949219 82.1875 205.089844 C 82.820312 205.238281 83.316406 205.527344 83.667969 205.957031 C 84.023438 206.386719 84.199219 206.910156 84.199219 207.527344 C 84.199219 208.472656 83.910156 209.195312 83.335938 209.699219 C 82.761719 210.203125 81.9375 210.453125 80.867188 210.453125 C 79.792969 210.453125 78.972656 210.203125 78.394531 209.699219 C 77.820312 209.195312 77.53125 208.472656 77.53125 207.527344 C 77.53125 206.910156 77.710938 206.386719 78.066406 205.957031 C 78.421875 205.527344 78.917969 205.238281 79.550781 205.089844 Z M 79.070312 203.011719 C 79.070312 203.515625 79.226562 203.90625 79.539062 204.191406 C 79.855469 204.472656 80.296875 204.613281 80.867188 204.613281 C 81.429688 204.613281 81.871094 204.472656 82.191406 204.191406 C 82.511719 203.90625 82.667969 203.515625 82.667969 203.011719 C 82.667969 202.507812 82.511719 202.117188 82.191406 201.832031 C 81.871094 201.550781 81.429688 201.410156 80.867188 201.410156 C 80.296875 201.410156 79.855469 201.550781 79.539062 201.832031 C 79.226562 202.117188 79.070312 202.507812 79.070312 203.011719 Z M 79.070312 203.011719 "/>
<g clip-path="url(#clip2)" clip-rule="nonzero">
<path style="fill:none;stroke-width:0.8;stroke-linecap:square;stroke-linejoin:round;stroke:rgb(69.01961%,69.01961%,69.01961%);stroke-opacity:1;stroke-miterlimit:4;" d="M 88.368164 143.100586 L 88.368164 7.201172 " transform="matrix(1.333333,0,0,1.333333,0.000000000000028422,0)"/>
</g>
<path style="fill:none;stroke-width:0.8;stroke-linecap:butt;stroke-linejoin:round;stroke:rgb(0%,0%,0%);stroke-opacity:1;stroke-miterlimit:4;" d="M 0.00115204 0.000579834 L 0.00115204 3.498627 " transform="matrix(1.333333,0,0,1.333333,117.822683,190.800008)"/>
<path style=" stroke:none;fill-rule:nonzero;fill:rgb(0%,0%,0%);fill-opacity:1;" d="M 109.40625 205.53125 L 117.753906 205.53125 L 117.753906 206.636719 L 109.40625 206.636719 Z M 109.40625 205.53125 "/>
<path style=" stroke:none;fill-rule:nonzero;fill:rgb(0%,0%,0%);fill-opacity:1;" d="M 123.570312 204.882812 C 122.976562 204.882812 122.511719 205.082031 122.164062 205.488281 C 121.820312 205.890625 121.648438 206.441406 121.648438 207.144531 C 121.648438 207.84375 121.820312 208.398438 122.164062 208.804688 C 122.511719 209.210938 122.976562 209.414062 123.570312 209.414062 C 124.160156 209.414062 124.625 209.210938 124.96875 208.804688 C 125.316406 208.398438 125.488281 207.84375 125.488281 207.144531 C 125.488281 206.441406 125.316406 205.890625 124.96875 205.488281 C 124.625 205.082031 124.160156 204.882812 123.570312 204.882812 Z M 126.179688 200.757812 L 126.179688 201.957031 C 125.847656 201.800781 125.515625 201.683594 125.179688 201.601562 C 124.84375 201.515625 124.507812 201.476562 124.179688 201.476562 C 123.3125 201.476562 122.648438 201.769531 122.1875 202.355469 C 121.730469 202.941406 121.472656 203.824219 121.40625 205.011719 C 121.660156 204.632812 121.980469 204.34375 122.367188 204.140625 C 122.757812 203.941406 123.183594 203.839844 123.644531 203.839844 C 124.621094 203.839844 125.394531 204.136719 125.960938 204.730469 C 126.527344 205.320312 126.808594 206.125 126.808594 207.144531 C 126.808594 208.144531 126.515625 208.945312 125.925781 209.550781 C 125.335938 210.152344 124.550781 210.453125 123.570312 210.453125 C 122.445312 210.453125 121.582031 210.023438 120.988281 209.164062 C 120.394531 208.300781 120.097656 207.050781 120.097656 205.414062 C 120.097656 203.878906 120.460938 202.652344 121.191406 201.738281 C 121.921875 200.824219 122.898438 200.367188 124.125 200.367188 C 124.457031 200.367188 124.789062 200.402344 125.125 200.464844 C 125.464844 200.53125 125.8125 200.628906 126.179688 200.757812 Z M 126.179688 200.757812 "/>
<g clip-path="url(#clip3)" clip-rule="nonzero">
<path style="fill:none;stroke-width:0.8;stroke-linecap:square;stroke-linejoin:round;stroke:rgb(69.01961%,69.01961%,69.01961%);stroke-opacity:1;stroke-miterlimit:4;" d="M 120.269531 143.100586 L 120.269531 7.201172 " transform="matrix(1.333333,0,0,1.333333,0.000000000000028422,0)"/>
</g>
<path style="fill:none;stroke-width:0.8;stroke-linecap:butt;stroke-linejoin:round;stroke:rgb(0%,0%,0%);stroke-opacity:1;stroke-miterlimit:4;" d="M -0.0014267 0.000579834 L -0.0014267 3.498627 " transform="matrix(1.333333,0,0,1.333333,160.361277,190.800008)"/>
<path style=" stroke:none;fill-rule:nonzero;fill:rgb(0%,0%,0%);fill-opacity:1;" d="M 151.945312 205.53125 L 160.292969 205.53125 L 160.292969 206.636719 L 151.945312 206.636719 Z M 151.945312 205.53125 "/>
<path style=" stroke:none;fill-rule:nonzero;fill:rgb(0%,0%,0%);fill-opacity:1;" d="M 166.746094 201.691406 L 163.421875 206.878906 L 166.746094 206.878906 Z M 166.398438 200.542969 L 168.054688 200.542969 L 168.054688 206.878906 L 169.441406 206.878906 L 169.441406 207.972656 L 168.054688 207.972656 L 168.054688 210.265625 L 166.746094 210.265625 L 166.746094 207.972656 L 162.355469 207.972656 L 162.355469 206.703125 Z M 166.398438 200.542969 "/>
<g clip-path="url(#clip4)" clip-rule="nonzero">
<path style="fill:none;stroke-width:0.8;stroke-linecap:square;stroke-linejoin:round;stroke:rgb(69.01961%,69.01961%,69.01961%);stroke-opacity:1;stroke-miterlimit:4;" d="M 152.173828 143.100586 L 152.173828 7.201172 " transform="matrix(1.333333,0,0,1.333333,0.000000000000028422,0)"/>
</g>
<path style="fill:none;stroke-width:0.8;stroke-linecap:butt;stroke-linejoin:round;stroke:rgb(0%,0%,0%);stroke-opacity:1;stroke-miterlimit:4;" d="M -0.00108337 0.000579834 L -0.00108337 3.498627 " transform="matrix(1.333333,0,0,1.333333,202.899882,190.800008)"/>
<path style=" stroke:none;fill-rule:nonzero;fill:rgb(0%,0%,0%);fill-opacity:1;" d="M 194.484375 205.53125 L 202.832031 205.53125 L 202.832031 206.636719 L 194.484375 206.636719 Z M 194.484375 205.53125 "/>
<path style=" stroke:none;fill-rule:nonzero;fill:rgb(0%,0%,0%);fill-opacity:1;" d="M 206.800781 209.160156 L 211.390625 209.160156 L 211.390625 210.265625 L 205.222656 210.265625 L 205.222656 209.160156 C 205.71875 208.640625 206.398438 207.949219 207.261719 207.078125 C 208.121094 206.207031 208.664062 205.648438 208.886719 205.394531 C 209.304688 204.921875 209.601562 204.523438 209.765625 204.195312 C 209.933594 203.867188 210.019531 203.542969 210.019531 203.226562 C 210.019531 202.710938 209.835938 202.289062 209.476562 201.964844 C 209.113281 201.636719 208.640625 201.476562 208.058594 201.476562 C 207.644531 201.476562 207.210938 201.546875 206.753906 201.691406 C 206.296875 201.832031 205.804688 202.050781 205.285156 202.339844 L 205.285156 201.011719 C 205.816406 200.800781 206.308594 200.640625 206.769531 200.53125 C 207.230469 200.421875 207.652344 200.367188 208.035156 200.367188 C 209.039062 200.367188 209.84375 200.621094 210.441406 201.125 C 211.039062 201.628906 211.339844 202.300781 211.339844 203.140625 C 211.339844 203.542969 211.265625 203.921875 211.113281 204.277344 C 210.964844 204.636719 210.695312 205.058594 210.296875 205.542969 C 210.191406 205.671875 209.84375 206.035156 209.261719 206.636719 C 208.683594 207.238281 207.863281 208.078125 206.800781 209.160156 Z M 206.800781 209.160156 "/>
<g clip-path="url(#clip5)" clip-rule="nonzero">
<path style="fill:none;stroke-width:0.8;stroke-linecap:square;stroke-linejoin:round;stroke:rgb(69.01961%,69.01961%,69.01961%);stroke-opacity:1;stroke-miterlimit:4;" d="M 184.078125 143.100586 L 184.078125 7.201172 " transform="matrix(1.333333,0,0,1.333333,0.000000000000028422,0)"/>
</g>
<path style="fill:none;stroke-width:0.8;stroke-linecap:butt;stroke-linejoin:round;stroke:rgb(0%,0%,0%);stroke-opacity:1;stroke-miterlimit:4;" d="M -0.000732422 0.000579834 L -0.000732422 3.498627 " transform="matrix(1.333333,0,0,1.333333,245.438477,190.800008)"/>
<path style=" stroke:none;fill-rule:nonzero;fill:rgb(0%,0%,0%);fill-opacity:1;" d="M 245.433594 201.410156 C 244.757812 201.410156 244.25 201.742188 243.90625 202.410156 C 243.566406 203.074219 243.398438 204.078125 243.398438 205.414062 C 243.398438 206.746094 243.566406 207.746094 243.90625 208.414062 C 244.25 209.078125 244.757812 209.414062 245.433594 209.414062 C 246.117188 209.414062 246.628906 209.078125 246.96875 208.414062 C 247.308594 207.746094 247.480469 206.746094 247.480469 205.414062 C 247.480469 204.078125 247.308594 203.074219 246.96875 202.410156 C 246.628906 201.742188 246.117188 201.410156 245.433594 201.410156 Z M 245.433594 200.367188 C 246.523438 200.367188 247.355469 200.800781 247.933594 201.664062 C 248.507812 202.523438 248.792969 203.773438 248.792969 205.414062 C 248.792969 207.050781 248.507812 208.300781 247.933594 209.164062 C 247.355469 210.023438 246.523438 210.453125 245.433594 210.453125 C 244.34375 210.453125 243.511719 210.023438 242.9375 209.164062 C 242.363281 208.300781 242.074219 207.050781 242.074219 205.414062 C 242.074219 203.773438 242.363281 202.523438 242.9375 201.664062 C 243.511719 200.800781 244.34375 200.367188 245.433594 200.367188 Z M 245.433594 200.367188 "/>
<g clip-path="url(#clip6)" clip-rule="nonzero">
<path style="fill:none;stroke-width:0.8;stroke-linecap:square;stroke-linejoin:round;stroke:rgb(69.01961%,69.01961%,69.01961%);stroke-opacity:1;stroke-miterlimit:4;" d="M 215.982422 143.100586 L 215.982422 7.201172 " transform="matrix(1.333333,0,0,1.333333,0.000000000000028422,0)"/>
</g>
<path style="fill:none;stroke-width:0.8;stroke-linecap:butt;stroke-linejoin:round;stroke:rgb(0%,0%,0%);stroke-opacity:1;stroke-miterlimit:4;" d="M -0.00038147 0.000579834 L -0.00038147 3.498627 " transform="matrix(1.333333,0,0,1.333333,287.977071,190.800008)"/>
<path style=" stroke:none;fill-rule:nonzero;fill:rgb(0%,0%,0%);fill-opacity:1;" d="M 286.292969 209.160156 L 290.882812 209.160156 L 290.882812 210.265625 L 284.710938 210.265625 L 284.710938 209.160156 C 285.210938 208.640625 285.890625 207.949219 286.753906 207.078125 C 287.613281 206.207031 288.15625 205.648438 288.378906 205.394531 C 288.796875 204.921875 289.089844 204.523438 289.257812 204.195312 C 289.425781 203.867188 289.511719 203.542969 289.511719 203.226562 C 289.511719 202.710938 289.328125 202.289062 288.964844 201.964844 C 288.605469 201.636719 288.132812 201.476562 287.550781 201.476562 C 287.136719 201.476562 286.703125 201.546875 286.242188 201.691406 C 285.785156 201.832031 285.296875 202.050781 284.777344 202.339844 L 284.777344 201.011719 C 285.304688 200.800781 285.800781 200.640625 286.261719 200.53125 C 286.722656 200.421875 287.144531 200.367188 287.523438 200.367188 C 288.53125 200.367188 289.335938 200.621094 289.933594 201.125 C 290.53125 201.628906 290.832031 202.300781 290.832031 203.140625 C 290.832031 203.542969 290.757812 203.921875 290.605469 204.277344 C 290.457031 204.636719 290.183594 205.058594 289.789062 205.542969 C 289.679688 205.671875 289.335938 206.035156 288.753906 206.636719 C 288.171875 207.238281 287.351562 208.078125 286.292969 209.160156 Z M 286.292969 209.160156 "/>
<g clip-path="url(#clip7)" clip-rule="nonzero">
<path style="fill:none;stroke-width:0.8;stroke-linecap:square;stroke-linejoin:round;stroke:rgb(69.01961%,69.01961%,69.01961%);stroke-opacity:1;stroke-miterlimit:4;" d="M 247.886719 143.100586 L 247.886719 7.201172 " transform="matrix(1.333333,0,0,1.333333,0.000000000000028422,0)"/>
</g>
<path style="fill:none;stroke-width:0.8;stroke-linecap:butt;stroke-linejoin:round;stroke:rgb(0%,0%,0%);stroke-opacity:1;stroke-miterlimit:4;" d="M -0.0000305176 0.000579834 L -0.0000305176 3.498627 " transform="matrix(1.333333,0,0,1.333333,330.515666,190.800008)"/>
<path style=" stroke:none;fill-rule:nonzero;fill:rgb(0%,0%,0%);fill-opacity:1;" d="M 331.3125 201.691406 L 327.992188 206.878906 L 331.3125 206.878906 Z M 330.96875 200.542969 L 332.621094 200.542969 L 332.621094 206.878906 L 334.007812 206.878906 L 334.007812 207.972656 L 332.621094 207.972656 L 332.621094 210.265625 L 331.3125 210.265625 L 331.3125 207.972656 L 326.925781 207.972656 L 326.925781 206.703125 Z M 330.96875 200.542969 "/>
<g clip-path="url(#clip8)" clip-rule="nonzero">
<path style="fill:none;stroke-width:0.8;stroke-linecap:square;stroke-linejoin:round;stroke:rgb(69.01961%,69.01961%,69.01961%);stroke-opacity:1;stroke-miterlimit:4;" d="M 279.791016 143.100586 L 279.791016 7.201172 " transform="matrix(1.333333,0,0,1.333333,0.000000000000028422,0)"/>
</g>
<path style="fill:none;stroke-width:0.8;stroke-linecap:butt;stroke-linejoin:round;stroke:rgb(0%,0%,0%);stroke-opacity:1;stroke-miterlimit:4;" d="M 0.000335693 0.000579834 L 0.000335693 3.498627 " transform="matrix(1.333333,0,0,1.333333,373.05424,190.800008)"/>
<path style=" stroke:none;fill-rule:nonzero;fill:rgb(0%,0%,0%);fill-opacity:1;" d="M 373.214844 204.882812 C 372.625 204.882812 372.15625 205.082031 371.808594 205.488281 C 371.464844 205.890625 371.292969 206.441406 371.292969 207.144531 C 371.292969 207.84375 371.464844 208.398438 371.808594 208.804688 C 372.15625 209.210938 372.625 209.414062 373.214844 209.414062 C 373.804688 209.414062 374.273438 209.210938 374.617188 208.804688 C 374.960938 208.398438 375.132812 207.84375 375.132812 207.144531 C 375.132812 206.441406 374.960938 205.890625 374.617188 205.488281 C 374.273438 205.082031 373.804688 204.882812 373.214844 204.882812 Z M 375.824219 200.757812 L 375.824219 201.957031 C 375.496094 201.800781 375.160156 201.683594 374.824219 201.601562 C 374.488281 201.515625 374.15625 201.476562 373.824219 201.476562 C 372.957031 201.476562 372.292969 201.769531 371.835938 202.355469 C 371.378906 202.941406 371.117188 203.824219 371.050781 205.011719 C 371.308594 204.632812 371.628906 204.34375 372.015625 204.140625 C 372.402344 203.941406 372.828125 203.839844 373.292969 203.839844 C 374.269531 203.839844 375.039062 204.136719 375.605469 204.730469 C 376.171875 205.320312 376.457031 206.125 376.457031 207.144531 C 376.457031 208.144531 376.160156 208.945312 375.570312 209.550781 C 374.980469 210.152344 374.195312 210.453125 373.214844 210.453125 C 372.089844 210.453125 371.230469 210.023438 370.636719 209.164062 C 370.042969 208.300781 369.742188 207.050781 369.742188 205.414062 C 369.742188 203.878906 370.109375 202.652344 370.835938 201.738281 C 371.566406 200.824219 372.546875 200.367188 373.773438 200.367188 C 374.105469 200.367188 374.4375 200.402344 374.773438 200.464844 C 375.109375 200.53125 375.460938 200.628906 375.824219 200.757812 Z M 375.824219 200.757812 "/>
<g clip-path="url(#clip9)" clip-rule="nonzero">
<path style="fill:none;stroke-width:0.8;stroke-linecap:square;stroke-linejoin:round;stroke:rgb(69.01961%,69.01961%,69.01961%);stroke-opacity:1;stroke-miterlimit:4;" d="M 311.695312 143.100586 L 311.695312 7.201172 " transform="matrix(1.333333,0,0,1.333333,0.000000000000028422,0)"/>
</g>
<path style="fill:none;stroke-width:0.8;stroke-linecap:butt;stroke-linejoin:round;stroke:rgb(0%,0%,0%);stroke-opacity:1;stroke-miterlimit:4;" d="M 0.000671387 0.000579834 L 0.000671387 3.498627 " transform="matrix(1.333333,0,0,1.333333,415.592855,190.800008)"/>
<path style=" stroke:none;fill-rule:nonzero;fill:rgb(0%,0%,0%);fill-opacity:1;" d="M 415.589844 205.648438 C 414.964844 205.648438 414.472656 205.816406 414.113281 206.148438 C 413.757812 206.484375 413.578125 206.945312 413.578125 207.527344 C 413.578125 208.117188 413.757812 208.574219 414.113281 208.910156 C 414.472656 209.246094 414.964844 209.414062 415.589844 209.414062 C 416.214844 209.414062 416.707031 209.246094 417.066406 208.910156 C 417.425781 208.570312 417.609375 208.109375 417.609375 207.527344 C 417.609375 206.945312 417.429688 206.484375 417.070312 206.148438 C 416.714844 205.816406 416.21875 205.648438 415.589844 205.648438 Z M 414.273438 205.089844 C 413.710938 204.949219 413.269531 204.6875 412.957031 204.300781 C 412.640625 203.914062 412.484375 203.441406 412.484375 202.886719 C 412.484375 202.109375 412.761719 201.496094 413.3125 201.046875 C 413.867188 200.59375 414.625 200.367188 415.589844 200.367188 C 416.558594 200.367188 417.316406 200.59375 417.867188 201.046875 C 418.417969 201.496094 418.695312 202.109375 418.695312 202.886719 C 418.695312 203.441406 418.539062 203.914062 418.222656 204.300781 C 417.90625 204.6875 417.472656 204.949219 416.910156 205.089844 C 417.546875 205.238281 418.039062 205.527344 418.390625 205.957031 C 418.746094 206.386719 418.921875 206.910156 418.921875 207.527344 C 418.921875 208.472656 418.632812 209.195312 418.058594 209.699219 C 417.484375 210.203125 416.660156 210.453125 415.589844 210.453125 C 414.519531 210.453125 413.695312 210.203125 413.117188 209.699219 C 412.542969 209.195312 412.253906 208.472656 412.253906 207.527344 C 412.253906 206.910156 412.433594 206.386719 412.789062 205.957031 C 413.144531 205.527344 413.640625 205.238281 414.273438 205.089844 Z M 413.792969 203.011719 C 413.792969 203.515625 413.949219 203.90625 414.265625 204.191406 C 414.578125 204.472656 415.019531 204.613281 415.589844 204.613281 C 416.152344 204.613281 416.59375 204.472656 416.914062 204.191406 C 417.234375 203.90625 417.394531 203.515625 417.394531 203.011719 C 417.394531 202.507812 417.234375 202.117188 416.914062 201.832031 C 416.59375 201.550781 416.152344 201.410156 415.589844 201.410156 C 415.019531 201.410156 414.578125 201.550781 414.265625 201.832031 C 413.949219 202.117188 413.792969 202.507812 413.792969 203.011719 Z M 413.792969 203.011719 "/>
<path style=" stroke:none;fill-rule:nonzero;fill:rgb(0%,0%,0%);fill-opacity:1;" d="M 247.746094 221.210938 L 245.109375 224.757812 L 247.882812 228.503906 L 246.472656 228.503906 L 244.347656 225.636719 L 242.226562 228.503906 L 240.8125 228.503906 L 243.644531 224.6875 L 241.054688 221.210938 L 242.464844 221.210938 L 244.398438 223.808594 L 246.332031 221.210938 Z M 247.746094 221.210938 "/>
<g clip-path="url(#clip10)" clip-rule="nonzero">
<path style="fill:none;stroke-width:0.8;stroke-linecap:square;stroke-linejoin:round;stroke:rgb(69.01961%,69.01961%,69.01961%);stroke-opacity:1;stroke-miterlimit:4;" d="M 43.78125 136.962891 L 322.78125 136.962891 " transform="matrix(1.333333,0,0,1.333333,0.000000000000028422,0)"/>
</g>
<path style="fill:none;stroke-width:0.8;stroke-linecap:butt;stroke-linejoin:round;stroke:rgb(0%,0%,0%);stroke-opacity:1;stroke-miterlimit:4;" d="M -0.000000000000021316 -0.001297 L -3.500977 -0.001297 " transform="matrix(1.333333,0,0,1.333333,58.375,182.618917)"/>
<path style=" stroke:none;fill-rule:nonzero;fill:rgb(0%,0%,0%);fill-opacity:1;" d="M 32.074219 178.832031 C 31.398438 178.832031 30.890625 179.164062 30.546875 179.832031 C 30.207031 180.496094 30.039062 181.496094 30.039062 182.835938 C 30.039062 184.167969 30.207031 185.164062 30.546875 185.832031 C 30.890625 186.5 31.398438 186.832031 32.074219 186.832031 C 32.757812 186.832031 33.269531 186.5 33.609375 185.832031 C 33.949219 185.164062 34.121094 184.167969 34.121094 182.835938 C 34.121094 181.496094 33.949219 180.496094 33.609375 179.832031 C 33.269531 179.164062 32.757812 178.832031 32.074219 178.832031 Z M 32.074219 177.789062 C 33.164062 177.789062 33.996094 178.21875 34.574219 179.082031 C 35.148438 179.945312 35.433594 181.195312 35.433594 182.835938 C 35.433594 184.46875 35.148438 185.71875 34.574219 186.582031 C 33.996094 187.445312 33.164062 187.875 32.074219 187.875 C 30.984375 187.875 30.152344 187.445312 29.578125 186.582031 C 29.003906 185.71875 28.714844 184.46875 28.714844 182.835938 C 28.714844 181.195312 29.003906 179.945312 29.578125 179.082031 C 30.152344 178.21875 30.984375 177.789062 32.074219 177.789062 Z M 32.074219 177.789062 "/>
<path style=" stroke:none;fill-rule:nonzero;fill:rgb(0%,0%,0%);fill-opacity:1;" d="M 37.746094 186.03125 L 39.121094 186.03125 L 39.121094 187.683594 L 37.746094 187.683594 Z M 37.746094 186.03125 "/>
<path style=" stroke:none;fill-rule:nonzero;fill:rgb(0%,0%,0%);fill-opacity:1;" d="M 44.796875 178.832031 C 44.121094 178.832031 43.609375 179.164062 43.269531 179.832031 C 42.929688 180.496094 42.757812 181.496094 42.757812 182.835938 C 42.757812 184.167969 42.929688 185.164062 43.269531 185.832031 C 43.609375 186.5 44.121094 186.832031 44.796875 186.832031 C 45.476562 186.832031 45.988281 186.5 46.328125 185.832031 C 46.671875 185.164062 46.84375 184.167969 46.84375 182.835938 C 46.84375 181.496094 46.671875 180.496094 46.328125 179.832031 C 45.988281 179.164062 45.476562 178.832031 44.796875 178.832031 Z M 44.796875 177.789062 C 45.886719 177.789062 46.71875 178.21875 47.292969 179.082031 C 47.871094 179.945312 48.15625 181.195312 48.15625 182.835938 C 48.15625 184.46875 47.871094 185.71875 47.292969 186.582031 C 46.71875 187.445312 45.886719 187.875 44.796875 187.875 C 43.707031 187.875 42.875 187.445312 42.300781 186.582031 C 41.726562 185.71875 41.4375 184.46875 41.4375 182.835938 C 41.4375 181.195312 41.726562 179.945312 42.300781 179.082031 C 42.875 178.21875 43.707031 177.789062 44.796875 177.789062 Z M 44.796875 177.789062 "/>
<g clip-path="url(#clip11)" clip-rule="nonzero">
<path style="fill:none;stroke-width:0.8;stroke-linecap:square;stroke-linejoin:round;stroke:rgb(69.01961%,69.01961%,69.01961%);stroke-opacity:1;stroke-miterlimit:4;" d="M 43.78125 112.236328 L 322.78125 112.236328 " transform="matrix(1.333333,0,0,1.333333,0.000000000000028422,0)"/>
</g>
<path style="fill:none;stroke-width:0.8;stroke-linecap:butt;stroke-linejoin:round;stroke:rgb(0%,0%,0%);stroke-opacity:1;stroke-miterlimit:4;" d="M -0.000000000000021316 -0.00131226 L -3.500977 -0.00131226 " transform="matrix(1.333333,0,0,1.333333,58.375,149.650187)"/>
<path style=" stroke:none;fill-rule:nonzero;fill:rgb(0%,0%,0%);fill-opacity:1;" d="M 32.074219 145.863281 C 31.398438 145.863281 30.890625 146.195312 30.546875 146.863281 C 30.207031 147.527344 30.039062 148.527344 30.039062 149.867188 C 30.039062 151.199219 30.207031 152.195312 30.546875 152.863281 C 30.890625 153.53125 31.398438 153.863281 32.074219 153.863281 C 32.757812 153.863281 33.269531 153.53125 33.609375 152.863281 C 33.949219 152.195312 34.121094 151.199219 34.121094 149.867188 C 34.121094 148.527344 33.949219 147.527344 33.609375 146.863281 C 33.269531 146.195312 32.757812 145.863281 32.074219 145.863281 Z M 32.074219 144.820312 C 33.164062 144.820312 33.996094 145.25 34.574219 146.113281 C 35.148438 146.976562 35.433594 148.226562 35.433594 149.867188 C 35.433594 151.5 35.148438 152.75 34.574219 153.613281 C 33.996094 154.476562 33.164062 154.90625 32.074219 154.90625 C 30.984375 154.90625 30.152344 154.476562 29.578125 153.613281 C 29.003906 152.75 28.714844 151.5 28.714844 149.867188 C 28.714844 148.226562 29.003906 146.976562 29.578125 146.113281 C 30.152344 145.25 30.984375 144.820312 32.074219 144.820312 Z M 32.074219 144.820312 "/>
<path style=" stroke:none;fill-rule:nonzero;fill:rgb(0%,0%,0%);fill-opacity:1;" d="M 37.746094 153.0625 L 39.121094 153.0625 L 39.121094 154.714844 L 37.746094 154.714844 Z M 37.746094 153.0625 "/>
<path style=" stroke:none;fill-rule:nonzero;fill:rgb(0%,0%,0%);fill-opacity:1;" d="M 43.117188 153.609375 L 47.707031 153.609375 L 47.707031 154.714844 L 41.535156 154.714844 L 41.535156 153.609375 C 42.035156 153.09375 42.714844 152.398438 43.574219 151.53125 C 44.4375 150.660156 44.980469 150.097656 45.199219 149.84375 C 45.621094 149.371094 45.914062 148.972656 46.082031 148.644531 C 46.25 148.316406 46.332031 147.996094 46.332031 147.679688 C 46.332031 147.160156 46.152344 146.742188 45.789062 146.414062 C 45.425781 146.089844 44.957031 145.925781 44.375 145.925781 C 43.960938 145.925781 43.527344 145.996094 43.066406 146.140625 C 42.609375 146.285156 42.121094 146.5 41.601562 146.792969 L 41.601562 145.464844 C 42.128906 145.25 42.625 145.089844 43.082031 144.984375 C 43.546875 144.875 43.964844 144.820312 44.347656 144.820312 C 45.355469 144.820312 46.15625 145.070312 46.757812 145.578125 C 47.355469 146.078125 47.65625 146.75 47.65625 147.59375 C 47.65625 147.992188 47.578125 148.371094 47.429688 148.730469 C 47.28125 149.085938 47.007812 149.507812 46.613281 149.996094 C 46.503906 150.121094 46.160156 150.484375 45.578125 151.085938 C 44.996094 151.6875 44.175781 152.527344 43.117188 153.609375 Z M 43.117188 153.609375 "/>
<g clip-path="url(#clip12)" clip-rule="nonzero">
<path style="fill:none;stroke-width:0.8;stroke-linecap:square;stroke-linejoin:round;stroke:rgb(69.01961%,69.01961%,69.01961%);stroke-opacity:1;stroke-miterlimit:4;" d="M 43.78125 87.509766 L 322.78125 87.509766 " transform="matrix(1.333333,0,0,1.333333,0.000000000000028422,0)"/>
</g>
<path style="fill:none;stroke-width:0.8;stroke-linecap:butt;stroke-linejoin:round;stroke:rgb(0%,0%,0%);stroke-opacity:1;stroke-miterlimit:4;" d="M -0.000000000000021316 -0.00132751 L -3.500977 -0.00132751 " transform="matrix(1.333333,0,0,1.333333,58.375,116.681458)"/>
<path style=" stroke:none;fill-rule:nonzero;fill:rgb(0%,0%,0%);fill-opacity:1;" d="M 32.074219 112.894531 C 31.398438 112.894531 30.890625 113.226562 30.546875 113.894531 C 30.207031 114.558594 30.039062 115.558594 30.039062 116.898438 C 30.039062 118.230469 30.207031 119.226562 30.546875 119.894531 C 30.890625 120.5625 31.398438 120.894531 32.074219 120.894531 C 32.757812 120.894531 33.269531 120.5625 33.609375 119.894531 C 33.949219 119.226562 34.121094 118.230469 34.121094 116.898438 C 34.121094 115.558594 33.949219 114.558594 33.609375 113.894531 C 33.269531 113.226562 32.757812 112.894531 32.074219 112.894531 Z M 32.074219 111.851562 C 33.164062 111.851562 33.996094 112.28125 34.574219 113.144531 C 35.148438 114.007812 35.433594 115.257812 35.433594 116.898438 C 35.433594 118.53125 35.148438 119.78125 34.574219 120.644531 C 33.996094 121.507812 33.164062 121.9375 32.074219 121.9375 C 30.984375 121.9375 30.152344 121.507812 29.578125 120.644531 C 29.003906 119.78125 28.714844 118.53125 28.714844 116.898438 C 28.714844 115.257812 29.003906 114.007812 29.578125 113.144531 C 30.152344 112.28125 30.984375 111.851562 32.074219 111.851562 Z M 32.074219 111.851562 "/>
<path style=" stroke:none;fill-rule:nonzero;fill:rgb(0%,0%,0%);fill-opacity:1;" d="M 37.746094 120.09375 L 39.121094 120.09375 L 39.121094 121.746094 L 37.746094 121.746094 Z M 37.746094 120.09375 "/>
<path style=" stroke:none;fill-rule:nonzero;fill:rgb(0%,0%,0%);fill-opacity:1;" d="M 45.597656 113.171875 L 42.277344 118.363281 L 45.597656 118.363281 Z M 45.253906 112.027344 L 46.90625 112.027344 L 46.90625 118.363281 L 48.292969 118.363281 L 48.292969 119.457031 L 46.90625 119.457031 L 46.90625 121.746094 L 45.597656 121.746094 L 45.597656 119.457031 L 41.210938 119.457031 L 41.210938 118.1875 Z M 45.253906 112.027344 "/>
<g clip-path="url(#clip13)" clip-rule="nonzero">
<path style="fill:none;stroke-width:0.8;stroke-linecap:square;stroke-linejoin:round;stroke:rgb(69.01961%,69.01961%,69.01961%);stroke-opacity:1;stroke-miterlimit:4;" d="M 43.78125 62.783203 L 322.78125 62.783203 " transform="matrix(1.333333,0,0,1.333333,0.000000000000028422,0)"/>
</g>
<path style="fill:none;stroke-width:0.8;stroke-linecap:butt;stroke-linejoin:round;stroke:rgb(0%,0%,0%);stroke-opacity:1;stroke-miterlimit:4;" d="M -0.000000000000021316 -0.00134277 L -3.500977 -0.00134277 " transform="matrix(1.333333,0,0,1.333333,58.375,83.712728)"/>
<path style=" stroke:none;fill-rule:nonzero;fill:rgb(0%,0%,0%);fill-opacity:1;" d="M 32.074219 79.925781 C 31.398438 79.925781 30.890625 80.257812 30.546875 80.925781 C 30.207031 81.589844 30.039062 82.589844 30.039062 83.929688 C 30.039062 85.261719 30.207031 86.257812 30.546875 86.925781 C 30.890625 87.59375 31.398438 87.925781 32.074219 87.925781 C 32.757812 87.925781 33.269531 87.59375 33.609375 86.925781 C 33.949219 86.257812 34.121094 85.261719 34.121094 83.929688 C 34.121094 82.589844 33.949219 81.589844 33.609375 80.925781 C 33.269531 80.257812 32.757812 79.925781 32.074219 79.925781 Z M 32.074219 78.882812 C 33.164062 78.882812 33.996094 79.3125 34.574219 80.175781 C 35.148438 81.039062 35.433594 82.289062 35.433594 83.929688 C 35.433594 85.566406 35.148438 86.8125 34.574219 87.675781 C 33.996094 88.539062 33.164062 88.96875 32.074219 88.96875 C 30.984375 88.96875 30.152344 88.539062 29.578125 87.675781 C 29.003906 86.8125 28.714844 85.566406 28.714844 83.929688 C 28.714844 82.289062 29.003906 81.039062 29.578125 80.175781 C 30.152344 79.3125 30.984375 78.882812 32.074219 78.882812 Z M 32.074219 78.882812 "/>
<path style=" stroke:none;fill-rule:nonzero;fill:rgb(0%,0%,0%);fill-opacity:1;" d="M 37.746094 87.125 L 39.121094 87.125 L 39.121094 88.777344 L 37.746094 88.777344 Z M 37.746094 87.125 "/>
<path style=" stroke:none;fill-rule:nonzero;fill:rgb(0%,0%,0%);fill-opacity:1;" d="M 44.960938 83.394531 C 44.371094 83.394531 43.902344 83.597656 43.558594 84 C 43.210938 84.402344 43.039062 84.957031 43.039062 85.660156 C 43.039062 86.359375 43.210938 86.910156 43.558594 87.316406 C 43.902344 87.722656 44.371094 87.925781 44.960938 87.925781 C 45.550781 87.925781 46.019531 87.722656 46.363281 87.316406 C 46.707031 86.910156 46.878906 86.359375 46.878906 85.660156 C 46.878906 84.957031 46.707031 84.402344 46.363281 84 C 46.019531 83.597656 45.550781 83.394531 44.960938 83.394531 Z M 47.570312 79.273438 L 47.570312 80.46875 C 47.242188 80.316406 46.90625 80.195312 46.570312 80.113281 C 46.234375 80.03125 45.902344 79.988281 45.570312 79.988281 C 44.703125 79.988281 44.039062 80.28125 43.582031 80.867188 C 43.125 81.453125 42.863281 82.339844 42.796875 83.523438 C 43.054688 83.144531 43.375 82.855469 43.761719 82.65625 C 44.148438 82.453125 44.574219 82.351562 45.039062 82.351562 C 46.015625 82.351562 46.785156 82.648438 47.351562 83.242188 C 47.917969 83.835938 48.203125 84.640625 48.203125 85.660156 C 48.203125 86.660156 47.90625 87.460938 47.316406 88.0625 C 46.726562 88.667969 45.941406 88.96875 44.960938 88.96875 C 43.835938 88.96875 42.976562 88.539062 42.382812 87.675781 C 41.789062 86.8125 41.488281 85.566406 41.488281 83.929688 C 41.488281 82.390625 41.855469 81.167969 42.582031 80.253906 C 43.3125 79.339844 44.292969 78.882812 45.519531 78.882812 C 45.851562 78.882812 46.183594 78.914062 46.519531 78.980469 C 46.855469 79.046875 47.207031 79.144531 47.570312 79.273438 Z M 47.570312 79.273438 "/>
<g clip-path="url(#clip14)" clip-rule="nonzero">
<path style="fill:none;stroke-width:0.8;stroke-linecap:square;stroke-linejoin:round;stroke:rgb(69.01961%,69.01961%,69.01961%);stroke-opacity:1;stroke-miterlimit:4;" d="M 43.78125 38.056641 L 322.78125 38.056641 " transform="matrix(1.333333,0,0,1.333333,0.000000000000028422,0)"/>
</g>
<path style="fill:none;stroke-width:0.8;stroke-linecap:butt;stroke-linejoin:round;stroke:rgb(0%,0%,0%);stroke-opacity:1;stroke-miterlimit:4;" d="M -0.000000000000021316 -0.00135803 L -3.500977 -0.00135803 " transform="matrix(1.333333,0,0,1.333333,58.375,50.743998)"/>
<path style=" stroke:none;fill-rule:nonzero;fill:rgb(0%,0%,0%);fill-opacity:1;" d="M 32.074219 46.957031 C 31.398438 46.957031 30.890625 47.289062 30.546875 47.957031 C 30.207031 48.621094 30.039062 49.621094 30.039062 50.960938 C 30.039062 52.292969 30.207031 53.289062 30.546875 53.957031 C 30.890625 54.625 31.398438 54.957031 32.074219 54.957031 C 32.757812 54.957031 33.269531 54.625 33.609375 53.957031 C 33.949219 53.289062 34.121094 52.292969 34.121094 50.960938 C 34.121094 49.621094 33.949219 48.621094 33.609375 47.957031 C 33.269531 47.289062 32.757812 46.957031 32.074219 46.957031 Z M 32.074219 45.914062 C 33.164062 45.914062 33.996094 46.34375 34.574219 47.207031 C 35.148438 48.070312 35.433594 49.320312 35.433594 50.960938 C 35.433594 52.597656 35.148438 53.84375 34.574219 54.707031 C 33.996094 55.570312 33.164062 56 32.074219 56 C 30.984375 56 30.152344 55.570312 29.578125 54.707031 C 29.003906 53.84375 28.714844 52.597656 28.714844 50.960938 C 28.714844 49.320312 29.003906 48.070312 29.578125 47.207031 C 30.152344 46.34375 30.984375 45.914062 32.074219 45.914062 Z M 32.074219 45.914062 "/>
<path style=" stroke:none;fill-rule:nonzero;fill:rgb(0%,0%,0%);fill-opacity:1;" d="M 37.746094 54.15625 L 39.121094 54.15625 L 39.121094 55.808594 L 37.746094 55.808594 Z M 37.746094 54.15625 "/>
<path style=" stroke:none;fill-rule:nonzero;fill:rgb(0%,0%,0%);fill-opacity:1;" d="M 44.796875 51.191406 C 44.171875 51.191406 43.679688 51.359375 43.320312 51.695312 C 42.964844 52.03125 42.785156 52.488281 42.785156 53.074219 C 42.785156 53.660156 42.964844 54.121094 43.320312 54.457031 C 43.679688 54.789062 44.171875 54.957031 44.796875 54.957031 C 45.421875 54.957031 45.914062 54.789062 46.273438 54.453125 C 46.632812 54.117188 46.816406 53.65625 46.816406 53.074219 C 46.816406 52.488281 46.636719 52.03125 46.277344 51.695312 C 45.921875 51.359375 45.425781 51.191406 44.796875 51.191406 Z M 43.480469 50.632812 C 42.917969 50.496094 42.476562 50.234375 42.164062 49.847656 C 41.847656 49.460938 41.691406 48.988281 41.691406 48.433594 C 41.691406 47.65625 41.96875 47.042969 42.519531 46.589844 C 43.074219 46.140625 43.832031 45.914062 44.796875 45.914062 C 45.765625 45.914062 46.523438 46.140625 47.074219 46.589844 C 47.625 47.042969 47.902344 47.65625 47.902344 48.433594 C 47.902344 48.988281 47.746094 49.460938 47.429688 49.847656 C 47.117188 50.234375 46.679688 50.496094 46.121094 50.632812 C 46.753906 50.78125 47.246094 51.070312 47.597656 51.5 C 47.953125 51.929688 48.128906 52.453125 48.128906 53.074219 C 48.128906 54.015625 47.84375 54.742188 47.265625 55.246094 C 46.691406 55.746094 45.867188 56 44.796875 56 C 43.726562 56 42.902344 55.746094 42.324219 55.246094 C 41.75 54.742188 41.464844 54.015625 41.464844 53.074219 C 41.464844 52.453125 41.640625 51.929688 41.996094 51.5 C 42.351562 51.070312 42.847656 50.78125 43.480469 50.632812 Z M 43 48.558594 C 43 49.058594 43.15625 49.453125 43.472656 49.734375 C 43.785156 50.015625 44.226562 50.15625 44.796875 50.15625 C 45.363281 50.15625 45.804688 50.015625 46.121094 49.734375 C 46.441406 49.453125 46.601562 49.058594 46.601562 48.558594 C 46.601562 48.054688 46.441406 47.660156 46.121094 47.378906 C 45.804688 47.097656 45.363281 46.957031 44.796875 46.957031 C 44.226562 46.957031 43.785156 47.097656 43.472656 47.378906 C 43.15625 47.660156 43 48.054688 43 48.558594 Z M 43 48.558594 "/>
<g clip-path="url(#clip15)" clip-rule="nonzero">
<path style="fill:none;stroke-width:0.8;stroke-linecap:square;stroke-linejoin:round;stroke:rgb(69.01961%,69.01961%,69.01961%);stroke-opacity:1;stroke-miterlimit:4;" d="M 43.78125 13.330078 L 322.78125 13.330078 " transform="matrix(1.333333,0,0,1.333333,0.000000000000028422,0)"/>
</g>
<path style="fill:none;stroke-width:0.8;stroke-linecap:butt;stroke-linejoin:round;stroke:rgb(0%,0%,0%);stroke-opacity:1;stroke-miterlimit:4;" d="M -0.000000000000021316 -0.00137424 L -3.500977 -0.00137424 " transform="matrix(1.333333,0,0,1.333333,58.375,17.77527)"/>
<path style=" stroke:none;fill-rule:nonzero;fill:rgb(0%,0%,0%);fill-opacity:1;" d="M 29.492188 21.734375 L 31.640625 21.734375 L 31.640625 14.316406 L 29.300781 14.785156 L 29.300781 13.589844 L 31.628906 13.121094 L 32.941406 13.121094 L 32.941406 21.734375 L 35.089844 21.734375 L 35.089844 22.839844 L 29.492188 22.839844 Z M 29.492188 21.734375 "/>
<path style=" stroke:none;fill-rule:nonzero;fill:rgb(0%,0%,0%);fill-opacity:1;" d="M 37.746094 21.1875 L 39.121094 21.1875 L 39.121094 22.839844 L 37.746094 22.839844 Z M 37.746094 21.1875 "/>
<path style=" stroke:none;fill-rule:nonzero;fill:rgb(0%,0%,0%);fill-opacity:1;" d="M 44.796875 13.988281 C 44.121094 13.988281 43.609375 14.320312 43.269531 14.988281 C 42.929688 15.652344 42.757812 16.652344 42.757812 17.992188 C 42.757812 19.324219 42.929688 20.320312 43.269531 20.988281 C 43.609375 21.65625 44.121094 21.988281 44.796875 21.988281 C 45.476562 21.988281 45.988281 21.65625 46.328125 20.988281 C 46.671875 20.320312 46.84375 19.324219 46.84375 17.992188 C 46.84375 16.652344 46.671875 15.652344 46.328125 14.988281 C 45.988281 14.320312 45.476562 13.988281 44.796875 13.988281 Z M 44.796875 12.945312 C 45.886719 12.945312 46.71875 13.375 47.292969 14.238281 C 47.871094 15.101562 48.15625 16.351562 48.15625 17.992188 C 48.15625 19.628906 47.871094 20.875 47.292969 21.738281 C 46.71875 22.601562 45.886719 23.03125 44.796875 23.03125 C 43.707031 23.03125 42.875 22.601562 42.300781 21.738281 C 41.726562 20.875 41.4375 19.628906 41.4375 17.992188 C 41.4375 16.351562 41.726562 15.101562 42.300781 14.238281 C 42.875 13.375 43.707031 12.945312 44.796875 12.945312 Z M 44.796875 12.945312 "/>
<path style=" stroke:none;fill-rule:nonzero;fill:rgb(0%,0%,0%);fill-opacity:1;" d="M 12.652344 129.660156 L 13.789062 129.660156 C 13.613281 129.996094 13.484375 130.347656 13.398438 130.710938 C 13.308594 131.078125 13.265625 131.453125 13.265625 131.847656 C 13.265625 132.441406 13.359375 132.886719 13.539062 133.183594 C 13.722656 133.480469 13.996094 133.628906 14.359375 133.628906 C 14.636719 133.628906 14.855469 133.523438 15.015625 133.308594 C 15.171875 133.097656 15.324219 132.671875 15.464844 132.027344 L 15.558594 131.617188 C 15.742188 130.765625 15.996094 130.164062 16.328125 129.804688 C 16.660156 129.445312 17.125 129.265625 17.71875 129.265625 C 18.398438 129.265625 18.933594 129.535156 19.328125 130.070312 C 19.722656 130.605469 19.921875 131.34375 19.921875 132.28125 C 19.921875 132.671875 19.882812 133.078125 19.804688 133.503906 C 19.730469 133.925781 19.617188 134.371094 19.464844 134.839844 L 18.226562 134.839844 C 18.457031 134.398438 18.628906 133.960938 18.746094 133.53125 C 18.859375 133.101562 18.917969 132.675781 18.917969 132.253906 C 18.917969 131.691406 18.820312 131.257812 18.628906 130.953125 C 18.433594 130.648438 18.160156 130.496094 17.808594 130.496094 C 17.484375 130.496094 17.234375 130.609375 17.0625 130.828125 C 16.890625 131.046875 16.722656 131.527344 16.558594 132.269531 L 16.460938 132.683594 C 16.308594 133.425781 16.066406 133.964844 15.742188 134.292969 C 15.421875 134.621094 14.976562 134.789062 14.414062 134.789062 C 13.726562 134.789062 13.195312 134.542969 12.824219 134.058594 C 12.453125 133.570312 12.265625 132.882812 12.265625 131.988281 C 12.265625 131.546875 12.296875 131.128906 12.363281 130.738281 C 12.425781 130.347656 12.523438 129.988281 12.652344 129.660156 Z M 12.652344 129.660156 "/>
<path style=" stroke:none;fill-rule:nonzero;fill:rgb(0%,0%,0%);fill-opacity:1;" d="M 12.441406 127.359375 L 12.441406 126.160156 L 19.730469 126.160156 L 19.730469 127.359375 Z M 9.601562 127.359375 L 9.601562 126.160156 L 11.117188 126.160156 L 11.117188 127.359375 Z M 9.601562 127.359375 "/>
<path style=" stroke:none;fill-rule:nonzero;fill:rgb(0%,0%,0%);fill-opacity:1;" d="M 16 118.855469 C 15.132812 118.855469 14.460938 119.035156 13.984375 119.394531 C 13.503906 119.75 13.265625 120.253906 13.265625 120.902344 C 13.265625 121.542969 13.503906 122.042969 13.984375 122.402344 C 14.460938 122.757812 15.132812 122.9375 16 122.9375 C 16.863281 122.9375 17.535156 122.757812 18.011719 122.402344 C 18.492188 122.042969 18.730469 121.542969 18.730469 120.902344 C 18.730469 120.253906 18.492188 119.75 18.011719 119.394531 C 17.535156 119.035156 16.863281 118.855469 16 118.855469 Z M 18.828125 117.660156 C 20.066406 117.660156 20.992188 117.933594 21.597656 118.488281 C 22.203125 119.035156 22.503906 119.878906 22.503906 121.019531 C 22.503906 121.4375 22.472656 121.835938 22.410156 122.210938 C 22.347656 122.582031 22.25 122.945312 22.121094 123.296875 L 20.957031 123.296875 C 21.148438 122.945312 21.285156 122.597656 21.378906 122.253906 C 21.46875 121.914062 21.515625 121.5625 21.515625 121.207031 C 21.515625 120.421875 21.308594 119.832031 20.898438 119.441406 C 20.492188 119.050781 19.871094 118.855469 19.042969 118.855469 L 18.449219 118.855469 C 18.878906 119.105469 19.199219 119.421875 19.414062 119.808594 C 19.625 120.195312 19.730469 120.65625 19.730469 121.195312 C 19.730469 122.085938 19.390625 122.808594 18.710938 123.355469 C 18.027344 123.902344 17.125 124.175781 16 124.175781 C 14.871094 124.175781 13.96875 123.902344 13.289062 123.355469 C 12.605469 122.808594 12.265625 122.085938 12.265625 121.195312 C 12.265625 120.65625 12.371094 120.195312 12.582031 119.808594 C 12.796875 119.421875 13.117188 119.105469 13.546875 118.855469 L 12.441406 118.855469 L 12.441406 117.660156 Z M 18.828125 117.660156 "/>
<path style=" stroke:none;fill-rule:nonzero;fill:rgb(0%,0%,0%);fill-opacity:1;" d="M 13.839844 109.515625 C 13.300781 109.214844 12.902344 108.855469 12.648438 108.441406 C 12.390625 108.023438 12.265625 107.53125 12.265625 106.96875 C 12.265625 106.210938 12.53125 105.621094 13.0625 105.210938 C 13.59375 104.796875 14.347656 104.589844 15.328125 104.589844 L 19.730469 104.589844 L 19.730469 105.796875 L 15.367188 105.796875 C 14.671875 105.796875 14.152344 105.921875 13.816406 106.167969 C 13.476562 106.414062 13.304688 106.792969 13.304688 107.300781 C 13.304688 107.921875 13.511719 108.410156 13.925781 108.773438 C 14.335938 109.132812 14.898438 109.3125 15.609375 109.3125 L 19.730469 109.3125 L 19.730469 110.515625 L 15.367188 110.515625 C 14.664062 110.515625 14.148438 110.640625 13.808594 110.886719 C 13.472656 111.132812 13.304688 111.515625 13.304688 112.035156 C 13.304688 112.644531 13.511719 113.132812 13.925781 113.492188 C 14.339844 113.851562 14.902344 114.035156 15.609375 114.035156 L 19.730469 114.035156 L 19.730469 115.238281 L 12.441406 115.238281 L 12.441406 114.035156 L 13.574219 114.035156 C 13.125 113.757812 12.796875 113.433594 12.582031 113.050781 C 12.371094 112.667969 12.265625 112.214844 12.265625 111.691406 C 12.265625 111.160156 12.398438 110.707031 12.667969 110.335938 C 12.9375 109.964844 13.328125 109.691406 13.839844 109.515625 Z M 13.839844 109.515625 "/>
<path style=" stroke:none;fill-rule:nonzero;fill:rgb(0%,0%,0%);fill-opacity:1;" d="M 13.277344 99.378906 C 13.277344 100.019531 13.53125 100.527344 14.03125 100.902344 C 14.53125 101.273438 15.21875 101.460938 16.089844 101.460938 C 16.964844 101.460938 17.652344 101.277344 18.152344 100.90625 C 18.652344 100.535156 18.902344 100.023438 18.902344 99.378906 C 18.902344 98.738281 18.652344 98.234375 18.148438 97.863281 C 17.644531 97.488281 16.960938 97.300781 16.089844 97.300781 C 15.226562 97.300781 14.542969 97.488281 14.039062 97.863281 C 13.53125 98.234375 13.277344 98.738281 13.277344 99.378906 Z M 12.265625 99.378906 C 12.265625 98.335938 12.601562 97.519531 13.28125 96.925781 C 13.957031 96.328125 14.894531 96.03125 16.089844 96.03125 C 17.285156 96.03125 18.222656 96.328125 18.902344 96.925781 C 19.582031 97.519531 19.921875 98.335938 19.921875 99.378906 C 19.921875 100.425781 19.582031 101.242188 18.902344 101.835938 C 18.222656 102.429688 17.285156 102.722656 16.089844 102.722656 C 14.894531 102.722656 13.957031 102.429688 13.28125 101.835938 C 12.601562 101.242188 12.265625 100.425781 12.265625 99.378906 Z M 12.265625 99.378906 "/>
<path style=" stroke:none;fill-rule:nonzero;fill:rgb(0%,0%,0%);fill-opacity:1;" d="M 12.441406 94.046875 L 12.441406 92.847656 L 19.730469 92.847656 L 19.730469 94.046875 Z M 9.601562 94.046875 L 9.601562 92.847656 L 11.117188 92.847656 L 11.117188 94.046875 Z M 9.601562 94.046875 "/>
<path style=" stroke:none;fill-rule:nonzero;fill:rgb(0%,0%,0%);fill-opacity:1;" d="M 13.546875 85.542969 L 9.601562 85.542969 L 9.601562 84.34375 L 19.730469 84.34375 L 19.730469 85.542969 L 18.636719 85.542969 C 19.070312 85.792969 19.394531 86.113281 19.605469 86.496094 C 19.816406 86.882812 19.921875 87.34375 19.921875 87.882812 C 19.921875 88.761719 19.570312 89.480469 18.867188 90.03125 C 18.164062 90.585938 17.238281 90.863281 16.089844 90.863281 C 14.945312 90.863281 14.023438 90.585938 13.320312 90.03125 C 12.617188 89.480469 12.265625 88.761719 12.265625 87.882812 C 12.265625 87.34375 12.371094 86.882812 12.582031 86.496094 C 12.789062 86.113281 13.113281 85.792969 13.546875 85.542969 Z M 16.089844 89.625 C 16.972656 89.625 17.664062 89.445312 18.164062 89.082031 C 18.664062 88.71875 18.917969 88.21875 18.917969 87.585938 C 18.917969 86.953125 18.664062 86.457031 18.164062 86.089844 C 17.664062 85.726562 16.972656 85.542969 16.089844 85.542969 C 15.210938 85.542969 14.519531 85.726562 14.019531 86.089844 C 13.515625 86.457031 13.265625 86.953125 13.265625 87.585938 C 13.265625 88.21875 13.515625 88.71875 14.019531 89.082031 C 14.519531 89.445312 15.210938 89.625 16.089844 89.625 Z M 16.089844 89.625 "/>
<path style=" stroke:none;fill-rule:nonzero;fill:rgb(0%,0%,0%);fill-opacity:1;" d="M 9.613281 79 C 10.613281 79.582031 11.597656 80.011719 12.578125 80.296875 C 13.554688 80.578125 14.542969 80.71875 15.546875 80.71875 C 16.546875 80.71875 17.539062 80.578125 18.523438 80.292969 C 19.507812 80.007812 20.496094 79.578125 21.488281 79 L 21.488281 80.042969 C 20.46875 80.691406 19.464844 81.179688 18.480469 81.503906 C 17.496094 81.828125 16.519531 81.988281 15.546875 81.988281 C 14.578125 81.988281 13.601562 81.828125 12.621094 81.507812 C 11.640625 81.183594 10.636719 80.695312 9.613281 80.042969 Z M 9.613281 79 "/>
<path style=" stroke:none;fill-rule:nonzero;fill:rgb(0%,0%,0%);fill-opacity:1;" d="M 12.441406 70.613281 L 15.988281 73.25 L 19.730469 70.476562 L 19.730469 71.890625 L 16.867188 74.011719 L 19.730469 76.132812 L 19.730469 77.550781 L 15.917969 74.714844 L 12.441406 77.308594 L 12.441406 75.894531 L 15.039062 73.960938 L 12.441406 72.027344 Z M 12.441406 70.613281 "/>
<path style=" stroke:none;fill-rule:nonzero;fill:rgb(0%,0%,0%);fill-opacity:1;" d="M 9.613281 68.972656 L 9.613281 67.929688 C 10.636719 67.28125 11.640625 66.792969 12.621094 66.472656 C 13.601562 66.148438 14.578125 65.984375 15.546875 65.984375 C 16.519531 65.984375 17.496094 66.148438 18.480469 66.472656 C 19.464844 66.792969 20.46875 67.28125 21.488281 67.929688 L 21.488281 68.972656 C 20.496094 68.398438 19.507812 67.964844 18.523438 67.679688 C 17.539062 67.398438 16.546875 67.253906 15.546875 67.253906 C 14.542969 67.253906 13.554688 67.398438 12.578125 67.679688 C 11.597656 67.964844 10.613281 68.398438 9.613281 68.972656 Z M 9.613281 68.972656 "/>
<path style="fill:none;stroke-width:1.5;stroke-linecap:square;stroke-linejoin:round;stroke:rgb(12.156863%,46.666667%,70.588237%);stroke-opacity:1;stroke-miterlimit:4;" d="M 56.463867 136.921875 L 83.581055 136.737305 L 96.342773 136.461914 L 105.914062 136.051758 L 113.891602 135.46582 L 120.269531 134.739258 L 125.056641 133.980469 L 129.84082 132.972656 L 133.03125 132.123047 L 136.22168 131.100586 L 139.412109 129.875977 L 142.602539 128.416992 L 145.792969 126.682617 L 148.983398 124.631836 L 152.173828 122.226562 L 155.364258 119.425781 L 158.554687 116.197266 L 161.745117 112.508789 L 164.935547 108.345703 L 168.125977 103.713867 L 171.316406 98.633789 L 174.506836 93.155273 L 179.293945 84.351562 L 193.649414 57.140625 L 196.839844 51.662109 L 200.030273 46.582031 L 203.220703 41.950195 L 206.411133 37.787109 L 209.601562 34.098633 L 212.791992 30.870117 L 215.982422 28.069336 L 219.172852 25.664062 L 222.363281 23.613281 L 225.553711 21.878906 L 228.744141 20.419922 L 231.93457 19.195312 L 235.125 18.172852 L 239.912109 16.954102 L 244.696289 16.037109 L 249.483398 15.345703 L 255.861328 14.689453 L 263.838867 14.15918 L 273.410156 13.787109 L 286.171875 13.535156 L 306.908203 13.388672 L 310.098633 13.376953 " transform="matrix(1.333333,0,0,1.333333,0.000000000000028422,0)"/>
<path style="fill:none;stroke-width:0.8;stroke-linecap:square;stroke-linejoin:miter;stroke:rgb(0%,0%,0%);stroke-opacity:1;stroke-miterlimit:4;" d="M 43.78125 143.100586 L 43.78125 7.201172 " transform="matrix(1.333333,0,0,1.333333,0.000000000000028422,0)"/>
<path style="fill:none;stroke-width:0.8;stroke-linecap:square;stroke-linejoin:miter;stroke:rgb(0%,0%,0%);stroke-opacity:1;stroke-miterlimit:4;" d="M 322.78125 143.100586 L 322.78125 7.201172 " transform="matrix(1.333333,0,0,1.333333,0.000000000000028422,0)"/>
<path style="fill:none;stroke-width:0.8;stroke-linecap:square;stroke-linejoin:miter;stroke:rgb(0%,0%,0%);stroke-opacity:1;stroke-miterlimit:4;" d="M 43.78125 143.100586 L 322.78125 143.100586 " transform="matrix(1.333333,0,0,1.333333,0.000000000000028422,0)"/>
<path style="fill:none;stroke-width:0.8;stroke-linecap:square;stroke-linejoin:miter;stroke:rgb(0%,0%,0%);stroke-opacity:1;stroke-miterlimit:4;" d="M 43.78125 7.201172 L 322.78125 7.201172 " transform="matrix(1.333333,0,0,1.333333,0.000000000000028422,0)"/>
</g>
</svg>
