<?xml version="1.0" encoding="UTF-8"?>
<svg xmlns="http://www.w3.org/2000/svg" xmlns:xlink="http://www.w3.org/1999/xlink" width="237.333333" height="108" viewBox="0 0 237.333333 108" version="1.1">
<g id="surface1">
<path style=" stroke:none;fill-rule:nonzero;fill:rgb(100%,100%,100%);fill-opacity:1;" d="M 25.332031 106.15625 L 49.332031 106.15625 L 49.332031 82.15625 L 25.332031 82.15625 Z M 25.332031 106.15625 "/>
<path style="fill:none;stroke-width:1;stroke-linecap:round;stroke-linejoin:round;stroke:rgb(0%,0%,0%);stroke-opacity:1;stroke-miterlimit:10;" d="M 71.999023 166.617188 L 89.999023 166.617188 L 89.999023 184.617188 L 71.999023 184.617188 Z M 71.999023 166.617188 " transform="matrix(1.333333,0,0,1.333333,-70.666667,-140)"/>
<path style=" stroke:none;fill-rule:nonzero;fill:rgb(0%,0%,0%);fill-opacity:1;" d="M 34.558594 90.503906 L 34.558594 89.484375 L 40.121094 89.484375 L 40.121094 90.296875 C 39.578125 90.878906 39.039062 91.660156 38.496094 92.628906 C 37.953125 93.585938 37.539062 94.582031 37.246094 95.609375 C 37.039062 96.316406 36.902344 97.101562 36.851562 97.960938 L 35.765625 97.960938 C 35.777344 97.285156 35.914062 96.472656 36.164062 95.523438 C 36.414062 94.566406 36.773438 93.644531 37.246094 92.753906 C 37.730469 91.867188 38.234375 91.117188 38.765625 90.503906 Z M 34.558594 90.503906 "/>
<path style=" stroke:none;fill-rule:nonzero;fill:rgb(69.803923%,85.09804%,100%);fill-opacity:1;" d="M 25.332031 58.15625 L 49.332031 58.15625 L 49.332031 34.15625 L 25.332031 34.15625 Z M 25.332031 58.15625 "/>
<path style="fill:none;stroke-width:1;stroke-linecap:round;stroke-linejoin:round;stroke:rgb(0%,0%,0%);stroke-opacity:1;stroke-miterlimit:10;" d="M 71.999023 130.617188 L 89.999023 130.617188 L 89.999023 148.617188 L 71.999023 148.617188 Z M 71.999023 130.617188 " transform="matrix(1.333333,0,0,1.333333,-70.666667,-140)"/>
<path style=" stroke:none;fill-rule:nonzero;fill:rgb(0%,0%,0%);fill-opacity:1;" d="M 38.476562 49.960938 L 37.414062 49.960938 L 37.414062 43.234375 C 37.164062 43.484375 36.828125 43.734375 36.414062 43.984375 C 35.996094 44.222656 35.625 44.394531 35.308594 44.503906 L 35.308594 43.484375 C 35.890625 43.222656 36.402344 42.894531 36.851562 42.503906 C 37.292969 42.101562 37.605469 41.710938 37.789062 41.335938 L 38.476562 41.335938 Z M 38.476562 49.960938 "/>
<path style=" stroke:none;fill-rule:nonzero;fill:rgb(69.803923%,85.09804%,100%);fill-opacity:1;" d="M 25.332031 82.15625 L 49.332031 82.15625 L 49.332031 58.15625 L 25.332031 58.15625 Z M 25.332031 82.15625 "/>
<path style="fill:none;stroke-width:1;stroke-linecap:round;stroke-linejoin:round;stroke:rgb(0%,0%,0%);stroke-opacity:1;stroke-miterlimit:10;" d="M 71.999023 148.617188 L 89.999023 148.617188 L 89.999023 166.617188 L 71.999023 166.617188 Z M 71.999023 148.617188 " transform="matrix(1.333333,0,0,1.333333,-70.666667,-140)"/>
<path style=" stroke:none;fill-rule:nonzero;fill:rgb(0%,0%,0%);fill-opacity:1;" d="M 37.871094 73.960938 L 37.871094 71.898438 L 34.140625 71.898438 L 34.140625 70.941406 L 38.058594 65.378906 L 38.933594 65.378906 L 38.933594 70.941406 L 40.101562 70.941406 L 40.101562 71.898438 L 38.933594 71.898438 L 38.933594 73.960938 Z M 37.871094 70.941406 L 37.871094 67.066406 L 35.183594 70.941406 Z M 37.871094 70.941406 "/>
<path style=" stroke:none;fill-rule:nonzero;fill:rgb(100%,100%,100%);fill-opacity:1;" d="M 1.332031 106.15625 L 25.332031 106.15625 L 25.332031 82.15625 L 1.332031 82.15625 Z M 1.332031 106.15625 "/>
<path style="fill:none;stroke-width:1;stroke-linecap:round;stroke-linejoin:round;stroke:rgb(0%,0%,0%);stroke-opacity:1;stroke-miterlimit:10;" d="M 53.999023 166.617188 L 71.999023 166.617188 L 71.999023 184.617188 L 53.999023 184.617188 Z M 53.999023 166.617188 " transform="matrix(1.333333,0,0,1.333333,-70.666667,-140)"/>
<path style=" stroke:none;fill-rule:nonzero;fill:rgb(0%,0%,0%);fill-opacity:1;" d="M 15.976562 91.484375 L 14.914062 91.566406 C 14.828125 91.148438 14.695312 90.847656 14.515625 90.648438 C 14.234375 90.359375 13.890625 90.210938 13.476562 90.210938 C 13.125 90.210938 12.828125 90.304688 12.578125 90.484375 C 12.246094 90.734375 11.980469 91.085938 11.789062 91.546875 C 11.605469 92.003906 11.507812 92.664062 11.496094 93.523438 C 11.746094 93.148438 12.046875 92.875 12.414062 92.691406 C 12.789062 92.5 13.171875 92.398438 13.578125 92.398438 C 14.289062 92.398438 14.882812 92.660156 15.371094 93.171875 C 15.871094 93.6875 16.121094 94.351562 16.121094 95.171875 C 16.121094 95.710938 16 96.222656 15.765625 96.691406 C 15.527344 97.148438 15.210938 97.503906 14.808594 97.753906 C 14.402344 97.988281 13.945312 98.109375 13.433594 98.109375 C 12.558594 98.109375 11.839844 97.789062 11.289062 97.148438 C 10.730469 96.5 10.453125 95.429688 10.453125 93.941406 C 10.453125 92.289062 10.757812 91.082031 11.371094 90.316406 C 11.898438 89.664062 12.621094 89.335938 13.539062 89.335938 C 14.203125 89.335938 14.75 89.535156 15.183594 89.921875 C 15.609375 90.296875 15.875 90.816406 15.976562 91.484375 Z M 11.664062 95.171875 C 11.664062 95.546875 11.734375 95.898438 11.890625 96.234375 C 12.042969 96.554688 12.257812 96.804688 12.539062 96.984375 C 12.8125 97.148438 13.105469 97.234375 13.414062 97.234375 C 13.855469 97.234375 14.234375 97.0625 14.558594 96.710938 C 14.875 96.351562 15.039062 95.859375 15.039062 95.234375 C 15.039062 94.640625 14.875 94.171875 14.558594 93.835938 C 14.25 93.492188 13.855469 93.316406 13.371094 93.316406 C 12.898438 93.316406 12.496094 93.492188 12.164062 93.835938 C 11.828125 94.171875 11.664062 94.617188 11.664062 95.171875 Z M 11.664062 95.171875 "/>
<path style=" stroke:none;fill-rule:nonzero;fill:rgb(100%,100%,100%);fill-opacity:1;" d="M 49.332031 82.15625 L 73.332031 82.15625 L 73.332031 58.15625 L 49.332031 58.15625 Z M 49.332031 82.15625 "/>
<path style="fill:none;stroke-width:1;stroke-linecap:round;stroke-linejoin:round;stroke:rgb(0%,0%,0%);stroke-opacity:1;stroke-miterlimit:10;" d="M 89.999023 148.617188 L 107.999023 148.617188 L 107.999023 166.617188 L 89.999023 166.617188 Z M 89.999023 148.617188 " transform="matrix(1.333333,0,0,1.333333,-70.666667,-140)"/>
<path style=" stroke:none;fill-rule:nonzero;fill:rgb(0%,0%,0%);fill-opacity:1;" d="M 58.496094 71.710938 L 59.601562 71.609375 C 59.683594 72.148438 59.871094 72.5625 60.164062 72.835938 C 60.464844 73.101562 60.828125 73.234375 61.246094 73.234375 C 61.757812 73.234375 62.1875 73.046875 62.539062 72.671875 C 62.898438 72.285156 63.078125 71.773438 63.078125 71.148438 C 63.078125 70.539062 62.902344 70.0625 62.558594 69.710938 C 62.226562 69.367188 61.789062 69.191406 61.246094 69.191406 C 60.898438 69.191406 60.585938 69.273438 60.308594 69.441406 C 60.042969 69.597656 59.828125 69.789062 59.664062 70.023438 L 58.683594 69.898438 L 59.515625 65.484375 L 63.789062 65.484375 L 63.789062 66.503906 L 60.351562 66.503906 L 59.890625 68.796875 C 60.402344 68.453125 60.945312 68.273438 61.515625 68.273438 C 62.265625 68.273438 62.898438 68.535156 63.414062 69.046875 C 63.921875 69.5625 64.183594 70.226562 64.183594 71.046875 C 64.183594 71.828125 63.960938 72.5 63.515625 73.066406 C 62.960938 73.765625 62.203125 74.109375 61.246094 74.109375 C 60.464844 74.109375 59.828125 73.894531 59.328125 73.460938 C 58.839844 73.019531 58.5625 72.4375 58.496094 71.710938 Z M 58.496094 71.710938 "/>
<path style=" stroke:none;fill-rule:nonzero;fill:rgb(69.803923%,85.09804%,100%);fill-opacity:1;" d="M 1.332031 82.15625 L 25.332031 82.15625 L 25.332031 58.15625 L 1.332031 58.15625 Z M 1.332031 82.15625 "/>
<path style="fill:none;stroke-width:1;stroke-linecap:round;stroke-linejoin:round;stroke:rgb(0%,0%,0%);stroke-opacity:1;stroke-miterlimit:10;" d="M 53.999023 148.617188 L 71.999023 148.617188 L 71.999023 166.617188 L 53.999023 166.617188 Z M 53.999023 148.617188 " transform="matrix(1.333333,0,0,1.333333,-70.666667,-140)"/>
<path style=" stroke:none;fill-rule:nonzero;fill:rgb(0%,0%,0%);fill-opacity:1;" d="M 10.496094 71.691406 L 11.558594 71.546875 C 11.683594 72.144531 11.882812 72.578125 12.164062 72.835938 C 12.453125 73.101562 12.8125 73.234375 13.246094 73.234375 C 13.730469 73.234375 14.140625 73.066406 14.476562 72.734375 C 14.820312 72.390625 14.996094 71.957031 14.996094 71.441406 C 14.996094 70.957031 14.835938 70.5625 14.515625 70.253906 C 14.210938 69.9375 13.8125 69.773438 13.328125 69.773438 C 13.121094 69.773438 12.871094 69.816406 12.578125 69.898438 L 12.703125 68.960938 C 12.773438 68.976562 12.828125 68.984375 12.871094 68.984375 C 13.3125 68.984375 13.714844 68.867188 14.078125 68.628906 C 14.4375 68.394531 14.621094 68.035156 14.621094 67.546875 C 14.621094 67.160156 14.484375 66.835938 14.226562 66.585938 C 13.960938 66.335938 13.621094 66.210938 13.203125 66.210938 C 12.796875 66.210938 12.460938 66.347656 12.183594 66.609375 C 11.917969 66.859375 11.746094 67.242188 11.664062 67.753906 L 10.601562 67.566406 C 10.734375 66.859375 11.027344 66.3125 11.476562 65.921875 C 11.933594 65.535156 12.5 65.335938 13.183594 65.335938 C 13.652344 65.335938 14.085938 65.441406 14.476562 65.648438 C 14.875 65.847656 15.183594 66.117188 15.390625 66.460938 C 15.601562 66.8125 15.703125 67.179688 15.703125 67.566406 C 15.703125 67.941406 15.601562 68.285156 15.390625 68.585938 C 15.195312 68.894531 14.902344 69.140625 14.515625 69.316406 C 15.027344 69.429688 15.421875 69.671875 15.703125 70.046875 C 15.980469 70.410156 16.121094 70.867188 16.121094 71.421875 C 16.121094 72.171875 15.839844 72.8125 15.289062 73.335938 C 14.746094 73.851562 14.058594 74.109375 13.226562 74.109375 C 12.476562 74.109375 11.851562 73.890625 11.351562 73.441406 C 10.851562 73 10.5625 72.414062 10.496094 71.691406 Z M 10.496094 71.691406 "/>
<path style=" stroke:none;fill-rule:nonzero;fill:rgb(100%,100%,100%);fill-opacity:1;" d="M 49.332031 106.15625 L 73.332031 106.15625 L 73.332031 82.15625 L 49.332031 82.15625 Z M 49.332031 106.15625 "/>
<path style="fill:none;stroke-width:1;stroke-linecap:round;stroke-linejoin:round;stroke:rgb(0%,0%,0%);stroke-opacity:1;stroke-miterlimit:10;" d="M 89.999023 166.617188 L 107.999023 166.617188 L 107.999023 184.617188 L 89.999023 184.617188 Z M 89.999023 166.617188 " transform="matrix(1.333333,0,0,1.333333,-70.666667,-140)"/>
<path style=" stroke:none;fill-rule:nonzero;fill:rgb(0%,0%,0%);fill-opacity:1;" d="M 60.121094 93.296875 C 59.671875 93.144531 59.351562 92.921875 59.140625 92.628906 C 58.933594 92.328125 58.828125 91.960938 58.828125 91.546875 C 58.828125 90.921875 59.046875 90.398438 59.496094 89.984375 C 59.953125 89.554688 60.546875 89.335938 61.289062 89.335938 C 62.039062 89.335938 62.640625 89.5625 63.101562 90.003906 C 63.558594 90.4375 63.789062 90.960938 63.789062 91.585938 C 63.789062 91.976562 63.683594 92.328125 63.476562 92.628906 C 63.265625 92.921875 62.945312 93.144531 62.515625 93.296875 C 63.042969 93.476562 63.445312 93.765625 63.726562 94.148438 C 64 94.523438 64.140625 94.976562 64.140625 95.503906 C 64.140625 96.242188 63.875 96.859375 63.351562 97.359375 C 62.835938 97.859375 62.152344 98.109375 61.308594 98.109375 C 60.460938 98.109375 59.773438 97.859375 59.246094 97.359375 C 58.730469 96.859375 58.476562 96.234375 58.476562 95.484375 C 58.476562 94.929688 58.609375 94.460938 58.890625 94.085938 C 59.183594 93.703125 59.589844 93.4375 60.121094 93.296875 Z M 59.914062 91.523438 C 59.914062 91.929688 60.039062 92.265625 60.289062 92.523438 C 60.546875 92.773438 60.890625 92.898438 61.308594 92.898438 C 61.726562 92.898438 62.058594 92.773438 62.308594 92.523438 C 62.570312 92.265625 62.703125 91.941406 62.703125 91.566406 C 62.703125 91.191406 62.570312 90.875 62.308594 90.609375 C 62.042969 90.347656 61.710938 90.210938 61.308594 90.210938 C 60.902344 90.210938 60.570312 90.347656 60.308594 90.609375 C 60.042969 90.859375 59.914062 91.164062 59.914062 91.523438 Z M 59.558594 95.484375 C 59.558594 95.789062 59.625 96.082031 59.765625 96.359375 C 59.917969 96.640625 60.132812 96.851562 60.414062 97.003906 C 60.6875 97.160156 60.996094 97.234375 61.328125 97.234375 C 61.828125 97.234375 62.234375 97.078125 62.558594 96.753906 C 62.890625 96.4375 63.058594 96.023438 63.058594 95.523438 C 63.058594 95.015625 62.890625 94.585938 62.558594 94.253906 C 62.226562 93.921875 61.796875 93.753906 61.289062 93.753906 C 60.789062 93.753906 60.371094 93.921875 60.039062 94.253906 C 59.714844 94.585938 59.558594 95 59.558594 95.484375 Z M 59.558594 95.484375 "/>
<path style=" stroke:none;fill-rule:nonzero;fill:rgb(100%,100%,100%);fill-opacity:1;" d="M 49.332031 58.15625 L 73.332031 58.15625 L 73.332031 34.15625 L 49.332031 34.15625 Z M 49.332031 58.15625 "/>
<path style="fill:none;stroke-width:1;stroke-linecap:round;stroke-linejoin:round;stroke:rgb(0%,0%,0%);stroke-opacity:1;stroke-miterlimit:10;" d="M 89.999023 130.617188 L 107.999023 130.617188 L 107.999023 148.617188 L 89.999023 148.617188 Z M 89.999023 130.617188 " transform="matrix(1.333333,0,0,1.333333,-70.666667,-140)"/>
<path style=" stroke:none;fill-rule:nonzero;fill:rgb(0%,0%,0%);fill-opacity:1;" d="M 64.039062 48.941406 L 64.039062 49.960938 L 58.351562 49.960938 C 58.351562 49.710938 58.390625 49.472656 58.476562 49.234375 C 58.625 48.847656 58.859375 48.460938 59.183594 48.085938 C 59.5 47.710938 59.960938 47.285156 60.558594 46.796875 C 61.484375 46.019531 62.109375 45.410156 62.433594 44.960938 C 62.765625 44.519531 62.933594 44.097656 62.933594 43.691406 C 62.933594 43.273438 62.777344 42.929688 62.476562 42.648438 C 62.183594 42.359375 61.796875 42.210938 61.328125 42.210938 C 60.8125 42.210938 60.402344 42.367188 60.101562 42.671875 C 59.792969 42.976562 59.640625 43.398438 59.640625 43.941406 L 58.558594 43.816406 C 58.625 43.015625 58.902344 42.398438 59.390625 41.984375 C 59.875 41.554688 60.527344 41.335938 61.351562 41.335938 C 62.167969 41.335938 62.8125 41.566406 63.289062 42.023438 C 63.773438 42.484375 64.015625 43.046875 64.015625 43.710938 C 64.015625 44.0625 63.945312 44.398438 63.808594 44.734375 C 63.667969 45.066406 63.433594 45.421875 63.101562 45.796875 C 62.777344 46.160156 62.246094 46.660156 61.496094 47.296875 C 60.855469 47.828125 60.445312 48.1875 60.265625 48.378906 C 60.085938 48.578125 59.9375 48.765625 59.828125 48.941406 Z M 64.039062 48.941406 "/>
<path style=" stroke:none;fill-rule:nonzero;fill:rgb(69.803923%,85.09804%,100%);fill-opacity:1;" d="M 1.332031 58.15625 L 25.332031 58.15625 L 25.332031 34.15625 L 1.332031 34.15625 Z M 1.332031 58.15625 "/>
<path style="fill:none;stroke-width:1;stroke-linecap:round;stroke-linejoin:round;stroke:rgb(0%,0%,0%);stroke-opacity:1;stroke-miterlimit:10;" d="M 53.999023 130.617188 L 71.999023 130.617188 L 71.999023 148.617188 L 53.999023 148.617188 Z M 53.999023 130.617188 " transform="matrix(1.333333,0,0,1.333333,-70.666667,-140)"/>
<path style=" stroke:none;fill-rule:nonzero;fill:rgb(0%,0%,0%);fill-opacity:1;" d="M 10.496094 45.734375 C 10.496094 44.722656 10.601562 43.898438 10.808594 43.273438 C 11.015625 42.648438 11.320312 42.171875 11.726562 41.835938 C 12.140625 41.503906 12.664062 41.335938 13.289062 41.335938 C 13.757812 41.335938 14.167969 41.4375 14.515625 41.628906 C 14.859375 41.8125 15.148438 42.078125 15.371094 42.421875 C 15.589844 42.769531 15.765625 43.191406 15.890625 43.691406 C 16.027344 44.191406 16.101562 44.875 16.101562 45.734375 C 16.101562 46.734375 15.996094 47.546875 15.789062 48.171875 C 15.578125 48.785156 15.265625 49.265625 14.851562 49.609375 C 14.445312 49.941406 13.921875 50.109375 13.289062 50.109375 C 12.464844 50.109375 11.820312 49.8125 11.351562 49.210938 C 10.777344 48.503906 10.496094 47.347656 10.496094 45.734375 Z M 11.578125 45.734375 C 11.578125 47.140625 11.734375 48.078125 12.058594 48.546875 C 12.390625 49.003906 12.796875 49.234375 13.289062 49.234375 C 13.773438 49.234375 14.183594 49.003906 14.515625 48.546875 C 14.851562 48.078125 15.015625 47.140625 15.015625 45.734375 C 15.015625 44.316406 14.851562 43.378906 14.515625 42.921875 C 14.183594 42.453125 13.773438 42.210938 13.289062 42.210938 C 12.796875 42.210938 12.414062 42.414062 12.121094 42.816406 C 11.757812 43.347656 11.578125 44.316406 11.578125 45.734375 Z M 11.578125 45.734375 "/>
<path style=" stroke:none;fill-rule:nonzero;fill:rgb(100%,100%,100%);fill-opacity:1;" d="M 188.550781 94.15625 L 212.550781 94.15625 L 212.550781 70.15625 L 188.550781 70.15625 Z M 188.550781 94.15625 "/>
<path style="fill:none;stroke-width:1;stroke-linecap:round;stroke-linejoin:round;stroke:rgb(0%,0%,0%);stroke-opacity:1;stroke-miterlimit:10;" d="M 194.413086 157.617188 L 212.413086 157.617188 L 212.413086 175.617188 L 194.413086 175.617188 Z M 194.413086 157.617188 " transform="matrix(1.333333,0,0,1.333333,-70.666667,-140)"/>
<path style=" stroke:none;fill-rule:nonzero;fill:rgb(0%,0%,0%);fill-opacity:1;" d="M 197.777344 78.503906 L 197.777344 77.484375 L 203.339844 77.484375 L 203.339844 78.296875 C 202.800781 78.878906 202.257812 79.660156 201.714844 80.628906 C 201.175781 81.585938 200.757812 82.582031 200.464844 83.609375 C 200.257812 84.316406 200.121094 85.101562 200.070312 85.960938 L 198.988281 85.960938 C 198.996094 85.285156 199.132812 84.472656 199.382812 83.523438 C 199.632812 82.566406 199.992188 81.644531 200.464844 80.753906 C 200.949219 79.867188 201.457031 79.117188 201.988281 78.503906 Z M 197.777344 78.503906 "/>
<path style=" stroke:none;fill-rule:nonzero;fill:rgb(100%,100%,100%);fill-opacity:1;" d="M 212.550781 94.15625 L 236.550781 94.15625 L 236.550781 70.15625 L 212.550781 70.15625 Z M 212.550781 94.15625 "/>
<path style="fill:none;stroke-width:1;stroke-linecap:round;stroke-linejoin:round;stroke:rgb(0%,0%,0%);stroke-opacity:1;stroke-miterlimit:10;" d="M 212.413086 157.617188 L 230.413086 157.617188 L 230.413086 175.617188 L 212.413086 175.617188 Z M 212.413086 157.617188 " transform="matrix(1.333333,0,0,1.333333,-70.666667,-140)"/>
<path style=" stroke:none;fill-rule:nonzero;fill:rgb(0%,0%,0%);fill-opacity:1;" d="M 223.339844 81.296875 C 222.894531 81.144531 222.570312 80.921875 222.363281 80.628906 C 222.152344 80.328125 222.050781 79.960938 222.050781 79.546875 C 222.050781 78.921875 222.269531 78.398438 222.714844 77.984375 C 223.175781 77.554688 223.769531 77.335938 224.507812 77.335938 C 225.257812 77.335938 225.863281 77.5625 226.320312 78.003906 C 226.777344 78.4375 227.007812 78.960938 227.007812 79.585938 C 227.007812 79.976562 226.902344 80.328125 226.695312 80.628906 C 226.488281 80.921875 226.164062 81.144531 225.738281 81.296875 C 226.261719 81.476562 226.664062 81.765625 226.945312 82.148438 C 227.222656 82.523438 227.363281 82.976562 227.363281 83.503906 C 227.363281 84.242188 227.097656 84.859375 226.570312 85.359375 C 226.054688 85.859375 225.371094 86.109375 224.527344 86.109375 C 223.679688 86.109375 222.992188 85.859375 222.464844 85.359375 C 221.949219 84.859375 221.695312 84.234375 221.695312 83.484375 C 221.695312 82.929688 221.832031 82.460938 222.113281 82.085938 C 222.402344 81.703125 222.808594 81.4375 223.339844 81.296875 Z M 223.132812 79.523438 C 223.132812 79.929688 223.257812 80.265625 223.507812 80.523438 C 223.769531 80.773438 224.113281 80.898438 224.527344 80.898438 C 224.945312 80.898438 225.277344 80.773438 225.527344 80.523438 C 225.789062 80.265625 225.925781 79.941406 225.925781 79.566406 C 225.925781 79.191406 225.789062 78.875 225.527344 78.609375 C 225.261719 78.347656 224.929688 78.210938 224.527344 78.210938 C 224.121094 78.210938 223.789062 78.347656 223.527344 78.609375 C 223.261719 78.859375 223.132812 79.164062 223.132812 79.523438 Z M 222.777344 83.484375 C 222.777344 83.789062 222.847656 84.082031 222.988281 84.359375 C 223.136719 84.640625 223.351562 84.851562 223.632812 85.003906 C 223.910156 85.160156 224.214844 85.234375 224.550781 85.234375 C 225.050781 85.234375 225.457031 85.078125 225.777344 84.753906 C 226.113281 84.4375 226.277344 84.023438 226.277344 83.523438 C 226.277344 83.015625 226.113281 82.585938 225.777344 82.253906 C 225.445312 81.921875 225.019531 81.753906 224.507812 81.753906 C 224.007812 81.753906 223.589844 81.921875 223.257812 82.253906 C 222.933594 82.585938 222.777344 83 222.777344 83.484375 Z M 222.777344 83.484375 "/>
<path style=" stroke:none;fill-rule:nonzero;fill:rgb(100%,100%,100%);fill-opacity:1;" d="M 212.550781 70.15625 L 236.550781 70.15625 L 236.550781 46.15625 L 212.550781 46.15625 Z M 212.550781 70.15625 "/>
<path style="fill:none;stroke-width:1;stroke-linecap:round;stroke-linejoin:round;stroke:rgb(0%,0%,0%);stroke-opacity:1;stroke-miterlimit:10;" d="M 212.413086 139.617188 L 230.413086 139.617188 L 230.413086 157.617188 L 212.413086 157.617188 Z M 212.413086 139.617188 " transform="matrix(1.333333,0,0,1.333333,-70.666667,-140)"/>
<path style=" stroke:none;fill-rule:nonzero;fill:rgb(0%,0%,0%);fill-opacity:1;" d="M 221.714844 59.710938 L 222.820312 59.609375 C 222.902344 60.148438 223.089844 60.5625 223.382812 60.835938 C 223.683594 61.101562 224.050781 61.234375 224.464844 61.234375 C 224.976562 61.234375 225.410156 61.046875 225.757812 60.671875 C 226.117188 60.285156 226.300781 59.773438 226.300781 59.148438 C 226.300781 58.539062 226.121094 58.0625 225.777344 57.710938 C 225.445312 57.367188 225.007812 57.191406 224.464844 57.191406 C 224.117188 57.191406 223.804688 57.273438 223.527344 57.441406 C 223.261719 57.597656 223.050781 57.789062 222.882812 58.023438 L 221.902344 57.898438 L 222.738281 53.484375 L 227.007812 53.484375 L 227.007812 54.503906 L 223.570312 54.503906 L 223.113281 56.796875 C 223.621094 56.453125 224.164062 56.273438 224.738281 56.273438 C 225.488281 56.273438 226.117188 56.535156 226.632812 57.046875 C 227.144531 57.5625 227.402344 58.226562 227.402344 59.046875 C 227.402344 59.828125 227.179688 60.5 226.738281 61.066406 C 226.179688 61.765625 225.425781 62.109375 224.464844 62.109375 C 223.683594 62.109375 223.050781 61.894531 222.550781 61.460938 C 222.058594 61.019531 221.785156 60.4375 221.714844 59.710938 Z M 221.714844 59.710938 "/>
<path style=" stroke:none;fill-rule:nonzero;fill:rgb(69.803923%,85.09804%,100%);fill-opacity:1;" d="M 188.550781 70.15625 L 212.550781 70.15625 L 212.550781 46.15625 L 188.550781 46.15625 Z M 188.550781 70.15625 "/>
<path style="fill:none;stroke-width:1;stroke-linecap:round;stroke-linejoin:round;stroke:rgb(0%,0%,0%);stroke-opacity:1;stroke-miterlimit:10;" d="M 194.413086 139.617188 L 212.413086 139.617188 L 212.413086 157.617188 L 194.413086 157.617188 Z M 194.413086 139.617188 " transform="matrix(1.333333,0,0,1.333333,-70.666667,-140)"/>
<path style=" stroke:none;fill-rule:nonzero;fill:rgb(0%,0%,0%);fill-opacity:1;" d="M 201.089844 61.960938 L 201.089844 59.898438 L 197.363281 59.898438 L 197.363281 58.941406 L 201.277344 53.378906 L 202.152344 53.378906 L 202.152344 58.941406 L 203.320312 58.941406 L 203.320312 59.898438 L 202.152344 59.898438 L 202.152344 61.960938 Z M 201.089844 58.941406 L 201.089844 55.066406 L 198.402344 58.941406 Z M 201.089844 58.941406 "/>
<path style=" stroke:none;fill-rule:nonzero;fill:rgb(100%,100%,100%);fill-opacity:1;" d="M 95.332031 88 L 167.332031 88 L 167.332031 52 L 95.332031 52 Z M 95.332031 88 "/>
<path style="fill:none;stroke-width:1;stroke-linecap:round;stroke-linejoin:round;stroke:rgb(0%,0%,0%);stroke-opacity:1;stroke-miterlimit:10;" d="M 124.499023 144 L 178.499023 144 L 178.499023 171 L 124.499023 171 Z M 124.499023 144 " transform="matrix(1.333333,0,0,1.333333,-70.666667,-140)"/>
<path style=" stroke:none;fill-rule:nonzero;fill:rgb(0%,0%,0%);fill-opacity:1;" d="M 110.699219 64.980469 L 110.699219 66 L 105.011719 66 C 105.011719 65.75 105.054688 65.511719 105.136719 65.269531 C 105.289062 64.886719 105.523438 64.5 105.847656 64.125 C 106.164062 63.75 106.621094 63.324219 107.222656 62.832031 C 108.148438 62.058594 108.773438 61.449219 109.097656 61 C 109.429688 60.558594 109.597656 60.136719 109.597656 59.730469 C 109.597656 59.3125 109.441406 58.96875 109.136719 58.6875 C 108.847656 58.394531 108.460938 58.25 107.992188 58.25 C 107.476562 58.25 107.066406 58.40625 106.761719 58.707031 C 106.457031 59.015625 106.304688 59.4375 106.304688 59.980469 L 105.222656 59.855469 C 105.289062 59.050781 105.566406 58.4375 106.054688 58.019531 C 106.539062 57.59375 107.191406 57.375 108.011719 57.375 C 108.832031 57.375 109.476562 57.605469 109.949219 58.0625 C 110.433594 58.519531 110.679688 59.082031 110.679688 59.75 C 110.679688 60.097656 110.605469 60.4375 110.472656 60.769531 C 110.332031 61.105469 110.097656 61.457031 109.761719 61.832031 C 109.441406 62.199219 108.910156 62.699219 108.160156 63.332031 C 107.519531 63.863281 107.105469 64.222656 106.929688 64.417969 C 106.746094 64.613281 106.601562 64.800781 106.492188 64.980469 Z M 110.699219 64.980469 "/>
<path style=" stroke:none;fill-rule:nonzero;fill:rgb(0%,0%,0%);fill-opacity:1;" d="M 114.75 66 L 117.019531 62.769531 L 114.917969 59.769531 L 116.25 59.769531 L 117.207031 61.230469 C 117.375 61.511719 117.511719 61.746094 117.625 61.9375 C 117.800781 61.675781 117.964844 61.449219 118.105469 61.25 L 119.144531 59.769531 L 120.417969 59.769531 L 118.269531 62.707031 L 120.582031 66 L 119.292969 66 L 118 64.0625 L 117.667969 63.542969 L 116.042969 66 Z M 114.75 66 "/>
<path style=" stroke:none;fill-rule:nonzero;fill:rgb(0%,0%,0%);fill-opacity:1;" d="M 130.042969 64.980469 L 130.042969 66 L 124.355469 66 C 124.355469 65.75 124.394531 65.511719 124.480469 65.269531 C 124.628906 64.886719 124.863281 64.5 125.1875 64.125 C 125.503906 63.75 125.964844 63.324219 126.5625 62.832031 C 127.488281 62.058594 128.113281 61.449219 128.4375 61 C 128.769531 60.558594 128.9375 60.136719 128.9375 59.730469 C 128.9375 59.3125 128.78125 58.96875 128.480469 58.6875 C 128.1875 58.394531 127.800781 58.25 127.332031 58.25 C 126.816406 58.25 126.40625 58.40625 126.105469 58.707031 C 125.796875 59.015625 125.644531 59.4375 125.644531 59.980469 L 124.5625 59.855469 C 124.628906 59.050781 124.90625 58.4375 125.394531 58.019531 C 125.878906 57.59375 126.53125 57.375 127.355469 57.375 C 128.171875 57.375 128.816406 57.605469 129.292969 58.0625 C 129.777344 58.519531 130.019531 59.082031 130.019531 59.75 C 130.019531 60.097656 129.949219 60.4375 129.8125 60.769531 C 129.671875 61.105469 129.4375 61.457031 129.105469 61.832031 C 128.78125 62.199219 128.25 62.699219 127.5 63.332031 C 126.859375 63.863281 126.449219 64.222656 126.269531 64.417969 C 126.089844 64.613281 125.941406 64.800781 125.832031 64.980469 Z M 130.042969 64.980469 "/>
<path style=" stroke:none;fill-rule:nonzero;fill:rgb(0%,0%,0%);fill-opacity:1;" d="M 134.738281 60.875 L 134.738281 61.5625 L 135.882812 61.5625 L 135.882812 65.730469 L 134.757812 65.769531 L 134.863281 66.519531 C 136.550781 66.417969 137.945312 66.292969 139.089844 66.167969 L 139.089844 67.230469 L 139.925781 67.230469 L 139.925781 66.0625 C 140.152344 66.019531 140.402344 65.980469 140.613281 65.9375 L 140.613281 65.25 C 140.402344 65.292969 140.152344 65.332031 139.925781 65.355469 L 139.925781 61.5625 L 145.320312 61.5625 L 145.320312 60.875 Z M 136.652344 65.6875 L 136.652344 64.644531 L 139.089844 64.644531 L 139.089844 65.480469 C 138.363281 65.5625 137.550781 65.625 136.652344 65.6875 Z M 136.652344 64.019531 L 136.652344 63.125 L 139.089844 63.125 L 139.089844 64.019531 Z M 136.652344 62.480469 L 136.652344 61.5625 L 139.089844 61.5625 L 139.089844 62.480469 Z M 136.257812 56.625 L 136.257812 60.082031 L 143.839844 60.082031 L 143.839844 56.625 Z M 143.007812 59.457031 L 137.070312 59.457031 L 137.070312 58.644531 L 143.007812 58.644531 Z M 137.070312 58.042969 L 137.070312 57.269531 L 143.007812 57.269531 L 143.007812 58.042969 Z M 140.925781 63.082031 C 141.175781 63.957031 141.613281 64.75 142.277344 65.4375 C 141.777344 65.875 141.152344 66.230469 140.425781 66.542969 L 140.863281 67.207031 C 141.652344 66.875 142.320312 66.457031 142.882812 65.980469 C 143.425781 66.4375 144.089844 66.832031 144.882812 67.207031 L 145.320312 66.5 C 144.570312 66.1875 143.964844 65.832031 143.425781 65.4375 C 144.007812 64.769531 144.402344 63.980469 144.632812 63.042969 L 144.632812 62.375 L 140.550781 62.375 L 140.550781 63.082031 Z M 142.820312 64.917969 C 142.257812 64.375 141.882812 63.769531 141.675781 63.082031 L 143.863281 63.082031 C 143.652344 63.75 143.300781 64.375 142.820312 64.917969 Z M 142.820312 64.917969 "/>
<path style=" stroke:none;fill-rule:nonzero;fill:rgb(0%,0%,0%);fill-opacity:1;" d="M 146.738281 59.355469 L 146.738281 60.1875 L 151.257812 60.1875 C 150.632812 63.144531 149.050781 65.25 146.507812 66.519531 L 147.050781 67.230469 C 149.589844 65.894531 151.257812 63.769531 151.988281 60.855469 C 152.902344 63.582031 154.550781 65.667969 156.964844 67.144531 L 157.507812 66.457031 C 155.050781 65 153.382812 62.894531 152.550781 60.1875 L 157.277344 60.1875 L 157.277344 59.355469 L 152.300781 59.355469 C 152.382812 58.605469 152.445312 57.832031 152.445312 56.980469 L 152.445312 56.207031 L 151.570312 56.207031 L 151.570312 57.1875 C 151.550781 57.9375 151.507812 58.644531 151.402344 59.355469 Z M 146.738281 59.355469 "/>
<path style=" stroke:none;fill-rule:nonzero;fill:rgb(0%,0%,0%);fill-opacity:1;" d="M 118.832031 83.25 L 118.832031 74.875 L 124.542969 74.875 L 124.542969 74.042969 L 117.957031 74.042969 L 117.957031 84.125 L 124.644531 84.125 L 124.644531 83.25 Z M 114.792969 73.75 L 114.1875 74.355469 C 115.1875 75 115.957031 75.605469 116.5 76.1875 L 117.105469 75.5625 C 116.480469 74.980469 115.730469 74.355469 114.792969 73.75 Z M 114.5625 76.6875 L 113.9375 77.292969 C 114.875 77.917969 115.582031 78.5 116.125 79.0625 L 116.75 78.4375 C 116.144531 77.855469 115.417969 77.269531 114.5625 76.6875 Z M 115.980469 80.230469 C 115.457031 81.542969 114.8125 82.832031 114.105469 84.082031 L 114.980469 84.480469 C 115.644531 83.269531 116.230469 81.9375 116.792969 80.542969 Z M 115.980469 80.230469 "/>
<path style=" stroke:none;fill-rule:nonzero;fill:rgb(0%,0%,0%);fill-opacity:1;" d="M 130.980469 80.355469 L 130.980469 84.5 L 131.769531 84.5 L 131.769531 80.269531 L 132.417969 80.167969 C 132.875 81.957031 134.125 83.375 136.167969 84.417969 L 136.605469 83.6875 C 135.6875 83.269531 134.917969 82.769531 134.332031 82.1875 C 135.019531 81.769531 135.605469 81.375 136.042969 80.980469 L 135.582031 80.375 C 135.125 80.8125 134.542969 81.230469 133.855469 81.644531 C 133.5 81.167969 133.230469 80.625 133.082031 80.042969 C 133.894531 79.875 134.644531 79.667969 135.332031 79.394531 L 134.9375 78.730469 C 132.855469 79.4375 130.1875 79.8125 127 79.8125 L 127.25 80.542969 C 128.605469 80.542969 129.855469 80.480469 130.980469 80.355469 Z M 126.269531 73.980469 L 126.269531 74.667969 L 127.1875 74.667969 L 127.1875 78.144531 C 126.792969 78.167969 126.417969 78.207031 126 78.25 L 126.082031 78.957031 C 127.519531 78.855469 128.875 78.6875 130.105469 78.519531 L 130.105469 79.1875 L 130.875 79.1875 L 130.875 78.417969 C 131.144531 78.375 131.417969 78.332031 131.707031 78.292969 L 131.707031 77.625 C 131.4375 77.667969 131.144531 77.707031 130.875 77.769531 L 130.875 74.667969 L 131.707031 74.667969 L 131.707031 73.980469 Z M 127.9375 78.082031 L 127.9375 77.269531 L 130.105469 77.269531 L 130.105469 77.855469 C 129.4375 77.9375 128.707031 78.019531 127.9375 78.082031 Z M 127.9375 76.667969 L 127.9375 75.980469 L 130.105469 75.980469 L 130.105469 76.667969 Z M 127.9375 75.375 L 127.9375 74.667969 L 130.105469 74.667969 L 130.105469 75.375 Z M 132.519531 75.5 L 132 76.019531 C 132.644531 76.4375 133.269531 76.875 133.8125 77.269531 C 133.269531 77.769531 132.625 78.144531 131.917969 78.375 L 132.25 79.082031 C 133.082031 78.792969 133.8125 78.355469 134.4375 77.75 C 134.957031 78.144531 135.417969 78.542969 135.8125 78.957031 L 136.375 78.394531 C 135.957031 78 135.480469 77.605469 134.9375 77.1875 C 135.417969 76.582031 135.855469 75.855469 136.1875 74.980469 L 136.1875 74.355469 L 132.0625 74.355469 L 132.0625 75.082031 L 135.3125 75.082031 C 135.019531 75.6875 134.707031 76.25 134.3125 76.730469 C 133.769531 76.3125 133.167969 75.917969 132.519531 75.5 Z M 128.855469 80.625 C 128.519531 80.917969 128.144531 81.144531 127.75 81.375 C 127.269531 81.605469 126.769531 81.792969 126.1875 81.9375 L 126.605469 82.605469 C 127.292969 82.355469 127.875 82.125 128.3125 81.875 C 128.707031 81.644531 129.105469 81.375 129.5 81.019531 Z M 129.792969 81.9375 C 129.332031 82.3125 128.855469 82.644531 128.332031 82.917969 C 127.730469 83.230469 127.082031 83.480469 126.332031 83.667969 L 126.75 84.355469 C 127.644531 84.042969 128.355469 83.75 128.917969 83.4375 C 129.417969 83.144531 129.9375 82.792969 130.4375 82.332031 Z M 129.792969 81.9375 "/>
<path style=" stroke:none;fill-rule:nonzero;fill:rgb(0%,0%,0%);fill-opacity:1;" d="M 141.230469 78.125 L 141.230469 78.894531 L 147.730469 78.894531 L 147.730469 78.125 Z M 140.375 80.082031 L 140.375 80.875 L 143 80.875 C 142.167969 82.230469 141.457031 83.0625 140.9375 83.375 C 140.875 83.394531 140.832031 83.4375 140.75 83.457031 L 140.9375 84.1875 C 143.207031 84.042969 145.292969 83.832031 147.1875 83.582031 C 147.4375 83.875 147.644531 84.1875 147.855469 84.5 L 148.542969 84.019531 C 148.019531 83.25 147.25 82.332031 146.269531 81.292969 L 145.625 81.6875 C 145.980469 82.105469 146.332031 82.5 146.667969 82.894531 C 145.125 83.125 143.5625 83.292969 141.980469 83.394531 C 142.542969 82.894531 143.1875 82.042969 143.917969 80.875 L 148.519531 80.875 L 148.519531 80.082031 Z M 147.0625 74.8125 L 147.0625 76.207031 L 140 76.207031 L 140 74.8125 Z M 140 76.980469 L 147.894531 76.980469 L 147.894531 74 L 139.167969 74 L 139.167969 77.980469 C 139.144531 80.394531 138.730469 82.355469 137.894531 83.875 L 138.519531 84.457031 C 139.5 82.644531 140 80.480469 140 77.980469 Z M 140 76.980469 "/>
<path style=" stroke:none;fill-rule:nonzero;fill:rgb(0%,0%,0%);fill-opacity:1;" d="M 204.082031 13.542969 L 204.082031 15.3125 L 202.894531 15.3125 C 203.1875 14.542969 203.480469 13.667969 203.730469 12.6875 L 206.042969 12.6875 L 206.042969 11.875 L 203.9375 11.875 C 204.042969 11.394531 204.144531 10.875 204.269531 10.332031 L 203.480469 10.167969 C 203.355469 10.75 203.25 11.332031 203.125 11.875 L 201.9375 11.875 L 201.9375 12.6875 L 202.9375 12.6875 C 202.667969 13.75 202.375 14.667969 202.019531 15.375 L 202.207031 16.105469 L 204.082031 16.105469 L 204.082031 17.894531 C 203.375 18.019531 202.644531 18.144531 201.855469 18.230469 L 201.957031 19.082031 C 202.6875 18.957031 203.394531 18.855469 204.082031 18.707031 L 204.082031 21.207031 L 204.875 21.207031 L 204.875 18.542969 L 206.019531 18.25 L 206.019531 17.4375 C 205.667969 17.519531 205.292969 17.625 204.875 17.730469 L 204.875 16.105469 L 205.980469 16.105469 L 205.980469 15.3125 L 204.875 15.3125 L 204.875 13.542969 Z M 207.625 12.917969 L 207.625 13.625 L 211.0625 13.625 L 211.0625 12.917969 L 207.625 12.917969 C 208.230469 12.332031 208.8125 11.6875 209.375 11 C 210.292969 12.167969 211.3125 13.167969 212.4375 13.980469 L 212.894531 13.3125 C 211.8125 12.542969 210.75 11.519531 209.6875 10.230469 L 209.082031 10.230469 C 208.105469 11.417969 207 12.480469 205.769531 13.375 L 206.25 14.105469 C 206.707031 13.730469 207.167969 13.332031 207.625 12.917969 Z M 208.457031 21.125 C 209.042969 21.125 209.355469 20.8125 209.355469 20.1875 L 209.355469 14.582031 L 206.519531 14.582031 L 206.519531 21.207031 L 207.269531 21.207031 L 207.269531 18.957031 L 208.625 18.957031 L 208.625 20.042969 C 208.625 20.292969 208.480469 20.4375 208.230469 20.4375 L 207.6875 20.417969 L 207.875 21.125 Z M 207.269531 18.292969 L 207.269531 17.144531 L 208.625 17.144531 L 208.625 18.292969 Z M 207.269531 16.480469 L 207.269531 15.292969 L 208.625 15.292969 L 208.625 16.480469 Z M 210.0625 14.917969 L 210.0625 19.230469 L 210.75 19.230469 L 210.75 14.917969 Z M 211.375 21.144531 C 211.957031 21.144531 212.25 20.792969 212.25 20.105469 L 212.25 14.375 L 211.5 14.375 L 211.5 19.917969 C 211.5 20.25 211.375 20.4375 211.105469 20.4375 C 210.8125 20.4375 210.5 20.417969 210.1875 20.375 L 210.355469 21.144531 Z M 211.375 21.144531 "/>
<path style=" stroke:none;fill-rule:nonzero;fill:rgb(0%,0%,0%);fill-opacity:1;" d="M 222.582031 14.375 L 219.769531 14.375 L 219.769531 10.1875 L 218.894531 10.1875 L 218.894531 14.375 L 216.082031 14.375 L 216.082031 11.105469 L 215.207031 11.105469 L 215.207031 15.207031 L 218.894531 15.207031 L 218.894531 19.625 L 215.5 19.625 L 215.5 16.332031 L 214.625 16.332031 L 214.625 21.125 L 215.5 21.125 L 215.5 20.4375 L 223.167969 20.4375 L 223.167969 21.125 L 224.042969 21.125 L 224.042969 16.332031 L 223.167969 16.332031 L 223.167969 19.625 L 219.769531 19.625 L 219.769531 15.207031 L 223.457031 15.207031 L 223.457031 11.105469 L 222.582031 11.105469 Z M 222.582031 14.375 "/>
<path style=" stroke:none;fill-rule:nonzero;fill:rgb(0%,0%,0%);fill-opacity:1;" d="M 28.082031 13.542969 L 28.082031 15.3125 L 26.894531 15.3125 C 27.1875 14.542969 27.480469 13.667969 27.730469 12.6875 L 30.042969 12.6875 L 30.042969 11.875 L 27.9375 11.875 C 28.042969 11.394531 28.144531 10.875 28.269531 10.332031 L 27.480469 10.167969 C 27.355469 10.75 27.25 11.332031 27.125 11.875 L 25.9375 11.875 L 25.9375 12.6875 L 26.9375 12.6875 C 26.667969 13.75 26.375 14.667969 26.019531 15.375 L 26.207031 16.105469 L 28.082031 16.105469 L 28.082031 17.894531 C 27.375 18.019531 26.644531 18.144531 25.855469 18.230469 L 25.957031 19.082031 C 26.6875 18.957031 27.394531 18.855469 28.082031 18.707031 L 28.082031 21.207031 L 28.875 21.207031 L 28.875 18.542969 L 30.019531 18.25 L 30.019531 17.4375 C 29.667969 17.519531 29.292969 17.625 28.875 17.730469 L 28.875 16.105469 L 29.980469 16.105469 L 29.980469 15.3125 L 28.875 15.3125 L 28.875 13.542969 Z M 31.625 12.917969 L 31.625 13.625 L 35.0625 13.625 L 35.0625 12.917969 L 31.625 12.917969 C 32.230469 12.332031 32.8125 11.6875 33.375 11 C 34.292969 12.167969 35.3125 13.167969 36.4375 13.980469 L 36.894531 13.3125 C 35.8125 12.542969 34.75 11.519531 33.6875 10.230469 L 33.082031 10.230469 C 32.105469 11.417969 31 12.480469 29.769531 13.375 L 30.25 14.105469 C 30.707031 13.730469 31.167969 13.332031 31.625 12.917969 Z M 32.457031 21.125 C 33.042969 21.125 33.355469 20.8125 33.355469 20.1875 L 33.355469 14.582031 L 30.519531 14.582031 L 30.519531 21.207031 L 31.269531 21.207031 L 31.269531 18.957031 L 32.625 18.957031 L 32.625 20.042969 C 32.625 20.292969 32.480469 20.4375 32.230469 20.4375 L 31.6875 20.417969 L 31.875 21.125 Z M 31.269531 18.292969 L 31.269531 17.144531 L 32.625 17.144531 L 32.625 18.292969 Z M 31.269531 16.480469 L 31.269531 15.292969 L 32.625 15.292969 L 32.625 16.480469 Z M 34.0625 14.917969 L 34.0625 19.230469 L 34.75 19.230469 L 34.75 14.917969 Z M 35.375 21.144531 C 35.957031 21.144531 36.25 20.792969 36.25 20.105469 L 36.25 14.375 L 35.5 14.375 L 35.5 19.917969 C 35.5 20.25 35.375 20.4375 35.105469 20.4375 C 34.8125 20.4375 34.5 20.417969 34.1875 20.375 L 34.355469 21.144531 Z M 35.375 21.144531 "/>
<path style=" stroke:none;fill-rule:nonzero;fill:rgb(0%,0%,0%);fill-opacity:1;" d="M 42.8125 12.980469 C 42.042969 16.167969 40.375 18.625 37.792969 20.292969 L 38.3125 21.042969 C 40.832031 19.394531 42.5 17.042969 43.292969 13.980469 C 43.355469 14.125 43.394531 14.292969 43.480469 14.5 C 44.707031 17.667969 46.292969 19.855469 48.25 21.019531 L 48.792969 20.332031 C 46.875 19.144531 45.375 17.105469 44.25 14.25 C 43.519531 12.292969 42.605469 10.9375 41.542969 10.1875 L 40.832031 10.644531 C 41.582031 11.207031 42.25 11.980469 42.8125 12.980469 Z M 42.8125 12.980469 "/>
</g>
</svg>
