<svg width="640" height="310" viewBox="0 0 640 310" fill="none" xmlns="http://www.w3.org/2000/svg">
<path d="M112 270L92 258.453L92 281.547L112 270ZM80 272L94 272L94 268L80 268L80 272Z" fill="#CD4848"/>
<path d="M224 270L204 258.453L204 281.547L224 270ZM192 272L206 272L206 268L192 268L192 272Z" fill="#CD4848"/>
<path d="M336 270L316 258.453L316 281.547L336 270ZM304 272L318 272L318 268L304 268L304 272Z" fill="#CD4848"/>
<path d="M40 230L51.547 210H28.453L40 230ZM38 198V212H42V198H38Z" fill="#358C9F"/>
<path d="M152 230L163.547 210H140.453L152 230ZM150 198V212H154V198H150Z" fill="#358C9F"/>
<path d="M264 230L275.547 210H252.453L264 230ZM262 198V212H266V198H262Z" fill="#358C9F"/>
<path d="M377 230L388.547 210H365.453L377 230ZM375 198V212H379V198H375Z" fill="#358C9F"/>
<circle cx="40" cy="158" r="40" fill="#358C9F"/>
<path d="M31.4992 146.124C32.0752 146.028 32.6752 146.052 33.2992 146.196C34.4992 146.46 35.3872 147.012 35.9632 147.852C36.0592 147.996 36.1312 148.068 36.1792 148.068L36.3952 147.78C36.9712 147.108 37.6552 146.616 38.4472 146.304C39.3592 145.968 40.2712 146.004 41.1832 146.412C41.8792 146.772 42.3712 147.252 42.6592 147.852C43.1392 148.812 43.1512 149.82 42.6952 150.876C42.5032 151.284 42.2632 151.596 41.9752 151.812C41.1112 152.436 40.2952 152.556 39.5272 152.172C39.3832 152.1 39.2632 152.016 39.1672 151.92C38.8072 151.56 38.6632 151.104 38.7352 150.552C38.8792 149.472 39.4312 148.764 40.3912 148.428L40.6792 148.32L40.5352 148.176C40.1032 147.792 39.5752 147.684 38.9512 147.852C38.9032 147.852 38.8552 147.864 38.8072 147.888C38.0872 148.152 37.5112 148.848 37.0792 149.976C36.8392 150.576 36.2032 153.108 35.1712 157.572C35.0512 157.98 34.9912 158.232 34.9912 158.328C34.8712 159.072 34.8832 159.576 35.0272 159.84C35.2192 160.2 35.5192 160.452 35.9272 160.596C36.0472 160.644 36.2992 160.668 36.6832 160.668C37.0432 160.668 37.3072 160.644 37.4752 160.596C38.0992 160.404 38.7232 160.02 39.3472 159.444C40.0912 158.676 40.5832 157.836 40.8232 156.924C40.8952 156.684 40.9912 156.552 41.1112 156.528C41.2072 156.504 41.4232 156.492 41.7592 156.492C42.2152 156.492 42.4792 156.516 42.5512 156.564C42.5992 156.612 42.6232 156.696 42.6232 156.816C42.6232 157.32 42.3112 158.076 41.6872 159.084C41.6632 159.156 41.6272 159.216 41.5792 159.264C40.4992 160.92 39.0712 161.94 37.2952 162.324C36.7432 162.42 36.1192 162.42 35.4232 162.324C34.1992 162.06 33.2872 161.52 32.6872 160.704L32.4712 160.38L32.3632 160.488C31.4272 161.688 30.3712 162.324 29.1952 162.396C27.8272 162.468 26.8072 161.964 26.1352 160.884C25.9912 160.692 25.8832 160.476 25.8112 160.236C25.6432 159.708 25.5952 159.144 25.6672 158.544C25.8352 157.512 26.3152 156.804 27.1072 156.42C27.8752 156.06 28.5592 156.048 29.1592 156.384C29.7112 156.648 29.9632 157.128 29.9152 157.824C29.8432 158.784 29.3992 159.48 28.5832 159.912C28.4632 159.984 28.2952 160.056 28.0792 160.128L27.9352 160.164L28.0432 160.272C28.3792 160.536 28.7632 160.668 29.1952 160.668C29.5072 160.692 29.8312 160.608 30.1672 160.416C30.7912 159.984 31.2592 159.324 31.5712 158.436L33.5512 150.516C33.7192 149.652 33.7432 149.052 33.6232 148.716C33.5032 148.332 33.1912 148.056 32.6872 147.888C32.2072 147.744 31.7152 147.744 31.2112 147.888C30.5152 148.08 29.9032 148.44 29.3752 148.968C28.6792 149.688 28.1752 150.492 27.8632 151.38C27.7912 151.668 27.7192 151.848 27.6472 151.92C27.5992 151.968 27.3472 151.992 26.8912 151.992H26.2072L26.0992 151.884C26.0272 151.812 25.9912 151.716 25.9912 151.596C26.0632 151.236 26.2072 150.828 26.4232 150.372C26.6392 149.868 26.9152 149.388 27.2512 148.932C27.6352 148.356 28.1632 147.816 28.8352 147.312C28.8592 147.288 28.8952 147.264 28.9432 147.24C29.7352 146.688 30.5872 146.316 31.4992 146.124ZM49.8256 160.237C50.2864 160.194 50.74 160.208 51.1864 160.28C52.1656 160.424 52.9504 160.784 53.5408 161.36C53.8432 161.677 54.0736 162.008 54.232 162.354C54.592 163.059 54.7936 163.988 54.8368 165.14C54.88 167.041 54.448 168.445 53.5408 169.352C52.9792 169.914 52.1728 170.274 51.1216 170.432C50.6608 170.49 50.1352 170.49 49.5448 170.432C49.516 170.432 49.4872 170.432 49.4584 170.432C48.4072 170.274 47.6008 169.914 47.0392 169.352C46.132 168.445 45.7 167.041 45.7432 165.14C45.7576 164.492 45.8224 163.952 45.9376 163.52C46.0816 162.886 46.3192 162.325 46.6504 161.835C46.8664 161.504 47.1616 161.209 47.536 160.95C48.1696 160.532 48.9328 160.294 49.8256 160.237ZM50.7112 161.252C49.732 161.137 48.9976 161.338 48.508 161.857C48.2776 162.087 48.1408 162.526 48.0976 163.174C48.0832 163.218 48.076 163.268 48.076 163.326C48.0328 163.844 48.0256 164.946 48.0544 166.63C48.0544 166.89 48.0616 167.062 48.076 167.149C48.1192 167.854 48.1984 168.308 48.3136 168.51C48.5584 168.985 49.0192 169.287 49.696 169.417C50.0128 169.474 50.4088 169.474 50.884 169.417C51.5608 169.287 52.0216 168.985 52.2664 168.51C52.3816 168.308 52.4608 167.854 52.504 167.149C52.5472 166.573 52.5544 165.464 52.5256 163.822C52.5256 163.578 52.5184 163.412 52.504 163.326C52.4464 162.591 52.3024 162.102 52.072 161.857C51.7696 161.526 51.316 161.324 50.7112 161.252Z" fill="white"/>
<circle cx="152" cy="158" r="40" fill="#358C9F"/>
<path d="M142.499 146.124C143.075 146.028 143.675 146.052 144.299 146.196C145.499 146.46 146.387 147.012 146.963 147.852C147.059 147.996 147.131 148.068 147.179 148.068L147.395 147.78C147.971 147.108 148.655 146.616 149.447 146.304C150.359 145.968 151.271 146.004 152.183 146.412C152.879 146.772 153.371 147.252 153.659 147.852C154.139 148.812 154.151 149.82 153.695 150.876C153.503 151.284 153.263 151.596 152.975 151.812C152.111 152.436 151.295 152.556 150.527 152.172C150.383 152.1 150.263 152.016 150.167 151.92C149.807 151.56 149.663 151.104 149.735 150.552C149.879 149.472 150.431 148.764 151.391 148.428L151.679 148.32L151.535 148.176C151.103 147.792 150.575 147.684 149.951 147.852C149.903 147.852 149.855 147.864 149.807 147.888C149.087 148.152 148.511 148.848 148.079 149.976C147.839 150.576 147.203 153.108 146.171 157.572C146.051 157.98 145.991 158.232 145.991 158.328C145.871 159.072 145.883 159.576 146.027 159.84C146.219 160.2 146.519 160.452 146.927 160.596C147.047 160.644 147.299 160.668 147.683 160.668C148.043 160.668 148.307 160.644 148.475 160.596C149.099 160.404 149.723 160.02 150.347 159.444C151.091 158.676 151.583 157.836 151.823 156.924C151.895 156.684 151.991 156.552 152.111 156.528C152.207 156.504 152.423 156.492 152.759 156.492C153.215 156.492 153.479 156.516 153.551 156.564C153.599 156.612 153.623 156.696 153.623 156.816C153.623 157.32 153.311 158.076 152.687 159.084C152.663 159.156 152.627 159.216 152.579 159.264C151.499 160.92 150.071 161.94 148.295 162.324C147.743 162.42 147.119 162.42 146.423 162.324C145.199 162.06 144.287 161.52 143.687 160.704L143.471 160.38L143.363 160.488C142.427 161.688 141.371 162.324 140.195 162.396C138.827 162.468 137.807 161.964 137.135 160.884C136.991 160.692 136.883 160.476 136.811 160.236C136.643 159.708 136.595 159.144 136.667 158.544C136.835 157.512 137.315 156.804 138.107 156.42C138.875 156.06 139.559 156.048 140.159 156.384C140.711 156.648 140.963 157.128 140.915 157.824C140.843 158.784 140.399 159.48 139.583 159.912C139.463 159.984 139.295 160.056 139.079 160.128L138.935 160.164L139.043 160.272C139.379 160.536 139.763 160.668 140.195 160.668C140.507 160.692 140.831 160.608 141.167 160.416C141.791 159.984 142.259 159.324 142.571 158.436L144.551 150.516C144.719 149.652 144.743 149.052 144.623 148.716C144.503 148.332 144.191 148.056 143.687 147.888C143.207 147.744 142.715 147.744 142.211 147.888C141.515 148.08 140.903 148.44 140.375 148.968C139.679 149.688 139.175 150.492 138.863 151.38C138.791 151.668 138.719 151.848 138.647 151.92C138.599 151.968 138.347 151.992 137.891 151.992H137.207L137.099 151.884C137.027 151.812 136.991 151.716 136.991 151.596C137.063 151.236 137.207 150.828 137.423 150.372C137.639 149.868 137.915 149.388 138.251 148.932C138.635 148.356 139.163 147.816 139.835 147.312C139.859 147.288 139.895 147.264 139.943 147.24C140.735 146.688 141.587 146.316 142.499 146.124ZM161.949 160.28C162.035 160.237 162.122 160.215 162.208 160.215C162.309 160.215 162.381 160.237 162.424 160.28L162.51 160.345V164.47C162.51 167.221 162.525 168.603 162.554 168.618C162.626 168.718 163.158 168.776 164.152 168.79C164.771 168.79 165.11 168.841 165.167 168.942C165.21 169.042 165.218 169.302 165.189 169.719C165.189 169.791 165.182 169.834 165.167 169.849C165.124 169.935 164.994 169.978 164.778 169.978C164.678 169.978 164.483 169.978 164.195 169.978C162.957 169.921 161.308 169.914 159.249 169.957C159.047 169.971 158.882 169.978 158.752 169.978C158.176 169.993 157.859 169.957 157.802 169.87C157.73 169.784 157.715 169.518 157.758 169.071C157.773 168.985 157.787 168.934 157.802 168.92C157.83 168.834 157.967 168.79 158.212 168.79C158.313 168.79 158.514 168.79 158.817 168.79C159.782 168.776 160.314 168.718 160.415 168.618C160.444 168.603 160.458 167.516 160.458 165.356V162.138H160.394C159.688 162.267 159.018 162.339 158.385 162.354H157.802L157.737 162.289L157.65 162.202V161.749V161.295L157.715 161.23L157.78 161.144H158.342C159.94 161.101 161.142 160.813 161.949 160.28Z" fill="white"/>
<circle cx="264" cy="158" r="40" fill="#358C9F"/>
<path d="M255.499 146.124C256.075 146.028 256.675 146.052 257.299 146.196C258.499 146.46 259.387 147.012 259.963 147.852C260.059 147.996 260.131 148.068 260.179 148.068L260.395 147.78C260.971 147.108 261.655 146.616 262.447 146.304C263.359 145.968 264.271 146.004 265.183 146.412C265.879 146.772 266.371 147.252 266.659 147.852C267.139 148.812 267.151 149.82 266.695 150.876C266.503 151.284 266.263 151.596 265.975 151.812C265.111 152.436 264.295 152.556 263.527 152.172C263.383 152.1 263.263 152.016 263.167 151.92C262.807 151.56 262.663 151.104 262.735 150.552C262.879 149.472 263.431 148.764 264.391 148.428L264.679 148.32L264.535 148.176C264.103 147.792 263.575 147.684 262.951 147.852C262.903 147.852 262.855 147.864 262.807 147.888C262.087 148.152 261.511 148.848 261.079 149.976C260.839 150.576 260.203 153.108 259.171 157.572C259.051 157.98 258.991 158.232 258.991 158.328C258.871 159.072 258.883 159.576 259.027 159.84C259.219 160.2 259.519 160.452 259.927 160.596C260.047 160.644 260.299 160.668 260.683 160.668C261.043 160.668 261.307 160.644 261.475 160.596C262.099 160.404 262.723 160.02 263.347 159.444C264.091 158.676 264.583 157.836 264.823 156.924C264.895 156.684 264.991 156.552 265.111 156.528C265.207 156.504 265.423 156.492 265.759 156.492C266.215 156.492 266.479 156.516 266.551 156.564C266.599 156.612 266.623 156.696 266.623 156.816C266.623 157.32 266.311 158.076 265.687 159.084C265.663 159.156 265.627 159.216 265.579 159.264C264.499 160.92 263.071 161.94 261.295 162.324C260.743 162.42 260.119 162.42 259.423 162.324C258.199 162.06 257.287 161.52 256.687 160.704L256.471 160.38L256.363 160.488C255.427 161.688 254.371 162.324 253.195 162.396C251.827 162.468 250.807 161.964 250.135 160.884C249.991 160.692 249.883 160.476 249.811 160.236C249.643 159.708 249.595 159.144 249.667 158.544C249.835 157.512 250.315 156.804 251.107 156.42C251.875 156.06 252.559 156.048 253.159 156.384C253.711 156.648 253.963 157.128 253.915 157.824C253.843 158.784 253.399 159.48 252.583 159.912C252.463 159.984 252.295 160.056 252.079 160.128L251.935 160.164L252.043 160.272C252.379 160.536 252.763 160.668 253.195 160.668C253.507 160.692 253.831 160.608 254.167 160.416C254.791 159.984 255.259 159.324 255.571 158.436L257.551 150.516C257.719 149.652 257.743 149.052 257.623 148.716C257.503 148.332 257.191 148.056 256.687 147.888C256.207 147.744 255.715 147.744 255.211 147.888C254.515 148.08 253.903 148.44 253.375 148.968C252.679 149.688 252.175 150.492 251.863 151.38C251.791 151.668 251.719 151.848 251.647 151.92C251.599 151.968 251.347 151.992 250.891 151.992H250.207L250.099 151.884C250.027 151.812 249.991 151.716 249.991 151.596C250.063 151.236 250.207 150.828 250.423 150.372C250.639 149.868 250.915 149.388 251.251 148.932C251.635 148.356 252.163 147.816 252.835 147.312C252.859 147.288 252.895 147.264 252.943 147.24C253.735 146.688 254.587 146.316 255.499 146.124ZM273.372 160.237C273.775 160.208 274.294 160.215 274.927 160.258C276.77 160.503 277.93 161.238 278.405 162.462C278.491 162.663 278.549 162.872 278.578 163.088C278.621 163.434 278.606 163.75 278.534 164.038C278.448 164.341 278.311 164.614 278.124 164.859C277.778 165.277 277.022 165.738 275.856 166.242C275.381 166.443 274.661 166.818 273.696 167.365L272.616 167.991H274.711C276.209 167.962 276.965 167.948 276.979 167.948L277.152 167.926L277.217 167.818C277.303 167.674 277.382 167.415 277.454 167.041C277.512 166.782 277.577 166.638 277.649 166.609C277.706 166.594 277.843 166.587 278.059 166.587H278.448L278.513 166.652C278.527 166.666 278.556 166.71 278.599 166.782L278.297 168.337C278.081 169.33 277.973 169.834 277.973 169.849C277.973 169.892 277.944 169.928 277.886 169.957L277.843 170H273.934C271.298 170 269.952 169.957 269.894 169.87C269.822 169.784 269.808 169.503 269.851 169.028C269.851 168.956 269.858 168.913 269.873 168.898C269.887 168.855 270.485 168.445 271.666 167.667L273.934 166.198C274.654 165.723 275.158 165.342 275.446 165.054C275.921 164.578 276.158 164.06 276.158 163.498C276.158 163.124 276.05 162.786 275.834 162.483C275.316 161.792 274.394 161.446 273.07 161.446C272.767 161.446 272.566 161.461 272.465 161.49C272.206 161.562 272.026 161.634 271.925 161.706L271.795 161.77L271.925 161.9C272.285 162.217 272.378 162.613 272.206 163.088C272.191 163.131 272.17 163.182 272.141 163.239C272.069 163.412 271.918 163.556 271.687 163.671C271.356 163.844 271.018 163.844 270.672 163.671C270.384 163.527 270.197 163.29 270.11 162.958C270.053 162.757 270.067 162.498 270.154 162.181C270.24 161.878 270.355 161.648 270.499 161.49C271.018 160.798 271.975 160.381 273.372 160.237Z" fill="white"/>
<circle cx="376" cy="158" r="40" fill="#358C9F"/>
<path d="M367.499 146.124C368.075 146.028 368.675 146.052 369.299 146.196C370.499 146.46 371.387 147.012 371.963 147.852C372.059 147.996 372.131 148.068 372.179 148.068L372.395 147.78C372.971 147.108 373.655 146.616 374.447 146.304C375.359 145.968 376.271 146.004 377.183 146.412C377.879 146.772 378.371 147.252 378.659 147.852C379.139 148.812 379.151 149.82 378.695 150.876C378.503 151.284 378.263 151.596 377.975 151.812C377.111 152.436 376.295 152.556 375.527 152.172C375.383 152.1 375.263 152.016 375.167 151.92C374.807 151.56 374.663 151.104 374.735 150.552C374.879 149.472 375.431 148.764 376.391 148.428L376.679 148.32L376.535 148.176C376.103 147.792 375.575 147.684 374.951 147.852C374.903 147.852 374.855 147.864 374.807 147.888C374.087 148.152 373.511 148.848 373.079 149.976C372.839 150.576 372.203 153.108 371.171 157.572C371.051 157.98 370.991 158.232 370.991 158.328C370.871 159.072 370.883 159.576 371.027 159.84C371.219 160.2 371.519 160.452 371.927 160.596C372.047 160.644 372.299 160.668 372.683 160.668C373.043 160.668 373.307 160.644 373.475 160.596C374.099 160.404 374.723 160.02 375.347 159.444C376.091 158.676 376.583 157.836 376.823 156.924C376.895 156.684 376.991 156.552 377.111 156.528C377.207 156.504 377.423 156.492 377.759 156.492C378.215 156.492 378.479 156.516 378.551 156.564C378.599 156.612 378.623 156.696 378.623 156.816C378.623 157.32 378.311 158.076 377.687 159.084C377.663 159.156 377.627 159.216 377.579 159.264C376.499 160.92 375.071 161.94 373.295 162.324C372.743 162.42 372.119 162.42 371.423 162.324C370.199 162.06 369.287 161.52 368.687 160.704L368.471 160.38L368.363 160.488C367.427 161.688 366.371 162.324 365.195 162.396C363.827 162.468 362.807 161.964 362.135 160.884C361.991 160.692 361.883 160.476 361.811 160.236C361.643 159.708 361.595 159.144 361.667 158.544C361.835 157.512 362.315 156.804 363.107 156.42C363.875 156.06 364.559 156.048 365.159 156.384C365.711 156.648 365.963 157.128 365.915 157.824C365.843 158.784 365.399 159.48 364.583 159.912C364.463 159.984 364.295 160.056 364.079 160.128L363.935 160.164L364.043 160.272C364.379 160.536 364.763 160.668 365.195 160.668C365.507 160.692 365.831 160.608 366.167 160.416C366.791 159.984 367.259 159.324 367.571 158.436L369.551 150.516C369.719 149.652 369.743 149.052 369.623 148.716C369.503 148.332 369.191 148.056 368.687 147.888C368.207 147.744 367.715 147.744 367.211 147.888C366.515 148.08 365.903 148.44 365.375 148.968C364.679 149.688 364.175 150.492 363.863 151.38C363.791 151.668 363.719 151.848 363.647 151.92C363.599 151.968 363.347 151.992 362.891 151.992H362.207L362.099 151.884C362.027 151.812 361.991 151.716 361.991 151.596C362.063 151.236 362.207 150.828 362.423 150.372C362.639 149.868 362.915 149.388 363.251 148.932C363.635 148.356 364.163 147.816 364.835 147.312C364.859 147.288 364.895 147.264 364.943 147.24C365.735 146.688 366.587 146.316 367.499 146.124ZM385.61 160.237C385.912 160.208 386.33 160.215 386.862 160.258C387.899 160.417 388.749 160.827 389.411 161.49C389.944 162.066 390.203 162.728 390.189 163.477C390.146 164.254 389.858 164.967 389.325 165.615C388.922 166.105 388.41 166.494 387.791 166.782C387.647 166.868 387.568 166.911 387.554 166.911C387.554 166.926 387.575 166.94 387.618 166.954C387.935 166.998 388.331 167.156 388.806 167.43C389.872 168.034 390.513 168.862 390.729 169.914C390.786 170.245 390.786 170.634 390.729 171.08C390.556 171.973 390.153 172.714 389.519 173.305C389.188 173.636 388.806 173.91 388.374 174.126C387.813 174.414 387.201 174.586 386.538 174.644C386.121 174.702 385.696 174.687 385.264 174.601C384.299 174.471 383.486 174.133 382.823 173.586C382.19 173.038 381.851 172.362 381.808 171.555C381.808 171.238 381.858 170.972 381.959 170.756C382.146 170.41 382.449 170.18 382.866 170.065C383.054 170.007 383.291 170.007 383.579 170.065C384.141 170.223 384.479 170.576 384.594 171.123C384.609 171.224 384.616 171.325 384.616 171.426C384.616 172.03 384.371 172.448 383.882 172.678C383.766 172.722 383.709 172.758 383.709 172.786C383.752 172.873 383.932 172.988 384.249 173.132C384.738 173.377 385.329 173.499 386.02 173.499C386.279 173.499 386.466 173.485 386.582 173.456C387.417 173.182 387.906 172.563 388.05 171.598C388.18 170.835 388.18 170.072 388.05 169.309C387.892 168.474 387.496 167.905 386.862 167.602C386.632 167.487 386.294 167.422 385.847 167.408C385.775 167.408 385.653 167.408 385.48 167.408L384.594 167.386L384.53 167.343C384.501 167.3 384.486 167.156 384.486 166.911C384.486 166.609 384.522 166.443 384.594 166.414L385.242 166.35C385.732 166.321 386.049 166.278 386.193 166.22C386.942 165.961 387.424 165.306 387.64 164.254C387.712 163.938 387.748 163.606 387.748 163.261C387.748 162.771 387.676 162.382 387.532 162.094C387.489 161.979 387.41 161.864 387.294 161.749C386.906 161.374 386.38 161.23 385.718 161.317C385.113 161.374 384.602 161.583 384.184 161.943C384.04 162.044 384.011 162.094 384.098 162.094C384.227 162.094 384.414 162.202 384.659 162.418C385.019 162.778 385.12 163.225 384.962 163.758C384.933 163.844 384.897 163.93 384.854 164.017C384.652 164.449 384.27 164.665 383.709 164.665C383.478 164.665 383.262 164.614 383.061 164.514C382.816 164.384 382.643 164.211 382.542 163.995C382.442 163.794 382.391 163.534 382.391 163.218C382.434 162.67 382.6 162.188 382.888 161.77C383.104 161.439 383.392 161.151 383.752 160.906C384.285 160.546 384.904 160.323 385.61 160.237Z" fill="white"/>
<path d="M489 230L500.547 210H477.453L489 230ZM487 198V212H491V198H487Z" fill="#358C9F"/>
<circle cx="488" cy="158" r="40" fill="#358C9F"/>
<path d="M479.499 146.124C480.075 146.028 480.675 146.052 481.299 146.196C482.499 146.46 483.387 147.012 483.963 147.852C484.059 147.996 484.131 148.068 484.179 148.068L484.395 147.78C484.971 147.108 485.655 146.616 486.447 146.304C487.359 145.968 488.271 146.004 489.183 146.412C489.879 146.772 490.371 147.252 490.659 147.852C491.139 148.812 491.151 149.82 490.695 150.876C490.503 151.284 490.263 151.596 489.975 151.812C489.111 152.436 488.295 152.556 487.527 152.172C487.383 152.1 487.263 152.016 487.167 151.92C486.807 151.56 486.663 151.104 486.735 150.552C486.879 149.472 487.431 148.764 488.391 148.428L488.679 148.32L488.535 148.176C488.103 147.792 487.575 147.684 486.951 147.852C486.903 147.852 486.855 147.864 486.807 147.888C486.087 148.152 485.511 148.848 485.079 149.976C484.839 150.576 484.203 153.108 483.171 157.572C483.051 157.98 482.991 158.232 482.991 158.328C482.871 159.072 482.883 159.576 483.027 159.84C483.219 160.2 483.519 160.452 483.927 160.596C484.047 160.644 484.299 160.668 484.683 160.668C485.043 160.668 485.307 160.644 485.475 160.596C486.099 160.404 486.723 160.02 487.347 159.444C488.091 158.676 488.583 157.836 488.823 156.924C488.895 156.684 488.991 156.552 489.111 156.528C489.207 156.504 489.423 156.492 489.759 156.492C490.215 156.492 490.479 156.516 490.551 156.564C490.599 156.612 490.623 156.696 490.623 156.816C490.623 157.32 490.311 158.076 489.687 159.084C489.663 159.156 489.627 159.216 489.579 159.264C488.499 160.92 487.071 161.94 485.295 162.324C484.743 162.42 484.119 162.42 483.423 162.324C482.199 162.06 481.287 161.52 480.687 160.704L480.471 160.38L480.363 160.488C479.427 161.688 478.371 162.324 477.195 162.396C475.827 162.468 474.807 161.964 474.135 160.884C473.991 160.692 473.883 160.476 473.811 160.236C473.643 159.708 473.595 159.144 473.667 158.544C473.835 157.512 474.315 156.804 475.107 156.42C475.875 156.06 476.559 156.048 477.159 156.384C477.711 156.648 477.963 157.128 477.915 157.824C477.843 158.784 477.399 159.48 476.583 159.912C476.463 159.984 476.295 160.056 476.079 160.128L475.935 160.164L476.043 160.272C476.379 160.536 476.763 160.668 477.195 160.668C477.507 160.692 477.831 160.608 478.167 160.416C478.791 159.984 479.259 159.324 479.571 158.436L481.551 150.516C481.719 149.652 481.743 149.052 481.623 148.716C481.503 148.332 481.191 148.056 480.687 147.888C480.207 147.744 479.715 147.744 479.211 147.888C478.515 148.08 477.903 148.44 477.375 148.968C476.679 149.688 476.175 150.492 475.863 151.38C475.791 151.668 475.719 151.848 475.647 151.92C475.599 151.968 475.347 151.992 474.891 151.992H474.207L474.099 151.884C474.027 151.812 473.991 151.716 473.991 151.596C474.063 151.236 474.207 150.828 474.423 150.372C474.639 149.868 474.915 149.388 475.251 148.932C475.635 148.356 476.163 147.816 476.835 147.312C476.859 147.288 476.895 147.264 476.943 147.24C477.735 146.688 478.587 146.316 479.499 146.124ZM499.878 160.021C499.921 159.992 500.122 159.978 500.482 159.978H501.022L501.087 160.042L501.152 160.107V164.449V168.79H502.038H502.923L502.988 168.855L503.074 168.92V169.395V169.87L502.988 169.935L502.923 170H502.038H501.152V171.404C501.152 172.34 501.159 172.815 501.174 172.83C501.202 172.916 501.57 172.966 502.275 172.981H502.945L503.01 173.067L503.074 173.132V173.586V174.039L502.988 174.126L502.923 174.19H502.686L501.26 174.147C500.468 174.133 499.662 174.133 498.841 174.147L497.35 174.19H497.091L497.026 174.126L496.962 174.061V173.586V173.11L497.026 173.046L497.091 172.981H497.545C498.236 172.981 498.668 172.959 498.841 172.916C498.927 172.887 498.978 172.858 498.992 172.83C499.021 172.801 499.035 172.318 499.035 171.382V170H496.357C494.542 170 493.606 169.957 493.549 169.87C493.52 169.842 493.506 169.654 493.506 169.309V168.79L493.657 168.574C493.57 168.704 494.622 167.242 496.81 164.19C498.812 161.439 499.834 160.05 499.878 160.021ZM499.165 168.79V165.766V162.742L496.983 165.766L494.802 168.769L496.983 168.79H499.165Z" fill="white"/>
<path d="M601 230L612.547 210H589.453L601 230ZM599 198V212H603V198H599Z" fill="#358C9F"/>
<circle cx="600" cy="158" r="40" fill="#358C9F"/>
<path d="M591.499 146.124C592.075 146.028 592.675 146.052 593.299 146.196C594.499 146.46 595.387 147.012 595.963 147.852C596.059 147.996 596.131 148.068 596.179 148.068L596.395 147.78C596.971 147.108 597.655 146.616 598.447 146.304C599.359 145.968 600.271 146.004 601.183 146.412C601.879 146.772 602.371 147.252 602.659 147.852C603.139 148.812 603.151 149.82 602.695 150.876C602.503 151.284 602.263 151.596 601.975 151.812C601.111 152.436 600.295 152.556 599.527 152.172C599.383 152.1 599.263 152.016 599.167 151.92C598.807 151.56 598.663 151.104 598.735 150.552C598.879 149.472 599.431 148.764 600.391 148.428L600.679 148.32L600.535 148.176C600.103 147.792 599.575 147.684 598.951 147.852C598.903 147.852 598.855 147.864 598.807 147.888C598.087 148.152 597.511 148.848 597.079 149.976C596.839 150.576 596.203 153.108 595.171 157.572C595.051 157.98 594.991 158.232 594.991 158.328C594.871 159.072 594.883 159.576 595.027 159.84C595.219 160.2 595.519 160.452 595.927 160.596C596.047 160.644 596.299 160.668 596.683 160.668C597.043 160.668 597.307 160.644 597.475 160.596C598.099 160.404 598.723 160.02 599.347 159.444C600.091 158.676 600.583 157.836 600.823 156.924C600.895 156.684 600.991 156.552 601.111 156.528C601.207 156.504 601.423 156.492 601.759 156.492C602.215 156.492 602.479 156.516 602.551 156.564C602.599 156.612 602.623 156.696 602.623 156.816C602.623 157.32 602.311 158.076 601.687 159.084C601.663 159.156 601.627 159.216 601.579 159.264C600.499 160.92 599.071 161.94 597.295 162.324C596.743 162.42 596.119 162.42 595.423 162.324C594.199 162.06 593.287 161.52 592.687 160.704L592.471 160.38L592.363 160.488C591.427 161.688 590.371 162.324 589.195 162.396C587.827 162.468 586.807 161.964 586.135 160.884C585.991 160.692 585.883 160.476 585.811 160.236C585.643 159.708 585.595 159.144 585.667 158.544C585.835 157.512 586.315 156.804 587.107 156.42C587.875 156.06 588.559 156.048 589.159 156.384C589.711 156.648 589.963 157.128 589.915 157.824C589.843 158.784 589.399 159.48 588.583 159.912C588.463 159.984 588.295 160.056 588.079 160.128L587.935 160.164L588.043 160.272C588.379 160.536 588.763 160.668 589.195 160.668C589.507 160.692 589.831 160.608 590.167 160.416C590.791 159.984 591.259 159.324 591.571 158.436L593.551 150.516C593.719 149.652 593.743 149.052 593.623 148.716C593.503 148.332 593.191 148.056 592.687 147.888C592.207 147.744 591.715 147.744 591.211 147.888C590.515 148.08 589.903 148.44 589.375 148.968C588.679 149.688 588.175 150.492 587.863 151.38C587.791 151.668 587.719 151.848 587.647 151.92C587.599 151.968 587.347 151.992 586.891 151.992H586.207L586.099 151.884C586.027 151.812 585.991 151.716 585.991 151.596C586.063 151.236 586.207 150.828 586.423 150.372C586.639 149.868 586.915 149.388 587.251 148.932C587.635 148.356 588.163 147.816 588.835 147.312C588.859 147.288 588.895 147.264 588.943 147.24C589.735 146.688 590.587 146.316 591.499 146.124ZM606.91 160.258C606.967 160.215 607.082 160.23 607.255 160.302C608.666 160.878 610.157 161.029 611.726 160.755C612.302 160.654 612.835 160.496 613.325 160.28C613.498 160.208 613.62 160.208 613.692 160.28L613.757 160.345V160.734V161.101L613.541 161.317C612.619 162.21 611.525 162.757 610.258 162.958C609.653 163.074 609.012 163.081 608.335 162.98L608.033 162.937C608.018 162.937 608.011 163.498 608.011 164.622V166.285L608.119 166.198C608.393 165.939 608.724 165.745 609.113 165.615C609.876 165.298 610.711 165.284 611.618 165.572C612.137 165.745 612.612 166.018 613.044 166.393C613.462 166.767 613.814 167.242 614.102 167.818C614.29 168.222 614.441 168.697 614.556 169.244C614.614 169.69 614.614 170.166 614.556 170.67C614.326 172.023 613.649 173.074 612.526 173.823C612.166 174.082 611.762 174.277 611.316 174.406C610.337 174.738 609.415 174.759 608.551 174.471C608.177 174.342 607.853 174.183 607.579 173.996C606.571 173.305 606.038 172.354 605.981 171.145C605.981 170.943 605.988 170.799 606.002 170.713C606.118 170.166 606.449 169.842 606.996 169.741C607.082 169.726 607.176 169.719 607.277 169.719C607.853 169.719 608.242 169.971 608.443 170.475C608.472 170.533 608.494 170.598 608.508 170.67C608.566 170.886 608.566 171.109 608.508 171.339C608.393 171.829 608.098 172.131 607.622 172.246C607.522 172.275 607.471 172.297 607.471 172.311C607.471 172.383 607.615 172.556 607.903 172.83C608.378 173.247 608.947 173.478 609.61 173.521C610.589 173.578 611.323 173.233 611.813 172.484C611.957 172.268 612.058 172.03 612.115 171.771C612.216 171.368 612.266 170.749 612.266 169.914C612.266 168.733 612.173 167.926 611.986 167.494C611.842 167.12 611.604 166.832 611.273 166.63C610.942 166.458 610.61 166.378 610.279 166.393C609.242 166.465 608.465 166.94 607.946 167.818C607.86 167.948 607.81 168.02 607.795 168.034C607.709 168.078 607.464 168.085 607.061 168.056C606.989 168.056 606.946 168.049 606.931 168.034C606.874 167.991 606.838 167.862 606.823 167.646C606.809 167.372 606.802 166.198 606.802 164.125C606.802 161.634 606.809 160.374 606.823 160.345C606.852 160.287 606.881 160.258 606.91 160.258Z" fill="white"/>
<circle cx="40" cy="270" r="40" fill="#CD4848"/>
<path d="M31.7169 254.232C33.6369 254.088 34.5849 254.016 34.5609 254.016C34.7769 254.016 34.9209 254.1 34.9929 254.268C35.0409 254.388 34.6209 256.188 33.7329 259.668C32.8449 263.1 32.4009 264.876 32.4009 264.996L32.6889 264.744C33.0729 264.456 33.3009 264.288 33.3729 264.24C34.5969 263.448 35.9409 263.064 37.4049 263.088C38.7729 263.16 39.8169 263.544 40.5369 264.24C41.4729 265.152 41.7969 266.484 41.5089 268.236C41.2929 269.532 40.6329 271.668 39.5289 274.644C39.1209 275.676 38.9169 276.444 38.9169 276.948C38.9169 277.428 39.0729 277.68 39.3849 277.704C39.4329 277.704 39.4929 277.704 39.5649 277.704C40.0689 277.656 40.5369 277.404 40.9689 276.948C41.6649 276.252 42.1689 275.304 42.4809 274.104C42.6009 273.744 42.7209 273.552 42.8409 273.528C42.9129 273.504 43.1289 273.492 43.4889 273.492C43.9449 273.492 44.2089 273.516 44.2809 273.564C44.3289 273.612 44.3529 273.708 44.3529 273.852C44.3529 274.26 44.1129 274.944 43.6329 275.904C43.2009 276.792 42.6729 277.524 42.0489 278.1C41.1129 278.988 40.0929 279.42 38.9889 279.396C38.4129 279.372 37.8849 279.228 37.4049 278.964C37.0689 278.796 36.8169 278.616 36.6489 278.424C36.4329 278.208 36.2649 277.98 36.1449 277.74C35.9049 277.284 35.7969 276.804 35.8209 276.3C35.8209 275.82 35.9169 275.304 36.1089 274.752C36.8289 272.856 37.3329 271.428 37.6209 270.468C38.2929 268.236 38.4849 266.676 38.1969 265.788C38.0049 265.116 37.5369 264.78 36.7929 264.78C34.7769 264.78 33.0849 265.944 31.7169 268.272L31.4649 268.632L30.3129 273.348C29.5209 276.468 29.0889 278.112 29.0169 278.28C28.7769 278.784 28.3689 279.132 27.7929 279.324C27.4089 279.42 27.0249 279.408 26.6409 279.288C26.3529 279.168 26.1249 278.952 25.9569 278.64C25.8369 278.448 25.8129 278.196 25.8849 277.884C25.9569 277.404 26.7849 273.984 28.3689 267.624C30.1449 260.592 30.9969 256.968 30.9249 256.752C30.7809 256.536 30.1689 256.428 29.0889 256.428C28.6569 256.428 28.4049 256.344 28.3329 256.176C28.3089 256.056 28.3569 255.78 28.4769 255.348C28.5729 254.892 28.6689 254.616 28.7649 254.52C28.8369 254.448 28.9089 254.412 28.9809 254.412C29.1969 254.412 30.1089 254.352 31.7169 254.232ZM49.8959 277.237C50.3567 277.194 50.8103 277.208 51.2567 277.28C52.2359 277.424 53.0207 277.784 53.6111 278.36C53.9135 278.677 54.1439 279.008 54.3023 279.354C54.6623 280.059 54.8639 280.988 54.9071 282.14C54.9503 284.041 54.5183 285.445 53.6111 286.352C53.0495 286.914 52.2431 287.274 51.1919 287.432C50.7311 287.49 50.2055 287.49 49.6151 287.432C49.5863 287.432 49.5575 287.432 49.5287 287.432C48.4775 287.274 47.6711 286.914 47.1095 286.352C46.2023 285.445 45.7703 284.041 45.8135 282.14C45.8279 281.492 45.8927 280.952 46.0079 280.52C46.1519 279.886 46.3895 279.325 46.7207 278.835C46.9367 278.504 47.2319 278.209 47.6063 277.95C48.2399 277.532 49.0031 277.294 49.8959 277.237ZM50.7815 278.252C49.8023 278.137 49.0679 278.338 48.5783 278.857C48.3479 279.087 48.2111 279.526 48.1679 280.174C48.1535 280.218 48.1463 280.268 48.1463 280.326C48.1031 280.844 48.0959 281.946 48.1247 283.63C48.1247 283.89 48.1319 284.062 48.1463 284.149C48.1895 284.854 48.2687 285.308 48.3839 285.51C48.6287 285.985 49.0895 286.287 49.7663 286.417C50.0831 286.474 50.4791 286.474 50.9543 286.417C51.6311 286.287 52.0919 285.985 52.3367 285.51C52.4519 285.308 52.5311 284.854 52.5743 284.149C52.6175 283.573 52.6247 282.464 52.5959 280.822C52.5959 280.578 52.5887 280.412 52.5743 280.326C52.5167 279.591 52.3727 279.102 52.1423 278.857C51.8399 278.526 51.3863 278.324 50.7815 278.252Z" fill="white"/>
<circle cx="152" cy="270" r="40" fill="#CD4848"/>
<path d="M143.717 254.232C145.637 254.088 146.585 254.016 146.561 254.016C146.777 254.016 146.921 254.1 146.993 254.268C147.041 254.388 146.621 256.188 145.733 259.668C144.845 263.1 144.401 264.876 144.401 264.996L144.689 264.744C145.073 264.456 145.301 264.288 145.373 264.24C146.597 263.448 147.941 263.064 149.405 263.088C150.773 263.16 151.817 263.544 152.537 264.24C153.473 265.152 153.797 266.484 153.509 268.236C153.293 269.532 152.633 271.668 151.529 274.644C151.121 275.676 150.917 276.444 150.917 276.948C150.917 277.428 151.073 277.68 151.385 277.704C151.433 277.704 151.493 277.704 151.565 277.704C152.069 277.656 152.537 277.404 152.969 276.948C153.665 276.252 154.169 275.304 154.481 274.104C154.601 273.744 154.721 273.552 154.841 273.528C154.913 273.504 155.129 273.492 155.489 273.492C155.945 273.492 156.209 273.516 156.281 273.564C156.329 273.612 156.353 273.708 156.353 273.852C156.353 274.26 156.113 274.944 155.633 275.904C155.201 276.792 154.673 277.524 154.049 278.1C153.113 278.988 152.093 279.42 150.989 279.396C150.413 279.372 149.885 279.228 149.405 278.964C149.069 278.796 148.817 278.616 148.649 278.424C148.433 278.208 148.265 277.98 148.145 277.74C147.905 277.284 147.797 276.804 147.821 276.3C147.821 275.82 147.917 275.304 148.109 274.752C148.829 272.856 149.333 271.428 149.621 270.468C150.293 268.236 150.485 266.676 150.197 265.788C150.005 265.116 149.537 264.78 148.793 264.78C146.777 264.78 145.085 265.944 143.717 268.272L143.465 268.632L142.313 273.348C141.521 276.468 141.089 278.112 141.017 278.28C140.777 278.784 140.369 279.132 139.793 279.324C139.409 279.42 139.025 279.408 138.641 279.288C138.353 279.168 138.125 278.952 137.957 278.64C137.837 278.448 137.813 278.196 137.885 277.884C137.957 277.404 138.785 273.984 140.369 267.624C142.145 260.592 142.997 256.968 142.925 256.752C142.781 256.536 142.169 256.428 141.089 256.428C140.657 256.428 140.405 256.344 140.333 256.176C140.309 256.056 140.357 255.78 140.477 255.348C140.573 254.892 140.669 254.616 140.765 254.52C140.837 254.448 140.909 254.412 140.981 254.412C141.197 254.412 142.109 254.352 143.717 254.232ZM163.019 277.28C163.105 277.237 163.192 277.215 163.278 277.215C163.379 277.215 163.451 277.237 163.494 277.28L163.581 277.345V281.47C163.581 284.221 163.595 285.603 163.624 285.618C163.696 285.718 164.229 285.776 165.222 285.79C165.841 285.79 166.18 285.841 166.237 285.942C166.281 286.042 166.288 286.302 166.259 286.719C166.259 286.791 166.252 286.834 166.237 286.849C166.194 286.935 166.065 286.978 165.849 286.978C165.748 286.978 165.553 286.978 165.265 286.978C164.027 286.921 162.378 286.914 160.319 286.957C160.117 286.971 159.952 286.978 159.822 286.978C159.246 286.993 158.929 286.957 158.872 286.87C158.8 286.784 158.785 286.518 158.829 286.071C158.843 285.985 158.857 285.934 158.872 285.92C158.901 285.834 159.037 285.79 159.282 285.79C159.383 285.79 159.585 285.79 159.887 285.79C160.852 285.776 161.385 285.718 161.485 285.618C161.514 285.603 161.529 284.516 161.529 282.356V279.138H161.464C160.758 279.267 160.089 279.339 159.455 279.354H158.872L158.807 279.289L158.721 279.202V278.749V278.295L158.785 278.23L158.85 278.144H159.412C161.01 278.101 162.213 277.813 163.019 277.28Z" fill="white"/>
<circle cx="264" cy="270" r="40" fill="#CD4848"/>
<path d="M255.717 254.232C257.637 254.088 258.585 254.016 258.561 254.016C258.777 254.016 258.921 254.1 258.993 254.268C259.041 254.388 258.621 256.188 257.733 259.668C256.845 263.1 256.401 264.876 256.401 264.996L256.689 264.744C257.073 264.456 257.301 264.288 257.373 264.24C258.597 263.448 259.941 263.064 261.405 263.088C262.773 263.16 263.817 263.544 264.537 264.24C265.473 265.152 265.797 266.484 265.509 268.236C265.293 269.532 264.633 271.668 263.529 274.644C263.121 275.676 262.917 276.444 262.917 276.948C262.917 277.428 263.073 277.68 263.385 277.704C263.433 277.704 263.493 277.704 263.565 277.704C264.069 277.656 264.537 277.404 264.969 276.948C265.665 276.252 266.169 275.304 266.481 274.104C266.601 273.744 266.721 273.552 266.841 273.528C266.913 273.504 267.129 273.492 267.489 273.492C267.945 273.492 268.209 273.516 268.281 273.564C268.329 273.612 268.353 273.708 268.353 273.852C268.353 274.26 268.113 274.944 267.633 275.904C267.201 276.792 266.673 277.524 266.049 278.1C265.113 278.988 264.093 279.42 262.989 279.396C262.413 279.372 261.885 279.228 261.405 278.964C261.069 278.796 260.817 278.616 260.649 278.424C260.433 278.208 260.265 277.98 260.145 277.74C259.905 277.284 259.797 276.804 259.821 276.3C259.821 275.82 259.917 275.304 260.109 274.752C260.829 272.856 261.333 271.428 261.621 270.468C262.293 268.236 262.485 266.676 262.197 265.788C262.005 265.116 261.537 264.78 260.793 264.78C258.777 264.78 257.085 265.944 255.717 268.272L255.465 268.632L254.313 273.348C253.521 276.468 253.089 278.112 253.017 278.28C252.777 278.784 252.369 279.132 251.793 279.324C251.409 279.42 251.025 279.408 250.641 279.288C250.353 279.168 250.125 278.952 249.957 278.64C249.837 278.448 249.813 278.196 249.885 277.884C249.957 277.404 250.785 273.984 252.369 267.624C254.145 260.592 254.997 256.968 254.925 256.752C254.781 256.536 254.169 256.428 253.089 256.428C252.657 256.428 252.405 256.344 252.333 256.176C252.309 256.056 252.357 255.78 252.477 255.348C252.573 254.892 252.669 254.616 252.765 254.52C252.837 254.448 252.909 254.412 252.981 254.412C253.197 254.412 254.109 254.352 255.717 254.232ZM273.442 277.237C273.845 277.208 274.364 277.215 274.997 277.258C276.841 277.503 278 278.238 278.475 279.462C278.561 279.663 278.619 279.872 278.648 280.088C278.691 280.434 278.677 280.75 278.605 281.038C278.518 281.341 278.381 281.614 278.194 281.859C277.849 282.277 277.093 282.738 275.926 283.242C275.451 283.443 274.731 283.818 273.766 284.365L272.686 284.991H274.781C276.279 284.962 277.035 284.948 277.049 284.948L277.222 284.926L277.287 284.818C277.373 284.674 277.453 284.415 277.525 284.041C277.582 283.782 277.647 283.638 277.719 283.609C277.777 283.594 277.913 283.587 278.129 283.587H278.518L278.583 283.652C278.597 283.666 278.626 283.71 278.669 283.782L278.367 285.337C278.151 286.33 278.043 286.834 278.043 286.849C278.043 286.892 278.014 286.928 277.957 286.957L277.913 287H274.004C271.369 287 270.022 286.957 269.965 286.87C269.893 286.784 269.878 286.503 269.921 286.028C269.921 285.956 269.929 285.913 269.943 285.898C269.957 285.855 270.555 285.445 271.736 284.667L274.004 283.198C274.724 282.723 275.228 282.342 275.516 282.054C275.991 281.578 276.229 281.06 276.229 280.498C276.229 280.124 276.121 279.786 275.905 279.483C275.386 278.792 274.465 278.446 273.14 278.446C272.837 278.446 272.636 278.461 272.535 278.49C272.276 278.562 272.096 278.634 271.995 278.706L271.865 278.77L271.995 278.9C272.355 279.217 272.449 279.613 272.276 280.088C272.261 280.131 272.24 280.182 272.211 280.239C272.139 280.412 271.988 280.556 271.757 280.671C271.426 280.844 271.088 280.844 270.742 280.671C270.454 280.527 270.267 280.29 270.181 279.958C270.123 279.757 270.137 279.498 270.224 279.181C270.31 278.878 270.425 278.648 270.569 278.49C271.088 277.798 272.045 277.381 273.442 277.237Z" fill="white"/>
<circle cx="376" cy="270" r="40" fill="#CD4848"/>
<path d="M367.717 254.232C369.637 254.088 370.585 254.016 370.561 254.016C370.777 254.016 370.921 254.1 370.993 254.268C371.041 254.388 370.621 256.188 369.733 259.668C368.845 263.1 368.401 264.876 368.401 264.996L368.689 264.744C369.073 264.456 369.301 264.288 369.373 264.24C370.597 263.448 371.941 263.064 373.405 263.088C374.773 263.16 375.817 263.544 376.537 264.24C377.473 265.152 377.797 266.484 377.509 268.236C377.293 269.532 376.633 271.668 375.529 274.644C375.121 275.676 374.917 276.444 374.917 276.948C374.917 277.428 375.073 277.68 375.385 277.704C375.433 277.704 375.493 277.704 375.565 277.704C376.069 277.656 376.537 277.404 376.969 276.948C377.665 276.252 378.169 275.304 378.481 274.104C378.601 273.744 378.721 273.552 378.841 273.528C378.913 273.504 379.129 273.492 379.489 273.492C379.945 273.492 380.209 273.516 380.281 273.564C380.329 273.612 380.353 273.708 380.353 273.852C380.353 274.26 380.113 274.944 379.633 275.904C379.201 276.792 378.673 277.524 378.049 278.1C377.113 278.988 376.093 279.42 374.989 279.396C374.413 279.372 373.885 279.228 373.405 278.964C373.069 278.796 372.817 278.616 372.649 278.424C372.433 278.208 372.265 277.98 372.145 277.74C371.905 277.284 371.797 276.804 371.821 276.3C371.821 275.82 371.917 275.304 372.109 274.752C372.829 272.856 373.333 271.428 373.621 270.468C374.293 268.236 374.485 266.676 374.197 265.788C374.005 265.116 373.537 264.78 372.793 264.78C370.777 264.78 369.085 265.944 367.717 268.272L367.465 268.632L366.313 273.348C365.521 276.468 365.089 278.112 365.017 278.28C364.777 278.784 364.369 279.132 363.793 279.324C363.409 279.42 363.025 279.408 362.641 279.288C362.353 279.168 362.125 278.952 361.957 278.64C361.837 278.448 361.813 278.196 361.885 277.884C361.957 277.404 362.785 273.984 364.369 267.624C366.145 260.592 366.997 256.968 366.925 256.752C366.781 256.536 366.169 256.428 365.089 256.428C364.657 256.428 364.405 256.344 364.333 256.176C364.309 256.056 364.357 255.78 364.477 255.348C364.573 254.892 364.669 254.616 364.765 254.52C364.837 254.448 364.909 254.412 364.981 254.412C365.197 254.412 366.109 254.352 367.717 254.232ZM385.68 277.237C385.982 277.208 386.4 277.215 386.933 277.258C387.969 277.417 388.819 277.827 389.481 278.49C390.014 279.066 390.273 279.728 390.259 280.477C390.216 281.254 389.928 281.967 389.395 282.615C388.992 283.105 388.481 283.494 387.861 283.782C387.717 283.868 387.638 283.911 387.624 283.911C387.624 283.926 387.645 283.94 387.689 283.954C388.005 283.998 388.401 284.156 388.877 284.43C389.942 285.034 390.583 285.862 390.799 286.914C390.857 287.245 390.857 287.634 390.799 288.08C390.626 288.973 390.223 289.714 389.589 290.305C389.258 290.636 388.877 290.91 388.445 291.126C387.883 291.414 387.271 291.586 386.609 291.644C386.191 291.702 385.766 291.687 385.334 291.601C384.369 291.471 383.556 291.133 382.893 290.586C382.26 290.038 381.921 289.362 381.878 288.555C381.878 288.238 381.929 287.972 382.029 287.756C382.217 287.41 382.519 287.18 382.937 287.065C383.124 287.007 383.361 287.007 383.649 287.065C384.211 287.223 384.549 287.576 384.665 288.123C384.679 288.224 384.686 288.325 384.686 288.426C384.686 289.03 384.441 289.448 383.952 289.678C383.837 289.722 383.779 289.758 383.779 289.786C383.822 289.873 384.002 289.988 384.319 290.132C384.809 290.377 385.399 290.499 386.09 290.499C386.349 290.499 386.537 290.485 386.652 290.456C387.487 290.182 387.977 289.563 388.121 288.598C388.25 287.835 388.25 287.072 388.121 286.309C387.962 285.474 387.566 284.905 386.933 284.602C386.702 284.487 386.364 284.422 385.917 284.408C385.845 284.408 385.723 284.408 385.55 284.408L384.665 284.386L384.6 284.343C384.571 284.3 384.557 284.156 384.557 283.911C384.557 283.609 384.593 283.443 384.665 283.414L385.313 283.35C385.802 283.321 386.119 283.278 386.263 283.22C387.012 282.961 387.494 282.306 387.71 281.254C387.782 280.938 387.818 280.606 387.818 280.261C387.818 279.771 387.746 279.382 387.602 279.094C387.559 278.979 387.48 278.864 387.365 278.749C386.976 278.374 386.45 278.23 385.788 278.317C385.183 278.374 384.672 278.583 384.254 278.943C384.11 279.044 384.081 279.094 384.168 279.094C384.297 279.094 384.485 279.202 384.729 279.418C385.089 279.778 385.19 280.225 385.032 280.758C385.003 280.844 384.967 280.93 384.924 281.017C384.722 281.449 384.341 281.665 383.779 281.665C383.549 281.665 383.333 281.614 383.131 281.514C382.886 281.384 382.713 281.211 382.613 280.995C382.512 280.794 382.461 280.534 382.461 280.218C382.505 279.67 382.67 279.188 382.958 278.77C383.174 278.439 383.462 278.151 383.822 277.906C384.355 277.546 384.974 277.323 385.68 277.237Z" fill="white"/>
<path d="M448 270L428 258.453L428 281.547L448 270ZM416 272L430 272L430 268L416 268L416 272Z" fill="#CD4848"/>
<circle cx="488" cy="270" r="40" fill="#CD4848"/>
<path d="M479.717 254.232C481.637 254.088 482.585 254.016 482.561 254.016C482.777 254.016 482.921 254.1 482.993 254.268C483.041 254.388 482.621 256.188 481.733 259.668C480.845 263.1 480.401 264.876 480.401 264.996L480.689 264.744C481.073 264.456 481.301 264.288 481.373 264.24C482.597 263.448 483.941 263.064 485.405 263.088C486.773 263.16 487.817 263.544 488.537 264.24C489.473 265.152 489.797 266.484 489.509 268.236C489.293 269.532 488.633 271.668 487.529 274.644C487.121 275.676 486.917 276.444 486.917 276.948C486.917 277.428 487.073 277.68 487.385 277.704C487.433 277.704 487.493 277.704 487.565 277.704C488.069 277.656 488.537 277.404 488.969 276.948C489.665 276.252 490.169 275.304 490.481 274.104C490.601 273.744 490.721 273.552 490.841 273.528C490.913 273.504 491.129 273.492 491.489 273.492C491.945 273.492 492.209 273.516 492.281 273.564C492.329 273.612 492.353 273.708 492.353 273.852C492.353 274.26 492.113 274.944 491.633 275.904C491.201 276.792 490.673 277.524 490.049 278.1C489.113 278.988 488.093 279.42 486.989 279.396C486.413 279.372 485.885 279.228 485.405 278.964C485.069 278.796 484.817 278.616 484.649 278.424C484.433 278.208 484.265 277.98 484.145 277.74C483.905 277.284 483.797 276.804 483.821 276.3C483.821 275.82 483.917 275.304 484.109 274.752C484.829 272.856 485.333 271.428 485.621 270.468C486.293 268.236 486.485 266.676 486.197 265.788C486.005 265.116 485.537 264.78 484.793 264.78C482.777 264.78 481.085 265.944 479.717 268.272L479.465 268.632L478.313 273.348C477.521 276.468 477.089 278.112 477.017 278.28C476.777 278.784 476.369 279.132 475.793 279.324C475.409 279.42 475.025 279.408 474.641 279.288C474.353 279.168 474.125 278.952 473.957 278.64C473.837 278.448 473.813 278.196 473.885 277.884C473.957 277.404 474.785 273.984 476.369 267.624C478.145 260.592 478.997 256.968 478.925 256.752C478.781 256.536 478.169 256.428 477.089 256.428C476.657 256.428 476.405 256.344 476.333 256.176C476.309 256.056 476.357 255.78 476.477 255.348C476.573 254.892 476.669 254.616 476.765 254.52C476.837 254.448 476.909 254.412 476.981 254.412C477.197 254.412 478.109 254.352 479.717 254.232ZM499.948 277.021C499.991 276.992 500.193 276.978 500.553 276.978H501.093L501.157 277.042L501.222 277.107V281.449V285.79H502.108H502.993L503.058 285.855L503.145 285.92V286.395V286.87L503.058 286.935L502.993 287H502.108H501.222V288.404C501.222 289.34 501.229 289.815 501.244 289.83C501.273 289.916 501.64 289.966 502.345 289.981H503.015L503.08 290.067L503.145 290.132V290.586V291.039L503.058 291.126L502.993 291.19H502.756L501.33 291.147C500.538 291.133 499.732 291.133 498.911 291.147L497.421 291.19H497.161L497.097 291.126L497.032 291.061V290.586V290.11L497.097 290.046L497.161 289.981H497.615C498.306 289.981 498.738 289.959 498.911 289.916C498.997 289.887 499.048 289.858 499.062 289.83C499.091 289.801 499.105 289.318 499.105 288.382V287H496.427C494.613 287 493.677 286.957 493.619 286.87C493.59 286.842 493.576 286.654 493.576 286.309V285.79L493.727 285.574C493.641 285.704 494.692 284.242 496.881 281.19C498.882 278.439 499.905 277.05 499.948 277.021ZM499.235 285.79V282.766V279.742L497.053 282.766L494.872 285.769L497.053 285.79H499.235Z" fill="white"/>
<path d="M560 270L540 258.453L540 281.547L560 270ZM528 272L542 272L542 268L528 268L528 272Z" fill="#CD4848"/>
<circle cx="600" cy="270" r="40" fill="#CD4848"/>
<path d="M591.717 254.232C593.637 254.088 594.585 254.016 594.561 254.016C594.777 254.016 594.921 254.1 594.993 254.268C595.041 254.388 594.621 256.188 593.733 259.668C592.845 263.1 592.401 264.876 592.401 264.996L592.689 264.744C593.073 264.456 593.301 264.288 593.373 264.24C594.597 263.448 595.941 263.064 597.405 263.088C598.773 263.16 599.817 263.544 600.537 264.24C601.473 265.152 601.797 266.484 601.509 268.236C601.293 269.532 600.633 271.668 599.529 274.644C599.121 275.676 598.917 276.444 598.917 276.948C598.917 277.428 599.073 277.68 599.385 277.704C599.433 277.704 599.493 277.704 599.565 277.704C600.069 277.656 600.537 277.404 600.969 276.948C601.665 276.252 602.169 275.304 602.481 274.104C602.601 273.744 602.721 273.552 602.841 273.528C602.913 273.504 603.129 273.492 603.489 273.492C603.945 273.492 604.209 273.516 604.281 273.564C604.329 273.612 604.353 273.708 604.353 273.852C604.353 274.26 604.113 274.944 603.633 275.904C603.201 276.792 602.673 277.524 602.049 278.1C601.113 278.988 600.093 279.42 598.989 279.396C598.413 279.372 597.885 279.228 597.405 278.964C597.069 278.796 596.817 278.616 596.649 278.424C596.433 278.208 596.265 277.98 596.145 277.74C595.905 277.284 595.797 276.804 595.821 276.3C595.821 275.82 595.917 275.304 596.109 274.752C596.829 272.856 597.333 271.428 597.621 270.468C598.293 268.236 598.485 266.676 598.197 265.788C598.005 265.116 597.537 264.78 596.793 264.78C594.777 264.78 593.085 265.944 591.717 268.272L591.465 268.632L590.313 273.348C589.521 276.468 589.089 278.112 589.017 278.28C588.777 278.784 588.369 279.132 587.793 279.324C587.409 279.42 587.025 279.408 586.641 279.288C586.353 279.168 586.125 278.952 585.957 278.64C585.837 278.448 585.813 278.196 585.885 277.884C585.957 277.404 586.785 273.984 588.369 267.624C590.145 260.592 590.997 256.968 590.925 256.752C590.781 256.536 590.169 256.428 589.089 256.428C588.657 256.428 588.405 256.344 588.333 256.176C588.309 256.056 588.357 255.78 588.477 255.348C588.573 254.892 588.669 254.616 588.765 254.52C588.837 254.448 588.909 254.412 588.981 254.412C589.197 254.412 590.109 254.352 591.717 254.232ZM606.98 277.258C607.037 277.215 607.153 277.23 607.325 277.302C608.737 277.878 610.227 278.029 611.797 277.755C612.373 277.654 612.905 277.496 613.395 277.28C613.568 277.208 613.69 277.208 613.762 277.28L613.827 277.345V277.734V278.101L613.611 278.317C612.689 279.21 611.595 279.757 610.328 279.958C609.723 280.074 609.082 280.081 608.405 279.98L608.103 279.937C608.089 279.937 608.081 280.498 608.081 281.622V283.285L608.189 283.198C608.463 282.939 608.794 282.745 609.183 282.615C609.946 282.298 610.781 282.284 611.689 282.572C612.207 282.745 612.682 283.018 613.114 283.393C613.532 283.767 613.885 284.242 614.173 284.818C614.36 285.222 614.511 285.697 614.626 286.244C614.684 286.69 614.684 287.166 614.626 287.67C614.396 289.023 613.719 290.074 612.596 290.823C612.236 291.082 611.833 291.277 611.386 291.406C610.407 291.738 609.485 291.759 608.621 291.471C608.247 291.342 607.923 291.183 607.649 290.996C606.641 290.305 606.109 289.354 606.051 288.145C606.051 287.943 606.058 287.799 606.073 287.713C606.188 287.166 606.519 286.842 607.066 286.741C607.153 286.726 607.246 286.719 607.347 286.719C607.923 286.719 608.312 286.971 608.513 287.475C608.542 287.533 608.564 287.598 608.578 287.67C608.636 287.886 608.636 288.109 608.578 288.339C608.463 288.829 608.168 289.131 607.693 289.246C607.592 289.275 607.541 289.297 607.541 289.311C607.541 289.383 607.685 289.556 607.973 289.83C608.449 290.247 609.017 290.478 609.68 290.521C610.659 290.578 611.393 290.233 611.883 289.484C612.027 289.268 612.128 289.03 612.185 288.771C612.286 288.368 612.337 287.749 612.337 286.914C612.337 285.733 612.243 284.926 612.056 284.494C611.912 284.12 611.674 283.832 611.343 283.63C611.012 283.458 610.681 283.378 610.349 283.393C609.313 283.465 608.535 283.94 608.017 284.818C607.93 284.948 607.88 285.02 607.865 285.034C607.779 285.078 607.534 285.085 607.131 285.056C607.059 285.056 607.016 285.049 607.001 285.034C606.944 284.991 606.908 284.862 606.893 284.646C606.879 284.372 606.872 283.198 606.872 281.125C606.872 278.634 606.879 277.374 606.893 277.345C606.922 277.287 606.951 277.258 606.98 277.258Z" fill="white"/>
<path d="M320 102L328.66 87H311.34L320 102ZM318.5 62V88.5H321.5V62H318.5Z" fill="black"/>
<path d="M114.241 39.78V7.902H127.387V11.724H118.735V36H127.387V39.78H114.241ZM138.727 17.478C139.399 17.366 140.099 17.394 140.827 17.562C142.227 17.87 143.263 18.514 143.935 19.494C144.047 19.662 144.131 19.746 144.187 19.746L144.439 19.41C145.111 18.626 145.909 18.052 146.833 17.688C147.897 17.296 148.961 17.338 150.025 17.814C150.837 18.234 151.411 18.794 151.747 19.494C152.307 20.614 152.321 21.79 151.789 23.022C151.565 23.498 151.285 23.862 150.949 24.114C149.941 24.842 148.989 24.982 148.093 24.534C147.925 24.45 147.785 24.352 147.673 24.24C147.253 23.82 147.085 23.288 147.169 22.644C147.337 21.384 147.981 20.558 149.101 20.166L149.437 20.04L149.269 19.872C148.765 19.424 148.149 19.298 147.421 19.494C147.365 19.494 147.309 19.508 147.253 19.536C146.413 19.844 145.741 20.656 145.237 21.972C144.957 22.672 144.215 25.626 143.011 30.834C142.871 31.31 142.801 31.604 142.801 31.716C142.661 32.584 142.675 33.172 142.843 33.48C143.067 33.9 143.417 34.194 143.893 34.362C144.033 34.418 144.327 34.446 144.775 34.446C145.195 34.446 145.503 34.418 145.699 34.362C146.427 34.138 147.155 33.69 147.883 33.018C148.751 32.122 149.325 31.142 149.605 30.078C149.689 29.798 149.801 29.644 149.941 29.616C150.053 29.588 150.305 29.574 150.697 29.574C151.229 29.574 151.537 29.602 151.621 29.658C151.677 29.714 151.705 29.812 151.705 29.952C151.705 30.54 151.341 31.422 150.613 32.598C150.585 32.682 150.543 32.752 150.487 32.808C149.227 34.74 147.561 35.93 145.489 36.378C144.845 36.49 144.117 36.49 143.305 36.378C141.877 36.07 140.813 35.44 140.113 34.488L139.861 34.11L139.735 34.236C138.643 35.636 137.411 36.378 136.039 36.462C134.443 36.546 133.253 35.958 132.469 34.698C132.301 34.474 132.175 34.222 132.091 33.942C131.895 33.326 131.839 32.668 131.923 31.968C132.119 30.764 132.679 29.938 133.603 29.49C134.499 29.07 135.297 29.056 135.997 29.448C136.641 29.756 136.935 30.316 136.879 31.128C136.795 32.248 136.277 33.06 135.325 33.564C135.185 33.648 134.989 33.732 134.737 33.816L134.569 33.858L134.695 33.984C135.087 34.292 135.535 34.446 136.039 34.446C136.403 34.474 136.781 34.376 137.173 34.152C137.901 33.648 138.447 32.878 138.811 31.842L141.121 22.602C141.317 21.594 141.345 20.894 141.205 20.502C141.065 20.054 140.701 19.732 140.113 19.536C139.553 19.368 138.979 19.368 138.391 19.536C137.579 19.76 136.865 20.18 136.249 20.796C135.437 21.636 134.849 22.574 134.485 23.61C134.401 23.946 134.317 24.156 134.233 24.24C134.177 24.296 133.883 24.324 133.351 24.324H132.553L132.427 24.198C132.343 24.114 132.301 24.002 132.301 23.862C132.385 23.442 132.553 22.966 132.805 22.434C133.057 21.846 133.379 21.286 133.771 20.754C134.219 20.082 134.835 19.452 135.619 18.864C135.647 18.836 135.689 18.808 135.745 18.78C136.669 18.136 137.663 17.702 138.727 17.478ZM160.107 32.6096C160.645 32.5592 161.174 32.576 161.695 32.66C162.837 32.828 163.753 33.248 164.442 33.92C164.794 34.2896 165.063 34.676 165.248 35.0792C165.668 35.9024 165.903 36.986 165.954 38.33C166.004 40.5476 165.5 42.1856 164.442 43.244C163.786 43.8992 162.846 44.3192 161.619 44.504C161.082 44.5712 160.468 44.5712 159.78 44.504C159.746 44.504 159.712 44.504 159.679 44.504C158.452 44.3192 157.512 43.8992 156.856 43.244C155.798 42.1856 155.294 40.5476 155.344 38.33C155.361 37.574 155.437 36.944 155.571 36.44C155.739 35.7008 156.016 35.0456 156.403 34.4744C156.655 34.088 156.999 33.7436 157.436 33.4412C158.175 32.954 159.066 32.6768 160.107 32.6096ZM161.14 33.794C159.998 33.6596 159.141 33.8948 158.57 34.4996C158.301 34.7684 158.142 35.2808 158.091 36.0368C158.074 36.0872 158.066 36.146 158.066 36.2132C158.016 36.818 158.007 38.1032 158.041 40.0688C158.041 40.3712 158.049 40.5728 158.066 40.6736C158.116 41.4968 158.209 42.026 158.343 42.2612C158.629 42.8156 159.166 43.1684 159.956 43.3196C160.326 43.3868 160.788 43.3868 161.342 43.3196C162.132 43.1684 162.669 42.8156 162.955 42.2612C163.089 42.026 163.182 41.4968 163.232 40.6736C163.282 40.0016 163.291 38.708 163.257 36.7928C163.257 36.5072 163.249 36.314 163.232 36.2132C163.165 35.3564 162.997 34.7852 162.728 34.4996C162.375 34.1132 161.846 33.878 161.14 33.794ZM176.664 43.14L174.102 40.998C174.886 40.27 175.488 39.542 175.908 38.814C176.328 38.114 176.538 37.526 176.538 37.05C176.538 36.742 176.44 36.448 176.244 36.168C176.048 35.916 175.81 35.65 175.53 35.37C175.278 35.062 175.054 34.74 174.858 34.404C174.662 34.04 174.564 33.606 174.564 33.102C174.564 32.178 174.886 31.464 175.53 30.96C176.202 30.456 176.958 30.204 177.798 30.204C178.89 30.204 179.758 30.596 180.402 31.38C181.046 32.136 181.368 33.144 181.368 34.404C181.368 35.076 181.27 35.748 181.074 36.42C180.906 37.12 180.626 37.82 180.234 38.52C179.842 39.248 179.352 40.004 178.764 40.788C178.176 41.572 177.476 42.356 176.664 43.14ZM207.118 17.478C207.79 17.366 208.49 17.394 209.218 17.562C210.618 17.87 211.654 18.514 212.326 19.494C212.438 19.662 212.522 19.746 212.578 19.746L212.83 19.41C213.502 18.626 214.3 18.052 215.224 17.688C216.288 17.296 217.352 17.338 218.416 17.814C219.228 18.234 219.802 18.794 220.138 19.494C220.698 20.614 220.712 21.79 220.18 23.022C219.956 23.498 219.676 23.862 219.34 24.114C218.332 24.842 217.38 24.982 216.484 24.534C216.316 24.45 216.176 24.352 216.064 24.24C215.644 23.82 215.476 23.288 215.56 22.644C215.728 21.384 216.372 20.558 217.492 20.166L217.828 20.04L217.66 19.872C217.156 19.424 216.54 19.298 215.812 19.494C215.756 19.494 215.7 19.508 215.644 19.536C214.804 19.844 214.132 20.656 213.628 21.972C213.348 22.672 212.606 25.626 211.402 30.834C211.262 31.31 211.192 31.604 211.192 31.716C211.052 32.584 211.066 33.172 211.234 33.48C211.458 33.9 211.808 34.194 212.284 34.362C212.424 34.418 212.718 34.446 213.166 34.446C213.586 34.446 213.894 34.418 214.09 34.362C214.818 34.138 215.546 33.69 216.274 33.018C217.142 32.122 217.716 31.142 217.996 30.078C218.08 29.798 218.192 29.644 218.332 29.616C218.444 29.588 218.696 29.574 219.088 29.574C219.62 29.574 219.928 29.602 220.012 29.658C220.068 29.714 220.096 29.812 220.096 29.952C220.096 30.54 219.732 31.422 219.004 32.598C218.976 32.682 218.934 32.752 218.878 32.808C217.618 34.74 215.952 35.93 213.88 36.378C213.236 36.49 212.508 36.49 211.696 36.378C210.268 36.07 209.204 35.44 208.504 34.488L208.252 34.11L208.126 34.236C207.034 35.636 205.802 36.378 204.43 36.462C202.834 36.546 201.644 35.958 200.86 34.698C200.692 34.474 200.566 34.222 200.482 33.942C200.286 33.326 200.23 32.668 200.314 31.968C200.51 30.764 201.07 29.938 201.994 29.49C202.89 29.07 203.688 29.056 204.388 29.448C205.032 29.756 205.326 30.316 205.27 31.128C205.186 32.248 204.668 33.06 203.716 33.564C203.576 33.648 203.38 33.732 203.128 33.816L202.96 33.858L203.086 33.984C203.478 34.292 203.926 34.446 204.43 34.446C204.794 34.474 205.172 34.376 205.564 34.152C206.292 33.648 206.838 32.878 207.202 31.842L209.512 22.602C209.708 21.594 209.736 20.894 209.596 20.502C209.456 20.054 209.092 19.732 208.504 19.536C207.944 19.368 207.37 19.368 206.782 19.536C205.97 19.76 205.256 20.18 204.64 20.796C203.828 21.636 203.24 22.574 202.876 23.61C202.792 23.946 202.708 24.156 202.624 24.24C202.568 24.296 202.274 24.324 201.742 24.324H200.944L200.818 24.198C200.734 24.114 200.692 24.002 200.692 23.862C200.776 23.442 200.944 22.966 201.196 22.434C201.448 21.846 201.77 21.286 202.162 20.754C202.61 20.082 203.226 19.452 204.01 18.864C204.038 18.836 204.08 18.808 204.136 18.78C205.06 18.136 206.054 17.702 207.118 17.478ZM229.809 32.66C229.91 32.6096 230.01 32.5844 230.111 32.5844C230.229 32.5844 230.313 32.6096 230.363 32.66L230.464 32.7356V37.5488C230.464 40.7576 230.481 42.3704 230.514 42.3872C230.598 42.5048 231.22 42.572 232.379 42.5888C233.102 42.5888 233.496 42.6476 233.564 42.7652C233.614 42.8828 233.622 43.1852 233.589 43.6724C233.589 43.7564 233.58 43.8068 233.564 43.8236C233.513 43.9244 233.362 43.9748 233.11 43.9748C232.992 43.9748 232.766 43.9748 232.43 43.9748C230.985 43.9076 229.061 43.8992 226.659 43.9496C226.424 43.9664 226.23 43.9748 226.079 43.9748C225.407 43.9916 225.038 43.9496 224.97 43.8488C224.886 43.748 224.87 43.4372 224.92 42.9164C224.937 42.8156 224.954 42.7568 224.97 42.74C225.004 42.6392 225.164 42.5888 225.449 42.5888C225.567 42.5888 225.802 42.5888 226.155 42.5888C227.28 42.572 227.902 42.5048 228.02 42.3872C228.053 42.3704 228.07 41.102 228.07 38.582V34.8272H227.994C227.171 34.9784 226.39 35.0624 225.651 35.0792H224.97L224.895 35.0036L224.794 34.9028V34.3736V33.8444L224.87 33.7688L224.945 33.668H225.6C227.465 33.6176 228.868 33.2816 229.809 32.66ZM245.055 43.14L242.493 40.998C243.277 40.27 243.879 39.542 244.299 38.814C244.719 38.114 244.929 37.526 244.929 37.05C244.929 36.742 244.831 36.448 244.635 36.168C244.439 35.916 244.201 35.65 243.921 35.37C243.669 35.062 243.445 34.74 243.249 34.404C243.053 34.04 242.955 33.606 242.955 33.102C242.955 32.178 243.277 31.464 243.921 30.96C244.593 30.456 245.349 30.204 246.189 30.204C247.281 30.204 248.149 30.596 248.793 31.38C249.437 32.136 249.759 33.144 249.759 34.404C249.759 35.076 249.661 35.748 249.465 36.42C249.297 37.12 249.017 37.82 248.625 38.52C248.233 39.248 247.743 40.004 247.155 40.788C246.567 41.572 245.867 42.356 245.055 43.14ZM275.509 17.478C276.181 17.366 276.881 17.394 277.609 17.562C279.009 17.87 280.045 18.514 280.717 19.494C280.829 19.662 280.913 19.746 280.969 19.746L281.221 19.41C281.893 18.626 282.691 18.052 283.615 17.688C284.679 17.296 285.743 17.338 286.807 17.814C287.619 18.234 288.193 18.794 288.529 19.494C289.089 20.614 289.103 21.79 288.571 23.022C288.347 23.498 288.067 23.862 287.731 24.114C286.723 24.842 285.771 24.982 284.875 24.534C284.707 24.45 284.567 24.352 284.455 24.24C284.035 23.82 283.867 23.288 283.951 22.644C284.119 21.384 284.763 20.558 285.883 20.166L286.219 20.04L286.051 19.872C285.547 19.424 284.931 19.298 284.203 19.494C284.147 19.494 284.091 19.508 284.035 19.536C283.195 19.844 282.523 20.656 282.019 21.972C281.739 22.672 280.997 25.626 279.793 30.834C279.653 31.31 279.583 31.604 279.583 31.716C279.443 32.584 279.457 33.172 279.625 33.48C279.849 33.9 280.199 34.194 280.675 34.362C280.815 34.418 281.109 34.446 281.557 34.446C281.977 34.446 282.285 34.418 282.481 34.362C283.209 34.138 283.937 33.69 284.665 33.018C285.533 32.122 286.107 31.142 286.387 30.078C286.471 29.798 286.583 29.644 286.723 29.616C286.835 29.588 287.087 29.574 287.479 29.574C288.011 29.574 288.319 29.602 288.403 29.658C288.459 29.714 288.487 29.812 288.487 29.952C288.487 30.54 288.123 31.422 287.395 32.598C287.367 32.682 287.325 32.752 287.269 32.808C286.009 34.74 284.343 35.93 282.271 36.378C281.627 36.49 280.899 36.49 280.087 36.378C278.659 36.07 277.595 35.44 276.895 34.488L276.643 34.11L276.517 34.236C275.425 35.636 274.193 36.378 272.821 36.462C271.225 36.546 270.035 35.958 269.251 34.698C269.083 34.474 268.957 34.222 268.873 33.942C268.677 33.326 268.621 32.668 268.705 31.968C268.901 30.764 269.461 29.938 270.385 29.49C271.281 29.07 272.079 29.056 272.779 29.448C273.423 29.756 273.717 30.316 273.661 31.128C273.577 32.248 273.059 33.06 272.107 33.564C271.967 33.648 271.771 33.732 271.519 33.816L271.351 33.858L271.477 33.984C271.869 34.292 272.317 34.446 272.821 34.446C273.185 34.474 273.563 34.376 273.955 34.152C274.683 33.648 275.229 32.878 275.593 31.842L277.903 22.602C278.099 21.594 278.127 20.894 277.987 20.502C277.847 20.054 277.483 19.732 276.895 19.536C276.335 19.368 275.761 19.368 275.173 19.536C274.361 19.76 273.647 20.18 273.031 20.796C272.219 21.636 271.631 22.574 271.267 23.61C271.183 23.946 271.099 24.156 271.015 24.24C270.959 24.296 270.665 24.324 270.133 24.324H269.335L269.209 24.198C269.125 24.114 269.083 24.002 269.083 23.862C269.167 23.442 269.335 22.966 269.587 22.434C269.839 21.846 270.161 21.286 270.553 20.754C271.001 20.082 271.617 19.452 272.401 18.864C272.429 18.836 272.471 18.808 272.527 18.78C273.451 18.136 274.445 17.702 275.509 17.478ZM296.36 32.6096C296.831 32.576 297.436 32.5844 298.175 32.6348C300.325 32.9204 301.678 33.7772 302.232 35.2052C302.333 35.4404 302.4 35.684 302.434 35.936C302.484 36.3392 302.467 36.7088 302.383 37.0448C302.282 37.3976 302.123 37.7168 301.904 38.0024C301.501 38.4896 300.619 39.0272 299.258 39.6152C298.704 39.8504 297.864 40.2872 296.738 40.9256L295.478 41.6564H297.923C299.67 41.6228 300.552 41.606 300.569 41.606L300.77 41.5808L300.846 41.4548C300.947 41.2868 301.039 40.9844 301.123 40.5476C301.19 40.2452 301.266 40.0772 301.35 40.0436C301.417 40.0268 301.577 40.0184 301.829 40.0184H302.282L302.358 40.094C302.375 40.1108 302.408 40.1612 302.459 40.2452L302.106 42.0596C301.854 43.2188 301.728 43.8068 301.728 43.8236C301.728 43.874 301.694 43.916 301.627 43.9496L301.577 44H297.016C293.941 44 292.37 43.9496 292.303 43.8488C292.219 43.748 292.202 43.4204 292.253 42.866C292.253 42.782 292.261 42.7316 292.278 42.7148C292.295 42.6644 292.992 42.1856 294.37 41.2784L297.016 39.5648C297.856 39.0104 298.444 38.5652 298.78 38.2292C299.334 37.6748 299.611 37.07 299.611 36.4148C299.611 35.978 299.485 35.5832 299.233 35.2304C298.628 34.424 297.553 34.0208 296.008 34.0208C295.655 34.0208 295.42 34.0376 295.302 34.0712C295 34.1552 294.79 34.2392 294.672 34.3232L294.521 34.3988L294.672 34.55C295.092 34.9196 295.201 35.3816 295 35.936C294.983 35.9864 294.958 36.0452 294.924 36.1124C294.84 36.314 294.664 36.482 294.395 36.6164C294.008 36.818 293.614 36.818 293.21 36.6164C292.874 36.4484 292.656 36.1712 292.555 35.7848C292.488 35.5496 292.505 35.2472 292.606 34.8776C292.706 34.5248 292.841 34.256 293.009 34.0712C293.614 33.2648 294.731 32.7776 296.36 32.6096ZM313.446 43.14L310.884 40.998C311.668 40.27 312.27 39.542 312.69 38.814C313.11 38.114 313.32 37.526 313.32 37.05C313.32 36.742 313.222 36.448 313.026 36.168C312.83 35.916 312.592 35.65 312.312 35.37C312.06 35.062 311.836 34.74 311.64 34.404C311.444 34.04 311.346 33.606 311.346 33.102C311.346 32.178 311.668 31.464 312.312 30.96C312.984 30.456 313.74 30.204 314.58 30.204C315.672 30.204 316.54 30.596 317.184 31.38C317.828 32.136 318.15 33.144 318.15 34.404C318.15 35.076 318.052 35.748 317.856 36.42C317.688 37.12 317.408 37.82 317.016 38.52C316.624 39.248 316.134 40.004 315.546 40.788C314.958 41.572 314.258 42.356 313.446 43.14ZM343.9 17.478C344.572 17.366 345.272 17.394 346 17.562C347.4 17.87 348.436 18.514 349.108 19.494C349.22 19.662 349.304 19.746 349.36 19.746L349.612 19.41C350.284 18.626 351.082 18.052 352.006 17.688C353.07 17.296 354.134 17.338 355.198 17.814C356.01 18.234 356.584 18.794 356.92 19.494C357.48 20.614 357.494 21.79 356.962 23.022C356.738 23.498 356.458 23.862 356.122 24.114C355.114 24.842 354.162 24.982 353.266 24.534C353.098 24.45 352.958 24.352 352.846 24.24C352.426 23.82 352.258 23.288 352.342 22.644C352.51 21.384 353.154 20.558 354.274 20.166L354.61 20.04L354.442 19.872C353.938 19.424 353.322 19.298 352.594 19.494C352.538 19.494 352.482 19.508 352.426 19.536C351.586 19.844 350.914 20.656 350.41 21.972C350.13 22.672 349.388 25.626 348.184 30.834C348.044 31.31 347.974 31.604 347.974 31.716C347.834 32.584 347.848 33.172 348.016 33.48C348.24 33.9 348.59 34.194 349.066 34.362C349.206 34.418 349.5 34.446 349.948 34.446C350.368 34.446 350.676 34.418 350.872 34.362C351.6 34.138 352.328 33.69 353.056 33.018C353.924 32.122 354.498 31.142 354.778 30.078C354.862 29.798 354.974 29.644 355.114 29.616C355.226 29.588 355.478 29.574 355.87 29.574C356.402 29.574 356.71 29.602 356.794 29.658C356.85 29.714 356.878 29.812 356.878 29.952C356.878 30.54 356.514 31.422 355.786 32.598C355.758 32.682 355.716 32.752 355.66 32.808C354.4 34.74 352.734 35.93 350.662 36.378C350.018 36.49 349.29 36.49 348.478 36.378C347.05 36.07 345.986 35.44 345.286 34.488L345.034 34.11L344.908 34.236C343.816 35.636 342.584 36.378 341.212 36.462C339.616 36.546 338.426 35.958 337.642 34.698C337.474 34.474 337.348 34.222 337.264 33.942C337.068 33.326 337.012 32.668 337.096 31.968C337.292 30.764 337.852 29.938 338.776 29.49C339.672 29.07 340.47 29.056 341.17 29.448C341.814 29.756 342.108 30.316 342.052 31.128C341.968 32.248 341.45 33.06 340.498 33.564C340.358 33.648 340.162 33.732 339.91 33.816L339.742 33.858L339.868 33.984C340.26 34.292 340.708 34.446 341.212 34.446C341.576 34.474 341.954 34.376 342.346 34.152C343.074 33.648 343.62 32.878 343.984 31.842L346.294 22.602C346.49 21.594 346.518 20.894 346.378 20.502C346.238 20.054 345.874 19.732 345.286 19.536C344.726 19.368 344.152 19.368 343.564 19.536C342.752 19.76 342.038 20.18 341.422 20.796C340.61 21.636 340.022 22.574 339.658 23.61C339.574 23.946 339.49 24.156 339.406 24.24C339.35 24.296 339.056 24.324 338.524 24.324H337.726L337.6 24.198C337.516 24.114 337.474 24.002 337.474 23.862C337.558 23.442 337.726 22.966 337.978 22.434C338.23 21.846 338.552 21.286 338.944 20.754C339.392 20.082 340.008 19.452 340.792 18.864C340.82 18.836 340.862 18.808 340.918 18.78C341.842 18.136 342.836 17.702 343.9 17.478ZM365.029 32.6096C365.382 32.576 365.869 32.5844 366.49 32.6348C367.7 32.8196 368.691 33.2984 369.464 34.0712C370.086 34.7432 370.388 35.516 370.371 36.3896C370.321 37.2968 369.985 38.1284 369.363 38.8844C368.893 39.4556 368.296 39.9092 367.574 40.2452C367.406 40.346 367.314 40.3964 367.297 40.3964C367.297 40.4132 367.322 40.43 367.372 40.4468C367.742 40.4972 368.204 40.682 368.758 41.0012C370.002 41.7068 370.749 42.6728 371.001 43.8992C371.068 44.2856 371.068 44.7392 371.001 45.26C370.8 46.3016 370.329 47.1668 369.59 47.8556C369.204 48.242 368.758 48.5612 368.254 48.8132C367.599 49.1492 366.885 49.3508 366.112 49.418C365.625 49.4852 365.13 49.4684 364.626 49.3676C363.5 49.2164 362.551 48.8216 361.778 48.1832C361.039 47.5448 360.644 46.7552 360.594 45.8144C360.594 45.4448 360.652 45.134 360.77 44.882C360.988 44.4788 361.341 44.21 361.828 44.0756C362.047 44.0084 362.324 44.0084 362.66 44.0756C363.315 44.2604 363.71 44.672 363.844 45.3104C363.861 45.428 363.87 45.5456 363.87 45.6632C363.87 46.3688 363.584 46.856 363.013 47.1248C362.878 47.1752 362.811 47.2172 362.811 47.2508C362.862 47.3516 363.072 47.486 363.441 47.654C364.012 47.9396 364.701 48.0824 365.508 48.0824C365.81 48.0824 366.028 48.0656 366.163 48.032C367.137 47.7128 367.708 46.9904 367.876 45.8648C368.028 44.9744 368.028 44.084 367.876 43.1936C367.692 42.2192 367.23 41.5556 366.49 41.2028C366.222 41.0684 365.827 40.9928 365.306 40.976C365.222 40.976 365.079 40.976 364.878 40.976L363.844 40.9508L363.769 40.9004C363.735 40.85 363.718 40.682 363.718 40.3964C363.718 40.0436 363.76 39.8504 363.844 39.8168L364.6 39.7412C365.172 39.7076 365.541 39.6572 365.709 39.59C366.583 39.2876 367.146 38.5232 367.398 37.2968C367.482 36.9272 367.524 36.5408 367.524 36.1376C367.524 35.5664 367.44 35.1128 367.272 34.7768C367.221 34.6424 367.129 34.508 366.994 34.3736C366.541 33.9368 365.928 33.7688 365.155 33.8696C364.449 33.9368 363.853 34.1804 363.366 34.6004C363.198 34.718 363.164 34.7768 363.265 34.7768C363.416 34.7768 363.634 34.9028 363.92 35.1548C364.34 35.5748 364.458 36.0956 364.273 36.7172C364.239 36.818 364.197 36.9188 364.147 37.0196C363.912 37.5236 363.466 37.7756 362.811 37.7756C362.542 37.7756 362.29 37.7168 362.055 37.5992C361.77 37.448 361.568 37.2464 361.45 36.9944C361.333 36.7592 361.274 36.4568 361.274 36.0872C361.324 35.4488 361.518 34.886 361.854 34.3988C362.106 34.0124 362.442 33.6764 362.862 33.3908C363.483 32.9708 364.206 32.7104 365.029 32.6096ZM381.837 43.14L379.275 40.998C380.059 40.27 380.661 39.542 381.081 38.814C381.501 38.114 381.711 37.526 381.711 37.05C381.711 36.742 381.613 36.448 381.417 36.168C381.221 35.916 380.983 35.65 380.703 35.37C380.451 35.062 380.227 34.74 380.031 34.404C379.835 34.04 379.737 33.606 379.737 33.102C379.737 32.178 380.059 31.464 380.703 30.96C381.375 30.456 382.131 30.204 382.971 30.204C384.063 30.204 384.931 30.596 385.575 31.38C386.219 32.136 386.541 33.144 386.541 34.404C386.541 35.076 386.443 35.748 386.247 36.42C386.079 37.12 385.799 37.82 385.407 38.52C385.015 39.248 384.525 40.004 383.937 40.788C383.349 41.572 382.649 42.356 381.837 43.14ZM412.291 17.478C412.963 17.366 413.663 17.394 414.391 17.562C415.791 17.87 416.827 18.514 417.499 19.494C417.611 19.662 417.695 19.746 417.751 19.746L418.003 19.41C418.675 18.626 419.473 18.052 420.397 17.688C421.461 17.296 422.525 17.338 423.589 17.814C424.401 18.234 424.975 18.794 425.311 19.494C425.871 20.614 425.885 21.79 425.353 23.022C425.129 23.498 424.849 23.862 424.513 24.114C423.505 24.842 422.553 24.982 421.657 24.534C421.489 24.45 421.349 24.352 421.237 24.24C420.817 23.82 420.649 23.288 420.733 22.644C420.901 21.384 421.545 20.558 422.665 20.166L423.001 20.04L422.833 19.872C422.329 19.424 421.713 19.298 420.985 19.494C420.929 19.494 420.873 19.508 420.817 19.536C419.977 19.844 419.305 20.656 418.801 21.972C418.521 22.672 417.779 25.626 416.575 30.834C416.435 31.31 416.365 31.604 416.365 31.716C416.225 32.584 416.239 33.172 416.407 33.48C416.631 33.9 416.981 34.194 417.457 34.362C417.597 34.418 417.891 34.446 418.339 34.446C418.759 34.446 419.067 34.418 419.263 34.362C419.991 34.138 420.719 33.69 421.447 33.018C422.315 32.122 422.889 31.142 423.169 30.078C423.253 29.798 423.365 29.644 423.505 29.616C423.617 29.588 423.869 29.574 424.261 29.574C424.793 29.574 425.101 29.602 425.185 29.658C425.241 29.714 425.269 29.812 425.269 29.952C425.269 30.54 424.905 31.422 424.177 32.598C424.149 32.682 424.107 32.752 424.051 32.808C422.791 34.74 421.125 35.93 419.053 36.378C418.409 36.49 417.681 36.49 416.869 36.378C415.441 36.07 414.377 35.44 413.677 34.488L413.425 34.11L413.299 34.236C412.207 35.636 410.975 36.378 409.603 36.462C408.007 36.546 406.817 35.958 406.033 34.698C405.865 34.474 405.739 34.222 405.655 33.942C405.459 33.326 405.403 32.668 405.487 31.968C405.683 30.764 406.243 29.938 407.167 29.49C408.063 29.07 408.861 29.056 409.561 29.448C410.205 29.756 410.499 30.316 410.443 31.128C410.359 32.248 409.841 33.06 408.889 33.564C408.749 33.648 408.553 33.732 408.301 33.816L408.133 33.858L408.259 33.984C408.651 34.292 409.099 34.446 409.603 34.446C409.967 34.474 410.345 34.376 410.737 34.152C411.465 33.648 412.011 32.878 412.375 31.842L414.685 22.602C414.881 21.594 414.909 20.894 414.769 20.502C414.629 20.054 414.265 19.732 413.677 19.536C413.117 19.368 412.543 19.368 411.955 19.536C411.143 19.76 410.429 20.18 409.813 20.796C409.001 21.636 408.413 22.574 408.049 23.61C407.965 23.946 407.881 24.156 407.797 24.24C407.741 24.296 407.447 24.324 406.915 24.324H406.117L405.991 24.198C405.907 24.114 405.865 24.002 405.865 23.862C405.949 23.442 406.117 22.966 406.369 22.434C406.621 21.846 406.943 21.286 407.335 20.754C407.783 20.082 408.399 19.452 409.183 18.864C409.211 18.836 409.253 18.808 409.309 18.78C410.233 18.136 411.227 17.702 412.291 17.478ZM436.066 32.3576C436.116 32.324 436.352 32.3072 436.772 32.3072H437.402L437.477 32.3828L437.553 32.4584V37.5236V42.5888H438.586H439.619L439.695 42.6644L439.796 42.74V43.2944V43.8488L439.695 43.9244L439.619 44H438.586H437.553V45.638C437.553 46.73 437.561 47.2844 437.578 47.3012C437.612 47.402 438.04 47.4608 438.863 47.4776H439.644L439.72 47.5784L439.796 47.654V48.1832V48.7124L439.695 48.8132L439.619 48.8888H439.342L437.679 48.8384C436.755 48.8216 435.814 48.8216 434.856 48.8384L433.118 48.8888H432.815L432.74 48.8132L432.664 48.7376V48.1832V47.6288L432.74 47.5532L432.815 47.4776H433.344C434.151 47.4776 434.655 47.4524 434.856 47.402C434.957 47.3684 435.016 47.3348 435.033 47.3012C435.066 47.2676 435.083 46.7048 435.083 45.6128V44H431.958C429.842 44 428.75 43.9496 428.682 43.8488C428.649 43.8152 428.632 43.5968 428.632 43.1936V42.5888L428.808 42.3368C428.708 42.488 429.934 40.7828 432.488 37.2212C434.823 34.0124 436.016 32.3912 436.066 32.3576ZM435.234 42.5888V39.0608V35.5328L432.689 39.0608L430.144 42.5636L432.689 42.5888H435.234ZM450.228 43.14L447.666 40.998C448.45 40.27 449.052 39.542 449.472 38.814C449.892 38.114 450.102 37.526 450.102 37.05C450.102 36.742 450.004 36.448 449.808 36.168C449.612 35.916 449.374 35.65 449.094 35.37C448.842 35.062 448.618 34.74 448.422 34.404C448.226 34.04 448.128 33.606 448.128 33.102C448.128 32.178 448.45 31.464 449.094 30.96C449.766 30.456 450.522 30.204 451.362 30.204C452.454 30.204 453.322 30.596 453.966 31.38C454.61 32.136 454.932 33.144 454.932 34.404C454.932 35.076 454.834 35.748 454.638 36.42C454.47 37.12 454.19 37.82 453.798 38.52C453.406 39.248 452.916 40.004 452.328 40.788C451.74 41.572 451.04 42.356 450.228 43.14ZM480.682 17.478C481.354 17.366 482.054 17.394 482.782 17.562C484.182 17.87 485.218 18.514 485.89 19.494C486.002 19.662 486.086 19.746 486.142 19.746L486.394 19.41C487.066 18.626 487.864 18.052 488.788 17.688C489.852 17.296 490.916 17.338 491.98 17.814C492.792 18.234 493.366 18.794 493.702 19.494C494.262 20.614 494.276 21.79 493.744 23.022C493.52 23.498 493.24 23.862 492.904 24.114C491.896 24.842 490.944 24.982 490.048 24.534C489.88 24.45 489.74 24.352 489.628 24.24C489.208 23.82 489.04 23.288 489.124 22.644C489.292 21.384 489.936 20.558 491.056 20.166L491.392 20.04L491.224 19.872C490.72 19.424 490.104 19.298 489.376 19.494C489.32 19.494 489.264 19.508 489.208 19.536C488.368 19.844 487.696 20.656 487.192 21.972C486.912 22.672 486.17 25.626 484.966 30.834C484.826 31.31 484.756 31.604 484.756 31.716C484.616 32.584 484.63 33.172 484.798 33.48C485.022 33.9 485.372 34.194 485.848 34.362C485.988 34.418 486.282 34.446 486.73 34.446C487.15 34.446 487.458 34.418 487.654 34.362C488.382 34.138 489.11 33.69 489.838 33.018C490.706 32.122 491.28 31.142 491.56 30.078C491.644 29.798 491.756 29.644 491.896 29.616C492.008 29.588 492.26 29.574 492.652 29.574C493.184 29.574 493.492 29.602 493.576 29.658C493.632 29.714 493.66 29.812 493.66 29.952C493.66 30.54 493.296 31.422 492.568 32.598C492.54 32.682 492.498 32.752 492.442 32.808C491.182 34.74 489.516 35.93 487.444 36.378C486.8 36.49 486.072 36.49 485.26 36.378C483.832 36.07 482.768 35.44 482.068 34.488L481.816 34.11L481.69 34.236C480.598 35.636 479.366 36.378 477.994 36.462C476.398 36.546 475.208 35.958 474.424 34.698C474.256 34.474 474.13 34.222 474.046 33.942C473.85 33.326 473.794 32.668 473.878 31.968C474.074 30.764 474.634 29.938 475.558 29.49C476.454 29.07 477.252 29.056 477.952 29.448C478.596 29.756 478.89 30.316 478.834 31.128C478.75 32.248 478.232 33.06 477.28 33.564C477.14 33.648 476.944 33.732 476.692 33.816L476.524 33.858L476.65 33.984C477.042 34.292 477.49 34.446 477.994 34.446C478.358 34.474 478.736 34.376 479.128 34.152C479.856 33.648 480.402 32.878 480.766 31.842L483.076 22.602C483.272 21.594 483.3 20.894 483.16 20.502C483.02 20.054 482.656 19.732 482.068 19.536C481.508 19.368 480.934 19.368 480.346 19.536C479.534 19.76 478.82 20.18 478.204 20.796C477.392 21.636 476.804 22.574 476.44 23.61C476.356 23.946 476.272 24.156 476.188 24.24C476.132 24.296 475.838 24.324 475.306 24.324H474.508L474.382 24.198C474.298 24.114 474.256 24.002 474.256 23.862C474.34 23.442 474.508 22.966 474.76 22.434C475.012 21.846 475.334 21.286 475.726 20.754C476.174 20.082 476.79 19.452 477.574 18.864C477.602 18.836 477.644 18.808 477.7 18.78C478.624 18.136 479.618 17.702 480.682 17.478ZM498.661 32.6348C498.728 32.5844 498.863 32.6012 499.064 32.6852C500.711 33.3572 502.449 33.5336 504.281 33.2144C504.953 33.0968 505.574 32.912 506.145 32.66C506.347 32.576 506.49 32.576 506.574 32.66L506.649 32.7356V33.1892V33.6176L506.397 33.8696C505.322 34.9112 504.045 35.5496 502.567 35.7848C501.861 35.9192 501.114 35.9276 500.324 35.81L499.971 35.7596C499.955 35.7596 499.946 36.4148 499.946 37.7252V39.6656L500.072 39.5648C500.391 39.2624 500.778 39.0356 501.231 38.8844C502.122 38.5148 503.096 38.498 504.155 38.834C504.759 39.0356 505.314 39.3548 505.818 39.7916C506.305 40.2284 506.717 40.7828 507.053 41.4548C507.271 41.9252 507.447 42.4796 507.582 43.118C507.649 43.6388 507.649 44.1932 507.582 44.7812C507.313 46.3604 506.523 47.5868 505.213 48.4604C504.793 48.7628 504.323 48.9896 503.802 49.1408C502.659 49.5272 501.584 49.5524 500.576 49.2164C500.139 49.0652 499.761 48.8804 499.442 48.662C498.266 47.8556 497.645 46.7468 497.577 45.3356C497.577 45.1004 497.586 44.9324 497.603 44.8316C497.737 44.1932 498.123 43.8152 498.762 43.6976C498.863 43.6808 498.972 43.6724 499.089 43.6724C499.761 43.6724 500.215 43.9664 500.45 44.5544C500.484 44.6216 500.509 44.6972 500.526 44.7812C500.593 45.0332 500.593 45.2936 500.526 45.5624C500.391 46.1336 500.047 46.4864 499.493 46.6208C499.375 46.6544 499.316 46.6796 499.316 46.6964C499.316 46.7804 499.484 46.982 499.82 47.3012C500.375 47.7884 501.038 48.0572 501.811 48.1076C502.953 48.1748 503.81 47.7716 504.381 46.898C504.549 46.646 504.667 46.3688 504.734 46.0664C504.852 45.596 504.911 44.8736 504.911 43.8992C504.911 42.5216 504.801 41.5808 504.583 41.0768C504.415 40.64 504.138 40.304 503.751 40.0688C503.365 39.8672 502.979 39.7748 502.592 39.7916C501.383 39.8756 500.475 40.43 499.871 41.4548C499.77 41.606 499.711 41.69 499.694 41.7068C499.593 41.7572 499.308 41.7656 498.837 41.732C498.753 41.732 498.703 41.7236 498.686 41.7068C498.619 41.6564 498.577 41.5052 498.56 41.2532C498.543 40.934 498.535 39.5648 498.535 37.1456C498.535 34.2392 498.543 32.7692 498.56 32.7356C498.594 32.6684 498.627 32.6348 498.661 32.6348ZM527.817 39.78H514.671V36H523.323V11.724H514.671V7.902H527.817V39.78Z" fill="black"/>
</svg>
