<svg width="640" height="308" viewBox="0 0 640 308" fill="none" xmlns="http://www.w3.org/2000/svg">
<path d="M135.914 39.78V7.902H149.06V11.724H140.408V36H149.06V39.78H135.914ZM163.928 36V29.784H153.68V26.676L165.02 9.834H168.548V25.962H171.992V29.826H168.548V36H163.928ZM158.468 26.046H164.054V17.31L158.468 26.046ZM181.946 43.14L179.384 40.998C180.168 40.27 180.77 39.542 181.19 38.814C181.61 38.114 181.82 37.526 181.82 37.05C181.82 36.742 181.722 36.448 181.526 36.168C181.33 35.916 181.092 35.65 180.812 35.37C180.56 35.062 180.336 34.74 180.14 34.404C179.944 34.04 179.846 33.606 179.846 33.102C179.846 32.178 180.168 31.464 180.812 30.96C181.484 30.456 182.24 30.204 183.08 30.204C184.172 30.204 185.04 30.596 185.684 31.38C186.328 32.136 186.65 33.144 186.65 34.404C186.65 35.076 186.552 35.748 186.356 36.42C186.188 37.12 185.908 37.82 185.516 38.52C185.124 39.248 184.634 40.004 184.046 40.788C183.458 41.572 182.758 42.356 181.946 43.14ZM223.736 36V15L218.99 16.68L217.982 13.53L224.954 9.834H228.482V36H223.736ZM244.946 43.14L242.384 40.998C243.168 40.27 243.77 39.542 244.19 38.814C244.61 38.114 244.82 37.526 244.82 37.05C244.82 36.742 244.722 36.448 244.526 36.168C244.33 35.916 244.092 35.65 243.812 35.37C243.56 35.062 243.336 34.74 243.14 34.404C242.944 34.04 242.846 33.606 242.846 33.102C242.846 32.178 243.168 31.464 243.812 30.96C244.484 30.456 245.24 30.204 246.08 30.204C247.172 30.204 248.04 30.596 248.684 31.38C249.328 32.136 249.65 33.144 249.65 34.404C249.65 35.076 249.552 35.748 249.356 36.42C249.188 37.12 248.908 37.82 248.516 38.52C248.124 39.248 247.634 40.004 247.046 40.788C246.458 41.572 245.758 42.356 244.946 43.14ZM288.584 36.504C286.764 36.504 285.112 36.154 283.628 35.454C282.172 34.754 281.052 33.718 280.268 32.346L283.586 29.616L283.922 29.364L284.132 29.658C284.132 29.882 284.174 30.092 284.258 30.288C284.342 30.484 284.524 30.764 284.804 31.128C285.308 31.632 285.868 32.01 286.484 32.262C287.1 32.514 287.786 32.64 288.542 32.64C289.158 32.64 289.732 32.528 290.264 32.304C290.796 32.052 291.244 31.702 291.608 31.254C292 30.806 292.308 30.274 292.532 29.658C292.756 29.042 292.868 28.384 292.868 27.684C292.868 26.9 292.756 26.2 292.532 25.584C292.336 24.94 292.042 24.394 291.65 23.946C291.286 23.47 290.824 23.106 290.264 22.854C289.732 22.602 289.116 22.476 288.416 22.476C287.884 22.476 287.352 22.56 286.82 22.728C286.288 22.868 285.798 23.092 285.35 23.4C284.93 23.68 284.538 24.058 284.174 24.534L281.276 23.778L282.242 9.834H296.228V13.656H286.19L285.812 19.578C286.148 19.41 286.526 19.256 286.946 19.116C287.366 18.948 287.8 18.836 288.248 18.78C288.696 18.696 289.116 18.654 289.508 18.654C290.684 18.654 291.748 18.85 292.7 19.242C293.652 19.606 294.478 20.166 295.178 20.922C295.878 21.65 296.41 22.56 296.774 23.652C297.166 24.744 297.362 25.976 297.362 27.348C297.362 29.224 296.97 30.848 296.186 32.22C295.43 33.592 294.394 34.656 293.078 35.412C291.79 36.14 290.292 36.504 288.584 36.504ZM307.946 43.14L305.384 40.998C306.168 40.27 306.77 39.542 307.19 38.814C307.61 38.114 307.82 37.526 307.82 37.05C307.82 36.742 307.722 36.448 307.526 36.168C307.33 35.916 307.092 35.65 306.812 35.37C306.56 35.062 306.336 34.74 306.14 34.404C305.944 34.04 305.846 33.606 305.846 33.102C305.846 32.178 306.168 31.464 306.812 30.96C307.484 30.456 308.24 30.204 309.08 30.204C310.172 30.204 311.04 30.596 311.684 31.38C312.328 32.136 312.65 33.144 312.65 34.404C312.65 35.076 312.552 35.748 312.356 36.42C312.188 37.12 311.908 37.82 311.516 38.52C311.124 39.248 310.634 40.004 310.046 40.788C309.458 41.572 308.758 42.356 307.946 43.14ZM350.87 36.504C349.33 36.504 347.832 36.252 346.376 35.748C344.92 35.216 343.744 34.418 342.848 33.354L345.242 29.868L345.494 29.532L345.83 29.742C345.886 29.966 345.942 30.19 345.998 30.414C346.082 30.638 346.292 30.918 346.628 31.254C347.132 31.702 347.72 32.066 348.392 32.346C349.092 32.598 349.848 32.724 350.66 32.724C351.556 32.724 352.312 32.556 352.928 32.22C353.544 31.856 354.006 31.366 354.314 30.75C354.65 30.106 354.818 29.378 354.818 28.566C354.818 27.698 354.664 26.97 354.356 26.382C354.076 25.766 353.642 25.29 353.054 24.954C352.494 24.618 351.78 24.394 350.912 24.282C350.072 24.17 349.078 24.184 347.93 24.324V20.628C349.162 20.656 350.184 20.572 350.996 20.376C351.808 20.18 352.452 19.9 352.928 19.536C353.404 19.172 353.74 18.752 353.936 18.276C354.132 17.772 354.23 17.254 354.23 16.722C354.23 16.19 354.146 15.728 353.978 15.336C353.81 14.916 353.572 14.566 353.264 14.286C352.984 13.978 352.62 13.754 352.172 13.614C351.752 13.446 351.276 13.362 350.744 13.362C350.184 13.362 349.624 13.432 349.064 13.572C348.532 13.712 348.014 13.936 347.51 14.244C347.034 14.524 346.586 14.902 346.166 15.378L343.436 12.606C344.444 11.486 345.606 10.688 346.922 10.212C348.266 9.708 349.596 9.456 350.912 9.456C352.452 9.456 353.81 9.75 354.986 10.338C356.19 10.926 357.128 11.724 357.8 12.732C358.472 13.74 358.808 14.902 358.808 16.218C358.808 17.17 358.612 18.038 358.22 18.822C357.856 19.606 357.352 20.278 356.708 20.838C356.092 21.37 355.434 21.79 354.734 22.098C355.546 22.378 356.316 22.798 357.044 23.358C357.8 23.918 358.402 24.646 358.85 25.542C359.326 26.41 359.564 27.474 359.564 28.734C359.564 30.162 359.214 31.464 358.514 32.64C357.814 33.816 356.82 34.754 355.532 35.454C354.244 36.154 352.69 36.504 350.87 36.504ZM370.946 43.14L368.384 40.998C369.168 40.27 369.77 39.542 370.19 38.814C370.61 38.114 370.82 37.526 370.82 37.05C370.82 36.742 370.722 36.448 370.526 36.168C370.33 35.916 370.092 35.65 369.812 35.37C369.56 35.062 369.336 34.74 369.14 34.404C368.944 34.04 368.846 33.606 368.846 33.102C368.846 32.178 369.168 31.464 369.812 30.96C370.484 30.456 371.24 30.204 372.08 30.204C373.172 30.204 374.04 30.596 374.684 31.38C375.328 32.136 375.65 33.144 375.65 34.404C375.65 35.076 375.552 35.748 375.356 36.42C375.188 37.12 374.908 37.82 374.516 38.52C374.124 39.248 373.634 40.004 373.046 40.788C372.458 41.572 371.758 42.356 370.946 43.14ZM413.408 36.462C412.092 36.462 410.818 36.294 409.586 35.958C408.354 35.594 407.234 34.978 406.226 34.11L408.662 30.624L408.872 30.288L409.208 30.498C409.264 30.722 409.348 30.932 409.46 31.128C409.6 31.296 409.838 31.534 410.174 31.842C410.65 32.094 411.126 32.29 411.602 32.43C412.106 32.542 412.652 32.598 413.24 32.598C414.052 32.598 414.766 32.374 415.382 31.926C416.026 31.478 416.572 30.82 417.02 29.952C417.468 29.084 417.818 28.076 418.07 26.928C418.322 25.78 418.448 24.506 418.448 23.106C418.504 20.698 418.378 18.78 418.07 17.352C417.762 15.896 417.3 14.846 416.684 14.202C416.096 13.558 415.312 13.236 414.332 13.236C413.744 13.236 413.198 13.362 412.694 13.614C412.218 13.838 411.798 14.188 411.434 14.664C411.098 15.112 410.832 15.658 410.636 16.302C410.468 16.946 410.384 17.674 410.384 18.486C410.384 19.214 410.482 19.858 410.678 20.418C410.902 20.95 411.196 21.412 411.56 21.804C411.924 22.168 412.344 22.448 412.82 22.644C413.296 22.84 413.8 22.938 414.332 22.938C415.06 22.938 415.718 22.854 416.306 22.686C416.894 22.518 417.426 22.238 417.902 21.846C418.406 21.426 418.854 20.866 419.246 20.166L419.708 24.24C419.288 24.716 418.784 25.15 418.196 25.542C417.608 25.906 416.95 26.186 416.222 26.382C415.522 26.578 414.766 26.676 413.954 26.676C412.834 26.676 411.784 26.494 410.804 26.13C409.824 25.738 408.97 25.178 408.242 24.45C407.514 23.694 406.94 22.812 406.52 21.804C406.128 20.768 405.932 19.62 405.932 18.36C405.932 17.072 406.156 15.896 406.604 14.832C407.052 13.74 407.654 12.802 408.41 12.018C409.194 11.206 410.104 10.576 411.14 10.128C412.204 9.68 413.324 9.456 414.5 9.456C416.348 9.456 417.888 9.932 419.12 10.884C420.352 11.808 421.276 13.18 421.892 15C422.536 16.792 422.858 18.99 422.858 21.594C422.858 24.814 422.48 27.53 421.724 29.742C420.996 31.926 419.932 33.592 418.532 34.74C417.132 35.86 415.424 36.434 413.408 36.462ZM433.946 43.14L431.384 40.998C432.168 40.27 432.77 39.542 433.19 38.814C433.61 38.114 433.82 37.526 433.82 37.05C433.82 36.742 433.722 36.448 433.526 36.168C433.33 35.916 433.092 35.65 432.812 35.37C432.56 35.062 432.336 34.74 432.14 34.404C431.944 34.04 431.846 33.606 431.846 33.102C431.846 32.178 432.168 31.464 432.812 30.96C433.484 30.456 434.24 30.204 435.08 30.204C436.172 30.204 437.04 30.596 437.684 31.38C438.328 32.136 438.65 33.144 438.65 34.404C438.65 35.076 438.552 35.748 438.356 36.42C438.188 37.12 437.908 37.82 437.516 38.52C437.124 39.248 436.634 40.004 436.046 40.788C435.458 41.572 434.758 42.356 433.946 43.14ZM469.394 32.472C471.018 30.904 472.46 29.518 473.72 28.314C474.98 27.082 476.072 25.976 476.996 24.996C477.948 23.988 478.732 23.05 479.348 22.182C479.992 21.314 480.468 20.474 480.776 19.662C481.084 18.822 481.238 17.94 481.238 17.016C481.238 16.4 481.154 15.868 480.986 15.42C480.846 14.972 480.608 14.608 480.272 14.328C479.964 14.02 479.572 13.796 479.096 13.656C478.648 13.488 478.13 13.404 477.542 13.404C476.954 13.404 476.394 13.474 475.862 13.614C475.358 13.754 474.868 13.964 474.392 14.244C473.944 14.524 473.524 14.902 473.132 15.378C472.88 15.742 472.712 16.036 472.628 16.26C472.572 16.456 472.558 16.666 472.586 16.89L472.334 17.184L472.04 16.974L468.764 14.454C469.408 13.362 470.178 12.452 471.074 11.724C471.998 10.996 473.006 10.436 474.098 10.044C475.218 9.652 476.38 9.456 477.584 9.456C479.096 9.456 480.468 9.764 481.7 10.38C482.932 10.996 483.912 11.878 484.64 13.026C485.368 14.146 485.732 15.476 485.732 17.016C485.732 18.108 485.564 19.144 485.228 20.124C484.92 21.076 484.472 22.014 483.884 22.938C483.324 23.834 482.624 24.758 481.784 25.71C480.944 26.662 480.006 27.67 478.97 28.734C477.934 29.77 476.814 30.904 475.61 32.136H483.884C484.36 32.136 484.696 32.108 484.892 32.052C485.088 31.996 485.27 31.884 485.438 31.716H485.816V32.136V36H469.394V32.472ZM506.144 39.78H492.998V36H501.65V11.724H492.998V7.902H506.144V39.78Z" fill="black"/>
<path d="M112 268L92 256.453L92 279.547L112 268ZM80 270L94 270L94 266L80 266L80 270Z" fill="#CD4848"/>
<path d="M224 268L204 256.453L204 279.547L224 268ZM192 270L206 270L206 266L192 266L192 270Z" fill="#CD4848"/>
<path d="M336 268L316 256.453L316 279.547L336 268ZM304 270L318 270L318 266L304 266L304 270Z" fill="#CD4848"/>
<path d="M40 228L51.547 208H28.453L40 228ZM38 196V210H42V196H38Z" fill="#358C9F"/>
<path d="M152 228L163.547 208H140.453L152 228ZM150 196V210H154V196H150Z" fill="#358C9F"/>
<path d="M264 228L275.547 208H252.453L264 228ZM262 196V210H266V196H262Z" fill="#358C9F"/>
<path d="M377 228L388.547 208H365.453L377 228ZM375 196V210H379V196H375Z" fill="#358C9F"/>
<circle cx="40" cy="156" r="40" fill="#358C9F"/>
<path d="M41.824 166V161.168H33.44V159.28L42.4 146.032H44.576V158.96H47.136V161.2H44.576V166H41.824ZM36.384 158.96H41.856V150.64L36.384 158.96Z" fill="white"/>
<circle cx="152" cy="156" r="40" fill="#358C9F"/>
<path d="M151.136 166V149.2L147.232 150.416L146.624 148.784L151.872 146.032H153.824V166H151.136Z" fill="white"/>
<circle cx="264" cy="156" r="40" fill="#358C9F"/>
<path d="M264 166.352C262.72 166.352 261.547 166.085 260.48 165.552C259.435 165.019 258.592 164.251 257.952 163.248L259.968 161.68L260.224 161.488L260.384 161.648C260.363 161.819 260.384 161.979 260.448 162.128C260.533 162.277 260.683 162.491 260.896 162.768C261.301 163.216 261.749 163.547 262.24 163.76C262.752 163.973 263.36 164.08 264.064 164.08C264.576 164.08 265.056 163.973 265.504 163.76C265.952 163.547 266.336 163.248 266.656 162.864C266.997 162.48 267.264 162.011 267.456 161.456C267.648 160.901 267.744 160.293 267.744 159.632C267.744 158.949 267.648 158.331 267.456 157.776C267.264 157.221 266.997 156.752 266.656 156.368C266.315 155.984 265.909 155.685 265.44 155.472C264.971 155.259 264.459 155.152 263.904 155.152C263.456 155.152 263.008 155.227 262.56 155.376C262.133 155.504 261.728 155.707 261.344 155.984C260.981 156.24 260.64 156.56 260.32 156.944L258.656 156.368L259.328 146.064H269.632V148.368H261.6L261.28 153.712C261.621 153.541 261.963 153.403 262.304 153.296C262.645 153.168 262.997 153.083 263.36 153.04C263.723 152.976 264.075 152.944 264.416 152.944C265.291 152.944 266.091 153.104 266.816 153.424C267.541 153.723 268.171 154.16 268.704 154.736C269.259 155.312 269.675 156.016 269.952 156.848C270.251 157.659 270.4 158.587 270.4 159.632C270.4 161.019 270.112 162.213 269.536 163.216C268.981 164.219 268.224 164.997 267.264 165.552C266.325 166.085 265.237 166.352 264 166.352Z" fill="white"/>
<circle cx="376" cy="156" r="40" fill="#358C9F"/>
<path d="M375.616 166.352C374.528 166.352 373.483 166.16 372.48 165.776C371.477 165.392 370.635 164.816 369.952 164.048L371.52 162L371.744 161.744L371.936 161.904C371.957 162.075 372 162.245 372.064 162.416C372.128 162.565 372.277 162.768 372.512 163.024C372.896 163.344 373.323 163.611 373.792 163.824C374.283 164.016 374.859 164.112 375.52 164.112C376.309 164.112 376.96 163.963 377.472 163.664C378.005 163.344 378.4 162.907 378.656 162.352C378.933 161.776 379.072 161.125 379.072 160.4C379.072 159.675 378.944 159.056 378.688 158.544C378.453 158.032 378.091 157.637 377.6 157.36C377.131 157.061 376.555 156.859 375.872 156.752C375.211 156.645 374.453 156.635 373.6 156.72V154.576C374.603 154.597 375.424 154.512 376.064 154.32C376.704 154.128 377.195 153.861 377.536 153.52C377.899 153.179 378.144 152.795 378.272 152.368C378.421 151.92 378.496 151.451 378.496 150.96C378.496 150.533 378.421 150.149 378.272 149.808C378.144 149.467 377.963 149.179 377.728 148.944C377.493 148.688 377.195 148.496 376.832 148.368C376.491 148.219 376.117 148.144 375.712 148.144C375.285 148.144 374.859 148.197 374.432 148.304C374.027 148.411 373.621 148.571 373.216 148.784C372.832 148.997 372.459 149.285 372.096 149.648L370.528 148.048C371.253 147.259 372.075 146.704 372.992 146.384C373.909 146.043 374.816 145.872 375.712 145.872C376.843 145.872 377.813 146.085 378.624 146.512C379.435 146.939 380.064 147.536 380.512 148.304C380.96 149.051 381.184 149.915 381.184 150.896C381.184 151.6 381.056 152.261 380.8 152.88C380.565 153.477 380.213 154 379.744 154.448C379.275 154.875 378.709 155.205 378.048 155.44C378.752 155.653 379.392 155.984 379.968 156.432C380.544 156.88 380.992 157.445 381.312 158.128C381.653 158.789 381.824 159.579 381.824 160.496C381.824 161.563 381.579 162.544 381.088 163.44C380.619 164.315 379.925 165.019 379.008 165.552C378.091 166.085 376.96 166.352 375.616 166.352Z" fill="white"/>
<path d="M489 228L500.547 208H477.453L489 228ZM487 196V210H491V196H487Z" fill="#358C9F"/>
<circle cx="488" cy="156" r="40" fill="#358C9F"/>
<path d="M487.264 166.32C486.261 166.32 485.344 166.181 484.512 165.904C483.68 165.605 482.923 165.147 482.24 164.528L483.776 162.576L484 162.32L484.192 162.48C484.213 162.651 484.267 162.811 484.352 162.96C484.437 163.088 484.608 163.269 484.864 163.504C485.184 163.696 485.515 163.845 485.856 163.952C486.219 164.037 486.624 164.08 487.072 164.08C487.861 164.08 488.533 163.856 489.088 163.408C489.664 162.96 490.133 162.352 490.496 161.584C490.859 160.816 491.136 159.941 491.328 158.96C491.52 157.979 491.616 156.955 491.616 155.888C491.616 154.096 491.488 152.635 491.232 151.504C490.976 150.352 490.571 149.509 490.016 148.976C489.483 148.421 488.8 148.144 487.968 148.144C487.456 148.144 486.987 148.24 486.56 148.432C486.133 148.624 485.76 148.912 485.44 149.296C485.141 149.68 484.907 150.139 484.736 150.672C484.587 151.205 484.512 151.813 484.512 152.496C484.512 153.093 484.597 153.637 484.768 154.128C484.96 154.597 485.216 155.003 485.536 155.344C485.856 155.664 486.219 155.909 486.624 156.08C487.051 156.251 487.499 156.336 487.968 156.336C488.651 156.336 489.237 156.261 489.728 156.112C490.219 155.963 490.667 155.707 491.072 155.344C491.499 154.981 491.883 154.501 492.224 153.904L492.448 156.464C492.085 156.891 491.68 157.264 491.232 157.584C490.784 157.904 490.272 158.16 489.696 158.352C489.141 158.523 488.523 158.608 487.84 158.608C487.008 158.608 486.229 158.469 485.504 158.192C484.779 157.893 484.149 157.477 483.616 156.944C483.083 156.389 482.667 155.739 482.368 154.992C482.091 154.224 481.952 153.381 481.952 152.464C481.952 151.525 482.101 150.661 482.4 149.872C482.72 149.061 483.147 148.357 483.68 147.76C484.235 147.163 484.875 146.704 485.6 146.384C486.325 146.043 487.104 145.872 487.936 145.872C489.237 145.872 490.347 146.235 491.264 146.96C492.203 147.685 492.917 148.699 493.408 150C493.899 151.301 494.144 152.837 494.144 154.608C494.144 157.211 493.867 159.376 493.312 161.104C492.779 162.832 492 164.133 490.976 165.008C489.952 165.861 488.715 166.299 487.264 166.32Z" fill="white"/>
<path d="M601 228L612.547 208H589.453L601 228ZM599 196V210H603V196H599Z" fill="#358C9F"/>
<circle cx="600" cy="156" r="40" fill="#358C9F"/>
<path d="M594.176 163.92C595.349 162.725 596.416 161.659 597.376 160.72C598.336 159.76 599.189 158.885 599.936 158.096C600.683 157.285 601.312 156.528 601.824 155.824C602.336 155.12 602.72 154.427 602.976 153.744C603.253 153.04 603.392 152.315 603.392 151.568C603.392 150.949 603.307 150.427 603.136 150C602.987 149.573 602.763 149.232 602.464 148.976C602.187 148.699 601.845 148.496 601.44 148.368C601.056 148.24 600.64 148.176 600.192 148.176C599.701 148.176 599.232 148.251 598.784 148.4C598.336 148.528 597.909 148.731 597.504 149.008C597.099 149.264 596.725 149.605 596.384 150.032C596.192 150.331 596.075 150.565 596.032 150.736C595.989 150.885 595.979 151.045 596 151.216L595.84 151.376L595.616 151.216L593.696 149.744C594.144 148.912 594.688 148.208 595.328 147.632C595.989 147.056 596.725 146.619 597.536 146.32C598.368 146.021 599.243 145.872 600.16 145.872C601.312 145.872 602.325 146.107 603.2 146.576C604.075 147.045 604.768 147.707 605.28 148.56C605.792 149.413 606.048 150.427 606.048 151.6C606.048 152.453 605.899 153.285 605.6 154.096C605.323 154.885 604.917 155.664 604.384 156.432C603.872 157.179 603.264 157.936 602.56 158.704C601.856 159.472 601.088 160.272 600.256 161.104C599.424 161.915 598.56 162.789 597.664 163.728H604.704C605.067 163.728 605.323 163.707 605.472 163.664C605.621 163.621 605.76 163.536 605.888 163.408H606.144V163.728V166H594.176V163.92Z" fill="white"/>
<circle cx="40" cy="268" r="40" fill="#CD4848"/>
<path d="M41.824 278V273.168H33.44V271.28L42.4 258.032H44.576V270.96H47.136V273.2H44.576V278H41.824ZM36.384 270.96H41.856V262.64L36.384 270.96Z" fill="white"/>
<circle cx="152" cy="268" r="40" fill="#CD4848"/>
<path d="M152 278.352C150.72 278.352 149.547 278.085 148.48 277.552C147.435 277.019 146.592 276.251 145.952 275.248L147.968 273.68L148.224 273.488L148.384 273.648C148.363 273.819 148.384 273.979 148.448 274.128C148.533 274.277 148.683 274.491 148.896 274.768C149.301 275.216 149.749 275.547 150.24 275.76C150.752 275.973 151.36 276.08 152.064 276.08C152.576 276.08 153.056 275.973 153.504 275.76C153.952 275.547 154.336 275.248 154.656 274.864C154.997 274.48 155.264 274.011 155.456 273.456C155.648 272.901 155.744 272.293 155.744 271.632C155.744 270.949 155.648 270.331 155.456 269.776C155.264 269.221 154.997 268.752 154.656 268.368C154.315 267.984 153.909 267.685 153.44 267.472C152.971 267.259 152.459 267.152 151.904 267.152C151.456 267.152 151.008 267.227 150.56 267.376C150.133 267.504 149.728 267.707 149.344 267.984C148.981 268.24 148.64 268.56 148.32 268.944L146.656 268.368L147.328 258.064H157.632V260.368H149.6L149.28 265.712C149.621 265.541 149.963 265.403 150.304 265.296C150.645 265.168 150.997 265.083 151.36 265.04C151.723 264.976 152.075 264.944 152.416 264.944C153.291 264.944 154.091 265.104 154.816 265.424C155.541 265.723 156.171 266.16 156.704 266.736C157.259 267.312 157.675 268.016 157.952 268.848C158.251 269.659 158.4 270.587 158.4 271.632C158.4 273.019 158.112 274.213 157.536 275.216C156.981 276.219 156.224 276.997 155.264 277.552C154.325 278.085 153.237 278.352 152 278.352Z" fill="white"/>
<circle cx="264" cy="268" r="40" fill="#CD4848"/>
<path d="M255.136 278V261.2L251.232 262.416L250.624 260.784L255.872 258.032H257.824V278H255.136ZM267.424 272.72L275.968 262.064L276.672 263.856L268.128 274.416L267.424 272.72ZM272 278.352C270.656 278.352 269.504 277.957 268.544 277.168C267.605 276.379 266.88 275.227 266.368 273.712C265.856 272.176 265.6 270.32 265.6 268.144C265.6 266.011 265.856 264.187 266.368 262.672C266.88 261.136 267.605 259.952 268.544 259.12C269.504 258.288 270.656 257.872 272 257.872C273.344 257.872 274.485 258.288 275.424 259.12C276.384 259.952 277.12 261.136 277.632 262.672C278.144 264.187 278.4 266.011 278.4 268.144C278.4 270.32 278.144 272.176 277.632 273.712C277.12 275.227 276.384 276.379 275.424 277.168C274.485 277.957 273.344 278.352 272 278.352ZM272 276.144C272.789 276.144 273.461 275.835 274.016 275.216C274.571 274.597 274.997 273.691 275.296 272.496C275.595 271.301 275.744 269.851 275.744 268.144C275.744 266.501 275.595 265.093 275.296 263.92C274.997 262.725 274.571 261.797 274.016 261.136C273.461 260.475 272.789 260.144 272 260.144C271.211 260.144 270.539 260.475 269.984 261.136C269.429 261.797 269.003 262.725 268.704 263.92C268.405 265.093 268.256 266.501 268.256 268.144C268.256 269.851 268.405 271.301 268.704 272.496C269.003 273.691 269.429 274.597 269.984 275.216C270.539 275.835 271.211 276.144 272 276.144Z" fill="white"/>
<circle cx="376" cy="268" r="40" fill="#CD4848"/>
<path d="M367.136 278V261.2L363.232 262.416L362.624 260.784L367.872 258.032H369.824V278H367.136ZM383.616 278.352C382.528 278.352 381.483 278.16 380.48 277.776C379.477 277.392 378.635 276.816 377.952 276.048L379.52 274L379.744 273.744L379.936 273.904C379.957 274.075 380 274.245 380.064 274.416C380.128 274.565 380.277 274.768 380.512 275.024C380.896 275.344 381.323 275.611 381.792 275.824C382.283 276.016 382.859 276.112 383.52 276.112C384.309 276.112 384.96 275.963 385.472 275.664C386.005 275.344 386.4 274.907 386.656 274.352C386.933 273.776 387.072 273.125 387.072 272.4C387.072 271.675 386.944 271.056 386.688 270.544C386.453 270.032 386.091 269.637 385.6 269.36C385.131 269.061 384.555 268.859 383.872 268.752C383.211 268.645 382.453 268.635 381.6 268.72V266.576C382.603 266.597 383.424 266.512 384.064 266.32C384.704 266.128 385.195 265.861 385.536 265.52C385.899 265.179 386.144 264.795 386.272 264.368C386.421 263.92 386.496 263.451 386.496 262.96C386.496 262.533 386.421 262.149 386.272 261.808C386.144 261.467 385.963 261.179 385.728 260.944C385.493 260.688 385.195 260.496 384.832 260.368C384.491 260.219 384.117 260.144 383.712 260.144C383.285 260.144 382.859 260.197 382.432 260.304C382.027 260.411 381.621 260.571 381.216 260.784C380.832 260.997 380.459 261.285 380.096 261.648L378.528 260.048C379.253 259.259 380.075 258.704 380.992 258.384C381.909 258.043 382.816 257.872 383.712 257.872C384.843 257.872 385.813 258.085 386.624 258.512C387.435 258.939 388.064 259.536 388.512 260.304C388.96 261.051 389.184 261.915 389.184 262.896C389.184 263.6 389.056 264.261 388.8 264.88C388.565 265.477 388.213 266 387.744 266.448C387.275 266.875 386.709 267.205 386.048 267.44C386.752 267.653 387.392 267.984 387.968 268.432C388.544 268.88 388.992 269.445 389.312 270.128C389.653 270.789 389.824 271.579 389.824 272.496C389.824 273.563 389.579 274.544 389.088 275.44C388.619 276.315 387.925 277.019 387.008 277.552C386.091 278.085 384.96 278.352 383.616 278.352Z" fill="white"/>
<path d="M448 268L428 256.453L428 279.547L448 268ZM416 270L430 270L430 266L416 266L416 270Z" fill="#CD4848"/>
<circle cx="488" cy="268" r="40" fill="#CD4848"/>
<path d="M474.176 275.92C475.349 274.725 476.416 273.659 477.376 272.72C478.336 271.76 479.189 270.885 479.936 270.096C480.683 269.285 481.312 268.528 481.824 267.824C482.336 267.12 482.72 266.427 482.976 265.744C483.253 265.04 483.392 264.315 483.392 263.568C483.392 262.949 483.307 262.427 483.136 262C482.987 261.573 482.763 261.232 482.464 260.976C482.187 260.699 481.845 260.496 481.44 260.368C481.056 260.24 480.64 260.176 480.192 260.176C479.701 260.176 479.232 260.251 478.784 260.4C478.336 260.528 477.909 260.731 477.504 261.008C477.099 261.264 476.725 261.605 476.384 262.032C476.192 262.331 476.075 262.565 476.032 262.736C475.989 262.885 475.979 263.045 476 263.216L475.84 263.376L475.616 263.216L473.696 261.744C474.144 260.912 474.688 260.208 475.328 259.632C475.989 259.056 476.725 258.619 477.536 258.32C478.368 258.021 479.243 257.872 480.16 257.872C481.312 257.872 482.325 258.107 483.2 258.576C484.075 259.045 484.768 259.707 485.28 260.56C485.792 261.413 486.048 262.427 486.048 263.6C486.048 264.453 485.899 265.285 485.6 266.096C485.323 266.885 484.917 267.664 484.384 268.432C483.872 269.179 483.264 269.936 482.56 270.704C481.856 271.472 481.088 272.272 480.256 273.104C479.424 273.915 478.56 274.789 477.664 275.728H484.704C485.067 275.728 485.323 275.707 485.472 275.664C485.621 275.621 485.76 275.536 485.888 275.408H486.144V275.728V278H474.176V275.92ZM490.176 275.92C491.349 274.725 492.416 273.659 493.376 272.72C494.336 271.76 495.189 270.885 495.936 270.096C496.683 269.285 497.312 268.528 497.824 267.824C498.336 267.12 498.72 266.427 498.976 265.744C499.253 265.04 499.392 264.315 499.392 263.568C499.392 262.949 499.307 262.427 499.136 262C498.987 261.573 498.763 261.232 498.464 260.976C498.187 260.699 497.845 260.496 497.44 260.368C497.056 260.24 496.64 260.176 496.192 260.176C495.701 260.176 495.232 260.251 494.784 260.4C494.336 260.528 493.909 260.731 493.504 261.008C493.099 261.264 492.725 261.605 492.384 262.032C492.192 262.331 492.075 262.565 492.032 262.736C491.989 262.885 491.979 263.045 492 263.216L491.84 263.376L491.616 263.216L489.696 261.744C490.144 260.912 490.688 260.208 491.328 259.632C491.989 259.056 492.725 258.619 493.536 258.32C494.368 258.021 495.243 257.872 496.16 257.872C497.312 257.872 498.325 258.107 499.2 258.576C500.075 259.045 500.768 259.707 501.28 260.56C501.792 261.413 502.048 262.427 502.048 263.6C502.048 264.453 501.899 265.285 501.6 266.096C501.323 266.885 500.917 267.664 500.384 268.432C499.872 269.179 499.264 269.936 498.56 270.704C497.856 271.472 497.088 272.272 496.256 273.104C495.424 273.915 494.56 274.789 493.664 275.728H500.704C501.067 275.728 501.323 275.707 501.472 275.664C501.621 275.621 501.76 275.536 501.888 275.408H502.144V275.728V278H490.176V275.92Z" fill="white"/>
<path d="M560 268L540 256.453L540 279.547L560 268ZM528 270L542 270L542 266L528 266L528 270Z" fill="#CD4848"/>
<circle cx="600" cy="268" r="40" fill="#CD4848"/>
<path d="M586.176 275.92C587.349 274.725 588.416 273.659 589.376 272.72C590.336 271.76 591.189 270.885 591.936 270.096C592.683 269.285 593.312 268.528 593.824 267.824C594.336 267.12 594.72 266.427 594.976 265.744C595.253 265.04 595.392 264.315 595.392 263.568C595.392 262.949 595.307 262.427 595.136 262C594.987 261.573 594.763 261.232 594.464 260.976C594.187 260.699 593.845 260.496 593.44 260.368C593.056 260.24 592.64 260.176 592.192 260.176C591.701 260.176 591.232 260.251 590.784 260.4C590.336 260.528 589.909 260.731 589.504 261.008C589.099 261.264 588.725 261.605 588.384 262.032C588.192 262.331 588.075 262.565 588.032 262.736C587.989 262.885 587.979 263.045 588 263.216L587.84 263.376L587.616 263.216L585.696 261.744C586.144 260.912 586.688 260.208 587.328 259.632C587.989 259.056 588.725 258.619 589.536 258.32C590.368 258.021 591.243 257.872 592.16 257.872C593.312 257.872 594.325 258.107 595.2 258.576C596.075 259.045 596.768 259.707 597.28 260.56C597.792 261.413 598.048 262.427 598.048 263.6C598.048 264.453 597.899 265.285 597.6 266.096C597.323 266.885 596.917 267.664 596.384 268.432C595.872 269.179 595.264 269.936 594.56 270.704C593.856 271.472 593.088 272.272 592.256 273.104C591.424 273.915 590.56 274.789 589.664 275.728H596.704C597.067 275.728 597.323 275.707 597.472 275.664C597.621 275.621 597.76 275.536 597.888 275.408H598.144V275.728V278H586.176V275.92ZM609.824 278V273.168H601.44V271.28L610.4 258.032H612.576V270.96H615.136V273.2H612.576V278H609.824ZM604.384 270.96H609.856V262.64L604.384 270.96Z" fill="white"/>
<path d="M320 100L328.66 85H311.34L320 100ZM318.5 60V86.5H321.5V60H318.5Z" fill="black"/>
</svg>
