<?xml version="1.0" encoding="UTF-8"?>
<svg xmlns="http://www.w3.org/2000/svg" xmlns:xlink="http://www.w3.org/1999/xlink" width="336" height="117.333333" viewBox="0 0 336 117.333333" version="1.1">
<g id="surface1">
<path style="fill-rule:nonzero;fill:rgb(69.803923%,85.09804%,100%);fill-opacity:1;stroke-width:1;stroke-linecap:round;stroke-linejoin:round;stroke:rgb(0%,0%,0%);stroke-opacity:1;stroke-miterlimit:10;" d="M 124.015625 139.235352 C 128.996094 144.21582 128.996094 152.28418 124.015625 157.264648 C 119.035156 162.245117 110.963867 162.245117 105.983398 157.264648 C 101.00293 152.28418 101.00293 144.21582 105.983398 139.235352 C 110.963867 134.254883 119.035156 134.254883 124.015625 139.235352 " transform="matrix(1.333333,0,0,1.333333,-46.666667,-98.666667)"/>
<path style=" stroke:none;fill-rule:nonzero;fill:rgb(0%,0%,0%);fill-opacity:1;" d="M 104.917969 96.75 C 104.753906 95.917969 104.605469 95.707031 104.316406 95.707031 C 104.023438 95.707031 103.628906 95.792969 102.898438 96.0625 L 102.773438 96.105469 L 102.816406 96.292969 L 103.023438 96.230469 C 103.253906 96.167969 103.398438 96.144531 103.480469 96.144531 C 103.792969 96.144531 103.878906 96.25 104.042969 96.957031 L 104.378906 98.457031 L 103.398438 99.855469 C 103.148438 100.207031 102.917969 100.4375 102.773438 100.4375 C 102.710938 100.4375 102.585938 100.394531 102.460938 100.332031 C 102.316406 100.25 102.191406 100.1875 102.085938 100.1875 C 101.855469 100.1875 101.667969 100.394531 101.667969 100.625 C 101.667969 100.9375 101.898438 101.125 102.273438 101.125 C 102.648438 101.125 102.898438 101.019531 103.417969 100.3125 L 104.480469 98.894531 L 104.816406 100.3125 C 104.960938 100.917969 105.148438 101.125 105.523438 101.125 C 105.980469 101.125 106.292969 100.855469 107.003906 99.769531 L 106.816406 99.644531 C 106.710938 99.769531 106.667969 99.855469 106.566406 100 C 106.292969 100.355469 106.148438 100.480469 106.003906 100.480469 C 105.835938 100.480469 105.730469 100.3125 105.648438 99.980469 L 105.253906 98.375 C 105.191406 98.082031 105.148438 97.917969 105.148438 97.832031 C 105.691406 96.917969 106.128906 96.375 106.335938 96.375 C 106.628906 96.375 106.730469 96.582031 106.960938 96.582031 C 107.191406 96.582031 107.355469 96.394531 107.355469 96.144531 C 107.355469 95.894531 107.167969 95.707031 106.878906 95.707031 C 106.355469 95.707031 105.898438 96.144531 105.066406 97.417969 Z M 104.917969 96.75 "/>
<path style=" stroke:none;fill-rule:nonzero;fill:rgb(0%,0%,0%);fill-opacity:1;" d="M 110.476562 105 L 110.476562 104.875 C 109.871094 104.875 109.726562 104.730469 109.726562 104.394531 L 109.726562 99.625 L 109.644531 99.582031 L 108.226562 100.3125 L 108.226562 100.4375 L 108.433594 100.355469 C 108.582031 100.292969 108.707031 100.25 108.789062 100.25 C 108.957031 100.25 109.039062 100.375 109.039062 100.644531 L 109.039062 104.25 C 109.039062 104.6875 108.871094 104.855469 108.269531 104.875 L 108.269531 105 Z M 110.476562 105 "/>
<path style="fill-rule:nonzero;fill:rgb(69.803923%,85.09804%,100%);fill-opacity:1;stroke-width:1;stroke-linecap:round;stroke-linejoin:round;stroke:rgb(0%,0%,0%);stroke-opacity:1;stroke-miterlimit:10;" d="M 176.890625 139.235352 C 181.871094 144.21582 181.871094 152.28418 176.890625 157.264648 C 171.910156 162.245117 163.838867 162.245117 158.858398 157.264648 C 153.87793 152.28418 153.87793 144.21582 158.858398 139.235352 C 163.838867 134.254883 171.910156 134.254883 176.890625 139.235352 " transform="matrix(1.333333,0,0,1.333333,-46.666667,-98.666667)"/>
<path style=" stroke:none;fill-rule:nonzero;fill:rgb(0%,0%,0%);fill-opacity:1;" d="M 175.417969 96.75 C 175.253906 95.917969 175.105469 95.707031 174.816406 95.707031 C 174.523438 95.707031 174.128906 95.792969 173.398438 96.0625 L 173.273438 96.105469 L 173.316406 96.292969 L 173.523438 96.230469 C 173.753906 96.167969 173.898438 96.144531 173.980469 96.144531 C 174.292969 96.144531 174.378906 96.25 174.542969 96.957031 L 174.878906 98.457031 L 173.898438 99.855469 C 173.648438 100.207031 173.417969 100.4375 173.273438 100.4375 C 173.210938 100.4375 173.085938 100.394531 172.960938 100.332031 C 172.816406 100.25 172.691406 100.1875 172.585938 100.1875 C 172.355469 100.1875 172.167969 100.394531 172.167969 100.625 C 172.167969 100.9375 172.398438 101.125 172.773438 101.125 C 173.148438 101.125 173.398438 101.019531 173.917969 100.3125 L 174.980469 98.894531 L 175.316406 100.3125 C 175.460938 100.917969 175.648438 101.125 176.023438 101.125 C 176.480469 101.125 176.792969 100.855469 177.503906 99.769531 L 177.316406 99.644531 C 177.210938 99.769531 177.167969 99.855469 177.066406 100 C 176.792969 100.355469 176.648438 100.480469 176.503906 100.480469 C 176.335938 100.480469 176.230469 100.3125 176.148438 99.980469 L 175.753906 98.375 C 175.691406 98.082031 175.648438 97.917969 175.648438 97.832031 C 176.191406 96.917969 176.628906 96.375 176.835938 96.375 C 177.128906 96.375 177.230469 96.582031 177.460938 96.582031 C 177.691406 96.582031 177.855469 96.394531 177.855469 96.144531 C 177.855469 95.894531 177.667969 95.707031 177.378906 95.707031 C 176.855469 95.707031 176.398438 96.144531 175.566406 97.417969 Z M 175.417969 96.75 "/>
<path style=" stroke:none;fill-rule:nonzero;fill:rgb(0%,0%,0%);fill-opacity:1;" d="M 181.621094 103.894531 L 181.519531 103.855469 C 181.246094 104.3125 181.082031 104.394531 180.746094 104.394531 L 178.871094 104.394531 L 180.183594 102.980469 C 180.894531 102.230469 181.207031 101.625 181.207031 101 C 181.207031 100.207031 180.644531 99.582031 179.726562 99.582031 C 178.746094 99.582031 178.246094 100.25 178.082031 101.1875 L 178.246094 101.230469 C 178.558594 100.4375 178.832031 100.1875 179.414062 100.1875 C 180.101562 100.1875 180.519531 100.582031 180.519531 101.3125 C 180.519531 102 180.246094 102.605469 179.476562 103.394531 L 178.058594 104.894531 L 178.058594 105 L 181.183594 105 Z M 181.621094 103.894531 "/>
<path style=" stroke:none;fill-rule:nonzero;fill:rgb(0%,0%,0%);fill-opacity:1;" d="M 10.082031 97.207031 L 10.082031 98.980469 L 8.894531 98.980469 C 9.1875 98.207031 9.480469 97.332031 9.730469 96.355469 L 12.042969 96.355469 L 12.042969 95.542969 L 9.9375 95.542969 C 10.042969 95.0625 10.144531 94.542969 10.269531 94 L 9.480469 93.832031 C 9.355469 94.417969 9.25 95 9.125 95.542969 L 7.9375 95.542969 L 7.9375 96.355469 L 8.9375 96.355469 C 8.667969 97.417969 8.375 98.332031 8.019531 99.042969 L 8.207031 99.769531 L 10.082031 99.769531 L 10.082031 101.5625 C 9.375 101.6875 8.644531 101.8125 7.855469 101.894531 L 7.957031 102.75 C 8.6875 102.625 9.394531 102.519531 10.082031 102.375 L 10.082031 104.875 L 10.875 104.875 L 10.875 102.207031 L 12.019531 101.917969 L 12.019531 101.105469 C 11.667969 101.1875 11.292969 101.292969 10.875 101.394531 L 10.875 99.769531 L 11.980469 99.769531 L 11.980469 98.980469 L 10.875 98.980469 L 10.875 97.207031 Z M 13.625 96.582031 L 13.625 97.292969 L 17.0625 97.292969 L 17.0625 96.582031 L 13.625 96.582031 C 14.230469 96 14.8125 95.355469 15.375 94.667969 C 16.292969 95.832031 17.3125 96.832031 18.4375 97.644531 L 18.894531 96.980469 C 17.8125 96.207031 16.75 95.1875 15.6875 93.894531 L 15.082031 93.894531 C 14.105469 95.082031 13 96.144531 11.769531 97.042969 L 12.25 97.769531 C 12.707031 97.394531 13.167969 97 13.625 96.582031 Z M 14.457031 104.792969 C 15.042969 104.792969 15.355469 104.480469 15.355469 103.855469 L 15.355469 98.25 L 12.519531 98.25 L 12.519531 104.875 L 13.269531 104.875 L 13.269531 102.625 L 14.625 102.625 L 14.625 103.707031 C 14.625 103.957031 14.480469 104.105469 14.230469 104.105469 L 13.6875 104.082031 L 13.875 104.792969 Z M 13.269531 101.957031 L 13.269531 100.8125 L 14.625 100.8125 L 14.625 101.957031 Z M 13.269531 100.144531 L 13.269531 98.957031 L 14.625 98.957031 L 14.625 100.144531 Z M 16.0625 98.582031 L 16.0625 102.894531 L 16.75 102.894531 L 16.75 98.582031 Z M 17.375 104.8125 C 17.957031 104.8125 18.25 104.457031 18.25 103.769531 L 18.25 98.042969 L 17.5 98.042969 L 17.5 103.582031 C 17.5 103.917969 17.375 104.105469 17.105469 104.105469 C 16.8125 104.105469 16.5 104.082031 16.1875 104.042969 L 16.355469 104.8125 Z M 17.375 104.8125 "/>
<path style=" stroke:none;fill-rule:nonzero;fill:rgb(0%,0%,0%);fill-opacity:1;" d="M 24.8125 96.644531 C 24.042969 99.832031 22.375 102.292969 19.792969 103.957031 L 20.3125 104.707031 C 22.832031 103.0625 24.5 100.707031 25.292969 97.644531 C 25.355469 97.792969 25.394531 97.957031 25.480469 98.167969 C 26.707031 101.332031 28.292969 103.519531 30.25 104.6875 L 30.792969 104 C 28.875 102.8125 27.375 100.769531 26.25 97.917969 C 25.519531 95.957031 24.605469 94.605469 23.542969 93.855469 L 22.832031 94.3125 C 23.582031 94.875 24.25 95.644531 24.8125 96.644531 Z M 24.8125 96.644531 "/>
<path style=" stroke:none;fill-rule:nonzero;fill:rgb(0%,0%,0%);fill-opacity:1;" d="M 35.230469 98.457031 L 35.230469 99.230469 L 41.730469 99.230469 L 41.730469 98.457031 Z M 34.375 100.417969 L 34.375 101.207031 L 37 101.207031 C 36.167969 102.5625 35.457031 103.394531 34.9375 103.707031 C 34.875 103.730469 34.832031 103.769531 34.75 103.792969 L 34.9375 104.519531 C 37.207031 104.375 39.292969 104.167969 41.1875 103.917969 C 41.4375 104.207031 41.644531 104.519531 41.855469 104.832031 L 42.542969 104.355469 C 42.019531 103.582031 41.25 102.667969 40.269531 101.625 L 39.625 102.019531 C 39.980469 102.4375 40.332031 102.832031 40.667969 103.230469 C 39.125 103.457031 37.5625 103.625 35.980469 103.730469 C 36.542969 103.230469 37.1875 102.375 37.917969 101.207031 L 42.519531 101.207031 L 42.519531 100.417969 Z M 41.0625 95.144531 L 41.0625 96.542969 L 34 96.542969 L 34 95.144531 Z M 34 97.3125 L 41.894531 97.3125 L 41.894531 94.332031 L 33.167969 94.332031 L 33.167969 98.3125 C 33.144531 100.730469 32.730469 102.6875 31.894531 104.207031 L 32.519531 104.792969 C 33.5 102.980469 34 100.8125 34 98.3125 Z M 34 97.3125 "/>
<path style=" stroke:none;fill-rule:nonzero;fill:rgb(0%,0%,0%);fill-opacity:1;" d="M 10.082031 15.875 L 10.082031 17.644531 L 8.894531 17.644531 C 9.1875 16.875 9.480469 16 9.730469 15.019531 L 12.042969 15.019531 L 12.042969 14.207031 L 9.9375 14.207031 C 10.042969 13.730469 10.144531 13.207031 10.269531 12.667969 L 9.480469 12.5 C 9.355469 13.082031 9.25 13.667969 9.125 14.207031 L 7.9375 14.207031 L 7.9375 15.019531 L 8.9375 15.019531 C 8.667969 16.082031 8.375 17 8.019531 17.707031 L 8.207031 18.4375 L 10.082031 18.4375 L 10.082031 20.230469 C 9.375 20.355469 8.644531 20.480469 7.855469 20.5625 L 7.957031 21.417969 C 8.6875 21.292969 9.394531 21.1875 10.082031 21.042969 L 10.082031 23.542969 L 10.875 23.542969 L 10.875 20.875 L 12.019531 20.582031 L 12.019531 19.769531 C 11.667969 19.855469 11.292969 19.957031 10.875 20.0625 L 10.875 18.4375 L 11.980469 18.4375 L 11.980469 17.644531 L 10.875 17.644531 L 10.875 15.875 Z M 13.625 15.25 L 13.625 15.957031 L 17.0625 15.957031 L 17.0625 15.25 L 13.625 15.25 C 14.230469 14.667969 14.8125 14.019531 15.375 13.332031 C 16.292969 14.5 17.3125 15.5 18.4375 16.3125 L 18.894531 15.644531 C 17.8125 14.875 16.75 13.855469 15.6875 12.5625 L 15.082031 12.5625 C 14.105469 13.75 13 14.8125 11.769531 15.707031 L 12.25 16.4375 C 12.707031 16.0625 13.167969 15.667969 13.625 15.25 Z M 14.457031 23.457031 C 15.042969 23.457031 15.355469 23.144531 15.355469 22.519531 L 15.355469 16.917969 L 12.519531 16.917969 L 12.519531 23.542969 L 13.269531 23.542969 L 13.269531 21.292969 L 14.625 21.292969 L 14.625 22.375 C 14.625 22.625 14.480469 22.769531 14.230469 22.769531 L 13.6875 22.75 L 13.875 23.457031 Z M 13.269531 20.625 L 13.269531 19.480469 L 14.625 19.480469 L 14.625 20.625 Z M 13.269531 18.8125 L 13.269531 17.625 L 14.625 17.625 L 14.625 18.8125 Z M 16.0625 17.25 L 16.0625 21.5625 L 16.75 21.5625 L 16.75 17.25 Z M 17.375 23.480469 C 17.957031 23.480469 18.25 23.125 18.25 22.4375 L 18.25 16.707031 L 17.5 16.707031 L 17.5 22.25 C 17.5 22.582031 17.375 22.769531 17.105469 22.769531 C 16.8125 22.769531 16.5 22.75 16.1875 22.707031 L 16.355469 23.480469 Z M 17.375 23.480469 "/>
<path style=" stroke:none;fill-rule:nonzero;fill:rgb(0%,0%,0%);fill-opacity:1;" d="M 28.582031 16.707031 L 25.769531 16.707031 L 25.769531 12.519531 L 24.894531 12.519531 L 24.894531 16.707031 L 22.082031 16.707031 L 22.082031 13.4375 L 21.207031 13.4375 L 21.207031 17.542969 L 24.894531 17.542969 L 24.894531 21.957031 L 21.5 21.957031 L 21.5 18.667969 L 20.625 18.667969 L 20.625 23.457031 L 21.5 23.457031 L 21.5 22.769531 L 29.167969 22.769531 L 29.167969 23.457031 L 30.042969 23.457031 L 30.042969 18.667969 L 29.167969 18.667969 L 29.167969 21.957031 L 25.769531 21.957031 L 25.769531 17.542969 L 29.457031 17.542969 L 29.457031 13.4375 L 28.582031 13.4375 Z M 28.582031 16.707031 "/>
<path style=" stroke:none;fill-rule:nonzero;fill:rgb(0%,0%,0%);fill-opacity:1;" d="M 35.230469 17.125 L 35.230469 17.894531 L 41.730469 17.894531 L 41.730469 17.125 Z M 34.375 19.082031 L 34.375 19.875 L 37 19.875 C 36.167969 21.230469 35.457031 22.0625 34.9375 22.375 C 34.875 22.394531 34.832031 22.4375 34.75 22.457031 L 34.9375 23.1875 C 37.207031 23.042969 39.292969 22.832031 41.1875 22.582031 C 41.4375 22.875 41.644531 23.1875 41.855469 23.5 L 42.542969 23.019531 C 42.019531 22.25 41.25 21.332031 40.269531 20.292969 L 39.625 20.6875 C 39.980469 21.105469 40.332031 21.5 40.667969 21.894531 C 39.125 22.125 37.5625 22.292969 35.980469 22.394531 C 36.542969 21.894531 37.1875 21.042969 37.917969 19.875 L 42.519531 19.875 L 42.519531 19.082031 Z M 41.0625 13.8125 L 41.0625 15.207031 L 34 15.207031 L 34 13.8125 Z M 34 15.980469 L 41.894531 15.980469 L 41.894531 13 L 33.167969 13 L 33.167969 16.980469 C 33.144531 19.394531 32.730469 21.355469 31.894531 22.875 L 32.519531 23.457031 C 33.5 21.644531 34 19.480469 34 16.980469 Z M 34 15.980469 "/>
<path style="fill-rule:nonzero;fill:rgb(69.803923%,85.09804%,100%);fill-opacity:1;stroke-width:1;stroke-linecap:round;stroke-linejoin:round;stroke:rgb(0%,0%,0%);stroke-opacity:1;stroke-miterlimit:10;" d="M 282.640625 138.485352 C 287.621094 143.46582 287.621094 151.53418 282.640625 156.514648 C 277.660156 161.495117 269.588867 161.495117 264.608398 156.514648 C 259.62793 151.53418 259.62793 143.46582 264.608398 138.485352 C 269.588867 133.504883 277.660156 133.504883 282.640625 138.485352 " transform="matrix(1.333333,0,0,1.333333,-46.666667,-98.666667)"/>
<path style=" stroke:none;fill-rule:nonzero;fill:rgb(0%,0%,0%);fill-opacity:1;" d="M 316.417969 95.75 C 316.253906 94.917969 316.105469 94.707031 315.816406 94.707031 C 315.523438 94.707031 315.128906 94.792969 314.398438 95.0625 L 314.273438 95.105469 L 314.316406 95.292969 L 314.523438 95.230469 C 314.753906 95.167969 314.898438 95.144531 314.980469 95.144531 C 315.292969 95.144531 315.378906 95.25 315.542969 95.957031 L 315.878906 97.457031 L 314.898438 98.855469 C 314.648438 99.207031 314.417969 99.4375 314.273438 99.4375 C 314.210938 99.4375 314.085938 99.394531 313.960938 99.332031 C 313.816406 99.25 313.691406 99.1875 313.585938 99.1875 C 313.355469 99.1875 313.167969 99.394531 313.167969 99.625 C 313.167969 99.9375 313.398438 100.125 313.773438 100.125 C 314.148438 100.125 314.398438 100.019531 314.917969 99.3125 L 315.980469 97.894531 L 316.316406 99.3125 C 316.460938 99.917969 316.648438 100.125 317.023438 100.125 C 317.480469 100.125 317.792969 99.855469 318.503906 98.769531 L 318.316406 98.644531 C 318.210938 98.769531 318.167969 98.855469 318.066406 99 C 317.792969 99.355469 317.648438 99.480469 317.503906 99.480469 C 317.335938 99.480469 317.230469 99.3125 317.148438 98.980469 L 316.753906 97.375 C 316.691406 97.082031 316.648438 96.917969 316.648438 96.832031 C 317.191406 95.917969 317.628906 95.375 317.835938 95.375 C 318.128906 95.375 318.230469 95.582031 318.460938 95.582031 C 318.691406 95.582031 318.855469 95.394531 318.855469 95.144531 C 318.855469 94.894531 318.667969 94.707031 318.378906 94.707031 C 317.855469 94.707031 317.398438 95.144531 316.566406 96.417969 Z M 316.417969 95.75 "/>
<path style=" stroke:none;fill-rule:nonzero;fill:rgb(0%,0%,0%);fill-opacity:1;" d="M 322.996094 98.542969 C 322.582031 98.625 322.289062 98.667969 321.769531 98.730469 L 321.769531 98.855469 C 322.207031 98.875 322.289062 98.894531 322.289062 99.0625 C 322.289062 99.167969 322.289062 99.207031 322.183594 99.625 L 321.808594 100.9375 C 321.769531 100.625 321.621094 100.480469 321.289062 100.480469 C 320.246094 100.480469 318.957031 101.855469 318.957031 103.144531 C 318.957031 103.75 319.289062 104.082031 319.808594 104.082031 C 320.351562 104.082031 320.769531 103.832031 321.226562 103.042969 C 321.144531 103.4375 321.121094 103.5625 321.121094 103.75 C 321.121094 103.957031 321.246094 104.105469 321.457031 104.105469 C 321.851562 104.105469 322.246094 103.769531 322.621094 103.1875 L 322.539062 103.105469 C 322.101562 103.605469 322.019531 103.6875 321.871094 103.6875 C 321.769531 103.6875 321.726562 103.625 321.726562 103.519531 C 321.726562 103.394531 321.996094 102.457031 322.246094 101.542969 L 322.726562 99.792969 L 323.039062 98.582031 Z M 321.683594 101.105469 C 321.683594 102.332031 320.851562 103.707031 320.101562 103.707031 C 319.832031 103.707031 319.644531 103.480469 319.644531 103.125 C 319.644531 102.457031 320.039062 101.582031 320.582031 101.019531 C 320.789062 100.792969 321.082031 100.644531 321.308594 100.644531 C 321.476562 100.644531 321.683594 100.832031 321.683594 101.105469 Z M 321.683594 101.105469 "/>
<path style="fill-rule:nonzero;fill:rgb(40.000001%,74.901962%,100%);fill-opacity:1;stroke-width:1;stroke-linecap:round;stroke-linejoin:round;stroke:rgb(0%,0%,0%);stroke-opacity:1;stroke-miterlimit:10;" d="M 202.639648 78.233398 C 207.620117 83.213867 207.620117 91.285156 202.639648 96.265625 C 197.65918 101.246094 189.59082 101.246094 184.610352 96.265625 C 179.629883 91.285156 179.629883 83.213867 184.610352 78.233398 C 189.59082 73.25293 197.65918 73.25293 202.639648 78.233398 " transform="matrix(1.333333,0,0,1.333333,-46.666667,-98.666667)"/>
<path style=" stroke:none;fill-rule:nonzero;fill:rgb(0%,0%,0%);fill-opacity:1;" d="M 212.125 16.0625 C 212.125 15 211.394531 14.375 210.417969 14.375 C 209.9375 14.375 209.457031 14.480469 208.980469 14.730469 C 207.730469 15.417969 206.832031 16.792969 206.832031 18.125 C 206.832031 19.167969 207.457031 19.792969 208.582031 19.792969 C 209.375 19.792969 210.144531 19.5 210.855469 18.8125 C 211.644531 18.019531 212.125 16.957031 212.125 16.0625 Z M 211.105469 15.75 C 211.105469 16.667969 210.769531 17.792969 210.230469 18.542969 C 209.75 19.207031 209.292969 19.542969 208.769531 19.542969 C 208.207031 19.542969 207.832031 19.167969 207.832031 18.457031 C 207.832031 17.5 208.167969 16.5625 208.730469 15.707031 C 209.207031 15 209.730469 14.625 210.25 14.625 C 210.769531 14.625 211.105469 15.019531 211.105469 15.75 Z M 211.105469 15.75 "/>
<path style=" stroke:none;fill-rule:nonzero;fill:rgb(0%,0%,0%);fill-opacity:1;" d="M 215.644531 23.667969 L 215.644531 23.542969 C 215.042969 23.542969 214.894531 23.394531 214.894531 23.0625 L 214.894531 18.292969 L 214.8125 18.25 L 213.394531 18.980469 L 213.394531 19.105469 L 213.605469 19.019531 C 213.75 18.957031 213.875 18.917969 213.957031 18.917969 C 214.125 18.917969 214.207031 19.042969 214.207031 19.3125 L 214.207031 22.917969 C 214.207031 23.355469 214.042969 23.519531 213.4375 23.542969 L 213.4375 23.667969 Z M 215.644531 23.667969 "/>
<path style="fill:none;stroke-width:1;stroke-linecap:round;stroke-linejoin:round;stroke:rgb(0%,0%,0%);stroke-opacity:1;stroke-miterlimit:10;" d="M 125.073242 140.433594 L 178.891602 98.682617 " transform="matrix(1.333333,0,0,1.333333,-46.666667,-98.666667)"/>
<path style="fill:none;stroke-width:1;stroke-linecap:butt;stroke-linejoin:miter;stroke:rgb(0%,0%,0%);stroke-opacity:1;stroke-miterlimit:10;" d="M 182.049805 96.230469 L 178.891602 98.682617 M 177.96875 97.496094 L 182.049805 96.230469 L 179.808594 99.866211 " transform="matrix(1.333333,0,0,1.333333,-46.666667,-98.666667)"/>
<path style="fill:none;stroke-width:1;stroke-linecap:round;stroke-linejoin:round;stroke:rgb(0%,0%,0%);stroke-opacity:1;stroke-miterlimit:10;" d="M 172.835938 136.499023 L 186.371094 104.433594 " transform="matrix(1.333333,0,0,1.333333,-46.666667,-98.666667)"/>
<path style="fill:none;stroke-width:1;stroke-linecap:butt;stroke-linejoin:miter;stroke:rgb(0%,0%,0%);stroke-opacity:1;stroke-miterlimit:10;" d="M 187.926758 100.750977 L 186.371094 104.433594 M 184.988281 103.850586 L 187.926758 100.750977 L 187.753906 105.019531 " transform="matrix(1.333333,0,0,1.333333,-46.666667,-98.666667)"/>
<path style="fill:none;stroke-width:1;stroke-linecap:round;stroke-linejoin:round;stroke:rgb(0%,0%,0%);stroke-opacity:1;stroke-miterlimit:10;" d="M 263.436523 139.827148 L 208.522461 98.47168 " transform="matrix(1.333333,0,0,1.333333,-46.666667,-98.666667)"/>
<path style="fill:none;stroke-width:1;stroke-linecap:butt;stroke-linejoin:miter;stroke:rgb(0%,0%,0%);stroke-opacity:1;stroke-miterlimit:10;" d="M 205.329102 96.063477 L 208.522461 98.47168 M 207.620117 99.666992 L 205.329102 96.063477 L 209.424805 97.273438 " transform="matrix(1.333333,0,0,1.333333,-46.666667,-98.666667)"/>
<path style=" stroke:none;fill-rule:nonzero;fill:rgb(0%,0%,0%);fill-opacity:1;" d="M 255.9375 100.417969 C 255.9375 99.769531 255.394531 99.207031 254.769531 99.207031 C 254.105469 99.207031 253.582031 99.730469 253.582031 100.394531 C 253.582031 101.0625 254.082031 101.5625 254.75 101.5625 C 255.394531 101.5625 255.9375 101.042969 255.9375 100.417969 Z M 248.832031 100.417969 C 248.832031 99.769531 248.292969 99.207031 247.667969 99.207031 C 247 99.207031 246.480469 99.730469 246.480469 100.394531 C 246.480469 101.0625 246.980469 101.5625 247.644531 101.5625 C 248.292969 101.5625 248.832031 101.042969 248.832031 100.417969 Z M 241.730469 100.417969 C 241.730469 99.769531 241.1875 99.207031 240.5625 99.207031 C 239.894531 99.207031 239.375 99.730469 239.375 100.394531 C 239.375 101.0625 239.875 101.5625 240.542969 101.5625 C 241.1875 101.5625 241.730469 101.042969 241.730469 100.417969 Z M 241.730469 100.417969 "/>
</g>
</svg>
