<?xml version="1.0" encoding="UTF-8"?>
<svg xmlns="http://www.w3.org/2000/svg" xmlns:xlink="http://www.w3.org/1999/xlink" width="336" height="117.333333" viewBox="0 0 336 117.333333" version="1.1">
<g id="surface1">
<path style="fill-rule:nonzero;fill:rgb(69.803923%,85.09804%,100%);fill-opacity:1;stroke-width:1;stroke-linecap:round;stroke-linejoin:round;stroke:rgb(0%,0%,0%);stroke-opacity:1;stroke-miterlimit:10;" d="M 107.015625 77.733398 C 111.996094 82.713867 111.996094 90.785156 107.015625 95.765625 C 102.035156 100.746094 93.963867 100.746094 88.983398 95.765625 C 84.00293 90.785156 84.00293 82.713867 88.983398 77.733398 C 93.963867 72.75293 102.035156 72.75293 107.015625 77.733398 " transform="matrix(1.333333,0,0,1.333333,-24,-16)"/>
<path style=" stroke:none;fill-rule:nonzero;fill:rgb(0%,0%,0%);fill-opacity:1;" d="M 104.917969 97.417969 C 104.753906 96.582031 104.605469 96.375 104.316406 96.375 C 104.023438 96.375 103.628906 96.457031 102.898438 96.730469 L 102.773438 96.769531 L 102.816406 96.957031 L 103.023438 96.894531 C 103.253906 96.832031 103.398438 96.8125 103.480469 96.8125 C 103.792969 96.8125 103.878906 96.917969 104.042969 97.625 L 104.378906 99.125 L 103.398438 100.519531 C 103.148438 100.875 102.917969 101.105469 102.773438 101.105469 C 102.710938 101.105469 102.585938 101.0625 102.460938 101 C 102.316406 100.917969 102.191406 100.855469 102.085938 100.855469 C 101.855469 100.855469 101.667969 101.0625 101.667969 101.292969 C 101.667969 101.605469 101.898438 101.792969 102.273438 101.792969 C 102.648438 101.792969 102.898438 101.6875 103.417969 100.980469 L 104.480469 99.5625 L 104.816406 100.980469 C 104.960938 101.582031 105.148438 101.792969 105.523438 101.792969 C 105.980469 101.792969 106.292969 101.519531 107.003906 100.4375 L 106.816406 100.3125 C 106.710938 100.4375 106.667969 100.519531 106.566406 100.667969 C 106.292969 101.019531 106.148438 101.144531 106.003906 101.144531 C 105.835938 101.144531 105.730469 100.980469 105.648438 100.644531 L 105.253906 99.042969 C 105.191406 98.75 105.148438 98.582031 105.148438 98.5 C 105.691406 97.582031 106.128906 97.042969 106.335938 97.042969 C 106.628906 97.042969 106.730469 97.25 106.960938 97.25 C 107.191406 97.25 107.355469 97.0625 107.355469 96.8125 C 107.355469 96.5625 107.167969 96.375 106.878906 96.375 C 106.355469 96.375 105.898438 96.8125 105.066406 98.082031 Z M 104.917969 97.417969 "/>
<path style=" stroke:none;fill-rule:nonzero;fill:rgb(0%,0%,0%);fill-opacity:1;" d="M 110.476562 105.667969 L 110.476562 105.542969 C 109.871094 105.542969 109.726562 105.394531 109.726562 105.0625 L 109.726562 100.292969 L 109.644531 100.25 L 108.226562 100.980469 L 108.226562 101.105469 L 108.433594 101.019531 C 108.582031 100.957031 108.707031 100.917969 108.789062 100.917969 C 108.957031 100.917969 109.039062 101.042969 109.039062 101.3125 L 109.039062 104.917969 C 109.039062 105.355469 108.871094 105.519531 108.269531 105.542969 L 108.269531 105.667969 Z M 110.476562 105.667969 "/>
<path style="fill-rule:nonzero;fill:rgb(69.803923%,85.09804%,100%);fill-opacity:1;stroke-width:1;stroke-linecap:round;stroke-linejoin:round;stroke:rgb(0%,0%,0%);stroke-opacity:1;stroke-miterlimit:10;" d="M 159.890625 77.733398 C 164.871094 82.713867 164.871094 90.785156 159.890625 95.765625 C 154.910156 100.746094 146.838867 100.746094 141.858398 95.765625 C 136.87793 90.785156 136.87793 82.713867 141.858398 77.733398 C 146.838867 72.75293 154.910156 72.75293 159.890625 77.733398 " transform="matrix(1.333333,0,0,1.333333,-24,-16)"/>
<path style=" stroke:none;fill-rule:nonzero;fill:rgb(0%,0%,0%);fill-opacity:1;" d="M 175.417969 97.417969 C 175.253906 96.582031 175.105469 96.375 174.816406 96.375 C 174.523438 96.375 174.128906 96.457031 173.398438 96.730469 L 173.273438 96.769531 L 173.316406 96.957031 L 173.523438 96.894531 C 173.753906 96.832031 173.898438 96.8125 173.980469 96.8125 C 174.292969 96.8125 174.378906 96.917969 174.542969 97.625 L 174.878906 99.125 L 173.898438 100.519531 C 173.648438 100.875 173.417969 101.105469 173.273438 101.105469 C 173.210938 101.105469 173.085938 101.0625 172.960938 101 C 172.816406 100.917969 172.691406 100.855469 172.585938 100.855469 C 172.355469 100.855469 172.167969 101.0625 172.167969 101.292969 C 172.167969 101.605469 172.398438 101.792969 172.773438 101.792969 C 173.148438 101.792969 173.398438 101.6875 173.917969 100.980469 L 174.980469 99.5625 L 175.316406 100.980469 C 175.460938 101.582031 175.648438 101.792969 176.023438 101.792969 C 176.480469 101.792969 176.792969 101.519531 177.503906 100.4375 L 177.316406 100.3125 C 177.210938 100.4375 177.167969 100.519531 177.066406 100.667969 C 176.792969 101.019531 176.648438 101.144531 176.503906 101.144531 C 176.335938 101.144531 176.230469 100.980469 176.148438 100.644531 L 175.753906 99.042969 C 175.691406 98.75 175.648438 98.582031 175.648438 98.5 C 176.191406 97.582031 176.628906 97.042969 176.835938 97.042969 C 177.128906 97.042969 177.230469 97.25 177.460938 97.25 C 177.691406 97.25 177.855469 97.0625 177.855469 96.8125 C 177.855469 96.5625 177.667969 96.375 177.378906 96.375 C 176.855469 96.375 176.398438 96.8125 175.566406 98.082031 Z M 175.417969 97.417969 "/>
<path style=" stroke:none;fill-rule:nonzero;fill:rgb(0%,0%,0%);fill-opacity:1;" d="M 181.621094 104.5625 L 181.519531 104.519531 C 181.246094 104.980469 181.082031 105.0625 180.746094 105.0625 L 178.871094 105.0625 L 180.183594 103.644531 C 180.894531 102.894531 181.207031 102.292969 181.207031 101.667969 C 181.207031 100.875 180.644531 100.25 179.726562 100.25 C 178.746094 100.25 178.246094 100.917969 178.082031 101.855469 L 178.246094 101.894531 C 178.558594 101.105469 178.832031 100.855469 179.414062 100.855469 C 180.101562 100.855469 180.519531 101.25 180.519531 101.980469 C 180.519531 102.667969 180.246094 103.269531 179.476562 104.0625 L 178.058594 105.5625 L 178.058594 105.667969 L 181.183594 105.667969 Z M 181.621094 104.5625 "/>
<path style="fill-rule:nonzero;fill:rgb(40.000001%,74.901962%,100%);fill-opacity:1;stroke-width:1;stroke-linecap:round;stroke-linejoin:round;stroke:rgb(0%,0%,0%);stroke-opacity:1;stroke-miterlimit:10;" d="M 140.015625 16.734375 C 144.996094 21.714844 144.996094 29.786133 140.015625 34.766602 C 135.035156 39.74707 126.963867 39.74707 121.983398 34.766602 C 117.00293 29.786133 117.00293 21.714844 121.983398 16.734375 C 126.963867 11.753906 135.035156 11.753906 140.015625 16.734375 " transform="matrix(1.333333,0,0,1.333333,-24,-16)"/>
<path style=" stroke:none;fill-rule:nonzero;fill:rgb(0%,0%,0%);fill-opacity:1;" d="M 151.292969 16.730469 C 151.292969 15.667969 150.5625 15.042969 149.582031 15.042969 C 149.105469 15.042969 148.625 15.144531 148.144531 15.394531 C 146.894531 16.082031 146 17.457031 146 18.792969 C 146 19.832031 146.625 20.457031 147.75 20.457031 C 148.542969 20.457031 149.3125 20.167969 150.019531 19.480469 C 150.8125 18.6875 151.292969 17.625 151.292969 16.730469 Z M 150.269531 16.417969 C 150.269531 17.332031 149.9375 18.457031 149.394531 19.207031 C 148.917969 19.875 148.457031 20.207031 147.9375 20.207031 C 147.375 20.207031 147 19.832031 147 19.125 C 147 18.167969 147.332031 17.230469 147.894531 16.375 C 148.375 15.667969 148.894531 15.292969 149.417969 15.292969 C 149.9375 15.292969 150.269531 15.6875 150.269531 16.417969 Z M 150.269531 16.417969 "/>
<path style=" stroke:none;fill-rule:nonzero;fill:rgb(0%,0%,0%);fill-opacity:1;" d="M 154.8125 24.332031 L 154.8125 24.207031 C 154.207031 24.207031 154.0625 24.0625 154.0625 23.730469 L 154.0625 18.957031 L 153.980469 18.917969 L 152.5625 19.644531 L 152.5625 19.769531 L 152.769531 19.6875 C 152.917969 19.625 153.042969 19.582031 153.125 19.582031 C 153.292969 19.582031 153.375 19.707031 153.375 19.980469 L 153.375 23.582031 C 153.375 24.019531 153.207031 24.1875 152.605469 24.207031 L 152.605469 24.332031 Z M 154.8125 24.332031 "/>
<path style=" stroke:none;fill-rule:nonzero;fill:rgb(0%,0%,0%);fill-opacity:1;" d="M 10.082031 96.875 L 10.082031 98.644531 L 8.894531 98.644531 C 9.1875 97.875 9.480469 97 9.730469 96.019531 L 12.042969 96.019531 L 12.042969 95.207031 L 9.9375 95.207031 C 10.042969 94.730469 10.144531 94.207031 10.269531 93.667969 L 9.480469 93.5 C 9.355469 94.082031 9.25 94.667969 9.125 95.207031 L 7.9375 95.207031 L 7.9375 96.019531 L 8.9375 96.019531 C 8.667969 97.082031 8.375 98 8.019531 98.707031 L 8.207031 99.4375 L 10.082031 99.4375 L 10.082031 101.230469 C 9.375 101.355469 8.644531 101.480469 7.855469 101.5625 L 7.957031 102.417969 C 8.6875 102.292969 9.394531 102.1875 10.082031 102.042969 L 10.082031 104.542969 L 10.875 104.542969 L 10.875 101.875 L 12.019531 101.582031 L 12.019531 100.769531 C 11.667969 100.855469 11.292969 100.957031 10.875 101.0625 L 10.875 99.4375 L 11.980469 99.4375 L 11.980469 98.644531 L 10.875 98.644531 L 10.875 96.875 Z M 13.625 96.25 L 13.625 96.957031 L 17.0625 96.957031 L 17.0625 96.25 L 13.625 96.25 C 14.230469 95.667969 14.8125 95.019531 15.375 94.332031 C 16.292969 95.5 17.3125 96.5 18.4375 97.3125 L 18.894531 96.644531 C 17.8125 95.875 16.75 94.855469 15.6875 93.5625 L 15.082031 93.5625 C 14.105469 94.75 13 95.8125 11.769531 96.707031 L 12.25 97.4375 C 12.707031 97.0625 13.167969 96.667969 13.625 96.25 Z M 14.457031 104.457031 C 15.042969 104.457031 15.355469 104.144531 15.355469 103.519531 L 15.355469 97.917969 L 12.519531 97.917969 L 12.519531 104.542969 L 13.269531 104.542969 L 13.269531 102.292969 L 14.625 102.292969 L 14.625 103.375 C 14.625 103.625 14.480469 103.769531 14.230469 103.769531 L 13.6875 103.75 L 13.875 104.457031 Z M 13.269531 101.625 L 13.269531 100.480469 L 14.625 100.480469 L 14.625 101.625 Z M 13.269531 99.8125 L 13.269531 98.625 L 14.625 98.625 L 14.625 99.8125 Z M 16.0625 98.25 L 16.0625 102.5625 L 16.75 102.5625 L 16.75 98.25 Z M 17.375 104.480469 C 17.957031 104.480469 18.25 104.125 18.25 103.4375 L 18.25 97.707031 L 17.5 97.707031 L 17.5 103.25 C 17.5 103.582031 17.375 103.769531 17.105469 103.769531 C 16.8125 103.769531 16.5 103.75 16.1875 103.707031 L 16.355469 104.480469 Z M 17.375 104.480469 "/>
<path style=" stroke:none;fill-rule:nonzero;fill:rgb(0%,0%,0%);fill-opacity:1;" d="M 24.8125 96.3125 C 24.042969 99.5 22.375 101.957031 19.792969 103.625 L 20.3125 104.375 C 22.832031 102.730469 24.5 100.375 25.292969 97.3125 C 25.355469 97.457031 25.394531 97.625 25.480469 97.832031 C 26.707031 101 28.292969 103.1875 30.25 104.355469 L 30.792969 103.667969 C 28.875 102.480469 27.375 100.4375 26.25 97.582031 C 25.519531 95.625 24.605469 94.269531 23.542969 93.519531 L 22.832031 93.980469 C 23.582031 94.542969 24.25 95.3125 24.8125 96.3125 Z M 24.8125 96.3125 "/>
<path style=" stroke:none;fill-rule:nonzero;fill:rgb(0%,0%,0%);fill-opacity:1;" d="M 35.230469 98.125 L 35.230469 98.894531 L 41.730469 98.894531 L 41.730469 98.125 Z M 34.375 100.082031 L 34.375 100.875 L 37 100.875 C 36.167969 102.230469 35.457031 103.0625 34.9375 103.375 C 34.875 103.394531 34.832031 103.4375 34.75 103.457031 L 34.9375 104.1875 C 37.207031 104.042969 39.292969 103.832031 41.1875 103.582031 C 41.4375 103.875 41.644531 104.1875 41.855469 104.5 L 42.542969 104.019531 C 42.019531 103.25 41.25 102.332031 40.269531 101.292969 L 39.625 101.6875 C 39.980469 102.105469 40.332031 102.5 40.667969 102.894531 C 39.125 103.125 37.5625 103.292969 35.980469 103.394531 C 36.542969 102.894531 37.1875 102.042969 37.917969 100.875 L 42.519531 100.875 L 42.519531 100.082031 Z M 41.0625 94.8125 L 41.0625 96.207031 L 34 96.207031 L 34 94.8125 Z M 34 96.980469 L 41.894531 96.980469 L 41.894531 94 L 33.167969 94 L 33.167969 97.980469 C 33.144531 100.394531 32.730469 102.355469 31.894531 103.875 L 32.519531 104.457031 C 33.5 102.644531 34 100.480469 34 97.980469 Z M 34 96.980469 "/>
<path style=" stroke:none;fill-rule:nonzero;fill:rgb(0%,0%,0%);fill-opacity:1;" d="M 10.082031 16.542969 L 10.082031 18.3125 L 8.894531 18.3125 C 9.1875 17.542969 9.480469 16.667969 9.730469 15.6875 L 12.042969 15.6875 L 12.042969 14.875 L 9.9375 14.875 C 10.042969 14.394531 10.144531 13.875 10.269531 13.332031 L 9.480469 13.167969 C 9.355469 13.75 9.25 14.332031 9.125 14.875 L 7.9375 14.875 L 7.9375 15.6875 L 8.9375 15.6875 C 8.667969 16.75 8.375 17.667969 8.019531 18.375 L 8.207031 19.105469 L 10.082031 19.105469 L 10.082031 20.894531 C 9.375 21.019531 8.644531 21.144531 7.855469 21.230469 L 7.957031 22.082031 C 8.6875 21.957031 9.394531 21.855469 10.082031 21.707031 L 10.082031 24.207031 L 10.875 24.207031 L 10.875 21.542969 L 12.019531 21.25 L 12.019531 20.4375 C 11.667969 20.519531 11.292969 20.625 10.875 20.730469 L 10.875 19.105469 L 11.980469 19.105469 L 11.980469 18.3125 L 10.875 18.3125 L 10.875 16.542969 Z M 13.625 15.917969 L 13.625 16.625 L 17.0625 16.625 L 17.0625 15.917969 L 13.625 15.917969 C 14.230469 15.332031 14.8125 14.6875 15.375 14 C 16.292969 15.167969 17.3125 16.167969 18.4375 16.980469 L 18.894531 16.3125 C 17.8125 15.542969 16.75 14.519531 15.6875 13.230469 L 15.082031 13.230469 C 14.105469 14.417969 13 15.480469 11.769531 16.375 L 12.25 17.105469 C 12.707031 16.730469 13.167969 16.332031 13.625 15.917969 Z M 14.457031 24.125 C 15.042969 24.125 15.355469 23.8125 15.355469 23.1875 L 15.355469 17.582031 L 12.519531 17.582031 L 12.519531 24.207031 L 13.269531 24.207031 L 13.269531 21.957031 L 14.625 21.957031 L 14.625 23.042969 C 14.625 23.292969 14.480469 23.4375 14.230469 23.4375 L 13.6875 23.417969 L 13.875 24.125 Z M 13.269531 21.292969 L 13.269531 20.144531 L 14.625 20.144531 L 14.625 21.292969 Z M 13.269531 19.480469 L 13.269531 18.292969 L 14.625 18.292969 L 14.625 19.480469 Z M 16.0625 17.917969 L 16.0625 22.230469 L 16.75 22.230469 L 16.75 17.917969 Z M 17.375 24.144531 C 17.957031 24.144531 18.25 23.792969 18.25 23.105469 L 18.25 17.375 L 17.5 17.375 L 17.5 22.917969 C 17.5 23.25 17.375 23.4375 17.105469 23.4375 C 16.8125 23.4375 16.5 23.417969 16.1875 23.375 L 16.355469 24.144531 Z M 17.375 24.144531 "/>
<path style=" stroke:none;fill-rule:nonzero;fill:rgb(0%,0%,0%);fill-opacity:1;" d="M 28.582031 17.375 L 25.769531 17.375 L 25.769531 13.1875 L 24.894531 13.1875 L 24.894531 17.375 L 22.082031 17.375 L 22.082031 14.105469 L 21.207031 14.105469 L 21.207031 18.207031 L 24.894531 18.207031 L 24.894531 22.625 L 21.5 22.625 L 21.5 19.332031 L 20.625 19.332031 L 20.625 24.125 L 21.5 24.125 L 21.5 23.4375 L 29.167969 23.4375 L 29.167969 24.125 L 30.042969 24.125 L 30.042969 19.332031 L 29.167969 19.332031 L 29.167969 22.625 L 25.769531 22.625 L 25.769531 18.207031 L 29.457031 18.207031 L 29.457031 14.105469 L 28.582031 14.105469 Z M 28.582031 17.375 "/>
<path style=" stroke:none;fill-rule:nonzero;fill:rgb(0%,0%,0%);fill-opacity:1;" d="M 35.230469 17.792969 L 35.230469 18.5625 L 41.730469 18.5625 L 41.730469 17.792969 Z M 34.375 19.75 L 34.375 20.542969 L 37 20.542969 C 36.167969 21.894531 35.457031 22.730469 34.9375 23.042969 C 34.875 23.0625 34.832031 23.105469 34.75 23.125 L 34.9375 23.855469 C 37.207031 23.707031 39.292969 23.5 41.1875 23.25 C 41.4375 23.542969 41.644531 23.855469 41.855469 24.167969 L 42.542969 23.6875 C 42.019531 22.917969 41.25 22 40.269531 20.957031 L 39.625 21.355469 C 39.980469 21.769531 40.332031 22.167969 40.667969 22.5625 C 39.125 22.792969 37.5625 22.957031 35.980469 23.0625 C 36.542969 22.5625 37.1875 21.707031 37.917969 20.542969 L 42.519531 20.542969 L 42.519531 19.75 Z M 41.0625 14.480469 L 41.0625 15.875 L 34 15.875 L 34 14.480469 Z M 34 16.644531 L 41.894531 16.644531 L 41.894531 13.667969 L 33.167969 13.667969 L 33.167969 17.644531 C 33.144531 20.0625 32.730469 22.019531 31.894531 23.542969 L 32.519531 24.125 C 33.5 22.3125 34 20.144531 34 17.644531 Z M 34 16.644531 "/>
<path style="fill-rule:nonzero;fill:rgb(69.803923%,85.09804%,100%);fill-opacity:1;stroke-width:1;stroke-linecap:round;stroke-linejoin:round;stroke:rgb(0%,0%,0%);stroke-opacity:1;stroke-miterlimit:10;" d="M 212.765625 77.733398 C 217.746094 82.713867 217.746094 90.785156 212.765625 95.765625 C 207.785156 100.746094 199.713867 100.746094 194.733398 95.765625 C 189.75293 90.785156 189.75293 82.713867 194.733398 77.733398 C 199.713867 72.75293 207.785156 72.75293 212.765625 77.733398 " transform="matrix(1.333333,0,0,1.333333,-24,-16)"/>
<path style=" stroke:none;fill-rule:nonzero;fill:rgb(0%,0%,0%);fill-opacity:1;" d="M 245.917969 97.417969 C 245.753906 96.582031 245.605469 96.375 245.316406 96.375 C 245.023438 96.375 244.628906 96.457031 243.898438 96.730469 L 243.773438 96.769531 L 243.816406 96.957031 L 244.023438 96.894531 C 244.253906 96.832031 244.398438 96.8125 244.480469 96.8125 C 244.792969 96.8125 244.878906 96.917969 245.042969 97.625 L 245.378906 99.125 L 244.398438 100.519531 C 244.148438 100.875 243.917969 101.105469 243.773438 101.105469 C 243.710938 101.105469 243.585938 101.0625 243.460938 101 C 243.316406 100.917969 243.191406 100.855469 243.085938 100.855469 C 242.855469 100.855469 242.667969 101.0625 242.667969 101.292969 C 242.667969 101.605469 242.898438 101.792969 243.273438 101.792969 C 243.648438 101.792969 243.898438 101.6875 244.417969 100.980469 L 245.480469 99.5625 L 245.816406 100.980469 C 245.960938 101.582031 246.148438 101.792969 246.523438 101.792969 C 246.980469 101.792969 247.292969 101.519531 248.003906 100.4375 L 247.816406 100.3125 C 247.710938 100.4375 247.667969 100.519531 247.566406 100.667969 C 247.292969 101.019531 247.148438 101.144531 247.003906 101.144531 C 246.835938 101.144531 246.730469 100.980469 246.648438 100.644531 L 246.253906 99.042969 C 246.191406 98.75 246.148438 98.582031 246.148438 98.5 C 246.691406 97.582031 247.128906 97.042969 247.335938 97.042969 C 247.628906 97.042969 247.730469 97.25 247.960938 97.25 C 248.191406 97.25 248.355469 97.0625 248.355469 96.8125 C 248.355469 96.5625 248.167969 96.375 247.878906 96.375 C 247.355469 96.375 246.898438 96.8125 246.066406 98.082031 Z M 245.917969 97.417969 "/>
<path style=" stroke:none;fill-rule:nonzero;fill:rgb(0%,0%,0%);fill-opacity:1;" d="M 248.808594 101.582031 C 249.144531 101 249.519531 100.730469 250.019531 100.730469 C 250.539062 100.730469 250.871094 101.019531 250.871094 101.5625 C 250.871094 102.042969 250.621094 102.394531 250.226562 102.625 C 250.058594 102.730469 249.851562 102.8125 249.558594 102.917969 L 249.558594 103.019531 C 250.019531 103.019531 250.183594 103.042969 250.371094 103.105469 C 250.914062 103.269531 251.207031 103.667969 251.207031 104.269531 C 251.207031 104.9375 250.746094 105.5 250.164062 105.5 C 249.933594 105.5 249.769531 105.457031 249.476562 105.25 C 249.246094 105.082031 249.121094 105.042969 248.976562 105.042969 C 248.808594 105.042969 248.664062 105.144531 248.664062 105.3125 C 248.664062 105.605469 248.976562 105.769531 249.558594 105.769531 C 250.269531 105.769531 251.019531 105.542969 251.414062 105.042969 C 251.644531 104.730469 251.789062 104.332031 251.789062 103.917969 C 251.789062 103.5 251.644531 103.125 251.433594 102.875 C 251.269531 102.707031 251.121094 102.605469 250.769531 102.457031 C 251.289062 102.144531 251.496094 101.730469 251.496094 101.355469 C 251.496094 100.707031 250.996094 100.25 250.269531 100.25 C 249.433594 100.25 248.914062 100.792969 248.683594 101.5625 Z M 248.808594 101.582031 "/>
<path style="fill-rule:nonzero;fill:rgb(69.803923%,85.09804%,100%);fill-opacity:1;stroke-width:1;stroke-linecap:round;stroke-linejoin:round;stroke:rgb(0%,0%,0%);stroke-opacity:1;stroke-miterlimit:10;" d="M 265.640625 76.983398 C 270.621094 81.963867 270.621094 90.035156 265.640625 95.015625 C 260.660156 99.996094 252.588867 99.996094 247.608398 95.015625 C 242.62793 90.035156 242.62793 81.963867 247.608398 76.983398 C 252.588867 72.00293 260.660156 72.00293 265.640625 76.983398 " transform="matrix(1.333333,0,0,1.333333,-24,-16)"/>
<path style=" stroke:none;fill-rule:nonzero;fill:rgb(0%,0%,0%);fill-opacity:1;" d="M 316.417969 96.417969 C 316.253906 95.582031 316.105469 95.375 315.816406 95.375 C 315.523438 95.375 315.128906 95.457031 314.398438 95.730469 L 314.273438 95.769531 L 314.316406 95.957031 L 314.523438 95.894531 C 314.753906 95.832031 314.898438 95.8125 314.980469 95.8125 C 315.292969 95.8125 315.378906 95.917969 315.542969 96.625 L 315.878906 98.125 L 314.898438 99.519531 C 314.648438 99.875 314.417969 100.105469 314.273438 100.105469 C 314.210938 100.105469 314.085938 100.0625 313.960938 100 C 313.816406 99.917969 313.691406 99.855469 313.585938 99.855469 C 313.355469 99.855469 313.167969 100.0625 313.167969 100.292969 C 313.167969 100.605469 313.398438 100.792969 313.773438 100.792969 C 314.148438 100.792969 314.398438 100.6875 314.917969 99.980469 L 315.980469 98.5625 L 316.316406 99.980469 C 316.460938 100.582031 316.648438 100.792969 317.023438 100.792969 C 317.480469 100.792969 317.792969 100.519531 318.503906 99.4375 L 318.316406 99.3125 C 318.210938 99.4375 318.167969 99.519531 318.066406 99.667969 C 317.792969 100.019531 317.648438 100.144531 317.503906 100.144531 C 317.335938 100.144531 317.230469 99.980469 317.148438 99.644531 L 316.753906 98.042969 C 316.691406 97.75 316.648438 97.582031 316.648438 97.5 C 317.191406 96.582031 317.628906 96.042969 317.835938 96.042969 C 318.128906 96.042969 318.230469 96.25 318.460938 96.25 C 318.691406 96.25 318.855469 96.0625 318.855469 95.8125 C 318.855469 95.5625 318.667969 95.375 318.378906 95.375 C 317.855469 95.375 317.398438 95.8125 316.566406 97.082031 Z M 316.417969 96.417969 "/>
<path style=" stroke:none;fill-rule:nonzero;fill:rgb(0%,0%,0%);fill-opacity:1;" d="M 322.621094 103.332031 L 322.621094 102.8125 L 321.789062 102.8125 L 321.789062 99.25 L 321.433594 99.25 L 318.933594 102.8125 L 318.933594 103.332031 L 321.164062 103.332031 L 321.164062 104.667969 L 321.789062 104.667969 L 321.789062 103.332031 Z M 321.164062 102.8125 L 319.246094 102.8125 L 321.164062 100.082031 Z M 321.164062 102.8125 "/>
<path style="fill-rule:nonzero;fill:rgb(40.000001%,74.901962%,100%);fill-opacity:1;stroke-width:1;stroke-linecap:round;stroke-linejoin:round;stroke:rgb(0%,0%,0%);stroke-opacity:1;stroke-miterlimit:10;" d="M 231.266602 16.734375 C 236.24707 21.714844 236.24707 29.786133 231.266602 34.766602 C 226.286133 39.74707 218.214844 39.74707 213.234375 34.766602 C 208.253906 29.786133 208.253906 21.714844 213.234375 16.734375 C 218.214844 11.753906 226.286133 11.753906 231.266602 16.734375 " transform="matrix(1.333333,0,0,1.333333,-24,-16)"/>
<path style=" stroke:none;fill-rule:nonzero;fill:rgb(0%,0%,0%);fill-opacity:1;" d="M 272.957031 16.730469 C 272.957031 15.667969 272.230469 15.042969 271.25 15.042969 C 270.769531 15.042969 270.292969 15.144531 269.8125 15.394531 C 268.5625 16.082031 267.667969 17.457031 267.667969 18.792969 C 267.667969 19.832031 268.292969 20.457031 269.417969 20.457031 C 270.207031 20.457031 270.980469 20.167969 271.6875 19.480469 C 272.480469 18.6875 272.957031 17.625 272.957031 16.730469 Z M 271.9375 16.417969 C 271.9375 17.332031 271.605469 18.457031 271.0625 19.207031 C 270.582031 19.875 270.125 20.207031 269.605469 20.207031 C 269.042969 20.207031 268.667969 19.832031 268.667969 19.125 C 268.667969 18.167969 269 17.230469 269.5625 16.375 C 270.042969 15.667969 270.5625 15.292969 271.082031 15.292969 C 271.605469 15.292969 271.9375 15.6875 271.9375 16.417969 Z M 271.9375 16.417969 "/>
<path style=" stroke:none;fill-rule:nonzero;fill:rgb(0%,0%,0%);fill-opacity:1;" d="M 273.8125 20.25 C 274.144531 19.667969 274.519531 19.394531 275.019531 19.394531 C 275.542969 19.394531 275.875 19.6875 275.875 20.230469 C 275.875 20.707031 275.625 21.0625 275.230469 21.292969 C 275.0625 21.394531 274.855469 21.480469 274.5625 21.582031 L 274.5625 21.6875 C 275.019531 21.6875 275.1875 21.707031 275.375 21.769531 C 275.917969 21.9375 276.207031 22.332031 276.207031 22.9375 C 276.207031 23.605469 275.75 24.167969 275.167969 24.167969 C 274.9375 24.167969 274.769531 24.125 274.480469 23.917969 C 274.25 23.75 274.125 23.707031 273.980469 23.707031 C 273.8125 23.707031 273.667969 23.8125 273.667969 23.980469 C 273.667969 24.269531 273.980469 24.4375 274.5625 24.4375 C 275.269531 24.4375 276.019531 24.207031 276.417969 23.707031 C 276.644531 23.394531 276.792969 23 276.792969 22.582031 C 276.792969 22.167969 276.644531 21.792969 276.4375 21.542969 C 276.269531 21.375 276.125 21.269531 275.769531 21.125 C 276.292969 20.8125 276.5 20.394531 276.5 20.019531 C 276.5 19.375 276 18.917969 275.269531 18.917969 C 274.4375 18.917969 273.917969 19.457031 273.6875 20.230469 Z M 273.8125 20.25 "/>
<path style="fill-rule:nonzero;fill:rgb(40.000001%,74.901962%,100%);fill-opacity:1;stroke-width:1;stroke-linecap:round;stroke-linejoin:round;stroke:rgb(0%,0%,0%);stroke-opacity:1;stroke-miterlimit:10;" d="M 185.639648 16.734375 C 190.620117 21.714844 190.620117 29.786133 185.639648 34.766602 C 180.65918 39.74707 172.59082 39.74707 167.610352 34.766602 C 162.629883 29.786133 162.629883 21.714844 167.610352 16.734375 C 172.59082 11.753906 180.65918 11.753906 185.639648 16.734375 " transform="matrix(1.333333,0,0,1.333333,-24,-16)"/>
<path style=" stroke:none;fill-rule:nonzero;fill:rgb(0%,0%,0%);fill-opacity:1;" d="M 212.125 16.730469 C 212.125 15.667969 211.394531 15.042969 210.417969 15.042969 C 209.9375 15.042969 209.457031 15.144531 208.980469 15.394531 C 207.730469 16.082031 206.832031 17.457031 206.832031 18.792969 C 206.832031 19.832031 207.457031 20.457031 208.582031 20.457031 C 209.375 20.457031 210.144531 20.167969 210.855469 19.480469 C 211.644531 18.6875 212.125 17.625 212.125 16.730469 Z M 211.105469 16.417969 C 211.105469 17.332031 210.769531 18.457031 210.230469 19.207031 C 209.75 19.875 209.292969 20.207031 208.769531 20.207031 C 208.207031 20.207031 207.832031 19.832031 207.832031 19.125 C 207.832031 18.167969 208.167969 17.230469 208.730469 16.375 C 209.207031 15.667969 209.730469 15.292969 210.25 15.292969 C 210.769531 15.292969 211.105469 15.6875 211.105469 16.417969 Z M 211.105469 16.417969 "/>
<path style=" stroke:none;fill-rule:nonzero;fill:rgb(0%,0%,0%);fill-opacity:1;" d="M 216.292969 23.230469 L 216.1875 23.1875 C 215.917969 23.644531 215.75 23.730469 215.417969 23.730469 L 213.542969 23.730469 L 214.855469 22.3125 C 215.5625 21.5625 215.875 20.957031 215.875 20.332031 C 215.875 19.542969 215.3125 18.917969 214.394531 18.917969 C 213.417969 18.917969 212.917969 19.582031 212.75 20.519531 L 212.917969 20.5625 C 213.230469 19.769531 213.5 19.519531 214.082031 19.519531 C 214.769531 19.519531 215.1875 19.917969 215.1875 20.644531 C 215.1875 21.332031 214.917969 21.9375 214.144531 22.730469 L 212.730469 24.230469 L 212.730469 24.332031 L 215.855469 24.332031 Z M 216.292969 23.230469 "/>
<path style="fill:none;stroke-width:1;stroke-linecap:round;stroke-linejoin:round;stroke:rgb(0%,0%,0%);stroke-opacity:1;stroke-miterlimit:10;" d="M 104.06543 75.530273 L 122.124023 42.155273 " transform="matrix(1.333333,0,0,1.333333,-24,-16)"/>
<path style="fill:none;stroke-width:1;stroke-linecap:butt;stroke-linejoin:miter;stroke:rgb(0%,0%,0%);stroke-opacity:1;stroke-miterlimit:10;" d="M 124.02832 38.636719 L 122.124023 42.155273 M 120.805664 41.44043 L 124.02832 38.636719 L 123.445312 42.870117 " transform="matrix(1.333333,0,0,1.333333,-24,-16)"/>
<path style="fill:none;stroke-width:1;stroke-linecap:round;stroke-linejoin:round;stroke:rgb(0%,0%,0%);stroke-opacity:1;stroke-miterlimit:10;" d="M 108.073242 78.93457 L 161.891602 37.183594 " transform="matrix(1.333333,0,0,1.333333,-24,-16)"/>
<path style="fill:none;stroke-width:1;stroke-linecap:butt;stroke-linejoin:miter;stroke:rgb(0%,0%,0%);stroke-opacity:1;stroke-miterlimit:10;" d="M 165.049805 34.731445 L 161.891602 37.183594 M 160.96875 35.99707 L 165.049805 34.731445 L 162.808594 38.367188 " transform="matrix(1.333333,0,0,1.333333,-24,-16)"/>
<path style="fill:none;stroke-width:1;stroke-linecap:round;stroke-linejoin:round;stroke:rgb(0%,0%,0%);stroke-opacity:1;stroke-miterlimit:10;" d="M 109.450195 81.128906 L 205.50293 33.969727 " transform="matrix(1.333333,0,0,1.333333,-24,-16)"/>
<path style="fill:none;stroke-width:1;stroke-linecap:butt;stroke-linejoin:miter;stroke:rgb(0%,0%,0%);stroke-opacity:1;stroke-miterlimit:10;" d="M 209.097656 32.206055 L 205.50293 33.969727 M 204.84375 32.625 L 209.097656 32.206055 L 206.167969 35.317383 " transform="matrix(1.333333,0,0,1.333333,-24,-16)"/>
<path style="fill:none;stroke-width:1;stroke-linecap:round;stroke-linejoin:round;stroke:rgb(0%,0%,0%);stroke-opacity:1;stroke-miterlimit:10;" d="M 146.926758 74.625 L 136.77832 43.485352 " transform="matrix(1.333333,0,0,1.333333,-24,-16)"/>
<path style="fill:none;stroke-width:1;stroke-linecap:butt;stroke-linejoin:miter;stroke:rgb(0%,0%,0%);stroke-opacity:1;stroke-miterlimit:10;" d="M 135.539062 39.682617 L 136.77832 43.485352 M 135.351562 43.948242 L 135.539062 39.682617 L 138.202148 43.019531 " transform="matrix(1.333333,0,0,1.333333,-24,-16)"/>
<path style="fill:none;stroke-width:1;stroke-linecap:round;stroke-linejoin:round;stroke:rgb(0%,0%,0%);stroke-opacity:1;stroke-miterlimit:10;" d="M 155.835938 75 L 169.371094 42.93457 " transform="matrix(1.333333,0,0,1.333333,-24,-16)"/>
<path style="fill:none;stroke-width:1;stroke-linecap:butt;stroke-linejoin:miter;stroke:rgb(0%,0%,0%);stroke-opacity:1;stroke-miterlimit:10;" d="M 170.926758 39.249023 L 169.371094 42.93457 M 167.988281 42.351562 L 170.926758 39.249023 L 170.753906 43.520508 " transform="matrix(1.333333,0,0,1.333333,-24,-16)"/>
<path style="fill:none;stroke-width:1;stroke-linecap:round;stroke-linejoin:round;stroke:rgb(0%,0%,0%);stroke-opacity:1;stroke-miterlimit:10;" d="M 160.567383 78.46582 L 208.069336 37.866211 " transform="matrix(1.333333,0,0,1.333333,-24,-16)"/>
<path style="fill:none;stroke-width:1;stroke-linecap:butt;stroke-linejoin:miter;stroke:rgb(0%,0%,0%);stroke-opacity:1;stroke-miterlimit:10;" d="M 211.113281 35.270508 L 208.069336 37.866211 M 207.09668 36.726562 L 211.113281 35.270508 L 209.047852 39.008789 " transform="matrix(1.333333,0,0,1.333333,-24,-16)"/>
<path style="fill:none;stroke-width:1;stroke-linecap:round;stroke-linejoin:round;stroke:rgb(0%,0%,0%);stroke-opacity:1;stroke-miterlimit:10;" d="M 193.980469 78.55957 L 145.291992 37.734375 " transform="matrix(1.333333,0,0,1.333333,-24,-16)"/>
<path style="fill:none;stroke-width:1;stroke-linecap:butt;stroke-linejoin:miter;stroke:rgb(0%,0%,0%);stroke-opacity:1;stroke-miterlimit:10;" d="M 142.227539 35.165039 L 145.291992 37.734375 M 144.328125 38.882812 L 142.227539 35.165039 L 146.25293 36.583008 " transform="matrix(1.333333,0,0,1.333333,-24,-16)"/>
<path style="fill:none;stroke-width:1;stroke-linecap:round;stroke-linejoin:round;stroke:rgb(0%,0%,0%);stroke-opacity:1;stroke-miterlimit:10;" d="M 198.56543 75.09668 L 184.204102 42.793945 " transform="matrix(1.333333,0,0,1.333333,-24,-16)"/>
<path style="fill:none;stroke-width:1;stroke-linecap:butt;stroke-linejoin:miter;stroke:rgb(0%,0%,0%);stroke-opacity:1;stroke-miterlimit:10;" d="M 182.578125 39.140625 L 184.204102 42.793945 M 182.833008 43.40332 L 182.578125 39.140625 L 185.575195 42.18457 " transform="matrix(1.333333,0,0,1.333333,-24,-16)"/>
<path style="fill:none;stroke-width:1;stroke-linecap:round;stroke-linejoin:round;stroke:rgb(0%,0%,0%);stroke-opacity:1;stroke-miterlimit:10;" d="M 207.448242 74.545898 L 216.834961 43.602539 " transform="matrix(1.333333,0,0,1.333333,-24,-16)"/>
<path style="fill:none;stroke-width:1;stroke-linecap:butt;stroke-linejoin:miter;stroke:rgb(0%,0%,0%);stroke-opacity:1;stroke-miterlimit:10;" d="M 217.995117 39.773438 L 216.834961 43.602539 M 215.402344 43.163086 L 217.995117 39.773438 L 218.273438 44.036133 " transform="matrix(1.333333,0,0,1.333333,-24,-16)"/>
<path style="fill:none;stroke-width:1;stroke-linecap:round;stroke-linejoin:round;stroke:rgb(0%,0%,0%);stroke-opacity:1;stroke-miterlimit:10;" d="M 245.124023 80.484375 L 147.820312 33.817383 " transform="matrix(1.333333,0,0,1.333333,-24,-16)"/>
<path style="fill:none;stroke-width:1;stroke-linecap:butt;stroke-linejoin:miter;stroke:rgb(0%,0%,0%);stroke-opacity:1;stroke-miterlimit:10;" d="M 144.210938 32.085938 L 147.820312 33.817383 M 147.172852 35.167969 L 144.210938 32.085938 L 148.467773 32.463867 " transform="matrix(1.333333,0,0,1.333333,-24,-16)"/>
<path style="fill:none;stroke-width:1;stroke-linecap:round;stroke-linejoin:round;stroke:rgb(0%,0%,0%);stroke-opacity:1;stroke-miterlimit:10;" d="M 246.436523 78.328125 L 191.522461 36.972656 " transform="matrix(1.333333,0,0,1.333333,-24,-16)"/>
<path style="fill:none;stroke-width:1;stroke-linecap:butt;stroke-linejoin:miter;stroke:rgb(0%,0%,0%);stroke-opacity:1;stroke-miterlimit:10;" d="M 188.329102 34.561523 L 191.522461 36.972656 M 190.620117 38.167969 L 188.329102 34.561523 L 192.424805 35.774414 " transform="matrix(1.333333,0,0,1.333333,-24,-16)"/>
<path style="fill:none;stroke-width:1;stroke-linecap:round;stroke-linejoin:round;stroke:rgb(0%,0%,0%);stroke-opacity:1;stroke-miterlimit:10;" d="M 250.303711 74.920898 L 231.492188 41.953125 " transform="matrix(1.333333,0,0,1.333333,-24,-16)"/>
<path style="fill:none;stroke-width:1;stroke-linecap:butt;stroke-linejoin:miter;stroke:rgb(0%,0%,0%);stroke-opacity:1;stroke-miterlimit:10;" d="M 229.511719 38.475586 L 231.492188 41.953125 M 230.191406 42.694336 L 229.511719 38.475586 L 232.795898 41.206055 " transform="matrix(1.333333,0,0,1.333333,-24,-16)"/>
</g>
</svg>
