<?xml version="1.0" encoding="UTF-8"?>
<svg xmlns="http://www.w3.org/2000/svg" xmlns:xlink="http://www.w3.org/1999/xlink" width="406.666667" height="124" viewBox="0 0 406.666667 124" version="1.1">
<g id="surface1">
<path style="fill:none;stroke-width:1;stroke-linecap:round;stroke-linejoin:miter;stroke:rgb(0%,0%,0%);stroke-opacity:1;stroke-miterlimit:10;" d="M 168.999023 98.449219 L 198.061523 98.449219 " transform="matrix(1.333333,0,0,1.333333,-124,-92)"/>
<path style="fill:none;stroke-width:1;stroke-linecap:butt;stroke-linejoin:miter;stroke:rgb(0%,0%,0%);stroke-opacity:1;stroke-miterlimit:10;" d="M 202.063477 98.449219 L 198.061523 98.449219 M 198.061523 96.949219 L 202.063477 98.449219 L 198.061523 99.949219 " transform="matrix(1.333333,0,0,1.333333,-124,-92)"/>
<path style=" stroke:none;fill-rule:nonzero;fill:rgb(100%,100%,100%);fill-opacity:1;" d="M 0.890625 122.667969 L 100.890625 122.667969 L 100.890625 80.667969 L 0.890625 80.667969 Z M 0.890625 122.667969 "/>
<path style="fill:none;stroke-width:1;stroke-linecap:round;stroke-linejoin:round;stroke:rgb(0%,0%,0%);stroke-opacity:1;stroke-miterlimit:10;" d="M 93.667969 129.500977 L 168.667969 129.500977 L 168.667969 161.000977 L 93.667969 161.000977 Z M 93.667969 129.500977 " transform="matrix(1.333333,0,0,1.333333,-124,-92)"/>
<path style=" stroke:none;fill-rule:nonzero;fill:rgb(0%,0%,0%);fill-opacity:1;" d="M 41.640625 99.875 L 41.640625 101.644531 L 40.453125 101.644531 C 40.742188 100.875 41.035156 100 41.285156 99.019531 L 43.597656 99.019531 L 43.597656 98.207031 L 41.492188 98.207031 C 41.597656 97.730469 41.703125 97.207031 41.828125 96.667969 L 41.035156 96.5 C 40.910156 97.082031 40.804688 97.667969 40.679688 98.207031 L 39.492188 98.207031 L 39.492188 99.019531 L 40.492188 99.019531 C 40.222656 100.082031 39.929688 101 39.578125 101.707031 L 39.765625 102.4375 L 41.640625 102.4375 L 41.640625 104.230469 C 40.929688 104.355469 40.203125 104.480469 39.410156 104.5625 L 39.515625 105.417969 C 40.242188 105.292969 40.953125 105.1875 41.640625 105.042969 L 41.640625 107.542969 L 42.429688 107.542969 L 42.429688 104.875 L 43.578125 104.582031 L 43.578125 103.769531 C 43.222656 103.855469 42.847656 103.957031 42.429688 104.0625 L 42.429688 102.4375 L 43.535156 102.4375 L 43.535156 101.644531 L 42.429688 101.644531 L 42.429688 99.875 Z M 45.179688 99.25 L 45.179688 99.957031 L 48.617188 99.957031 L 48.617188 99.25 L 45.179688 99.25 C 45.785156 98.667969 46.367188 98.019531 46.929688 97.332031 C 47.847656 98.5 48.867188 99.5 49.992188 100.3125 L 50.453125 99.644531 C 49.367188 98.875 48.304688 97.855469 47.242188 96.5625 L 46.640625 96.5625 C 45.660156 97.75 44.554688 98.8125 43.328125 99.707031 L 43.804688 100.4375 C 44.265625 100.0625 44.722656 99.667969 45.179688 99.25 Z M 46.015625 107.457031 C 46.597656 107.457031 46.910156 107.144531 46.910156 106.519531 L 46.910156 100.917969 L 44.078125 100.917969 L 44.078125 107.542969 L 44.828125 107.542969 L 44.828125 105.292969 L 46.179688 105.292969 L 46.179688 106.375 C 46.179688 106.625 46.035156 106.769531 45.785156 106.769531 L 45.242188 106.75 L 45.429688 107.457031 Z M 44.828125 104.625 L 44.828125 103.480469 L 46.179688 103.480469 L 46.179688 104.625 Z M 44.828125 102.8125 L 44.828125 101.625 L 46.179688 101.625 L 46.179688 102.8125 Z M 47.617188 101.25 L 47.617188 105.5625 L 48.304688 105.5625 L 48.304688 101.25 Z M 48.929688 107.480469 C 49.515625 107.480469 49.804688 107.125 49.804688 106.4375 L 49.804688 100.707031 L 49.054688 100.707031 L 49.054688 106.25 C 49.054688 106.582031 48.929688 106.769531 48.660156 106.769531 C 48.367188 106.769531 48.054688 106.75 47.742188 106.707031 L 47.910156 107.480469 Z M 48.929688 107.480469 "/>
<path style=" stroke:none;fill-rule:nonzero;fill:rgb(0%,0%,0%);fill-opacity:1;" d="M 56.367188 99.3125 C 55.597656 102.5 53.929688 104.957031 51.347656 106.625 L 51.867188 107.375 C 54.390625 105.730469 56.054688 103.375 56.847656 100.3125 C 56.910156 100.457031 56.953125 100.625 57.035156 100.832031 C 58.265625 104 59.847656 106.1875 61.804688 107.355469 L 62.347656 106.667969 C 60.429688 105.480469 58.929688 103.4375 57.804688 100.582031 C 57.078125 98.625 56.160156 97.269531 55.097656 96.519531 L 54.390625 96.980469 C 55.140625 97.542969 55.804688 98.3125 56.367188 99.3125 Z M 56.367188 99.3125 "/>
<path style=" stroke:none;fill-rule:nonzero;fill:rgb(100%,100%,100%);fill-opacity:1;" d="M 18.167969 44.265625 L 118.167969 44.265625 L 118.167969 2.265625 L 18.167969 2.265625 Z M 18.167969 44.265625 "/>
<path style="fill:none;stroke-width:1;stroke-linecap:round;stroke-linejoin:round;stroke:rgb(0%,0%,0%);stroke-opacity:1;stroke-miterlimit:10;" d="M 106.625977 70.699219 L 181.625977 70.699219 L 181.625977 102.199219 L 106.625977 102.199219 Z M 106.625977 70.699219 " transform="matrix(1.333333,0,0,1.333333,-124,-92)"/>
<path style=" stroke:none;fill-rule:nonzero;fill:rgb(100%,100%,100%);fill-opacity:1;" d="M 10.667969 52.265625 L 110.667969 52.265625 L 110.667969 10.265625 L 10.667969 10.265625 Z M 10.667969 52.265625 "/>
<path style="fill:none;stroke-width:1;stroke-linecap:round;stroke-linejoin:round;stroke:rgb(0%,0%,0%);stroke-opacity:1;stroke-miterlimit:10;" d="M 101.000977 76.699219 L 176.000977 76.699219 L 176.000977 108.199219 L 101.000977 108.199219 Z M 101.000977 76.699219 " transform="matrix(1.333333,0,0,1.333333,-124,-92)"/>
<path style=" stroke:none;fill-rule:nonzero;fill:rgb(100%,100%,100%);fill-opacity:1;" d="M 1.332031 60.265625 L 101.332031 60.265625 L 101.332031 18.265625 L 1.332031 18.265625 Z M 1.332031 60.265625 "/>
<path style="fill:none;stroke-width:1;stroke-linecap:round;stroke-linejoin:round;stroke:rgb(0%,0%,0%);stroke-opacity:1;stroke-miterlimit:10;" d="M 93.999023 82.699219 L 168.999023 82.699219 L 168.999023 114.199219 L 93.999023 114.199219 Z M 93.999023 82.699219 " transform="matrix(1.333333,0,0,1.333333,-124,-92)"/>
<path style=" stroke:none;fill-rule:nonzero;fill:rgb(0%,0%,0%);fill-opacity:1;" d="M 34.980469 34.953125 L 34.980469 44.351562 L 35.8125 44.351562 L 35.8125 34.953125 Z M 37.5 34.371094 L 37.5 45.164062 L 38.355469 45.164062 L 38.355469 34.371094 Z M 32.605469 34.414062 L 32.605469 39.683594 C 32.582031 41.953125 32.105469 43.601562 31.144531 44.621094 L 31.792969 45.203125 C 32.855469 44.039062 33.394531 42.203125 33.4375 39.683594 L 33.4375 34.414062 Z M 29.269531 34.246094 L 28.6875 34.828125 C 29.542969 35.476562 30.230469 36.101562 30.75 36.703125 L 31.332031 36.101562 C 30.769531 35.476562 30.082031 34.871094 29.269531 34.246094 Z M 27.875 37.808594 L 27.875 38.621094 L 29.644531 38.621094 L 29.644531 43.289062 C 29.644531 43.496094 29.542969 43.683594 29.375 43.828125 L 29.707031 44.601562 C 30.4375 44.078125 31.105469 43.476562 31.730469 42.808594 L 31.5 41.914062 C 31.144531 42.289062 30.792969 42.640625 30.457031 42.953125 L 30.457031 37.808594 Z M 27.875 37.808594 "/>
<path style=" stroke:none;fill-rule:nonzero;fill:rgb(0%,0%,0%);fill-opacity:1;" d="M 43.667969 42.703125 C 42.582031 43.164062 41.292969 43.515625 39.832031 43.789062 L 39.9375 44.664062 C 41.332031 44.371094 42.582031 43.996094 43.667969 43.558594 Z M 41.855469 34.164062 C 41.417969 35.578125 40.917969 36.808594 40.3125 37.914062 C 40.207031 38.058594 40.082031 38.183594 39.9375 38.246094 L 40.167969 39.039062 C 40.792969 38.933594 41.394531 38.808594 42 38.683594 C 41.417969 39.808594 40.894531 40.601562 40.480469 41.078125 C 40.375 41.183594 40.230469 41.265625 40.082031 41.351562 L 40.3125 42.140625 C 41.417969 41.976562 42.5625 41.683594 43.769531 41.226562 L 43.769531 40.433594 C 42.957031 40.746094 42.144531 40.976562 41.355469 41.140625 C 42 40.289062 42.832031 38.871094 43.855469 36.871094 L 43.0625 36.558594 C 42.832031 37.039062 42.625 37.476562 42.394531 37.914062 C 41.917969 37.996094 41.4375 38.078125 40.957031 38.164062 C 41.542969 37.246094 42.105469 36.015625 42.6875 34.476562 Z M 45.125 41.371094 C 44.769531 42.371094 44.269531 43.328125 43.605469 44.265625 L 44.355469 44.683594 C 44.917969 43.871094 45.4375 42.871094 45.875 41.683594 Z M 49.625 41.371094 L 48.855469 41.621094 C 49.332031 42.496094 49.769531 43.515625 50.167969 44.683594 L 50.894531 44.351562 C 50.542969 43.289062 50.105469 42.308594 49.625 41.371094 Z M 46.9375 45.015625 C 47.625 45.015625 47.980469 44.703125 47.980469 44.058594 L 47.980469 40.683594 L 50.519531 40.683594 L 50.519531 39.914062 L 47.980469 39.914062 L 47.980469 37.578125 L 46.375 37.578125 C 46.5 37.183594 46.644531 36.726562 46.792969 36.289062 L 50.519531 36.289062 L 50.519531 35.476562 L 47.042969 35.476562 C 47.144531 35.078125 47.25 34.683594 47.355469 34.265625 L 46.519531 34.121094 C 46.394531 34.578125 46.292969 35.039062 46.167969 35.476562 L 43.5 35.476562 L 43.5 36.289062 L 45.9375 36.289062 C 45.792969 36.726562 45.644531 37.164062 45.5 37.578125 L 43.9375 37.578125 L 43.9375 38.371094 L 45.1875 38.371094 C 44.9375 38.933594 44.667969 39.476562 44.417969 39.933594 L 44.605469 40.683594 L 47.144531 40.683594 L 47.144531 43.808594 C 47.144531 44.121094 46.980469 44.265625 46.6875 44.265625 L 45.542969 44.226562 L 45.75 45.015625 Z M 46.0625 38.371094 L 47.144531 38.371094 L 47.144531 39.914062 L 45.375 39.914062 C 45.605469 39.433594 45.832031 38.914062 46.0625 38.371094 Z M 46.0625 38.371094 "/>
<path style=" stroke:none;fill-rule:nonzero;fill:rgb(0%,0%,0%);fill-opacity:1;" d="M 54.082031 37.476562 L 54.082031 39.246094 L 52.894531 39.246094 C 53.1875 38.476562 53.480469 37.601562 53.730469 36.621094 L 56.042969 36.621094 L 56.042969 35.808594 L 53.9375 35.808594 C 54.042969 35.328125 54.144531 34.808594 54.269531 34.265625 L 53.480469 34.101562 C 53.355469 34.683594 53.25 35.265625 53.125 35.808594 L 51.9375 35.808594 L 51.9375 36.621094 L 52.9375 36.621094 C 52.667969 37.683594 52.375 38.601562 52.019531 39.308594 L 52.207031 40.039062 L 54.082031 40.039062 L 54.082031 41.828125 C 53.375 41.953125 52.644531 42.078125 51.855469 42.164062 L 51.957031 43.015625 C 52.6875 42.890625 53.394531 42.789062 54.082031 42.640625 L 54.082031 45.140625 L 54.875 45.140625 L 54.875 42.476562 L 56.019531 42.183594 L 56.019531 41.371094 C 55.667969 41.453125 55.292969 41.558594 54.875 41.664062 L 54.875 40.039062 L 55.980469 40.039062 L 55.980469 39.246094 L 54.875 39.246094 L 54.875 37.476562 Z M 57.625 36.851562 L 57.625 37.558594 L 61.0625 37.558594 L 61.0625 36.851562 L 57.625 36.851562 C 58.230469 36.265625 58.8125 35.621094 59.375 34.933594 C 60.292969 36.101562 61.3125 37.101562 62.4375 37.914062 L 62.894531 37.246094 C 61.8125 36.476562 60.75 35.453125 59.6875 34.164062 L 59.082031 34.164062 C 58.105469 35.351562 57 36.414062 55.769531 37.308594 L 56.25 38.039062 C 56.707031 37.664062 57.167969 37.265625 57.625 36.851562 Z M 58.457031 45.058594 C 59.042969 45.058594 59.355469 44.746094 59.355469 44.121094 L 59.355469 38.515625 L 56.519531 38.515625 L 56.519531 45.140625 L 57.269531 45.140625 L 57.269531 42.890625 L 58.625 42.890625 L 58.625 43.976562 C 58.625 44.226562 58.480469 44.371094 58.230469 44.371094 L 57.6875 44.351562 L 57.875 45.058594 Z M 57.269531 42.226562 L 57.269531 41.078125 L 58.625 41.078125 L 58.625 42.226562 Z M 57.269531 40.414062 L 57.269531 39.226562 L 58.625 39.226562 L 58.625 40.414062 Z M 60.0625 38.851562 L 60.0625 43.164062 L 60.75 43.164062 L 60.75 38.851562 Z M 61.375 45.078125 C 61.957031 45.078125 62.25 44.726562 62.25 44.039062 L 62.25 38.308594 L 61.5 38.308594 L 61.5 43.851562 C 61.5 44.183594 61.375 44.371094 61.105469 44.371094 C 60.8125 44.371094 60.5 44.351562 60.1875 44.308594 L 60.355469 45.078125 Z M 61.375 45.078125 "/>
<path style=" stroke:none;fill-rule:nonzero;fill:rgb(0%,0%,0%);fill-opacity:1;" d="M 68.8125 36.914062 C 68.042969 40.101562 66.375 42.558594 63.792969 44.226562 L 64.3125 44.976562 C 66.832031 43.328125 68.5 40.976562 69.292969 37.914062 C 69.355469 38.058594 69.394531 38.226562 69.480469 38.433594 C 70.707031 41.601562 72.292969 43.789062 74.25 44.953125 L 74.792969 44.265625 C 72.875 43.078125 71.375 41.039062 70.25 38.183594 C 69.519531 36.226562 68.605469 34.871094 67.542969 34.121094 L 66.832031 34.578125 C 67.582031 35.140625 68.25 35.914062 68.8125 36.914062 Z M 68.8125 36.914062 "/>
<path style=" stroke:none;fill-rule:nonzero;fill:rgb(100%,100%,100%);fill-opacity:1;" d="M 305.402344 43.796875 L 405.402344 43.796875 L 405.402344 1.796875 L 305.402344 1.796875 Z M 305.402344 43.796875 "/>
<path style="fill:none;stroke-width:1;stroke-linecap:round;stroke-linejoin:round;stroke:rgb(0%,0%,0%);stroke-opacity:1;stroke-miterlimit:10;" d="M 322.051758 70.347656 L 397.051758 70.347656 L 397.051758 101.847656 L 322.051758 101.847656 Z M 322.051758 70.347656 " transform="matrix(1.333333,0,0,1.333333,-124,-92)"/>
<path style=" stroke:none;fill-rule:nonzero;fill:rgb(100%,100%,100%);fill-opacity:1;" d="M 296.285156 52.738281 L 396.285156 52.738281 L 396.285156 10.738281 L 296.285156 10.738281 Z M 296.285156 52.738281 "/>
<path style="fill:none;stroke-width:1;stroke-linecap:round;stroke-linejoin:round;stroke:rgb(0%,0%,0%);stroke-opacity:1;stroke-miterlimit:10;" d="M 315.213867 77.053711 L 390.213867 77.053711 L 390.213867 108.553711 L 315.213867 108.553711 Z M 315.213867 77.053711 " transform="matrix(1.333333,0,0,1.333333,-124,-92)"/>
<path style=" stroke:none;fill-rule:nonzero;fill:rgb(100%,100%,100%);fill-opacity:1;" d="M 286.953125 60.738281 L 386.953125 60.738281 L 386.953125 18.738281 L 286.953125 18.738281 Z M 286.953125 60.738281 "/>
<path style="fill:none;stroke-width:1;stroke-linecap:round;stroke-linejoin:round;stroke:rgb(0%,0%,0%);stroke-opacity:1;stroke-miterlimit:10;" d="M 308.214844 83.053711 L 383.214844 83.053711 L 383.214844 114.553711 L 308.214844 114.553711 Z M 308.214844 83.053711 " transform="matrix(1.333333,0,0,1.333333,-124,-92)"/>
<path style=" stroke:none;fill-rule:nonzero;fill:rgb(0%,0%,0%);fill-opacity:1;" d="M 320.601562 35.425781 L 320.601562 44.820312 L 321.433594 44.820312 L 321.433594 35.425781 Z M 323.121094 34.84375 L 323.121094 45.632812 L 323.976562 45.632812 L 323.976562 34.84375 Z M 318.226562 34.882812 L 318.226562 40.15625 C 318.207031 42.425781 317.726562 44.070312 316.769531 45.09375 L 317.414062 45.675781 C 318.476562 44.507812 319.019531 42.675781 319.058594 40.15625 L 319.058594 34.882812 Z M 314.894531 34.71875 L 314.308594 35.300781 C 315.164062 35.945312 315.851562 36.570312 316.371094 37.175781 L 316.957031 36.570312 C 316.394531 35.945312 315.707031 35.34375 314.894531 34.71875 Z M 313.496094 38.28125 L 313.496094 39.09375 L 315.269531 39.09375 L 315.269531 43.757812 C 315.269531 43.96875 315.164062 44.15625 314.996094 44.300781 L 315.332031 45.070312 C 316.058594 44.550781 316.726562 43.945312 317.351562 43.28125 L 317.121094 42.382812 C 316.769531 42.757812 316.414062 43.113281 316.082031 43.425781 L 316.082031 38.28125 Z M 313.496094 38.28125 "/>
<path style=" stroke:none;fill-rule:nonzero;fill:rgb(0%,0%,0%);fill-opacity:1;" d="M 329.289062 43.175781 C 328.207031 43.632812 326.914062 43.988281 325.457031 44.257812 L 325.558594 45.132812 C 326.957031 44.84375 328.207031 44.46875 329.289062 44.03125 Z M 327.476562 34.632812 C 327.039062 36.050781 326.539062 37.28125 325.933594 38.382812 C 325.832031 38.53125 325.707031 38.65625 325.558594 38.71875 L 325.789062 39.507812 C 326.414062 39.40625 327.019531 39.28125 327.621094 39.15625 C 327.039062 40.28125 326.519531 41.070312 326.101562 41.550781 C 325.996094 41.65625 325.851562 41.738281 325.707031 41.820312 L 325.933594 42.613281 C 327.039062 42.445312 328.183594 42.15625 329.394531 41.695312 L 329.394531 40.90625 C 328.582031 41.21875 327.769531 41.445312 326.976562 41.613281 C 327.621094 40.757812 328.457031 39.34375 329.476562 37.34375 L 328.683594 37.03125 C 328.457031 37.507812 328.246094 37.945312 328.019531 38.382812 C 327.539062 38.46875 327.058594 38.550781 326.582031 38.632812 C 327.164062 37.71875 327.726562 36.488281 328.308594 34.945312 Z M 330.746094 41.84375 C 330.394531 42.84375 329.894531 43.800781 329.226562 44.738281 L 329.976562 45.15625 C 330.539062 44.34375 331.058594 43.34375 331.496094 42.15625 Z M 335.246094 41.84375 L 334.476562 42.09375 C 334.957031 42.96875 335.394531 43.988281 335.789062 45.15625 L 336.519531 44.820312 C 336.164062 43.757812 335.726562 42.78125 335.246094 41.84375 Z M 332.558594 45.488281 C 333.246094 45.488281 333.601562 45.175781 333.601562 44.53125 L 333.601562 41.15625 L 336.144531 41.15625 L 336.144531 40.382812 L 333.601562 40.382812 L 333.601562 38.050781 L 331.996094 38.050781 C 332.121094 37.65625 332.269531 37.195312 332.414062 36.757812 L 336.144531 36.757812 L 336.144531 35.945312 L 332.664062 35.945312 C 332.769531 35.550781 332.871094 35.15625 332.976562 34.738281 L 332.144531 34.59375 C 332.019531 35.050781 331.914062 35.507812 331.789062 35.945312 L 329.121094 35.945312 L 329.121094 36.757812 L 331.558594 36.757812 C 331.414062 37.195312 331.269531 37.632812 331.121094 38.050781 L 329.558594 38.050781 L 329.558594 38.84375 L 330.808594 38.84375 C 330.558594 39.40625 330.289062 39.945312 330.039062 40.40625 L 330.226562 41.15625 L 332.769531 41.15625 L 332.769531 44.28125 C 332.769531 44.59375 332.601562 44.738281 332.308594 44.738281 L 331.164062 44.695312 L 331.371094 45.488281 Z M 331.683594 38.84375 L 332.769531 38.84375 L 332.769531 40.382812 L 330.996094 40.382812 C 331.226562 39.90625 331.457031 39.382812 331.683594 38.84375 Z M 331.683594 38.84375 "/>
<path style=" stroke:none;fill-rule:nonzero;fill:rgb(0%,0%,0%);fill-opacity:1;" d="M 339.246094 34.632812 L 339.246094 36.90625 L 337.789062 36.90625 L 337.789062 37.738281 L 339.246094 37.738281 C 338.871094 39.238281 338.269531 40.59375 337.394531 41.78125 L 337.769531 42.71875 C 338.371094 41.78125 338.871094 40.738281 339.246094 39.613281 L 339.246094 45.59375 L 340.101562 45.59375 L 340.101562 39.570312 C 340.457031 40.03125 340.871094 40.632812 341.371094 41.382812 L 341.871094 40.65625 C 341.269531 39.925781 340.683594 39.257812 340.101562 38.65625 L 340.101562 37.738281 L 341.496094 37.738281 L 341.496094 36.90625 L 340.101562 36.90625 L 340.101562 34.632812 Z M 342.789062 40.050781 C 342.457031 41.550781 341.914062 42.882812 341.164062 44.113281 L 341.914062 44.59375 C 342.621094 43.363281 343.207031 41.925781 343.582031 40.238281 Z M 347.121094 40.007812 L 346.351562 40.257812 C 346.808594 41.550781 347.246094 43.03125 347.644531 44.695312 L 348.433594 44.34375 C 348.058594 42.800781 347.644531 41.363281 347.121094 40.007812 Z M 344.433594 45.46875 C 345.144531 45.46875 345.496094 45.113281 345.496094 44.40625 L 345.496094 39.070312 L 348.433594 39.070312 L 348.433594 38.238281 L 341.707031 38.238281 L 341.707031 39.070312 L 344.644531 39.070312 L 344.644531 44.195312 C 344.644531 44.53125 344.476562 44.71875 344.144531 44.71875 C 343.789062 44.71875 343.433594 44.695312 343.058594 44.675781 L 343.226562 45.46875 Z M 342.351562 35.320312 L 342.351562 36.132812 L 347.808594 36.132812 L 347.808594 35.320312 Z M 342.351562 35.320312 "/>
<path style=" stroke:none;fill-rule:nonzero;fill:rgb(0%,0%,0%);fill-opacity:1;" d="M 357.769531 41.46875 C 357.414062 42.613281 356.996094 43.570312 356.519531 44.382812 L 349.914062 44.382812 L 349.914062 45.195312 L 360.039062 45.195312 L 360.039062 44.382812 L 357.457031 44.382812 C 357.914062 43.59375 358.289062 42.695312 358.601562 41.695312 Z M 352.019531 41.613281 L 351.246094 41.863281 C 351.621094 42.570312 351.933594 43.300781 352.183594 44.070312 L 352.957031 43.863281 C 352.683594 43.03125 352.371094 42.257812 352.019531 41.613281 Z M 354.808594 41.382812 L 353.996094 41.632812 C 354.308594 42.382812 354.582031 43.15625 354.769531 43.96875 L 355.539062 43.757812 C 355.332031 42.863281 355.082031 42.070312 354.808594 41.382812 Z M 351.851562 40.238281 L 351.851562 40.988281 L 358.082031 40.988281 L 358.082031 40.238281 Z M 351.371094 36.40625 L 352.289062 36.40625 C 352.496094 36.863281 352.683594 37.363281 352.832031 37.863281 L 353.621094 37.570312 C 353.496094 37.21875 353.332031 36.820312 353.144531 36.40625 L 354.871094 36.40625 L 354.871094 35.632812 L 351.707031 35.632812 C 351.832031 35.34375 351.933594 35.050781 352.019531 34.738281 L 351.183594 34.570312 C 350.851562 35.675781 350.308594 36.675781 349.558594 37.59375 L 350.308594 38.050781 C 350.707031 37.550781 351.058594 37.007812 351.371094 36.40625 Z M 356.414062 36.40625 L 357.457031 36.40625 C 357.726562 36.90625 357.976562 37.425781 358.183594 37.96875 L 358.976562 37.675781 C 358.808594 37.28125 358.621094 36.863281 358.351562 36.40625 L 360.269531 36.40625 L 360.269531 35.632812 L 356.746094 35.632812 C 356.851562 35.34375 356.957031 35.050781 357.039062 34.738281 L 356.207031 34.570312 C 355.957031 35.507812 355.558594 36.34375 354.996094 37.113281 L 355.726562 37.570312 C 355.976562 37.21875 356.207031 36.820312 356.414062 36.40625 Z M 354.683594 37.59375 C 353.308594 38.613281 351.582031 39.46875 349.496094 40.15625 L 349.914062 40.90625 C 351.996094 40.175781 353.683594 39.300781 354.957031 38.300781 C 356.351562 39.382812 358.019531 40.238281 359.976562 40.90625 L 360.414062 40.175781 C 358.457031 39.550781 356.726562 38.675781 355.226562 37.59375 Z M 354.683594 37.59375 "/>
<path style=" stroke:none;fill-rule:nonzero;fill:rgb(69.803923%,85.09804%,100%);fill-opacity:1;" d="M 147.949219 60.265625 L 247.949219 60.265625 L 247.949219 18.265625 L 147.949219 18.265625 Z M 147.949219 60.265625 "/>
<path style="fill:none;stroke-width:1;stroke-linecap:round;stroke-linejoin:round;stroke:rgb(0%,0%,0%);stroke-opacity:1;stroke-miterlimit:10;" d="M 203.961914 82.699219 L 278.961914 82.699219 L 278.961914 114.199219 L 203.961914 114.199219 Z M 203.961914 82.699219 " transform="matrix(1.333333,0,0,1.333333,-124,-92)"/>
<path style=" stroke:none;fill-rule:nonzero;fill:rgb(0%,0%,0%);fill-opacity:1;" d="M 181.199219 36.390625 L 185.054688 36.390625 L 185.054688 35.558594 L 181.492188 35.558594 C 181.597656 35.121094 181.722656 34.683594 181.804688 34.203125 L 180.929688 34.039062 C 180.617188 35.765625 180.054688 37.121094 179.199219 38.140625 L 179.742188 38.828125 C 180.324219 38.183594 180.804688 37.351562 181.199219 36.390625 Z M 182.449219 37.203125 L 181.761719 37.640625 C 182.367188 38.453125 182.847656 39.183594 183.222656 39.851562 L 183.929688 39.351562 C 183.597656 38.746094 183.097656 38.039062 182.449219 37.203125 Z M 177.804688 34.101562 L 177.804688 40.015625 L 178.699219 40.015625 L 178.699219 34.101562 Z M 175.324219 34.683594 L 175.324219 39.578125 L 176.179688 39.578125 L 176.179688 34.683594 Z M 184.074219 40.621094 L 175.847656 40.621094 L 175.847656 43.953125 L 174.492188 43.953125 L 174.492188 44.746094 L 185.367188 44.746094 L 185.367188 43.953125 L 184.074219 43.953125 Z M 176.679688 43.953125 L 176.679688 41.414062 L 178.261719 41.414062 L 178.261719 43.953125 Z M 179.097656 43.953125 L 179.097656 41.414062 L 180.785156 41.414062 L 180.785156 43.953125 Z M 181.597656 43.953125 L 181.597656 41.414062 L 183.242188 41.414062 L 183.242188 43.953125 Z M 181.597656 43.953125 "/>
<path style=" stroke:none;fill-rule:nonzero;fill:rgb(0%,0%,0%);fill-opacity:1;" d="M 188.824219 34.121094 L 188.824219 36.140625 L 186.785156 36.140625 L 186.785156 36.871094 L 188.992188 36.871094 L 188.992188 39.414062 L 189.785156 39.414062 L 189.785156 36.871094 L 192.074219 36.871094 L 192.074219 36.140625 L 189.617188 36.140625 L 189.617188 35.390625 L 191.679688 35.390625 L 191.679688 34.726562 L 189.617188 34.726562 L 189.617188 34.121094 Z M 195.722656 39.726562 L 188.285156 39.726562 L 188.285156 45.164062 L 189.117188 45.164062 L 189.117188 44.664062 L 194.886719 44.664062 L 194.886719 45.164062 L 195.722656 45.164062 Z M 189.117188 43.996094 L 189.117188 43.226562 L 194.886719 43.226562 L 194.886719 43.996094 Z M 189.117188 42.601562 L 189.117188 41.789062 L 194.886719 41.789062 L 194.886719 42.601562 Z M 189.117188 41.183594 L 189.117188 40.390625 L 194.886719 40.390625 L 194.886719 41.183594 Z M 191.054688 37.246094 L 190.386719 37.476562 C 190.699219 37.976562 190.972656 38.578125 191.242188 39.226562 L 191.867188 38.933594 C 191.636719 38.351562 191.367188 37.789062 191.054688 37.246094 Z M 192.785156 35.621094 C 192.992188 36.476562 193.410156 37.203125 194.054688 37.851562 C 193.535156 38.203125 192.910156 38.515625 192.179688 38.746094 L 192.554688 39.476562 C 193.347656 39.183594 194.054688 38.808594 194.660156 38.371094 C 195.261719 38.828125 196.011719 39.226562 196.910156 39.539062 L 197.304688 38.828125 C 196.492188 38.539062 195.804688 38.226562 195.285156 37.871094 C 195.929688 37.226562 196.410156 36.476562 196.699219 35.601562 L 196.699219 34.871094 L 192.242188 34.871094 L 192.242188 35.621094 Z M 194.636719 37.390625 C 194.054688 36.851562 193.699219 36.289062 193.554688 35.621094 L 195.824219 35.621094 C 195.574219 36.289062 195.179688 36.871094 194.636719 37.390625 Z M 187.742188 37.246094 C 187.511719 37.953125 187.160156 38.601562 186.679688 39.183594 L 187.304688 39.578125 C 187.804688 38.976562 188.179688 38.226562 188.472656 37.390625 Z M 187.742188 37.246094 "/>
<path style=" stroke:none;fill-rule:nonzero;fill:rgb(0%,0%,0%);fill-opacity:1;" d="M 209.011719 36.558594 L 206.699219 36.558594 C 207.160156 35.976562 207.597656 35.246094 208.011719 34.390625 L 207.136719 34.058594 C 206.742188 34.953125 206.285156 35.789062 205.761719 36.558594 L 198.886719 36.558594 L 198.886719 39.246094 L 199.722656 39.246094 L 199.722656 37.390625 L 208.160156 37.390625 L 208.160156 39.246094 L 209.011719 39.246094 Z M 200.722656 38.414062 L 200.722656 39.183594 L 205.949219 39.183594 C 205.429688 39.476562 204.679688 39.828125 203.660156 40.265625 L 203.660156 41.265625 L 198.804688 41.265625 L 198.804688 42.078125 L 203.660156 42.078125 L 203.660156 43.808594 C 203.660156 44.140625 203.511719 44.308594 203.222656 44.308594 C 202.699219 44.308594 202.222656 44.308594 201.785156 44.289062 L 201.992188 45.078125 L 203.511719 45.078125 C 204.199219 45.078125 204.535156 44.765625 204.535156 44.121094 L 204.535156 42.078125 L 209.117188 42.078125 L 209.117188 41.265625 L 204.535156 41.265625 L 204.535156 40.664062 C 205.511719 40.183594 206.410156 39.683594 207.199219 39.183594 L 207.199219 38.414062 Z M 200.597656 34.246094 L 199.804688 34.621094 C 200.261719 35.183594 200.679688 35.789062 201.074219 36.496094 L 201.824219 36.121094 C 201.449219 35.433594 201.011719 34.808594 200.597656 34.246094 Z M 203.492188 34.015625 L 202.722656 34.390625 C 203.117188 34.976562 203.511719 35.621094 203.867188 36.371094 L 204.636719 35.996094 C 204.285156 35.265625 203.886719 34.601562 203.492188 34.015625 Z M 203.492188 34.015625 "/>
<path style=" stroke:none;fill-rule:nonzero;fill:rgb(0%,0%,0%);fill-opacity:1;" d="M 217.636719 39.765625 C 215.847656 40.871094 213.699219 41.789062 211.199219 42.558594 L 211.554688 43.351562 C 214.074219 42.539062 216.160156 41.601562 217.867188 40.539062 Z M 212.867188 36.890625 L 212.261719 37.476562 C 213.324219 38.265625 214.179688 39.015625 214.804688 39.746094 L 215.386719 39.140625 C 214.699219 38.390625 213.867188 37.640625 212.867188 36.890625 Z M 216.386719 45.058594 C 217.160156 45.039062 217.804688 45.015625 218.304688 45.015625 C 218.972656 45.015625 219.386719 44.808594 219.617188 44.371094 C 219.867188 43.953125 220.011719 43.140625 220.054688 41.953125 C 220.097656 41.183594 220.160156 38.828125 220.199219 34.871094 L 211.492188 34.871094 L 211.492188 35.703125 L 219.324219 35.703125 C 219.304688 38.640625 219.304688 40.515625 219.285156 41.371094 C 219.242188 42.621094 219.136719 43.433594 218.949219 43.765625 C 218.761719 44.078125 218.492188 44.265625 218.136719 44.265625 C 217.472656 44.265625 216.804688 44.246094 216.160156 44.226562 Z M 216.386719 45.058594 "/>
<path style=" stroke:none;fill-rule:nonzero;fill:rgb(40.000001%,74.901962%,100%);fill-opacity:1;" d="M 147.949219 122.667969 L 247.949219 122.667969 L 247.949219 80.667969 L 147.949219 80.667969 Z M 147.949219 122.667969 "/>
<path style="fill:none;stroke-width:1;stroke-linecap:round;stroke-linejoin:round;stroke:rgb(0%,0%,0%);stroke-opacity:1;stroke-miterlimit:10;" d="M 203.961914 129.500977 L 278.961914 129.500977 L 278.961914 161.000977 L 203.961914 161.000977 Z M 203.961914 129.500977 " transform="matrix(1.333333,0,0,1.333333,-124,-92)"/>
<path style=" stroke:none;fill-rule:nonzero;fill:rgb(0%,0%,0%);fill-opacity:1;" d="M 190.136719 97.519531 L 190.136719 98.292969 L 191.886719 98.292969 L 191.886719 99.1875 L 192.699219 99.1875 L 192.699219 98.292969 L 194.617188 98.292969 L 194.617188 99.1875 L 195.449219 99.1875 L 195.449219 98.292969 L 197.304688 98.292969 L 197.304688 97.519531 L 195.449219 97.519531 L 195.449219 96.5625 L 194.617188 96.5625 L 194.617188 97.519531 L 192.699219 97.519531 L 192.699219 96.5625 L 191.886719 96.5625 L 191.886719 97.519531 Z M 193.511719 105.0625 C 194.199219 106.0625 195.324219 106.894531 196.886719 107.5625 L 197.449219 106.875 C 196.035156 106.375 194.992188 105.730469 194.285156 104.894531 L 197.324219 104.894531 L 197.324219 104.105469 L 193.867188 104.105469 C 193.949219 103.832031 194.011719 103.542969 194.054688 103.207031 L 196.511719 103.207031 L 196.511719 99.5625 L 190.785156 99.5625 L 190.785156 103.207031 L 193.304688 103.207031 C 193.242188 103.519531 193.160156 103.832031 193.074219 104.105469 L 189.910156 104.105469 L 189.910156 104.894531 L 192.699219 104.894531 C 192.617188 105.082031 192.492188 105.230469 192.367188 105.375 C 191.847656 106 190.992188 106.457031 189.785156 106.792969 L 190.097656 107.5 C 191.492188 107.105469 192.449219 106.582031 192.992188 105.875 C 193.179688 105.644531 193.367188 105.355469 193.511719 105.0625 Z M 188.972656 101.394531 C 189.285156 101.875 189.679688 102.519531 190.117188 103.3125 L 190.574219 102.625 C 190.011719 101.8125 189.492188 101.105469 188.972656 100.480469 L 188.972656 99.6875 L 190.242188 99.6875 L 190.242188 98.894531 L 188.972656 98.894531 L 188.972656 96.582031 L 188.160156 96.582031 L 188.160156 98.894531 L 186.761719 98.894531 L 186.761719 99.6875 L 188.160156 99.6875 L 188.160156 99.75 C 187.804688 101.230469 187.199219 102.519531 186.367188 103.667969 L 186.742188 104.605469 C 187.324219 103.6875 187.785156 102.644531 188.160156 101.519531 L 188.160156 107.5 L 188.972656 107.5 Z M 195.742188 102.519531 L 191.554688 102.519531 L 191.554688 101.707031 L 195.742188 101.707031 Z M 191.554688 101.0625 L 191.554688 100.269531 L 195.742188 100.269531 L 195.742188 101.0625 Z M 191.554688 101.0625 "/>
<path style=" stroke:none;fill-rule:nonzero;fill:rgb(0%,0%,0%);fill-opacity:1;" d="M 199.074219 97.0625 L 199.074219 97.832031 L 200.285156 97.832031 L 200.285156 99.644531 L 198.761719 99.644531 L 198.761719 100.4375 L 200.242188 100.4375 C 200.117188 101.417969 199.722656 102.144531 199.054688 102.644531 L 199.699219 103.207031 C 200.492188 102.582031 200.949219 101.667969 201.074219 100.4375 L 202.660156 100.4375 L 202.660156 103.0625 L 203.492188 103.0625 L 203.492188 100.4375 L 204.972656 100.4375 L 204.972656 99.644531 L 203.492188 99.644531 L 203.492188 97.832031 L 204.699219 97.832031 L 204.699219 97.0625 Z M 201.117188 97.832031 L 202.660156 97.832031 L 202.660156 99.644531 L 201.117188 99.644531 Z M 205.679688 97.355469 L 205.679688 101.480469 L 206.511719 101.480469 L 206.511719 97.355469 Z M 199.347656 104.25 L 199.347656 105.042969 L 203.574219 105.042969 L 203.574219 106.4375 L 198.679688 106.4375 L 198.679688 107.230469 L 209.222656 107.230469 L 209.222656 106.4375 L 204.429688 106.4375 L 204.429688 105.042969 L 208.554688 105.042969 L 208.554688 104.25 L 204.429688 104.25 L 204.429688 103.207031 L 203.574219 103.207031 L 203.574219 104.25 Z M 207.722656 103.1875 C 208.347656 103.1875 208.679688 102.8125 208.679688 102.082031 L 208.679688 96.6875 L 207.847656 96.6875 L 207.847656 101.875 C 207.847656 102.230469 207.699219 102.417969 207.429688 102.417969 C 206.949219 102.417969 206.449219 102.394531 205.929688 102.355469 L 206.117188 103.1875 Z M 207.722656 103.1875 "/>
<path style=" stroke:none;fill-rule:nonzero;fill:rgb(100%,100%,100%);fill-opacity:1;" d="M 286.953125 122.667969 L 386.953125 122.667969 L 386.953125 80.667969 L 286.953125 80.667969 Z M 286.953125 122.667969 "/>
<path style="fill:none;stroke-width:1;stroke-linecap:round;stroke-linejoin:round;stroke:rgb(0%,0%,0%);stroke-opacity:1;stroke-miterlimit:10;" d="M 308.214844 129.500977 L 383.214844 129.500977 L 383.214844 161.000977 L 308.214844 161.000977 Z M 308.214844 129.500977 " transform="matrix(1.333333,0,0,1.333333,-124,-92)"/>
<path style=" stroke:none;fill-rule:nonzero;fill:rgb(0%,0%,0%);fill-opacity:1;" d="M 327.707031 99.875 L 327.707031 101.644531 L 326.519531 101.644531 C 326.808594 100.875 327.101562 100 327.351562 99.019531 L 329.664062 99.019531 L 329.664062 98.207031 L 327.558594 98.207031 C 327.664062 97.730469 327.769531 97.207031 327.894531 96.667969 L 327.101562 96.5 C 326.976562 97.082031 326.871094 97.667969 326.746094 98.207031 L 325.558594 98.207031 L 325.558594 99.019531 L 326.558594 99.019531 C 326.289062 100.082031 325.996094 101 325.644531 101.707031 L 325.832031 102.4375 L 327.707031 102.4375 L 327.707031 104.230469 C 326.996094 104.355469 326.269531 104.480469 325.476562 104.5625 L 325.582031 105.417969 C 326.308594 105.292969 327.019531 105.1875 327.707031 105.042969 L 327.707031 107.542969 L 328.496094 107.542969 L 328.496094 104.875 L 329.644531 104.582031 L 329.644531 103.769531 C 329.289062 103.855469 328.914062 103.957031 328.496094 104.0625 L 328.496094 102.4375 L 329.601562 102.4375 L 329.601562 101.644531 L 328.496094 101.644531 L 328.496094 99.875 Z M 331.246094 99.25 L 331.246094 99.957031 L 334.683594 99.957031 L 334.683594 99.25 L 331.246094 99.25 C 331.851562 98.667969 332.433594 98.019531 332.996094 97.332031 C 333.914062 98.5 334.933594 99.5 336.058594 100.3125 L 336.519531 99.644531 C 335.433594 98.875 334.371094 97.855469 333.308594 96.5625 L 332.707031 96.5625 C 331.726562 97.75 330.621094 98.8125 329.394531 99.707031 L 329.871094 100.4375 C 330.332031 100.0625 330.789062 99.667969 331.246094 99.25 Z M 332.082031 107.457031 C 332.664062 107.457031 332.976562 107.144531 332.976562 106.519531 L 332.976562 100.917969 L 330.144531 100.917969 L 330.144531 107.542969 L 330.894531 107.542969 L 330.894531 105.292969 L 332.246094 105.292969 L 332.246094 106.375 C 332.246094 106.625 332.101562 106.769531 331.851562 106.769531 L 331.308594 106.75 L 331.496094 107.457031 Z M 330.894531 104.625 L 330.894531 103.480469 L 332.246094 103.480469 L 332.246094 104.625 Z M 330.894531 102.8125 L 330.894531 101.625 L 332.246094 101.625 L 332.246094 102.8125 Z M 333.683594 101.25 L 333.683594 105.5625 L 334.371094 105.5625 L 334.371094 101.25 Z M 334.996094 107.480469 C 335.582031 107.480469 335.871094 107.125 335.871094 106.4375 L 335.871094 100.707031 L 335.121094 100.707031 L 335.121094 106.25 C 335.121094 106.582031 334.996094 106.769531 334.726562 106.769531 C 334.433594 106.769531 334.121094 106.75 333.808594 106.707031 L 333.976562 107.480469 Z M 334.996094 107.480469 "/>
<path style=" stroke:none;fill-rule:nonzero;fill:rgb(0%,0%,0%);fill-opacity:1;" d="M 346.207031 100.707031 L 343.394531 100.707031 L 343.394531 96.519531 L 342.519531 96.519531 L 342.519531 100.707031 L 339.707031 100.707031 L 339.707031 97.4375 L 338.832031 97.4375 L 338.832031 101.542969 L 342.519531 101.542969 L 342.519531 105.957031 L 339.121094 105.957031 L 339.121094 102.667969 L 338.246094 102.667969 L 338.246094 107.457031 L 339.121094 107.457031 L 339.121094 106.769531 L 346.789062 106.769531 L 346.789062 107.457031 L 347.664062 107.457031 L 347.664062 102.667969 L 346.789062 102.667969 L 346.789062 105.957031 L 343.394531 105.957031 L 343.394531 101.542969 L 347.082031 101.542969 L 347.082031 97.4375 L 346.207031 97.4375 Z M 346.207031 100.707031 "/>
<path style="fill:none;stroke-width:1;stroke-linecap:round;stroke-linejoin:miter;stroke:rgb(0%,0%,0%);stroke-opacity:1;stroke-miterlimit:10;" d="M 308.214844 98.674805 L 284.862305 98.598633 " transform="matrix(1.333333,0,0,1.333333,-124,-92)"/>
<path style="fill:none;stroke-width:1;stroke-linecap:butt;stroke-linejoin:miter;stroke:rgb(0%,0%,0%);stroke-opacity:1;stroke-miterlimit:10;" d="M 280.863281 98.581055 L 284.862305 98.598633 M 284.856445 100.098633 L 280.863281 98.581055 L 284.868164 97.098633 " transform="matrix(1.333333,0,0,1.333333,-124,-92)"/>
<path style="fill:none;stroke-width:1;stroke-linecap:round;stroke-linejoin:miter;stroke:rgb(0%,0%,0%);stroke-opacity:1;stroke-miterlimit:10;" d="M 241.461914 114.199219 L 241.461914 123.600586 " transform="matrix(1.333333,0,0,1.333333,-124,-92)"/>
<path style="fill:none;stroke-width:1;stroke-linecap:butt;stroke-linejoin:miter;stroke:rgb(0%,0%,0%);stroke-opacity:1;stroke-miterlimit:10;" d="M 241.461914 127.602539 L 241.461914 123.600586 M 242.961914 123.600586 L 241.461914 127.602539 L 239.961914 123.600586 " transform="matrix(1.333333,0,0,1.333333,-124,-92)"/>
<path style="fill:none;stroke-width:1;stroke-linecap:round;stroke-linejoin:miter;stroke:rgb(0%,0%,0%);stroke-opacity:1;stroke-miterlimit:10;" d="M 168.667969 145.250977 L 198.061523 145.250977 " transform="matrix(1.333333,0,0,1.333333,-124,-92)"/>
<path style="fill:none;stroke-width:1;stroke-linecap:butt;stroke-linejoin:miter;stroke:rgb(0%,0%,0%);stroke-opacity:1;stroke-miterlimit:10;" d="M 202.063477 145.250977 L 198.061523 145.250977 M 198.061523 143.750977 L 202.063477 145.250977 L 198.061523 146.750977 " transform="matrix(1.333333,0,0,1.333333,-124,-92)"/>
<path style="fill:none;stroke-width:1;stroke-linecap:round;stroke-linejoin:miter;stroke:rgb(0%,0%,0%);stroke-opacity:1;stroke-miterlimit:10;" d="M 278.961914 145.250977 L 302.317383 145.250977 " transform="matrix(1.333333,0,0,1.333333,-124,-92)"/>
<path style="fill:none;stroke-width:1;stroke-linecap:butt;stroke-linejoin:miter;stroke:rgb(0%,0%,0%);stroke-opacity:1;stroke-miterlimit:10;" d="M 306.316406 145.250977 L 302.317383 145.250977 M 302.317383 143.750977 L 306.316406 145.250977 L 302.317383 146.750977 " transform="matrix(1.333333,0,0,1.333333,-124,-92)"/>
</g>
</svg>
